%TF.GenerationSoftware,KiCad,Pcbnew,9.0.6*%
%TF.CreationDate,2025-12-07T15:32:32-06:00*%
%TF.ProjectId,Devboard,44657662-6f61-4726-942e-6b696361645f,rev?*%
%TF.SameCoordinates,Original*%
%TF.FileFunction,Copper,L1,Top*%
%TF.FilePolarity,Positive*%
%FSLAX46Y46*%
G04 Gerber Fmt 4.6, Leading zero omitted, Abs format (unit mm)*
G04 Created by KiCad (PCBNEW 9.0.6) date 2025-12-07 15:32:32*
%MOMM*%
%LPD*%
G01*
G04 APERTURE LIST*
G04 Aperture macros list*
%AMRoundRect*
0 Rectangle with rounded corners*
0 $1 Rounding radius*
0 $2 $3 $4 $5 $6 $7 $8 $9 X,Y pos of 4 corners*
0 Add a 4 corners polygon primitive as box body*
4,1,4,$2,$3,$4,$5,$6,$7,$8,$9,$2,$3,0*
0 Add four circle primitives for the rounded corners*
1,1,$1+$1,$2,$3*
1,1,$1+$1,$4,$5*
1,1,$1+$1,$6,$7*
1,1,$1+$1,$8,$9*
0 Add four rect primitives between the rounded corners*
20,1,$1+$1,$2,$3,$4,$5,0*
20,1,$1+$1,$4,$5,$6,$7,0*
20,1,$1+$1,$6,$7,$8,$9,0*
20,1,$1+$1,$8,$9,$2,$3,0*%
G04 Aperture macros list end*
%TA.AperFunction,SMDPad,CuDef*%
%ADD10RoundRect,0.140000X-0.140000X-0.170000X0.140000X-0.170000X0.140000X0.170000X-0.140000X0.170000X0*%
%TD*%
%TA.AperFunction,SMDPad,CuDef*%
%ADD11RoundRect,0.140000X-0.170000X0.140000X-0.170000X-0.140000X0.170000X-0.140000X0.170000X0.140000X0*%
%TD*%
%TA.AperFunction,HeatsinkPad*%
%ADD12R,0.200000X1.600000*%
%TD*%
%TA.AperFunction,SMDPad,CuDef*%
%ADD13RoundRect,0.062500X-0.387500X-0.062500X0.387500X-0.062500X0.387500X0.062500X-0.387500X0.062500X0*%
%TD*%
%TA.AperFunction,SMDPad,CuDef*%
%ADD14RoundRect,0.150000X0.150000X-0.587500X0.150000X0.587500X-0.150000X0.587500X-0.150000X-0.587500X0*%
%TD*%
%TA.AperFunction,SMDPad,CuDef*%
%ADD15RoundRect,0.140000X0.140000X0.170000X-0.140000X0.170000X-0.140000X-0.170000X0.140000X-0.170000X0*%
%TD*%
%TA.AperFunction,SMDPad,CuDef*%
%ADD16RoundRect,0.140000X0.170000X-0.140000X0.170000X0.140000X-0.170000X0.140000X-0.170000X-0.140000X0*%
%TD*%
%TA.AperFunction,SMDPad,CuDef*%
%ADD17R,0.600000X1.450000*%
%TD*%
%TA.AperFunction,SMDPad,CuDef*%
%ADD18R,0.300000X1.450000*%
%TD*%
%TA.AperFunction,HeatsinkPad*%
%ADD19O,1.000000X2.100000*%
%TD*%
%TA.AperFunction,HeatsinkPad*%
%ADD20O,1.000000X1.600000*%
%TD*%
%TA.AperFunction,ComponentPad*%
%ADD21R,1.700000X1.700000*%
%TD*%
%TA.AperFunction,ComponentPad*%
%ADD22C,1.700000*%
%TD*%
%TA.AperFunction,SMDPad,CuDef*%
%ADD23RoundRect,0.135000X-0.185000X0.135000X-0.185000X-0.135000X0.185000X-0.135000X0.185000X0.135000X0*%
%TD*%
%TA.AperFunction,SMDPad,CuDef*%
%ADD24RoundRect,0.135000X0.135000X0.185000X-0.135000X0.185000X-0.135000X-0.185000X0.135000X-0.185000X0*%
%TD*%
%TA.AperFunction,SMDPad,CuDef*%
%ADD25R,1.600000X0.850000*%
%TD*%
%TA.AperFunction,SMDPad,CuDef*%
%ADD26RoundRect,0.250000X0.350000X-0.450000X0.350000X0.450000X-0.350000X0.450000X-0.350000X-0.450000X0*%
%TD*%
%TA.AperFunction,SMDPad,CuDef*%
%ADD27RoundRect,0.135000X0.185000X-0.135000X0.185000X0.135000X-0.185000X0.135000X-0.185000X-0.135000X0*%
%TD*%
%TA.AperFunction,SMDPad,CuDef*%
%ADD28RoundRect,0.200000X-0.800000X0.200000X-0.800000X-0.200000X0.800000X-0.200000X0.800000X0.200000X0*%
%TD*%
%TA.AperFunction,SMDPad,CuDef*%
%ADD29RoundRect,0.050000X-0.387500X-0.050000X0.387500X-0.050000X0.387500X0.050000X-0.387500X0.050000X0*%
%TD*%
%TA.AperFunction,SMDPad,CuDef*%
%ADD30RoundRect,0.050000X-0.050000X-0.387500X0.050000X-0.387500X0.050000X0.387500X-0.050000X0.387500X0*%
%TD*%
%TA.AperFunction,HeatsinkPad*%
%ADD31R,3.200000X3.200000*%
%TD*%
%TA.AperFunction,SMDPad,CuDef*%
%ADD32RoundRect,0.135000X-0.135000X-0.185000X0.135000X-0.185000X0.135000X0.185000X-0.135000X0.185000X0*%
%TD*%
%TA.AperFunction,ViaPad*%
%ADD33C,0.600000*%
%TD*%
%TA.AperFunction,Conductor*%
%ADD34C,0.200000*%
%TD*%
%TA.AperFunction,Conductor*%
%ADD35C,0.180000*%
%TD*%
G04 APERTURE END LIST*
D10*
%TO.P,C11,1*%
%TO.N,+1V1*%
X215870000Y-84200000D03*
%TO.P,C11,2*%
%TO.N,GND*%
X216830000Y-84200000D03*
%TD*%
%TO.P,C12,1*%
%TO.N,+1V1*%
X215820000Y-85300000D03*
%TO.P,C12,2*%
%TO.N,GND*%
X216780000Y-85300000D03*
%TD*%
D11*
%TO.P,C2,2*%
%TO.N,GND*%
X216150000Y-91480000D03*
%TO.P,C2,1*%
%TO.N,+3V3*%
X216150000Y-90520000D03*
%TD*%
D12*
%TO.P,U3,9*%
%TO.N,N/C*%
X209425000Y-83050000D03*
D13*
%TO.P,U3,8,VCC*%
%TO.N,+3V3*%
X210850000Y-82300000D03*
%TO.P,U3,7,~{HOLD}/~{RESET}/IO_{3}*%
%TO.N,QPSI_SD3*%
X210850000Y-82800000D03*
%TO.P,U3,6,CLK*%
%TO.N,QPSI_SCLK*%
X210850000Y-83300000D03*
%TO.P,U3,5,DI/IO_{0}*%
%TO.N,QPSI_SD0*%
X210850000Y-83800000D03*
%TO.P,U3,4,GND*%
%TO.N,GND*%
X208000000Y-83800000D03*
%TO.P,U3,3,~{WP}/IO_{2}*%
%TO.N,QPSI_SD2*%
X208000000Y-83300000D03*
%TO.P,U3,2,DO/IO_{1}*%
%TO.N,QPSI_SD1*%
X208000000Y-82800000D03*
%TO.P,U3,1,~{CS}*%
%TO.N,QPSI_SS*%
X208000000Y-82300000D03*
%TD*%
D14*
%TO.P,U2,1,GND*%
%TO.N,GND*%
X208250000Y-71050000D03*
%TO.P,U2,2,VO*%
%TO.N,+3V3*%
X210150000Y-71050000D03*
%TO.P,U2,3,VI*%
%TO.N,VBUS*%
X209200000Y-69175000D03*
%TD*%
D11*
%TO.P,C17,1*%
%TO.N,+3V3*%
X208769000Y-77292000D03*
%TO.P,C17,2*%
%TO.N,GND*%
X208769000Y-78252000D03*
%TD*%
D15*
%TO.P,C8,1*%
%TO.N,+3V3*%
X211080000Y-80700000D03*
%TO.P,C8,2*%
%TO.N,GND*%
X210120000Y-80700000D03*
%TD*%
D16*
%TO.P,C16,1*%
%TO.N,GND*%
X212450000Y-101280000D03*
%TO.P,C16,2*%
%TO.N,Net-(C16-Pad2)*%
X212450000Y-100320000D03*
%TD*%
D10*
%TO.P,C3,1*%
%TO.N,+3V3*%
X216020000Y-86350000D03*
%TO.P,C3,2*%
%TO.N,GND*%
X216980000Y-86350000D03*
%TD*%
D17*
%TO.P,J1,A1,GND*%
%TO.N,GND*%
X214213000Y-66614000D03*
%TO.P,J1,A4,VBUS*%
%TO.N,VBUS*%
X213413000Y-66614000D03*
D18*
%TO.P,J1,A5,CC1*%
%TO.N,Net-(J1-CC1)*%
X212213000Y-66614000D03*
%TO.P,J1,A6,D+*%
%TO.N,USB_D-*%
X211213000Y-66614000D03*
%TO.P,J1,A7,D-*%
%TO.N,USB_D+*%
X210713000Y-66614000D03*
%TO.P,J1,A8*%
%TO.N,N/C*%
X209713000Y-66614000D03*
D17*
%TO.P,J1,A9,VBUS*%
%TO.N,VBUS*%
X208513000Y-66614000D03*
%TO.P,J1,A12,GND*%
%TO.N,GND*%
X207713000Y-66614000D03*
%TO.P,J1,B1,GND*%
X207713000Y-66614000D03*
%TO.P,J1,B4,VBUS*%
%TO.N,VBUS*%
X208513000Y-66614000D03*
D18*
%TO.P,J1,B5,CC2*%
%TO.N,Net-(J1-CC2)*%
X209213000Y-66614000D03*
%TO.P,J1,B6,D+*%
%TO.N,USB_D-*%
X210213000Y-66614000D03*
%TO.P,J1,B7,D-*%
%TO.N,USB_D+*%
X211713000Y-66614000D03*
%TO.P,J1,B8*%
%TO.N,N/C*%
X212713000Y-66614000D03*
D17*
%TO.P,J1,B9,VBUS*%
%TO.N,VBUS*%
X213413000Y-66614000D03*
%TO.P,J1,B12,GND*%
%TO.N,GND*%
X214213000Y-66614000D03*
D19*
%TO.P,J1,S1,SHIELD*%
X215283000Y-65699000D03*
D20*
X215283000Y-61519000D03*
D19*
X206643000Y-65699000D03*
D20*
X206643000Y-61519000D03*
%TD*%
D11*
%TO.P,C9,1*%
%TO.N,+3V3*%
X213200000Y-95070000D03*
%TO.P,C9,2*%
%TO.N,GND*%
X213200000Y-96030000D03*
%TD*%
D21*
%TO.P,J3,1,Pin_1*%
%TO.N,VBUS*%
X220164000Y-61958000D03*
D22*
%TO.P,J3,2,Pin_2*%
%TO.N,GPIO29_ADC3*%
X220164000Y-64498000D03*
%TO.P,J3,3,Pin_3*%
%TO.N,GND*%
X220164000Y-67038000D03*
%TO.P,J3,4,Pin_4*%
%TO.N,GPIO28_ADC2*%
X220164000Y-69578000D03*
%TO.P,J3,5,Pin_5*%
%TO.N,+3V3*%
X220164000Y-72118000D03*
%TO.P,J3,6,Pin_6*%
%TO.N,GPIO27_ADC1*%
X220164000Y-74658000D03*
%TO.P,J3,7,Pin_7*%
%TO.N,GPIO26_ADC0*%
X220164000Y-77198000D03*
%TO.P,J3,8,Pin_8*%
%TO.N,GND*%
X220164000Y-79738000D03*
%TO.P,J3,9,Pin_9*%
%TO.N,GPIO24*%
X220164000Y-82278000D03*
%TO.P,J3,10,Pin_10*%
%TO.N,GPIO23*%
X220164000Y-84818000D03*
%TO.P,J3,11,Pin_11*%
%TO.N,RUN*%
X220164000Y-87358000D03*
%TO.P,J3,12,Pin_12*%
%TO.N,GPIO22*%
X220164000Y-89898000D03*
%TO.P,J3,13,Pin_13*%
%TO.N,GND*%
X220164000Y-92438000D03*
%TO.P,J3,14,Pin_14*%
%TO.N,GPIO21*%
X220164000Y-94978000D03*
%TO.P,J3,15,Pin_15*%
%TO.N,GPIO20*%
X220164000Y-97518000D03*
%TO.P,J3,16,Pin_16*%
%TO.N,GPIO19*%
X220164000Y-100058000D03*
%TO.P,J3,17,Pin_17*%
%TO.N,GPIO18*%
X220164000Y-102598000D03*
%TO.P,J3,18,Pin_18*%
%TO.N,GND*%
X220164000Y-105138000D03*
%TO.P,J3,19,Pin_19*%
%TO.N,GPIO17*%
X220164000Y-107678000D03*
%TO.P,J3,20,Pin_20*%
%TO.N,GPIO16*%
X220164000Y-110218000D03*
%TD*%
D15*
%TO.P,C4,1*%
%TO.N,+3V3*%
X206779000Y-70688000D03*
%TO.P,C4,2*%
%TO.N,GND*%
X205819000Y-70688000D03*
%TD*%
D11*
%TO.P,C10,1*%
%TO.N,+1V1*%
X205200000Y-85870000D03*
%TO.P,C10,2*%
%TO.N,GND*%
X205200000Y-86830000D03*
%TD*%
D16*
%TO.P,C1,1*%
%TO.N,+3V3*%
X210850000Y-79580000D03*
%TO.P,C1,2*%
%TO.N,GND*%
X210850000Y-78620000D03*
%TD*%
D23*
%TO.P,R2,1*%
%TO.N,Net-(C16-Pad2)*%
X211400000Y-100300000D03*
%TO.P,R2,2*%
%TO.N,XOUT*%
X211400000Y-101320000D03*
%TD*%
D24*
%TO.P,R7,1*%
%TO.N,Net-(R7-Pad1)*%
X208820000Y-81200000D03*
%TO.P,R7,2*%
%TO.N,QPSI_SS*%
X207800000Y-81200000D03*
%TD*%
D16*
%TO.P,C15,1*%
%TO.N,GND*%
X208500000Y-96980000D03*
%TO.P,C15,2*%
%TO.N,XIN*%
X208500000Y-96020000D03*
%TD*%
D21*
%TO.P,J2,1,Pin_1*%
%TO.N,GPIO0*%
X201641000Y-62011000D03*
D22*
%TO.P,J2,2,Pin_2*%
%TO.N,GPIO1*%
X201641000Y-64551000D03*
%TO.P,J2,3,Pin_3*%
%TO.N,GND*%
X201641000Y-67091000D03*
%TO.P,J2,4,Pin_4*%
%TO.N,GPIO2*%
X201641000Y-69631000D03*
%TO.P,J2,5,Pin_5*%
%TO.N,GPIO3*%
X201641000Y-72171000D03*
%TO.P,J2,6,Pin_6*%
%TO.N,GPIO4*%
X201641000Y-74711000D03*
%TO.P,J2,7,Pin_7*%
%TO.N,GPIO5*%
X201641000Y-77251000D03*
%TO.P,J2,8,Pin_8*%
%TO.N,GND*%
X201641000Y-79791000D03*
%TO.P,J2,9,Pin_9*%
%TO.N,GPIO6*%
X201641000Y-82331000D03*
%TO.P,J2,10,Pin_10*%
%TO.N,GPIO7*%
X201641000Y-84871000D03*
%TO.P,J2,11,Pin_11*%
%TO.N,GPIO8*%
X201641000Y-87411000D03*
%TO.P,J2,12,Pin_12*%
%TO.N,GPIO9*%
X201641000Y-89951000D03*
%TO.P,J2,13,Pin_13*%
%TO.N,GND*%
X201641000Y-92491000D03*
%TO.P,J2,14,Pin_14*%
%TO.N,GPIO10*%
X201641000Y-95031000D03*
%TO.P,J2,15,Pin_15*%
%TO.N,GPIO11*%
X201641000Y-97571000D03*
%TO.P,J2,16,Pin_16*%
%TO.N,GPIO12*%
X201641000Y-100111000D03*
%TO.P,J2,17,Pin_17*%
%TO.N,GPIO13*%
X201641000Y-102651000D03*
%TO.P,J2,18,Pin_18*%
%TO.N,GND*%
X201641000Y-105191000D03*
%TO.P,J2,19,Pin_19*%
%TO.N,GPIO14*%
X201641000Y-107731000D03*
%TO.P,J2,20,Pin_20*%
%TO.N,GPIO15*%
X201641000Y-110271000D03*
%TD*%
D15*
%TO.P,C14,1*%
%TO.N,VBUS*%
X205021000Y-67468000D03*
%TO.P,C14,2*%
%TO.N,GND*%
X204061000Y-67468000D03*
%TD*%
D25*
%TO.P,D1,1,DOUT*%
%TO.N,Net-(D1-DOUT)*%
X210000000Y-106975000D03*
%TO.P,D1,2,VSS*%
%TO.N,GND*%
X210000000Y-105225000D03*
%TO.P,D1,3,DIN*%
%TO.N,GPIO25*%
X206500000Y-105225000D03*
%TO.P,D1,4,VDD*%
%TO.N,+5V*%
X206500000Y-106975000D03*
%TD*%
D23*
%TO.P,R5,1*%
%TO.N,USB_D-*%
X213750000Y-83640000D03*
%TO.P,R5,2*%
%TO.N,Net-(U1-USB_DM)*%
X213750000Y-84660000D03*
%TD*%
D16*
%TO.P,C7,1*%
%TO.N,+3V3*%
X206750000Y-90230000D03*
%TO.P,C7,2*%
%TO.N,GND*%
X206750000Y-89270000D03*
%TD*%
D21*
%TO.P,J4,1,Pin_1*%
%TO.N,SWCLK*%
X205200000Y-110250000D03*
D22*
%TO.P,J4,2,Pin_2*%
%TO.N,GND*%
X207740000Y-110250000D03*
%TO.P,J4,3,Pin_3*%
%TO.N,SWD*%
X210280000Y-110250000D03*
%TD*%
D26*
%TO.P,Y1,1,1*%
%TO.N,Net-(C16-Pad2)*%
X211650000Y-98300000D03*
%TO.P,Y1,2,2*%
%TO.N,GND*%
X211650000Y-96100000D03*
%TO.P,Y1,3,3*%
%TO.N,XIN*%
X209950000Y-96100000D03*
%TO.P,Y1,4,4*%
%TO.N,GND*%
X209950000Y-98300000D03*
%TD*%
D25*
%TO.P,D2,1,DOUT*%
%TO.N,Net-(D2-DOUT)*%
X216600000Y-106625000D03*
%TO.P,D2,2,VSS*%
%TO.N,GND*%
X216600000Y-104875000D03*
%TO.P,D2,3,DIN*%
%TO.N,Net-(D1-DOUT)*%
X213100000Y-104875000D03*
%TO.P,D2,4,VDD*%
%TO.N,+5V*%
X213100000Y-106625000D03*
%TD*%
D15*
%TO.P,C6,1*%
%TO.N,+3V3*%
X206779000Y-68454000D03*
%TO.P,C6,2*%
%TO.N,GND*%
X205819000Y-68454000D03*
%TD*%
D27*
%TO.P,R3,1*%
%TO.N,Net-(J1-CC2)*%
X205153000Y-65121000D03*
%TO.P,R3,2*%
%TO.N,GND*%
X205153000Y-64101000D03*
%TD*%
D23*
%TO.P,R4,1*%
%TO.N,USB_D+*%
X214800000Y-83640000D03*
%TO.P,R4,2*%
%TO.N,Net-(U1-USB_DP)*%
X214800000Y-84660000D03*
%TD*%
D10*
%TO.P,C13,1*%
%TO.N,+3V3*%
X209770000Y-77400000D03*
%TO.P,C13,2*%
%TO.N,GND*%
X210730000Y-77400000D03*
%TD*%
D28*
%TO.P,SW1,1,1*%
%TO.N,GND*%
X213400000Y-76950000D03*
%TO.P,SW1,2,2*%
%TO.N,Net-(R7-Pad1)*%
X213400000Y-81150000D03*
%TD*%
D25*
%TO.P,D3,1,DOUT*%
%TO.N,unconnected-(D3-DOUT-Pad1)*%
X213200000Y-109075000D03*
%TO.P,D3,2,VSS*%
%TO.N,GND*%
X213200000Y-110825000D03*
%TO.P,D3,3,DIN*%
%TO.N,Net-(D2-DOUT)*%
X216700000Y-110825000D03*
%TO.P,D3,4,VDD*%
%TO.N,+5V*%
X216700000Y-109075000D03*
%TD*%
D15*
%TO.P,C5,1*%
%TO.N,+3V3*%
X206788000Y-69582000D03*
%TO.P,C5,2*%
%TO.N,GND*%
X205828000Y-69582000D03*
%TD*%
D29*
%TO.P,U1,1,IOVDD*%
%TO.N,+3V3*%
X208010000Y-86706000D03*
%TO.P,U1,2,GPIO0*%
%TO.N,GPIO0*%
X208010000Y-87106000D03*
%TO.P,U1,3,GPIO1*%
%TO.N,GPIO1*%
X208010000Y-87506000D03*
%TO.P,U1,4,GPIO2*%
%TO.N,GPIO2*%
X208010000Y-87906000D03*
%TO.P,U1,5,GPIO3*%
%TO.N,GPIO3*%
X208010000Y-88306000D03*
%TO.P,U1,6,GPIO4*%
%TO.N,GPIO4*%
X208010000Y-88706000D03*
%TO.P,U1,7,GPIO5*%
%TO.N,GPIO5*%
X208010000Y-89106000D03*
%TO.P,U1,8,GPIO6*%
%TO.N,GPIO6*%
X208010000Y-89506000D03*
%TO.P,U1,9,GPIO7*%
%TO.N,GPIO7*%
X208010000Y-89906000D03*
%TO.P,U1,10,IOVDD*%
%TO.N,+3V3*%
X208010000Y-90306000D03*
%TO.P,U1,11,GPIO8*%
%TO.N,GPIO8*%
X208010000Y-90706000D03*
%TO.P,U1,12,GPIO9*%
%TO.N,GPIO9*%
X208010000Y-91106000D03*
%TO.P,U1,13,GPIO10*%
%TO.N,GPIO10*%
X208010000Y-91506000D03*
%TO.P,U1,14,GPIO11*%
%TO.N,GPIO11*%
X208010000Y-91906000D03*
D30*
%TO.P,U1,15,GPIO12*%
%TO.N,GPIO12*%
X208847500Y-92743500D03*
%TO.P,U1,16,GPIO13*%
%TO.N,GPIO13*%
X209247500Y-92743500D03*
%TO.P,U1,17,GPIO14*%
%TO.N,GPIO14*%
X209647500Y-92743500D03*
%TO.P,U1,18,GPIO15*%
%TO.N,GPIO15*%
X210047500Y-92743500D03*
%TO.P,U1,19,TESTEN*%
%TO.N,GND*%
X210447500Y-92743500D03*
%TO.P,U1,20,XIN*%
%TO.N,XIN*%
X210847500Y-92743500D03*
%TO.P,U1,21,XOUT*%
%TO.N,XOUT*%
X211247500Y-92743500D03*
%TO.P,U1,22,IOVDD*%
%TO.N,+3V3*%
X211647500Y-92743500D03*
%TO.P,U1,23,DVDD*%
%TO.N,+1V1*%
X212047500Y-92743500D03*
%TO.P,U1,24,SWCLK*%
%TO.N,SWCLK*%
X212447500Y-92743500D03*
%TO.P,U1,25,SWD*%
%TO.N,SWD*%
X212847500Y-92743500D03*
%TO.P,U1,26,RUN*%
%TO.N,RUN*%
X213247500Y-92743500D03*
%TO.P,U1,27,GPIO16*%
%TO.N,GPIO16*%
X213647500Y-92743500D03*
%TO.P,U1,28,GPIO17*%
%TO.N,GPIO17*%
X214047500Y-92743500D03*
D29*
%TO.P,U1,29,GPIO18*%
%TO.N,GPIO18*%
X214885000Y-91906000D03*
%TO.P,U1,30,GPIO19*%
%TO.N,GPIO19*%
X214885000Y-91506000D03*
%TO.P,U1,31,GPIO20*%
%TO.N,GPIO20*%
X214885000Y-91106000D03*
%TO.P,U1,32,GPIO21*%
%TO.N,GPIO21*%
X214885000Y-90706000D03*
%TO.P,U1,33,IOVDD*%
%TO.N,+3V3*%
X214885000Y-90306000D03*
%TO.P,U1,34,GPIO22*%
%TO.N,GPIO22*%
X214885000Y-89906000D03*
%TO.P,U1,35,GPIO23*%
%TO.N,GPIO23*%
X214885000Y-89506000D03*
%TO.P,U1,36,GPIO24*%
%TO.N,GPIO24*%
X214885000Y-89106000D03*
%TO.P,U1,37,GPIO25*%
%TO.N,GPIO25*%
X214885000Y-88706000D03*
%TO.P,U1,38,GPIO26_ADC0*%
%TO.N,GPIO26_ADC0*%
X214885000Y-88306000D03*
%TO.P,U1,39,GPIO27_ADC1*%
%TO.N,GPIO27_ADC1*%
X214885000Y-87906000D03*
%TO.P,U1,40,GPIO28_ADC2*%
%TO.N,GPIO28_ADC2*%
X214885000Y-87506000D03*
%TO.P,U1,41,GPIO29_ADC3*%
%TO.N,GPIO29_ADC3*%
X214885000Y-87106000D03*
%TO.P,U1,42,IOVDD*%
%TO.N,+3V3*%
X214885000Y-86706000D03*
D30*
%TO.P,U1,43,ADC_AVDD*%
X214047500Y-85868500D03*
%TO.P,U1,44,VREG_IN*%
X213647500Y-85868500D03*
%TO.P,U1,45,VREG_VOUT*%
%TO.N,+1V1*%
X213247500Y-85868500D03*
%TO.P,U1,46,USB_DM*%
%TO.N,Net-(U1-USB_DM)*%
X212847500Y-85868500D03*
%TO.P,U1,47,USB_DP*%
%TO.N,Net-(U1-USB_DP)*%
X212447500Y-85868500D03*
%TO.P,U1,48,USB_VDD*%
%TO.N,+3V3*%
X212047500Y-85868500D03*
%TO.P,U1,49,IOVDD*%
X211647500Y-85868500D03*
%TO.P,U1,50,DVDD*%
%TO.N,+1V1*%
X211247500Y-85868500D03*
%TO.P,U1,51,QSPI_SD3*%
%TO.N,QPSI_SD3*%
X210847500Y-85868500D03*
%TO.P,U1,52,QSPI_SCLK*%
%TO.N,QPSI_SCLK*%
X210447500Y-85868500D03*
%TO.P,U1,53,QSPI_SD0*%
%TO.N,QPSI_SD0*%
X210047500Y-85868500D03*
%TO.P,U1,54,QSPI_SD2*%
%TO.N,QPSI_SD2*%
X209647500Y-85868500D03*
%TO.P,U1,55,QSPI_SD1*%
%TO.N,QPSI_SD1*%
X209247500Y-85868500D03*
%TO.P,U1,56,QSPI_SS*%
%TO.N,QPSI_SS*%
X208847500Y-85868500D03*
D31*
%TO.P,U1,57,GND*%
%TO.N,GND*%
X211447500Y-89306000D03*
%TD*%
D32*
%TO.P,R1,1*%
%TO.N,Net-(J1-CC1)*%
X216883000Y-66229000D03*
%TO.P,R1,2*%
%TO.N,GND*%
X217903000Y-66229000D03*
%TD*%
%TO.P,R6,1*%
%TO.N,+3V3*%
X206217000Y-85865000D03*
%TO.P,R6,2*%
%TO.N,QPSI_SS*%
X207237000Y-85865000D03*
%TD*%
D33*
%TO.N,GND*%
X208900000Y-74975000D03*
X207525000Y-73500000D03*
X215075000Y-111300000D03*
X204018806Y-104518806D03*
X208950000Y-111150000D03*
%TO.N,+3V3*%
X216020000Y-86350000D03*
X218150000Y-90750000D03*
%TO.N,GND*%
X203700000Y-91800000D03*
X205800000Y-92550000D03*
%TO.N,SWD*%
X206300000Y-108500000D03*
%TO.N,GND*%
X204200000Y-85350000D03*
%TO.N,+3V3*%
X204250000Y-84350000D03*
X203650000Y-89150000D03*
%TO.N,GND*%
X208114881Y-84207999D03*
X205108991Y-89441009D03*
X216350000Y-105100000D03*
X211951000Y-96317584D03*
X213211000Y-96084510D03*
X215990806Y-91639194D03*
X215400000Y-81300000D03*
X204750000Y-72100000D03*
X207116891Y-72057174D03*
X204300000Y-68600000D03*
X208350000Y-71200000D03*
X210050000Y-73050000D03*
%TO.N,+1V1*%
X211947970Y-94099457D03*
%TO.N,GND*%
X209950000Y-105300000D03*
X212450000Y-101261000D03*
X209950000Y-98300000D03*
X208450000Y-98800000D03*
X210250000Y-91350000D03*
%TO.N,GPIO29_ADC3*%
X216750000Y-82550000D03*
X216650000Y-87350000D03*
%TO.N,GPIO28_ADC2*%
X216000249Y-88065731D03*
%TO.N,+3V3*%
X216250000Y-97750000D03*
X213200000Y-95070000D03*
%TO.N,GPIO25*%
X209750000Y-103000000D03*
X206500000Y-105225000D03*
X211850000Y-103373265D03*
X213547502Y-89570252D03*
%TO.N,GPIO27_ADC1*%
X213547502Y-88243065D03*
%TO.N,GPIO28_ADC2*%
X217150000Y-88500000D03*
%TO.N,RUN*%
X211776002Y-91405999D03*
%TO.N,GPIO19*%
X213831570Y-91822202D03*
%TO.N,GPIO21*%
X213947500Y-90263073D03*
%TO.N,GPIO20*%
X213545139Y-90954526D03*
%TO.N,GPIO7*%
X209347501Y-89955656D03*
%TO.N,GPIO6*%
X209347501Y-89124018D03*
%TO.N,GPIO5*%
X209327220Y-88127220D03*
%TO.N,GPIO1*%
X209752480Y-86803507D03*
%TO.N,GPIO0*%
X208952478Y-86803489D03*
%TO.N,+3V3*%
X211000000Y-71400000D03*
%TO.N,+1V1*%
X206700000Y-87150000D03*
X211716771Y-86944496D03*
X214900000Y-85650000D03*
%TO.N,SWD*%
X212468825Y-91806000D03*
%TO.N,+3V3*%
X208040500Y-85895888D03*
%TO.N,Net-(D2-DOUT)*%
X216600000Y-106925000D03*
X215000000Y-109750000D03*
%TO.N,Net-(U1-USB_DP)*%
X212927324Y-84518073D03*
%TO.N,+3V3*%
X211847500Y-86155246D03*
X213771356Y-86661065D03*
%TO.N,Net-(J1-CC2)*%
X205153000Y-65121000D03*
X210346386Y-64988000D03*
%TO.N,Net-(U1-USB_DP)*%
X214800000Y-84660000D03*
%TO.N,Net-(R7-Pad1)*%
X209450000Y-81400000D03*
X213400000Y-81150000D03*
%TD*%
D34*
%TO.N,USB_D+*%
X214500000Y-82625000D02*
X214500000Y-83640000D01*
X213726000Y-81851000D02*
X214500000Y-82625000D01*
X212386936Y-81851000D02*
X213726000Y-81851000D01*
X212099000Y-70983164D02*
X212099000Y-81563064D01*
X210688000Y-67726501D02*
X210688000Y-69572164D01*
X210713000Y-67701501D02*
X210688000Y-67726501D01*
X210688000Y-69572164D02*
X212099000Y-70983164D01*
X212099000Y-81563064D02*
X212386936Y-81851000D01*
X210713000Y-66614000D02*
X210713000Y-67701501D01*
D35*
%TO.N,GND*%
X220037000Y-92438000D02*
X219175000Y-93300000D01*
X220164000Y-92438000D02*
X220037000Y-92438000D01*
X217903000Y-65353000D02*
X216612500Y-64062500D01*
X216612500Y-64062500D02*
X216612500Y-63837500D01*
X217903000Y-66229000D02*
X217903000Y-65353000D01*
X215283000Y-65167000D02*
X216612500Y-63837500D01*
X217903000Y-67047000D02*
X216750000Y-68200000D01*
X217903000Y-66229000D02*
X217903000Y-67047000D01*
X215884000Y-104159000D02*
X216600000Y-104875000D01*
X210716000Y-104159000D02*
X215884000Y-104159000D01*
X209950000Y-104925000D02*
X210716000Y-104159000D01*
X209950000Y-105300000D02*
X209950000Y-104925000D01*
X201609000Y-105191000D02*
X200825000Y-105975000D01*
X201641000Y-105191000D02*
X201609000Y-105191000D01*
X201591000Y-105191000D02*
X200575000Y-104175000D01*
X201641000Y-105191000D02*
X201591000Y-105191000D01*
X208395000Y-96980000D02*
X207375000Y-98000000D01*
X208500000Y-96980000D02*
X208395000Y-96980000D01*
X221100000Y-104202000D02*
X221100000Y-104150000D01*
X220164000Y-105138000D02*
X221100000Y-104202000D01*
X221025000Y-105999000D02*
X220164000Y-105138000D01*
X221025000Y-105999000D02*
X221025000Y-106100000D01*
X219227000Y-80675000D02*
X218650000Y-80675000D01*
X220164000Y-79738000D02*
X219227000Y-80675000D01*
X214691000Y-78241000D02*
X213400000Y-76950000D01*
X216980000Y-84386594D02*
X214691000Y-82097594D01*
X216980000Y-86350000D02*
X216980000Y-84386594D01*
X214691000Y-82097594D02*
X214691000Y-78241000D01*
X214906000Y-61519000D02*
X213575000Y-62850000D01*
X215283000Y-61519000D02*
X214906000Y-61519000D01*
X216881000Y-61519000D02*
X217000000Y-61400000D01*
X215283000Y-61519000D02*
X216881000Y-61519000D01*
X216612500Y-63837500D02*
X216625000Y-63825000D01*
X215283000Y-65699000D02*
X215283000Y-65167000D01*
X216980000Y-85500000D02*
X216780000Y-85300000D01*
X216980000Y-86350000D02*
X216980000Y-85500000D01*
X207558000Y-66614000D02*
X206643000Y-65699000D01*
X207713000Y-66614000D02*
X207558000Y-66614000D01*
X219200000Y-91474000D02*
X219200000Y-91450000D01*
X220164000Y-92438000D02*
X219200000Y-91474000D01*
X220164000Y-92411000D02*
X220950000Y-91625000D01*
%TO.N,GPIO16*%
X213647500Y-93264632D02*
X213647500Y-92743500D01*
X213266320Y-93645812D02*
X213647500Y-93264632D01*
X214202000Y-94581492D02*
X213266320Y-93645812D01*
X214202001Y-96518507D02*
X214202000Y-94581492D01*
X213341000Y-97188042D02*
X213341000Y-97141000D01*
X213579508Y-97141000D02*
X214202001Y-96518507D01*
X213452000Y-97299042D02*
X213341000Y-97188042D01*
X213452000Y-98352000D02*
X213452000Y-97299042D01*
X218375000Y-103275000D02*
X213452000Y-98352000D01*
X218375000Y-108429000D02*
X218375000Y-103275000D01*
X213341000Y-97141000D02*
X213579508Y-97141000D01*
X220164000Y-110218000D02*
X218375000Y-108429000D01*
%TO.N,GPIO17*%
X214038500Y-92752500D02*
X214047500Y-92743500D01*
X214038500Y-93273632D02*
X214038500Y-92752500D01*
X214028500Y-93283632D02*
X214038500Y-93273632D01*
X214583000Y-94423676D02*
X213805136Y-93645812D01*
X213805136Y-93645812D02*
X214028500Y-93422447D01*
X214583001Y-96676322D02*
X214583000Y-94423676D01*
X213833000Y-97426324D02*
X214583001Y-96676322D01*
X214028500Y-93422447D02*
X214028500Y-93283632D01*
X214201324Y-97426324D02*
X213833000Y-97426324D01*
X214619000Y-97844000D02*
X214201324Y-97426324D01*
X219023000Y-103070618D02*
X219023000Y-102261816D01*
X214619000Y-97857815D02*
X214619000Y-97844000D01*
X219025000Y-103072618D02*
X219023000Y-103070618D01*
X219025000Y-103348185D02*
X219025000Y-103072618D01*
X219275000Y-103598185D02*
X219025000Y-103348185D01*
X219023000Y-105610618D02*
X219023000Y-104665382D01*
X219275000Y-105862618D02*
X219023000Y-105610618D01*
X219275000Y-106789000D02*
X219275000Y-105862618D01*
X219023000Y-102261816D02*
X214619000Y-97857815D01*
X219023000Y-104665382D02*
X219275000Y-104413382D01*
X220164000Y-107678000D02*
X219275000Y-106789000D01*
X219275000Y-104413382D02*
X219275000Y-103598185D01*
%TO.N,+5V*%
X213100000Y-106625000D02*
X213100000Y-106925000D01*
%TO.N,GND*%
X204300000Y-68489185D02*
X204300000Y-68600000D01*
X202901815Y-67091000D02*
X204300000Y-68489185D01*
X201641000Y-67091000D02*
X202901815Y-67091000D01*
X201641000Y-67016000D02*
X200825000Y-66200000D01*
X201641000Y-67091000D02*
X201641000Y-67016000D01*
X208900000Y-74200000D02*
X210050000Y-73050000D01*
X208900000Y-74975000D02*
X208900000Y-74200000D01*
X206150000Y-74875000D02*
X207525000Y-73500000D01*
X206150000Y-79050000D02*
X206150000Y-74875000D01*
D34*
%TO.N,+3V3*%
X208300000Y-72900000D02*
X210150000Y-71050000D01*
X208300000Y-75675000D02*
X208300000Y-72900000D01*
X208769000Y-76144000D02*
X208300000Y-75675000D01*
X208769000Y-77292000D02*
X208769000Y-76144000D01*
D35*
%TO.N,GND*%
X214368000Y-66614000D02*
X215283000Y-65699000D01*
X214213000Y-66614000D02*
X214368000Y-66614000D01*
X214600000Y-110825000D02*
X215075000Y-111300000D01*
X213200000Y-110825000D02*
X214600000Y-110825000D01*
D34*
%TO.N,USB_D-*%
X213750000Y-83457100D02*
X213750000Y-83640000D01*
X213519297Y-83226397D02*
X213750000Y-83457100D01*
X213450000Y-83226397D02*
X213519297Y-83226397D01*
X212200548Y-82300980D02*
X212524583Y-82300980D01*
X210238000Y-69758532D02*
X211675000Y-71195532D01*
X210238000Y-67726501D02*
X210238000Y-69758532D01*
X210213000Y-67701501D02*
X210238000Y-67726501D01*
X211675000Y-71195532D02*
X211675000Y-81775432D01*
X212524583Y-82300980D02*
X213450000Y-83226397D01*
X210213000Y-66614000D02*
X210213000Y-67701501D01*
X211675000Y-81775432D02*
X212200548Y-82300980D01*
D35*
%TO.N,GND*%
X201900000Y-92550000D02*
X203250000Y-92550000D01*
X200800000Y-91450000D02*
X201900000Y-92550000D01*
X201641000Y-92291000D02*
X200800000Y-91450000D01*
X201641000Y-92491000D02*
X201641000Y-92291000D01*
X203346612Y-105191000D02*
X204018806Y-104518806D01*
X201641000Y-105191000D02*
X203346612Y-105191000D01*
X208800000Y-111300000D02*
X208950000Y-111150000D01*
X208800000Y-111550000D02*
X208800000Y-111300000D01*
X208800000Y-111310000D02*
X208800000Y-111550000D01*
X207740000Y-110250000D02*
X208800000Y-111310000D01*
D34*
%TO.N,+3V3*%
X217975000Y-90675000D02*
X218050000Y-90750000D01*
X217975000Y-90675000D02*
X218050000Y-90600000D01*
X218050000Y-90750000D02*
X218150000Y-90750000D01*
X216950000Y-91100000D02*
X217550000Y-91100000D01*
X216950000Y-91100000D02*
X216950000Y-90850000D01*
X217550000Y-91100000D02*
X217975000Y-90675000D01*
D35*
X213950000Y-86450000D02*
X213100000Y-87300000D01*
X213950000Y-86171000D02*
X213950000Y-86450000D01*
X213714500Y-85935500D02*
X213950000Y-86171000D01*
%TO.N,GND*%
X205800000Y-92550000D02*
X205050000Y-91800000D01*
X205050000Y-91800000D02*
X203700000Y-91800000D01*
%TO.N,GPIO10*%
X207618684Y-91515000D02*
X207627684Y-91506000D01*
X207479868Y-91515000D02*
X207618684Y-91515000D01*
X207281500Y-91713368D02*
X207479868Y-91515000D01*
X207281500Y-92098632D02*
X207281500Y-91713368D01*
X207431868Y-93081500D02*
X207431868Y-92249000D01*
X206958500Y-93607000D02*
X206958500Y-93554868D01*
X207627684Y-91506000D02*
X208010000Y-91506000D01*
X207431868Y-92249000D02*
X207281500Y-92098632D01*
X202957000Y-94276555D02*
X203626555Y-93607000D01*
X203626555Y-93607000D02*
X206958500Y-93607000D01*
X206958500Y-93554868D02*
X207431868Y-93081500D01*
X202957000Y-95031000D02*
X202957000Y-94276555D01*
X201641000Y-95031000D02*
X202957000Y-95031000D01*
%TO.N,GPIO11*%
X207972000Y-91944000D02*
X208010000Y-91906000D01*
X207339500Y-93988000D02*
X207339500Y-93712684D01*
X203338000Y-94434370D02*
X203784370Y-93988000D01*
X203338000Y-96112000D02*
X203338000Y-94434370D01*
X207339500Y-93712684D02*
X207972000Y-93080184D01*
X203100000Y-96112000D02*
X203338000Y-96112000D01*
X203784370Y-93988000D02*
X207339500Y-93988000D01*
X207972000Y-93080184D02*
X207972000Y-91944000D01*
X201641000Y-97571000D02*
X203100000Y-96112000D01*
%TO.N,GPIO12*%
X207911658Y-94061658D02*
X207720500Y-93870500D01*
X203719000Y-94592185D02*
X203942185Y-94369000D01*
X203719000Y-98152000D02*
X203719000Y-94592185D01*
X203942185Y-94369000D02*
X207604316Y-94369000D01*
X207604316Y-94369000D02*
X207911658Y-94061658D01*
X203600000Y-98152000D02*
X203719000Y-98152000D01*
X201641000Y-100111000D02*
X203600000Y-98152000D01*
X207720500Y-93870500D02*
X208847500Y-92743500D01*
D34*
%TO.N,SWD*%
X208530000Y-108500000D02*
X206300000Y-108500000D01*
X210280000Y-110250000D02*
X208530000Y-108500000D01*
D35*
%TO.N,XOUT*%
X209059000Y-97618982D02*
X209059000Y-100000000D01*
X210531018Y-97091000D02*
X209586982Y-97091000D01*
X210800000Y-96822018D02*
X210531018Y-97091000D01*
X211250583Y-97272601D02*
X210800000Y-96822018D01*
X211250583Y-97309000D02*
X211250583Y-97272601D01*
X212231018Y-97309000D02*
X211250583Y-97309000D01*
X212541000Y-97618982D02*
X212231018Y-97309000D01*
X212541000Y-98981018D02*
X212541000Y-97618982D01*
X212231018Y-99291000D02*
X212541000Y-98981018D01*
X212091000Y-99291000D02*
X212231018Y-99291000D01*
X212549000Y-99749000D02*
X212091000Y-99291000D01*
X212670000Y-99749000D02*
X212549000Y-99749000D01*
X212670000Y-97622958D02*
X212670000Y-99749000D01*
X212558999Y-97511957D02*
X212670000Y-97622958D01*
X212559000Y-96799018D02*
X212558999Y-97511957D01*
X209586982Y-97091000D02*
X209059000Y-97618982D01*
X212541000Y-96781018D02*
X212559000Y-96799018D01*
X212541000Y-95418982D02*
X212541000Y-96781018D01*
X212231018Y-95109000D02*
X212541000Y-95418982D01*
X210531018Y-95109000D02*
X210800000Y-95377982D01*
X211219500Y-93431447D02*
X210809500Y-93841448D01*
X210081000Y-95109000D02*
X210531018Y-95109000D01*
X211219500Y-93292632D02*
X211219500Y-93431447D01*
X211068982Y-95109000D02*
X212231018Y-95109000D01*
X210809500Y-93864724D02*
X210081000Y-94593225D01*
X210081000Y-94593225D02*
X210081000Y-95109000D01*
X211247500Y-93264632D02*
X211219500Y-93292632D01*
X210809500Y-93841448D02*
X210809500Y-93864724D01*
X210800000Y-95377982D02*
X211068982Y-95109000D01*
X211247500Y-92743500D02*
X211247500Y-93264632D01*
%TO.N,GND*%
X204200000Y-85500000D02*
X204200000Y-85350000D01*
X204035000Y-85665000D02*
X204200000Y-85500000D01*
X204035000Y-85665000D02*
X203950000Y-85580000D01*
X205200000Y-86830000D02*
X204035000Y-85665000D01*
%TO.N,GPIO2*%
X203272000Y-68000000D02*
X201641000Y-69631000D01*
X203272000Y-70077594D02*
X203272000Y-68000000D01*
X204000000Y-71300000D02*
X203250000Y-70550000D01*
X205485594Y-71300000D02*
X204000000Y-71300000D01*
X206456594Y-71289000D02*
X206299000Y-71131406D01*
X207101406Y-71289000D02*
X206456594Y-71289000D01*
X206141406Y-71289000D02*
X205496594Y-71289000D01*
X207350000Y-70669958D02*
X207350000Y-71040406D01*
X207617458Y-70402500D02*
X207350000Y-70669958D01*
X207659000Y-70402500D02*
X207617458Y-70402500D01*
X207659000Y-71824324D02*
X207659000Y-70402500D01*
X207913176Y-72078500D02*
X207659000Y-71824324D01*
X207847860Y-72078500D02*
X207913176Y-72078500D01*
X203250000Y-70099594D02*
X203272000Y-70077594D01*
X207847860Y-72328815D02*
X207847860Y-72078500D01*
X203862000Y-79488370D02*
X203862000Y-76314676D01*
X203885000Y-79511370D02*
X203862000Y-79488370D01*
X203885004Y-79511377D02*
X203885000Y-79511370D01*
X203885004Y-79530455D02*
X203885004Y-79511377D01*
X204943550Y-80589000D02*
X203885004Y-79530455D01*
X207484804Y-80589000D02*
X204943550Y-80589000D01*
X207239000Y-80834804D02*
X207484804Y-80589000D01*
X207239000Y-81565196D02*
X207239000Y-80834804D01*
X205496594Y-71289000D02*
X205485594Y-71300000D01*
X207314443Y-81640639D02*
X207239000Y-81565196D01*
X205581000Y-83689714D02*
X207314443Y-81956271D01*
X205581000Y-83925815D02*
X205581000Y-83689714D01*
X207314443Y-81956271D02*
X207314443Y-81640639D01*
X205357816Y-84149000D02*
X205581000Y-83925815D01*
X203885408Y-82992224D02*
X205042184Y-84149000D01*
X207350000Y-71040406D02*
X207101406Y-71289000D01*
X203169440Y-83708192D02*
X203885408Y-82992224D01*
X203544000Y-85659250D02*
X203544000Y-84082752D01*
X203862000Y-76314676D02*
X207847860Y-72328815D01*
X203205618Y-86110208D02*
X203205618Y-85997632D01*
X203929446Y-86268000D02*
X203363410Y-86268000D01*
X203363410Y-86268000D02*
X203205618Y-86110208D01*
X204599000Y-87152406D02*
X204599000Y-86937555D01*
X205352594Y-87906000D02*
X204599000Y-87152406D01*
X203544000Y-84082752D02*
X203169440Y-83708192D01*
X206299000Y-71131406D02*
X206141406Y-71289000D01*
X204599000Y-86937555D02*
X203929446Y-86268000D01*
X205042184Y-84149000D02*
X205357816Y-84149000D01*
X203250000Y-70550000D02*
X203250000Y-70099594D01*
X203205618Y-85997632D02*
X203544000Y-85659250D01*
X208010000Y-87906000D02*
X205352594Y-87906000D01*
%TO.N,GPIO3*%
X204218000Y-87661405D02*
X204862593Y-88305999D01*
X204218000Y-87095370D02*
X204218000Y-87661405D01*
X203771631Y-86649000D02*
X204218000Y-87095370D01*
X203205594Y-86649000D02*
X203771631Y-86649000D01*
X202824618Y-86268024D02*
X203205594Y-86649000D01*
X203163000Y-85501434D02*
X202824618Y-85839816D01*
X203163000Y-84240567D02*
X203163000Y-85501434D01*
X202630625Y-83708191D02*
X203163000Y-84240567D01*
X203885408Y-82453408D02*
X202630625Y-83708191D01*
X205200000Y-83768000D02*
X203885408Y-82453408D01*
X205200000Y-83531898D02*
X205200000Y-83768000D01*
X206933443Y-81798455D02*
X205200000Y-83531898D01*
X206334988Y-81200000D02*
X206933443Y-81798455D01*
X205675361Y-81859627D02*
X206334988Y-81200000D01*
X203504000Y-79688267D02*
X205675361Y-81859627D01*
X203504000Y-79669185D02*
X203504000Y-79688267D01*
X203481000Y-79646184D02*
X203504000Y-79669185D01*
X203481000Y-76156860D02*
X203481000Y-79646184D01*
X203481000Y-74692185D02*
X203481000Y-74881000D01*
X204862593Y-88305999D02*
X208010000Y-88306000D01*
X203550000Y-74950000D02*
X203550000Y-76087860D01*
X203257815Y-74469000D02*
X203481000Y-74692185D01*
X201641000Y-73041000D02*
X203069000Y-74469000D01*
X203481000Y-74881000D02*
X203550000Y-74950000D01*
X202824618Y-85839816D02*
X202824618Y-86268024D01*
X203550000Y-76087860D02*
X203481000Y-76156860D01*
X201641000Y-72171000D02*
X201641000Y-73041000D01*
X203069000Y-74469000D02*
X203257815Y-74469000D01*
%TO.N,GPIO4*%
X208001000Y-88697000D02*
X208010000Y-88706000D01*
X207469868Y-88687000D02*
X207479868Y-88697000D01*
X203837000Y-87819221D02*
X204704778Y-88686999D01*
X203837000Y-87253185D02*
X203837000Y-87819221D01*
X203613815Y-87030000D02*
X203837000Y-87253185D01*
X202782000Y-87030000D02*
X203613815Y-87030000D01*
X202782000Y-86938382D02*
X202782000Y-87030000D01*
X207479868Y-88697000D02*
X208001000Y-88697000D01*
X202443618Y-86600000D02*
X202782000Y-86938382D01*
X202443618Y-85682000D02*
X202443618Y-86600000D01*
X204704778Y-88686999D02*
X207469868Y-88687000D01*
X202782000Y-85343618D02*
X202443618Y-85682000D01*
X202782000Y-84398382D02*
X202782000Y-85343618D01*
X203700000Y-80423083D02*
X203700000Y-82100000D01*
X203113458Y-79836541D02*
X203700000Y-80423083D01*
X203100000Y-74850000D02*
X203100000Y-79827000D01*
X202091809Y-83708191D02*
X202782000Y-84398382D01*
X203123000Y-79827000D02*
X203113458Y-79836541D01*
X203700000Y-82100000D02*
X202091809Y-83708191D01*
X201780000Y-74850000D02*
X203100000Y-74850000D01*
X201641000Y-74711000D02*
X201780000Y-74850000D01*
X203100000Y-79827000D02*
X203123000Y-79827000D01*
%TO.N,+3V3*%
X206217000Y-85862631D02*
X204704369Y-84350000D01*
X204704369Y-84350000D02*
X204250000Y-84350000D01*
X206217000Y-85865000D02*
X206217000Y-85862631D01*
D34*
X203700000Y-89200000D02*
X203650000Y-89150000D01*
D35*
%TO.N,GND*%
X208000000Y-84093118D02*
X208114881Y-84207999D01*
X208000000Y-83800000D02*
X208000000Y-84093118D01*
%TO.N,QPSI_SD1*%
X209247500Y-85547500D02*
X209247500Y-85868500D01*
X209238500Y-85538500D02*
X209247500Y-85547500D01*
X208336816Y-84819000D02*
X208657816Y-85140000D01*
X209238500Y-85338368D02*
X209238500Y-85538500D01*
X208657816Y-85140000D02*
X209040132Y-85140000D01*
X207394420Y-85168764D02*
X207744185Y-84819000D01*
X207259000Y-85033344D02*
X207394420Y-85168764D01*
X207259000Y-83089344D02*
X207259000Y-85033344D01*
X207548345Y-82800000D02*
X207259000Y-83089344D01*
X208000000Y-82800000D02*
X207548345Y-82800000D01*
X207744185Y-84819000D02*
X208336816Y-84819000D01*
X209040132Y-85140000D02*
X209238500Y-85338368D01*
%TO.N,+3V3*%
X208040500Y-85987696D02*
X208040500Y-85895888D01*
X207552196Y-86476000D02*
X208040500Y-85987696D01*
X206310804Y-85865000D02*
X206921804Y-86476000D01*
X206217000Y-85865000D02*
X206310804Y-85865000D01*
X206921804Y-86476000D02*
X207552196Y-86476000D01*
D34*
X204730000Y-90230000D02*
X203700000Y-89200000D01*
X206750000Y-90230000D02*
X204730000Y-90230000D01*
D35*
%TO.N,GND*%
X205280000Y-89270000D02*
X205108991Y-89441009D01*
X206750000Y-89270000D02*
X205280000Y-89270000D01*
X216425000Y-105175000D02*
X216350000Y-105100000D01*
X216600000Y-105175000D02*
X216425000Y-105175000D01*
X213200000Y-96073510D02*
X213211000Y-96084510D01*
X213200000Y-96030000D02*
X213200000Y-96073510D01*
X215400000Y-82770000D02*
X216830000Y-84200000D01*
X215400000Y-81300000D02*
X215400000Y-82770000D01*
X216980000Y-84350000D02*
X216830000Y-84200000D01*
X216980000Y-86350000D02*
X216980000Y-84350000D01*
X204792826Y-72057174D02*
X204750000Y-72100000D01*
X207116891Y-72057174D02*
X204792826Y-72057174D01*
X204061000Y-68361000D02*
X204300000Y-68600000D01*
X204061000Y-67468000D02*
X204061000Y-68361000D01*
X205047000Y-68454000D02*
X204061000Y-67468000D01*
X205819000Y-68454000D02*
X205047000Y-68454000D01*
X208250000Y-71100000D02*
X208350000Y-71200000D01*
X208250000Y-71050000D02*
X208250000Y-71100000D01*
X205845094Y-70661906D02*
X205819000Y-70688000D01*
X205845094Y-68480094D02*
X205845094Y-70661906D01*
X205819000Y-68454000D02*
X205845094Y-68480094D01*
X210850000Y-73850000D02*
X210050000Y-73050000D01*
X210850000Y-78620000D02*
X210850000Y-73850000D01*
X206350000Y-79250000D02*
X206150000Y-79050000D01*
X208769000Y-79250000D02*
X206350000Y-79250000D01*
X208769000Y-79250000D02*
X208769000Y-79349000D01*
%TO.N,+1V1*%
X212047500Y-93999927D02*
X211947970Y-94099457D01*
X212047500Y-92743500D02*
X212047500Y-93999927D01*
%TO.N,+3V3*%
X211768500Y-94728000D02*
X211778500Y-94718000D01*
X210857103Y-94782063D02*
X210911167Y-94728000D01*
X210644040Y-94569000D02*
X210857103Y-94782063D01*
X210911167Y-94728000D02*
X211768500Y-94728000D01*
X211647500Y-93565539D02*
X210644040Y-94569000D01*
X211647500Y-92743500D02*
X211647500Y-93565539D01*
D34*
X212932000Y-95338000D02*
X213200000Y-95070000D01*
X212392976Y-94718000D02*
X212932001Y-95257025D01*
X211778500Y-94718000D02*
X212392976Y-94718000D01*
X212932001Y-95257025D02*
X212932000Y-95338000D01*
D35*
%TO.N,XIN*%
X210640132Y-93472000D02*
X210838500Y-93273632D01*
X210428500Y-93472000D02*
X210640132Y-93472000D01*
X210838500Y-93273632D02*
X210838500Y-92752500D01*
X210428500Y-93706909D02*
X210428500Y-93472000D01*
X209700000Y-94435410D02*
X210428500Y-93706909D01*
X209700000Y-95850000D02*
X209700000Y-94435410D01*
X210838500Y-92752500D02*
X210847500Y-92743500D01*
X209950000Y-96100000D02*
X209700000Y-95850000D01*
%TO.N,GND*%
X210000000Y-105250000D02*
X209950000Y-105300000D01*
X210000000Y-105225000D02*
X210000000Y-105250000D01*
X212450000Y-101280000D02*
X212450000Y-101261000D01*
X208500000Y-98750000D02*
X208450000Y-98800000D01*
X208500000Y-96980000D02*
X208500000Y-98750000D01*
%TO.N,GPIO8*%
X203456000Y-87411000D02*
X201641000Y-87411000D01*
X202800000Y-90571184D02*
X202800000Y-88633037D01*
X202800000Y-88633037D02*
X203456000Y-87977037D01*
X203029816Y-90801000D02*
X202800000Y-90571184D01*
X203456000Y-87977037D02*
X203456000Y-87411000D01*
X208010000Y-90706000D02*
X207197406Y-90706000D01*
X207197406Y-90706000D02*
X207102406Y-90801000D01*
X207102406Y-90801000D02*
X203029816Y-90801000D01*
%TO.N,GND*%
X210447500Y-91547500D02*
X210447500Y-92743500D01*
X210250000Y-91350000D02*
X210447500Y-91547500D01*
X208769000Y-79349000D02*
X210120000Y-80700000D01*
X208769000Y-78252000D02*
X208769000Y-79250000D01*
%TO.N,GPIO29_ADC3*%
X218464000Y-66198000D02*
X220164000Y-64498000D01*
X216750000Y-82550000D02*
X216750000Y-79350000D01*
X216750000Y-79350000D02*
X218464000Y-77636000D01*
X218464000Y-77636000D02*
X218464000Y-66198000D01*
X216406000Y-87106000D02*
X216650000Y-87350000D01*
X214885000Y-87106000D02*
X216406000Y-87106000D01*
%TO.N,GPIO28_ADC2*%
X215440518Y-87506000D02*
X216000249Y-88065731D01*
X214885000Y-87506000D02*
X215440518Y-87506000D01*
D34*
%TO.N,+3V3*%
X216620000Y-90520000D02*
X216150000Y-90520000D01*
X216250000Y-97750000D02*
X216950000Y-97050000D01*
X216950000Y-90850000D02*
X216620000Y-90520000D01*
X216950000Y-97050000D02*
X216950000Y-91100000D01*
D35*
%TO.N,GPIO25*%
X210123265Y-103373265D02*
X209750000Y-103000000D01*
X211850000Y-103373265D02*
X210123265Y-103373265D01*
D34*
%TO.N,SWCLK*%
X212447500Y-93379950D02*
X212447500Y-92743500D01*
X213811000Y-94743450D02*
X212447500Y-93379950D01*
X213417550Y-96750000D02*
X213811000Y-96356550D01*
X212950000Y-96750000D02*
X213417550Y-96750000D01*
X212950000Y-97350000D02*
X212950000Y-96750000D01*
X213061000Y-97461000D02*
X212950000Y-97350000D01*
X213061000Y-101606550D02*
X213061000Y-97461000D01*
X212806550Y-101861000D02*
X213061000Y-101606550D01*
X212093450Y-101861000D02*
X212806550Y-101861000D01*
X211946395Y-101713945D02*
X212093450Y-101861000D01*
X211769340Y-101891000D02*
X211946395Y-101713945D01*
X211030660Y-101891000D02*
X211769340Y-101891000D01*
X210850661Y-101711001D02*
X211030660Y-101891000D01*
X208600000Y-101650000D02*
X210156042Y-101650000D01*
X210156042Y-101650000D02*
X210217042Y-101711000D01*
X208600000Y-105100000D02*
X208600000Y-101650000D01*
X205200000Y-106448000D02*
X205399000Y-106249000D01*
X205200000Y-110250000D02*
X205200000Y-106448000D01*
X205399000Y-106249000D02*
X207451000Y-106249000D01*
X207451000Y-106249000D02*
X208600000Y-105100000D01*
X210217042Y-101711000D02*
X210850661Y-101711001D01*
X213811000Y-96356550D02*
X213811000Y-94743450D01*
D35*
%TO.N,GPIO25*%
X213950000Y-89100000D02*
X213547502Y-89502498D01*
X213950000Y-89100000D02*
X213800000Y-89250000D01*
X213547502Y-89502498D02*
X213547502Y-89570252D01*
%TO.N,GPIO21*%
X214131000Y-90706000D02*
X214885000Y-90706000D01*
X213947500Y-90263073D02*
X213947500Y-90522500D01*
X213947500Y-90522500D02*
X214131000Y-90706000D01*
%TO.N,GPIO25*%
X214344000Y-88706000D02*
X213950000Y-89100000D01*
X214885000Y-88706000D02*
X214344000Y-88706000D01*
%TO.N,GPIO27_ADC1*%
X213674305Y-88369868D02*
X213900000Y-88369868D01*
X213547502Y-88243065D02*
X213674305Y-88369868D01*
X213900000Y-88369868D02*
X214363868Y-87906000D01*
X214363868Y-87906000D02*
X214885000Y-87906000D01*
%TO.N,GPIO26_ADC0*%
X215950000Y-88738000D02*
X215613500Y-88738000D01*
X215613500Y-88513368D02*
X215415132Y-88315000D01*
X215613500Y-88738000D02*
X215613500Y-88513368D01*
X216905199Y-87909000D02*
X216559000Y-88255199D01*
X217431000Y-87945199D02*
X217394801Y-87909000D01*
X214894000Y-88315000D02*
X214885000Y-88306000D01*
X217394801Y-87909000D02*
X216905199Y-87909000D01*
X216559000Y-88255199D02*
X216559000Y-88738000D01*
X215415132Y-88315000D02*
X214894000Y-88315000D01*
X217551000Y-87945199D02*
X217431000Y-87945199D01*
X216559000Y-88738000D02*
X215950000Y-88738000D01*
X217551000Y-79811000D02*
X217551000Y-87945199D01*
X220164000Y-77198000D02*
X217551000Y-79811000D01*
%TO.N,GPIO28_ADC2*%
X217250000Y-88400000D02*
X217150000Y-88500000D01*
X217988000Y-88400000D02*
X217250000Y-88400000D01*
X217988000Y-85212000D02*
X217988000Y-88400000D01*
X218250000Y-84950000D02*
X217988000Y-85212000D01*
X221305000Y-80468618D02*
X220636618Y-81137000D01*
X218250000Y-82578382D02*
X218250000Y-84950000D01*
X221305000Y-70719000D02*
X221305000Y-80468618D01*
X220636618Y-81137000D02*
X219691382Y-81137000D01*
X219691382Y-81137000D02*
X218250000Y-82578382D01*
X220164000Y-69578000D02*
X221305000Y-70719000D01*
%TO.N,GPIO24*%
X221300000Y-83414000D02*
X220164000Y-82278000D01*
X221300000Y-84340382D02*
X221300000Y-83414000D01*
X219691382Y-83677000D02*
X220636618Y-83677000D01*
X219023000Y-84345382D02*
X219691382Y-83677000D01*
X219023000Y-85290618D02*
X219023000Y-84345382D01*
X218369000Y-86074184D02*
X219087783Y-85355401D01*
X215419132Y-89119000D02*
X218369000Y-89119000D01*
X218369000Y-89119000D02*
X218369000Y-86074184D01*
X219087783Y-85355401D02*
X219023000Y-85290618D01*
X215406132Y-89106000D02*
X215419132Y-89119000D01*
X220636618Y-83677000D02*
X221300000Y-84340382D01*
X214885000Y-89106000D02*
X215406132Y-89106000D01*
%TO.N,GPIO23*%
X218750000Y-86232000D02*
X220164000Y-84818000D01*
X218750000Y-89500000D02*
X218750000Y-86232000D01*
X215482000Y-89500000D02*
X215476000Y-89506000D01*
X218750000Y-89500000D02*
X215482000Y-89500000D01*
X215476000Y-89506000D02*
X214885000Y-89506000D01*
%TO.N,RUN*%
X212713626Y-91215000D02*
X211967001Y-91215000D01*
X213240570Y-91741944D02*
X212713626Y-91215000D01*
X211967001Y-91215000D02*
X211776002Y-91405999D01*
X213240570Y-92736570D02*
X213240570Y-91741944D01*
X213247500Y-92743500D02*
X213240570Y-92736570D01*
%TO.N,GPIO20*%
X214894000Y-91115000D02*
X214885000Y-91106000D01*
X213705613Y-91115000D02*
X214894000Y-91115000D01*
X213545139Y-90954526D02*
X213705613Y-91115000D01*
%TO.N,GPIO22*%
X214893000Y-89898000D02*
X214885000Y-89906000D01*
X220164000Y-89898000D02*
X214893000Y-89898000D01*
%TO.N,GPIO18*%
X215000000Y-92021000D02*
X214885000Y-91906000D01*
X215000000Y-97700000D02*
X215000000Y-92021000D01*
X219898000Y-102598000D02*
X215000000Y-97700000D01*
X220164000Y-102598000D02*
X219898000Y-102598000D01*
%TO.N,GPIO15*%
X205409000Y-99041000D02*
X205600000Y-98850000D01*
X205600000Y-97996594D02*
X210047500Y-93549094D01*
X205409000Y-105576618D02*
X205409000Y-99041000D01*
X201641000Y-109344618D02*
X205409000Y-105576618D01*
X201641000Y-110271000D02*
X201641000Y-109344618D01*
X205600000Y-98850000D02*
X205600000Y-97996594D01*
X210047500Y-93549094D02*
X210047500Y-92743500D01*
%TO.N,GPIO14*%
X209647500Y-93403447D02*
X209647500Y-92743500D01*
X207550947Y-95500000D02*
X209647500Y-93403447D01*
X204850000Y-95500000D02*
X207550947Y-95500000D01*
X204850000Y-104522000D02*
X204850000Y-95500000D01*
X201641000Y-107731000D02*
X204850000Y-104522000D01*
%TO.N,GPIO13*%
X207762132Y-94750000D02*
X209247500Y-93264632D01*
X204100000Y-100192000D02*
X204100000Y-94750000D01*
X209247500Y-93264632D02*
X209247500Y-92743500D01*
X201641000Y-102651000D02*
X204100000Y-100192000D01*
X204100000Y-94750000D02*
X207762132Y-94750000D01*
%TO.N,GPIO9*%
X207355222Y-91087000D02*
X207469868Y-91087000D01*
X207260222Y-91182000D02*
X207355222Y-91087000D01*
X207488868Y-91106000D02*
X208010000Y-91106000D01*
X202872000Y-91182000D02*
X207260222Y-91182000D01*
X201641000Y-89951000D02*
X202872000Y-91182000D01*
X207469868Y-91087000D02*
X207488868Y-91106000D01*
%TO.N,GPIO7*%
X209297845Y-89906000D02*
X208010000Y-89906000D01*
X209347501Y-89955656D02*
X209297845Y-89906000D01*
%TO.N,GPIO6*%
X208965519Y-89506000D02*
X209347501Y-89124018D01*
X208010000Y-89506000D02*
X208965519Y-89506000D01*
%TO.N,GPIO5*%
X208531132Y-89106000D02*
X208010000Y-89106000D01*
X208977220Y-88659912D02*
X208531132Y-89106000D01*
X208977220Y-88477220D02*
X208977220Y-88659912D01*
X209327220Y-88127220D02*
X208977220Y-88477220D01*
%TO.N,+1V1*%
X206528494Y-86621506D02*
X206528494Y-86978494D01*
X205951506Y-86621506D02*
X206528494Y-86621506D01*
X206528494Y-86978494D02*
X206700000Y-87150000D01*
X205200000Y-85870000D02*
X205951506Y-86621506D01*
D34*
%TO.N,GPIO1*%
X208817067Y-87506000D02*
X208010000Y-87506000D01*
X208836533Y-87486534D02*
X208817067Y-87506000D01*
X209119376Y-87486534D02*
X208836533Y-87486534D01*
X209752480Y-86853430D02*
X209119376Y-87486534D01*
X209752480Y-86803507D02*
X209752480Y-86853430D01*
%TO.N,GPIO0*%
X208649967Y-87106000D02*
X208952478Y-86803489D01*
X208010000Y-87106000D02*
X208649967Y-87106000D01*
%TO.N,+3V3*%
X210650000Y-71050000D02*
X211000000Y-71400000D01*
X210150000Y-71050000D02*
X210650000Y-71050000D01*
X208877000Y-77400000D02*
X208769000Y-77292000D01*
X209770000Y-77400000D02*
X208877000Y-77400000D01*
X209770000Y-78500000D02*
X210850000Y-79580000D01*
X209770000Y-77400000D02*
X209770000Y-78500000D01*
X207455500Y-70011500D02*
X206779000Y-70688000D01*
X208590968Y-70011500D02*
X207455500Y-70011500D01*
X209629468Y-71050000D02*
X208590968Y-70011500D01*
X210150000Y-71050000D02*
X209629468Y-71050000D01*
X211080000Y-82070000D02*
X210850000Y-82300000D01*
X211080000Y-80700000D02*
X211080000Y-82070000D01*
X210850000Y-80470000D02*
X211080000Y-80700000D01*
X210850000Y-79580000D02*
X210850000Y-80470000D01*
X208010000Y-90306000D02*
X207474726Y-90306000D01*
X206750000Y-90230000D02*
X207398726Y-90230000D01*
X207398726Y-90230000D02*
X207474726Y-90306000D01*
%TO.N,+1V1*%
X206700000Y-87190000D02*
X206700000Y-87150000D01*
X215870000Y-85250000D02*
X215820000Y-85300000D01*
X215870000Y-84200000D02*
X215870000Y-85250000D01*
X215250000Y-85300000D02*
X214900000Y-85650000D01*
X215820000Y-85300000D02*
X215250000Y-85300000D01*
%TO.N,+3V3*%
X215241000Y-86350000D02*
X214885000Y-86706000D01*
X216020000Y-86350000D02*
X215241000Y-86350000D01*
X216070000Y-90520000D02*
X215850000Y-90300000D01*
X215844000Y-90306000D02*
X214885000Y-90306000D01*
X216150000Y-90520000D02*
X216070000Y-90520000D01*
X215850000Y-90300000D02*
X215844000Y-90306000D01*
%TO.N,SWD*%
X212847500Y-92743500D02*
X212847500Y-92208226D01*
X212468825Y-91829551D02*
X212847500Y-92208226D01*
X212468825Y-91806000D02*
X212468825Y-91829551D01*
%TO.N,+3V3*%
X206779000Y-69591000D02*
X206788000Y-69582000D01*
X206779000Y-70688000D02*
X206779000Y-69591000D01*
X206779000Y-69573000D02*
X206788000Y-69582000D01*
X206779000Y-68454000D02*
X206779000Y-69573000D01*
D35*
X208040500Y-85895888D02*
X208040500Y-86675500D01*
X208040500Y-86675500D02*
X208010000Y-86706000D01*
%TO.N,QPSI_SS*%
X207902000Y-85200000D02*
X208179000Y-85200000D01*
X208179000Y-85200000D02*
X208847500Y-85868500D01*
X207237000Y-85865000D02*
X207902000Y-85200000D01*
D34*
%TO.N,+5V*%
X207226000Y-107701000D02*
X212324000Y-107701000D01*
X206500000Y-106975000D02*
X207226000Y-107701000D01*
X212324000Y-107701000D02*
X213100000Y-106925000D01*
%TO.N,Net-(D1-DOUT)*%
X211725000Y-105175000D02*
X213100000Y-105175000D01*
X210000000Y-106900000D02*
X211725000Y-105175000D01*
X210000000Y-106975000D02*
X210000000Y-106900000D01*
%TO.N,Net-(D2-DOUT)*%
X216075000Y-110825000D02*
X215000000Y-109750000D01*
X216700000Y-110825000D02*
X216075000Y-110825000D01*
%TO.N,+5V*%
X214550000Y-108375000D02*
X213100000Y-106925000D01*
X214575000Y-109075000D02*
X214550000Y-109050000D01*
X216700000Y-109075000D02*
X214575000Y-109075000D01*
X214550000Y-109050000D02*
X214550000Y-108375000D01*
%TO.N,XIN*%
X208500000Y-96020000D02*
X209870000Y-96020000D01*
X209870000Y-96020000D02*
X209950000Y-96100000D01*
D35*
%TO.N,Net-(C16-Pad2)*%
X211650000Y-100050000D02*
X211400000Y-100300000D01*
X211650000Y-98300000D02*
X211650000Y-100050000D01*
D34*
X212430000Y-100300000D02*
X212450000Y-100320000D01*
X211400000Y-100300000D02*
X212430000Y-100300000D01*
D35*
%TO.N,XOUT*%
X209059000Y-100000000D02*
X210379000Y-101320000D01*
X210379000Y-101320000D02*
X211400000Y-101320000D01*
%TO.N,+3V3*%
X212353000Y-84326287D02*
X212353000Y-84300000D01*
X212179058Y-84500230D02*
X212353000Y-84326287D01*
D34*
X212363001Y-84286999D02*
X212350000Y-84300000D01*
X212363001Y-83269572D02*
X212363001Y-84286999D01*
X211393429Y-82300000D02*
X212363001Y-83269572D01*
X210850000Y-82300000D02*
X211393429Y-82300000D01*
D35*
%TO.N,Net-(U1-USB_DP)*%
X212927324Y-84519104D02*
X212627316Y-84819112D01*
X212627316Y-84819112D02*
X212456500Y-84819112D01*
X212927324Y-84518073D02*
X212927324Y-84519104D01*
X212456500Y-84819112D02*
X212456500Y-85338368D01*
%TO.N,Net-(U1-USB_DM)*%
X212847500Y-85652500D02*
X212847500Y-85868500D01*
X212856500Y-85643500D02*
X212847500Y-85652500D01*
X212856500Y-85338368D02*
X212856500Y-85643500D01*
X213410000Y-85140000D02*
X213104868Y-85140000D01*
X213500000Y-85050000D02*
X213410000Y-85140000D01*
X213500000Y-84660000D02*
X213500000Y-85050000D01*
X213054868Y-85140000D02*
X212856500Y-85338368D01*
%TO.N,+3V3*%
X211647500Y-85031787D02*
X212179058Y-84500230D01*
X212047500Y-85868500D02*
X211647500Y-85868500D01*
D34*
X214047500Y-85868500D02*
X214885000Y-86706000D01*
X213781500Y-85868500D02*
X213714500Y-85935500D01*
X214047500Y-85868500D02*
X213781500Y-85868500D01*
D35*
X213714500Y-85935500D02*
X213647500Y-85868500D01*
X213771356Y-85992356D02*
X213714500Y-85935500D01*
X211647500Y-85955246D02*
X211847500Y-86155246D01*
X213771356Y-86661065D02*
X213771356Y-85992356D01*
X211647500Y-85868500D02*
X211647500Y-85955246D01*
%TO.N,+1V1*%
X212487132Y-87150000D02*
X213247500Y-86389632D01*
X213247500Y-86389632D02*
X213247500Y-85868500D01*
X212007868Y-87150000D02*
X212487132Y-87150000D01*
X211247500Y-86389632D02*
X212007868Y-87150000D01*
X211247500Y-85868500D02*
X211247500Y-86389632D01*
%TO.N,+3V3*%
X212020213Y-85841213D02*
X212047500Y-85868500D01*
%TO.N,Net-(U1-USB_DP)*%
X212466500Y-85328368D02*
X212466500Y-85104684D01*
X212456500Y-85338368D02*
X212466500Y-85328368D01*
X212456500Y-85859500D02*
X212456500Y-85338368D01*
X212447500Y-85868500D02*
X212456500Y-85859500D01*
%TO.N,+3V3*%
X211647500Y-85868500D02*
X211647500Y-85031787D01*
X207151804Y-86706000D02*
X206310804Y-85865000D01*
X208010000Y-86706000D02*
X207151804Y-86706000D01*
%TO.N,Net-(J1-CC1)*%
X212213000Y-67571000D02*
X212213000Y-66614000D01*
X212272000Y-67630000D02*
X212213000Y-67571000D01*
X215482000Y-67630000D02*
X212272000Y-67630000D01*
X216883000Y-66229000D02*
X215482000Y-67630000D01*
%TO.N,Net-(J1-CC2)*%
X210050816Y-64988000D02*
X210346386Y-64988000D01*
X209213000Y-65825816D02*
X210050816Y-64988000D01*
X209213000Y-66614000D02*
X209213000Y-65825816D01*
%TO.N,Net-(R7-Pad1)*%
X209250000Y-81200000D02*
X209450000Y-81400000D01*
X208820000Y-81200000D02*
X209250000Y-81200000D01*
%TO.N,QPSI_SS*%
X207800000Y-81900000D02*
X207800000Y-81200000D01*
X207700000Y-82000000D02*
X207800000Y-81900000D01*
X208000000Y-82300000D02*
X207700000Y-82000000D01*
%TO.N,XOUT*%
X209059000Y-100119000D02*
X209059000Y-100000000D01*
X211250000Y-101290000D02*
X211470000Y-101290000D01*
%TO.N,Net-(C16-Pad2)*%
X211250000Y-98700000D02*
X211650000Y-98300000D01*
%TO.N,VBUS*%
X215540844Y-62610000D02*
X219512000Y-62610000D01*
X213237000Y-64913844D02*
X215540844Y-62610000D01*
X213237000Y-66438000D02*
X213237000Y-64913844D01*
X213413000Y-66614000D02*
X213237000Y-66438000D01*
X219512000Y-62610000D02*
X220164000Y-61958000D01*
X211914000Y-64358000D02*
X213413000Y-65857000D01*
X208513000Y-65987000D02*
X210142000Y-64358000D01*
X210142000Y-64358000D02*
X211914000Y-64358000D01*
X208513000Y-66614000D02*
X208513000Y-65987000D01*
X213413000Y-65857000D02*
X213413000Y-66614000D01*
X208513000Y-67421000D02*
X208513000Y-66614000D01*
X205183000Y-67630000D02*
X208304000Y-67630000D01*
X205021000Y-67468000D02*
X205183000Y-67630000D01*
X208304000Y-67630000D02*
X208513000Y-67421000D01*
X209200000Y-68206000D02*
X209200000Y-69175000D01*
X208513000Y-67519000D02*
X209200000Y-68206000D01*
X208513000Y-66614000D02*
X208513000Y-67519000D01*
%TO.N,QPSI_SS*%
X206878000Y-82931529D02*
X206878000Y-85506000D01*
X207509529Y-82300000D02*
X206878000Y-82931529D01*
X206878000Y-85506000D02*
X207237000Y-85865000D01*
X208000000Y-82300000D02*
X207509529Y-82300000D01*
%TO.N,QPSI_SD2*%
X209647500Y-84202500D02*
X209647500Y-85868500D01*
X208741000Y-83589344D02*
X208741000Y-83848000D01*
X209034000Y-84141000D02*
X209709000Y-84141000D01*
X209709000Y-84141000D02*
X209647500Y-84202500D01*
X208451656Y-83300000D02*
X208741000Y-83589344D01*
X208000000Y-83300000D02*
X208451656Y-83300000D01*
X208741000Y-83848000D02*
X209034000Y-84141000D01*
%TO.N,QPSI_SD3*%
X211090063Y-85050408D02*
X210850000Y-85050408D01*
X210850000Y-85050408D02*
X210847500Y-85052908D01*
X211972000Y-83431529D02*
X211972000Y-84168472D01*
X210847500Y-85052908D02*
X210847500Y-85868500D01*
X211972000Y-84168472D02*
X211090063Y-85050408D01*
X211340471Y-82800000D02*
X211972000Y-83431529D01*
X210850000Y-82800000D02*
X211340471Y-82800000D01*
%TO.N,QPSI_SCLK*%
X210519408Y-84669408D02*
X210447500Y-84741316D01*
X210932248Y-84669408D02*
X210519408Y-84669408D01*
X210447500Y-84741316D02*
X210447500Y-85868500D01*
X211591000Y-84010656D02*
X210932248Y-84669408D01*
X211301656Y-83300000D02*
X211591000Y-83589344D01*
X211591000Y-83589344D02*
X211591000Y-84010656D01*
X210850000Y-83300000D02*
X211301656Y-83300000D01*
%TO.N,QPSI_SD0*%
X210047500Y-84602500D02*
X210047500Y-85868500D01*
X210850000Y-83800000D02*
X210047500Y-84602500D01*
D34*
%TO.N,USB_D+*%
X211713000Y-67591000D02*
X211713000Y-66614000D01*
X211664000Y-67640000D02*
X211713000Y-67591000D01*
X210762000Y-67640000D02*
X211664000Y-67640000D01*
X210713000Y-67591000D02*
X210762000Y-67640000D01*
X210713000Y-66614000D02*
X210713000Y-67591000D01*
%TO.N,USB_D-*%
X211213000Y-65637000D02*
X211213000Y-66614000D01*
X210262000Y-65588000D02*
X211164000Y-65588000D01*
X210213000Y-65637000D02*
X210262000Y-65588000D01*
X210213000Y-66614000D02*
X210213000Y-65637000D01*
X211164000Y-65588000D02*
X211213000Y-65637000D01*
D35*
%TO.N,GPIO19*%
X213831570Y-91822202D02*
X214147772Y-91506000D01*
X214147772Y-91506000D02*
X214885000Y-91506000D01*
%TD*%
%TA.AperFunction,Conductor*%
%TO.N,GND*%
G36*
X207274075Y-110442993D02*
G01*
X207339901Y-110557007D01*
X207432993Y-110650099D01*
X207547007Y-110715925D01*
X207610590Y-110732962D01*
X206978282Y-111365269D01*
X206978282Y-111365270D01*
X207032450Y-111404624D01*
X207150971Y-111465015D01*
X207201767Y-111512990D01*
X207218562Y-111580811D01*
X207196024Y-111646946D01*
X207141309Y-111690397D01*
X207094676Y-111699500D01*
X206456894Y-111699500D01*
X206389855Y-111679815D01*
X206344100Y-111627011D01*
X206334156Y-111557853D01*
X206363181Y-111494297D01*
X206382582Y-111476234D01*
X206391501Y-111469557D01*
X206407546Y-111457546D01*
X206493796Y-111342331D01*
X206544091Y-111207483D01*
X206550500Y-111147873D01*
X206550499Y-111137312D01*
X206570179Y-111070275D01*
X206586818Y-111049626D01*
X207257036Y-110379407D01*
X207274075Y-110442993D01*
G37*
%TD.AperFunction*%
%TA.AperFunction,Conductor*%
G36*
X208855270Y-111011717D02*
G01*
X208855270Y-111011716D01*
X208894622Y-110957555D01*
X208899232Y-110948507D01*
X208947205Y-110897709D01*
X209015025Y-110880912D01*
X209081161Y-110903447D01*
X209120204Y-110948504D01*
X209124949Y-110957817D01*
X209249890Y-111129786D01*
X209400213Y-111280109D01*
X209528135Y-111373048D01*
X209572184Y-111405051D01*
X209675211Y-111457546D01*
X209689870Y-111465015D01*
X209740666Y-111512990D01*
X209757461Y-111580811D01*
X209734924Y-111646946D01*
X209680208Y-111690397D01*
X209633575Y-111699500D01*
X208385324Y-111699500D01*
X208318285Y-111679815D01*
X208272530Y-111627011D01*
X208262586Y-111557853D01*
X208291611Y-111494297D01*
X208329029Y-111465015D01*
X208447554Y-111404622D01*
X208501716Y-111365270D01*
X208501717Y-111365270D01*
X207869408Y-110732962D01*
X207932993Y-110715925D01*
X208047007Y-110650099D01*
X208140099Y-110557007D01*
X208205925Y-110442993D01*
X208222962Y-110379409D01*
X208855270Y-111011717D01*
G37*
%TD.AperFunction*%
%TA.AperFunction,Conductor*%
G36*
X211846645Y-108310143D02*
G01*
X211876635Y-108316667D01*
X211879866Y-108319898D01*
X211884248Y-108321185D01*
X211904333Y-108344365D01*
X211926041Y-108366072D01*
X211927012Y-108370537D01*
X211930003Y-108373989D01*
X211934369Y-108404357D01*
X211940893Y-108434345D01*
X211939561Y-108440466D01*
X211939947Y-108443147D01*
X211933391Y-108468833D01*
X211905908Y-108542517D01*
X211899501Y-108602116D01*
X211899500Y-108602135D01*
X211899500Y-109547870D01*
X211899501Y-109547876D01*
X211905908Y-109607483D01*
X211956202Y-109742328D01*
X211956206Y-109742335D01*
X212042452Y-109857544D01*
X212047584Y-109862676D01*
X212081069Y-109923999D01*
X212076085Y-109993691D01*
X212047584Y-110038038D01*
X212042809Y-110042812D01*
X211956649Y-110157906D01*
X211956645Y-110157913D01*
X211906403Y-110292620D01*
X211906401Y-110292627D01*
X211900000Y-110352155D01*
X211900000Y-110575000D01*
X214500000Y-110575000D01*
X214508283Y-110566716D01*
X214519685Y-110527888D01*
X214572489Y-110482133D01*
X214641647Y-110472189D01*
X214671450Y-110480365D01*
X214766503Y-110519737D01*
X214807481Y-110527888D01*
X214921849Y-110550638D01*
X214983760Y-110583023D01*
X214985339Y-110584574D01*
X215363181Y-110962417D01*
X215396666Y-111023740D01*
X215399500Y-111050098D01*
X215399500Y-111297869D01*
X215399501Y-111297876D01*
X215405908Y-111357483D01*
X215456202Y-111492328D01*
X215456206Y-111492334D01*
X215462835Y-111501190D01*
X215487252Y-111566654D01*
X215472400Y-111634927D01*
X215422995Y-111684332D01*
X215363568Y-111699500D01*
X214535808Y-111699500D01*
X214468769Y-111679815D01*
X214423014Y-111627011D01*
X214413070Y-111557853D01*
X214436540Y-111501190D01*
X214443353Y-111492088D01*
X214443354Y-111492086D01*
X214493596Y-111357379D01*
X214493598Y-111357372D01*
X214499999Y-111297844D01*
X214500000Y-111297827D01*
X214500000Y-111075000D01*
X211900000Y-111075000D01*
X211900000Y-111297844D01*
X211906401Y-111357372D01*
X211906403Y-111357379D01*
X211956645Y-111492086D01*
X211956646Y-111492088D01*
X211963460Y-111501190D01*
X211987876Y-111566655D01*
X211973024Y-111634928D01*
X211923618Y-111684333D01*
X211864192Y-111699500D01*
X210926425Y-111699500D01*
X210859386Y-111679815D01*
X210813631Y-111627011D01*
X210803687Y-111557853D01*
X210832712Y-111494297D01*
X210870130Y-111465015D01*
X210876648Y-111461693D01*
X210987816Y-111405051D01*
X211130888Y-111301104D01*
X211159786Y-111280109D01*
X211159788Y-111280106D01*
X211159792Y-111280104D01*
X211310104Y-111129792D01*
X211310106Y-111129788D01*
X211310109Y-111129786D01*
X211435048Y-110957820D01*
X211435050Y-110957817D01*
X211435051Y-110957816D01*
X211531557Y-110768412D01*
X211597246Y-110566243D01*
X211630500Y-110356287D01*
X211630500Y-110143713D01*
X211597246Y-109933757D01*
X211531557Y-109731588D01*
X211435051Y-109542184D01*
X211435049Y-109542181D01*
X211435048Y-109542179D01*
X211310109Y-109370213D01*
X211159786Y-109219890D01*
X210987820Y-109094951D01*
X210798414Y-108998444D01*
X210798413Y-108998443D01*
X210798412Y-108998443D01*
X210596243Y-108932754D01*
X210596241Y-108932753D01*
X210596240Y-108932753D01*
X210434957Y-108907208D01*
X210386287Y-108899500D01*
X210173713Y-108899500D01*
X210145006Y-108904046D01*
X209963757Y-108932753D01*
X209921473Y-108946492D01*
X209851632Y-108948486D01*
X209795476Y-108916241D01*
X209392416Y-108513181D01*
X209358931Y-108451858D01*
X209363915Y-108382166D01*
X209405787Y-108326233D01*
X209471251Y-108301816D01*
X209480097Y-108301500D01*
X211817209Y-108301500D01*
X211846645Y-108310143D01*
G37*
%TD.AperFunction*%
%TA.AperFunction,Conductor*%
G36*
X213866703Y-99602242D02*
G01*
X213873181Y-99608274D01*
X217748181Y-103483274D01*
X217781666Y-103544597D01*
X217784500Y-103570955D01*
X217784500Y-103881169D01*
X217764815Y-103948208D01*
X217712011Y-103993963D01*
X217642853Y-104003907D01*
X217617167Y-103997351D01*
X217507379Y-103956403D01*
X217507372Y-103956401D01*
X217447844Y-103950000D01*
X216850000Y-103950000D01*
X216850000Y-104751000D01*
X216830315Y-104818039D01*
X216777511Y-104863794D01*
X216726000Y-104875000D01*
X216600000Y-104875000D01*
X216600000Y-105001000D01*
X216580315Y-105068039D01*
X216527511Y-105113794D01*
X216476000Y-105125000D01*
X215300000Y-105125000D01*
X215300000Y-105347844D01*
X215306401Y-105407372D01*
X215306403Y-105407379D01*
X215356645Y-105542086D01*
X215356649Y-105542093D01*
X215442809Y-105657187D01*
X215447584Y-105661962D01*
X215481069Y-105723285D01*
X215476085Y-105792977D01*
X215447584Y-105837324D01*
X215442452Y-105842455D01*
X215356206Y-105957664D01*
X215356202Y-105957671D01*
X215305908Y-106092517D01*
X215299829Y-106149067D01*
X215299501Y-106152123D01*
X215299500Y-106152135D01*
X215299500Y-107097870D01*
X215299501Y-107097876D01*
X215305908Y-107157483D01*
X215356202Y-107292328D01*
X215356206Y-107292335D01*
X215442452Y-107407544D01*
X215442455Y-107407547D01*
X215557664Y-107493793D01*
X215557671Y-107493797D01*
X215602618Y-107510561D01*
X215692517Y-107544091D01*
X215752127Y-107550500D01*
X216057648Y-107550499D01*
X216124687Y-107570183D01*
X216126539Y-107571397D01*
X216220814Y-107634390D01*
X216220827Y-107634397D01*
X216366498Y-107694735D01*
X216366503Y-107694737D01*
X216521153Y-107725499D01*
X216521156Y-107725500D01*
X216521158Y-107725500D01*
X216678844Y-107725500D01*
X216678845Y-107725499D01*
X216833497Y-107694737D01*
X216979179Y-107634394D01*
X217073461Y-107571396D01*
X217140137Y-107550519D01*
X217142351Y-107550499D01*
X217447871Y-107550499D01*
X217447872Y-107550499D01*
X217507483Y-107544091D01*
X217617169Y-107503180D01*
X217686858Y-107498197D01*
X217748181Y-107531682D01*
X217781666Y-107593005D01*
X217784500Y-107619363D01*
X217784500Y-108043338D01*
X217764815Y-108110377D01*
X217712011Y-108156132D01*
X217642853Y-108166076D01*
X217617171Y-108159521D01*
X217607487Y-108155909D01*
X217607483Y-108155908D01*
X217547883Y-108149501D01*
X217547881Y-108149500D01*
X217547873Y-108149500D01*
X217547864Y-108149500D01*
X215852129Y-108149500D01*
X215852123Y-108149501D01*
X215792516Y-108155908D01*
X215657671Y-108206202D01*
X215657664Y-108206206D01*
X215542455Y-108292452D01*
X215542452Y-108292455D01*
X215456207Y-108407663D01*
X215454973Y-108409924D01*
X215453150Y-108411746D01*
X215450888Y-108414769D01*
X215450453Y-108414443D01*
X215445447Y-108419449D01*
X215439852Y-108431703D01*
X215421225Y-108443673D01*
X215405569Y-108459331D01*
X215391124Y-108463017D01*
X215381074Y-108469477D01*
X215346139Y-108474500D01*
X215274501Y-108474500D01*
X215207462Y-108454815D01*
X215161707Y-108402011D01*
X215150501Y-108350500D01*
X215150501Y-108295944D01*
X215149566Y-108292454D01*
X215109577Y-108143216D01*
X215067142Y-108069716D01*
X215030524Y-108006290D01*
X215030518Y-108006282D01*
X214392747Y-107368512D01*
X214359262Y-107307189D01*
X214364245Y-107237502D01*
X214394091Y-107157483D01*
X214400500Y-107097873D01*
X214400499Y-106152128D01*
X214394091Y-106092517D01*
X214392383Y-106087938D01*
X214343797Y-105957671D01*
X214343793Y-105957664D01*
X214257547Y-105842455D01*
X214252773Y-105837681D01*
X214219288Y-105776358D01*
X214224272Y-105706666D01*
X214252773Y-105662319D01*
X214257542Y-105657548D01*
X214257546Y-105657546D01*
X214343796Y-105542331D01*
X214394091Y-105407483D01*
X214400500Y-105347873D01*
X214400499Y-104402155D01*
X215300000Y-104402155D01*
X215300000Y-104625000D01*
X216350000Y-104625000D01*
X216350000Y-103950000D01*
X215752155Y-103950000D01*
X215692627Y-103956401D01*
X215692620Y-103956403D01*
X215557913Y-104006645D01*
X215557906Y-104006649D01*
X215442812Y-104092809D01*
X215442809Y-104092812D01*
X215356649Y-104207906D01*
X215356645Y-104207913D01*
X215306403Y-104342620D01*
X215306401Y-104342627D01*
X215300000Y-104402155D01*
X214400499Y-104402155D01*
X214400499Y-104402128D01*
X214394091Y-104342517D01*
X214380621Y-104306403D01*
X214343797Y-104207671D01*
X214343793Y-104207664D01*
X214257547Y-104092455D01*
X214257544Y-104092452D01*
X214142335Y-104006206D01*
X214142328Y-104006202D01*
X214007482Y-103955908D01*
X214007483Y-103955908D01*
X213947883Y-103949501D01*
X213947881Y-103949500D01*
X213947873Y-103949500D01*
X213947865Y-103949500D01*
X212659714Y-103949500D01*
X212592675Y-103929815D01*
X212546920Y-103877011D01*
X212536976Y-103807853D01*
X212556610Y-103756612D01*
X212559389Y-103752451D01*
X212559394Y-103752444D01*
X212619737Y-103606762D01*
X212650500Y-103452107D01*
X212650500Y-103294423D01*
X212650500Y-103294420D01*
X212650499Y-103294418D01*
X212625634Y-103169414D01*
X212619737Y-103139768D01*
X212610063Y-103116412D01*
X212559397Y-102994092D01*
X212559390Y-102994079D01*
X212471789Y-102862976D01*
X212471786Y-102862972D01*
X212360292Y-102751478D01*
X212360288Y-102751475D01*
X212266192Y-102688602D01*
X212221387Y-102634990D01*
X212212680Y-102565665D01*
X212242834Y-102502637D01*
X212302277Y-102465918D01*
X212335083Y-102461500D01*
X212719881Y-102461500D01*
X212719897Y-102461501D01*
X212727493Y-102461501D01*
X212885604Y-102461501D01*
X212885607Y-102461501D01*
X213038335Y-102420577D01*
X213088454Y-102391639D01*
X213175266Y-102341520D01*
X213287070Y-102229716D01*
X213287070Y-102229714D01*
X213541520Y-101975266D01*
X213620577Y-101838334D01*
X213661501Y-101685607D01*
X213661501Y-101527492D01*
X213661501Y-101519897D01*
X213661500Y-101519879D01*
X213661500Y-99695955D01*
X213681185Y-99628916D01*
X213733989Y-99583161D01*
X213803147Y-99573217D01*
X213866703Y-99602242D01*
G37*
%TD.AperFunction*%
%TA.AperFunction,Conductor*%
G36*
X201175075Y-105383993D02*
G01*
X201240901Y-105498007D01*
X201333993Y-105591099D01*
X201448007Y-105656925D01*
X201511590Y-105673962D01*
X200879282Y-106306269D01*
X200879282Y-106306270D01*
X200933452Y-106345626D01*
X200933451Y-106345626D01*
X200942495Y-106350234D01*
X200993292Y-106398208D01*
X201010087Y-106466029D01*
X200987550Y-106532164D01*
X200942499Y-106571202D01*
X200933182Y-106575949D01*
X200761213Y-106700890D01*
X200610890Y-106851213D01*
X200485950Y-107023180D01*
X200484984Y-107025078D01*
X200484424Y-107025669D01*
X200483404Y-107027336D01*
X200483053Y-107027121D01*
X200437009Y-107075873D01*
X200369187Y-107092667D01*
X200303053Y-107070128D01*
X200259602Y-107015413D01*
X200250500Y-106968781D01*
X200250500Y-105952116D01*
X200270185Y-105885077D01*
X200322989Y-105839322D01*
X200392147Y-105829378D01*
X200455703Y-105858403D01*
X200484987Y-105895826D01*
X200486374Y-105898548D01*
X200525728Y-105952716D01*
X201158037Y-105320408D01*
X201175075Y-105383993D01*
G37*
%TD.AperFunction*%
%TA.AperFunction,Conductor*%
G36*
X221279270Y-105899717D02*
G01*
X221282845Y-105899435D01*
X221330512Y-105862679D01*
X221400125Y-105856700D01*
X221461920Y-105889305D01*
X221496277Y-105950144D01*
X221499500Y-105978230D01*
X221499500Y-106836916D01*
X221479815Y-106903955D01*
X221427011Y-106949710D01*
X221357853Y-106959654D01*
X221294297Y-106930629D01*
X221275182Y-106909801D01*
X221194109Y-106798214D01*
X221194105Y-106798209D01*
X221043786Y-106647890D01*
X220871817Y-106522949D01*
X220862504Y-106518204D01*
X220811707Y-106470230D01*
X220794912Y-106402409D01*
X220817449Y-106336274D01*
X220862507Y-106297232D01*
X220871555Y-106292622D01*
X220925716Y-106253270D01*
X220925717Y-106253270D01*
X220293409Y-105620962D01*
X220356993Y-105603925D01*
X220471007Y-105538099D01*
X220564099Y-105445007D01*
X220629925Y-105330993D01*
X220646962Y-105267408D01*
X221279270Y-105899717D01*
G37*
%TD.AperFunction*%
%TA.AperFunction,Conductor*%
G36*
X204178834Y-101050772D02*
G01*
X204234767Y-101092644D01*
X204259184Y-101158108D01*
X204259500Y-101166954D01*
X204259500Y-104226043D01*
X204239815Y-104293082D01*
X204223181Y-104313724D01*
X203202681Y-105334224D01*
X203141358Y-105367709D01*
X203071666Y-105362725D01*
X203015733Y-105320853D01*
X202991316Y-105255389D01*
X202991000Y-105246543D01*
X202991000Y-105084753D01*
X202957757Y-104874872D01*
X202957757Y-104874869D01*
X202892095Y-104672782D01*
X202795624Y-104483449D01*
X202756270Y-104429282D01*
X202756269Y-104429282D01*
X202123962Y-105061590D01*
X202106925Y-104998007D01*
X202041099Y-104883993D01*
X201948007Y-104790901D01*
X201833993Y-104725075D01*
X201770409Y-104708037D01*
X202402716Y-104075728D01*
X202348547Y-104036373D01*
X202348547Y-104036372D01*
X202339500Y-104031763D01*
X202288706Y-103983788D01*
X202271912Y-103915966D01*
X202294451Y-103849832D01*
X202339508Y-103810793D01*
X202348816Y-103806051D01*
X202428007Y-103748515D01*
X202520786Y-103681109D01*
X202520788Y-103681106D01*
X202520792Y-103681104D01*
X202671104Y-103530792D01*
X202671106Y-103530788D01*
X202671109Y-103530786D01*
X202796048Y-103358820D01*
X202796047Y-103358820D01*
X202796051Y-103358816D01*
X202892557Y-103169412D01*
X202958246Y-102967243D01*
X202991500Y-102757287D01*
X202991500Y-102544713D01*
X202958246Y-102334757D01*
X202941038Y-102281799D01*
X202939044Y-102211960D01*
X202971287Y-102155804D01*
X204047820Y-101079271D01*
X204109142Y-101045788D01*
X204178834Y-101050772D01*
G37*
%TD.AperFunction*%
%TA.AperFunction,Conductor*%
G36*
X209371952Y-103709863D02*
G01*
X209476214Y-103753049D01*
X209516503Y-103769737D01*
X209594366Y-103785225D01*
X209671146Y-103800498D01*
X209671149Y-103800498D01*
X209671158Y-103800500D01*
X209671166Y-103800500D01*
X209676080Y-103800984D01*
X209733137Y-103821496D01*
X209743111Y-103828204D01*
X209760689Y-103845782D01*
X209817430Y-103878541D01*
X209859027Y-103902557D01*
X209895335Y-103923520D01*
X209895336Y-103923521D01*
X209895338Y-103923521D01*
X209895341Y-103923523D01*
X210045524Y-103963765D01*
X211257217Y-103963765D01*
X211324256Y-103983450D01*
X211335882Y-103991912D01*
X211339710Y-103995054D01*
X211470814Y-104082655D01*
X211470827Y-104082662D01*
X211616498Y-104143000D01*
X211616503Y-104143002D01*
X211719191Y-104163428D01*
X211781102Y-104195812D01*
X211815676Y-104256528D01*
X211818148Y-104299559D01*
X211816400Y-104314388D01*
X211805909Y-104342517D01*
X211799500Y-104402127D01*
X211799500Y-104457784D01*
X211798648Y-104465014D01*
X211787687Y-104490728D01*
X211779815Y-104517539D01*
X211774177Y-104522423D01*
X211771252Y-104529288D01*
X211748130Y-104544993D01*
X211727011Y-104563294D01*
X211718447Y-104565157D01*
X211713455Y-104568548D01*
X211701453Y-104568854D01*
X211675500Y-104574500D01*
X211645940Y-104574500D01*
X211605019Y-104585464D01*
X211605019Y-104585465D01*
X211600862Y-104586579D01*
X211493214Y-104615423D01*
X211493211Y-104615425D01*
X211432226Y-104650634D01*
X211364326Y-104667105D01*
X211298299Y-104644252D01*
X211255110Y-104589330D01*
X211254046Y-104586579D01*
X211243354Y-104557913D01*
X211243350Y-104557906D01*
X211157190Y-104442812D01*
X211157187Y-104442809D01*
X211042093Y-104356649D01*
X211042086Y-104356645D01*
X210907379Y-104306403D01*
X210907372Y-104306401D01*
X210847844Y-104300000D01*
X210250000Y-104300000D01*
X210250000Y-105101000D01*
X210230315Y-105168039D01*
X210177511Y-105213794D01*
X210126000Y-105225000D01*
X209874000Y-105225000D01*
X209806961Y-105205315D01*
X209761206Y-105152511D01*
X209750000Y-105101000D01*
X209750000Y-104300000D01*
X209324500Y-104300000D01*
X209257461Y-104280315D01*
X209211706Y-104227511D01*
X209200500Y-104176000D01*
X209200500Y-103824424D01*
X209220185Y-103757385D01*
X209272989Y-103711630D01*
X209342147Y-103701686D01*
X209371952Y-103709863D01*
G37*
%TD.AperFunction*%
%TA.AperFunction,Conductor*%
G36*
X200455703Y-103319505D02*
G01*
X200483276Y-103354742D01*
X200483404Y-103354664D01*
X200484084Y-103355773D01*
X200484988Y-103356929D01*
X200485951Y-103358820D01*
X200610890Y-103530786D01*
X200761213Y-103681109D01*
X200933179Y-103806048D01*
X200933181Y-103806049D01*
X200933184Y-103806051D01*
X200942493Y-103810794D01*
X200993290Y-103858766D01*
X201010087Y-103926587D01*
X200987552Y-103992722D01*
X200942505Y-104031760D01*
X200933446Y-104036376D01*
X200933440Y-104036380D01*
X200879282Y-104075727D01*
X200879282Y-104075728D01*
X201511591Y-104708037D01*
X201448007Y-104725075D01*
X201333993Y-104790901D01*
X201240901Y-104883993D01*
X201175075Y-104998007D01*
X201158037Y-105061591D01*
X200525728Y-104429282D01*
X200525727Y-104429282D01*
X200486380Y-104483440D01*
X200486378Y-104483443D01*
X200484984Y-104486180D01*
X200484180Y-104487030D01*
X200483838Y-104487590D01*
X200483720Y-104487517D01*
X200437009Y-104536976D01*
X200369188Y-104553770D01*
X200303053Y-104531232D01*
X200259602Y-104476516D01*
X200250500Y-104429884D01*
X200250500Y-103413218D01*
X200270185Y-103346179D01*
X200322989Y-103300424D01*
X200392147Y-103290480D01*
X200455703Y-103319505D01*
G37*
%TD.AperFunction*%
%TA.AperFunction,Conductor*%
G36*
X221461920Y-103350158D02*
G01*
X221496277Y-103410997D01*
X221499500Y-103439083D01*
X221499500Y-104297768D01*
X221479815Y-104364807D01*
X221427011Y-104410562D01*
X221357853Y-104420506D01*
X221294297Y-104391481D01*
X221280431Y-104376373D01*
X221279269Y-104376282D01*
X220646962Y-105008590D01*
X220629925Y-104945007D01*
X220564099Y-104830993D01*
X220471007Y-104737901D01*
X220356993Y-104672075D01*
X220293407Y-104655036D01*
X220925716Y-104022728D01*
X220871547Y-103983373D01*
X220871547Y-103983372D01*
X220862500Y-103978763D01*
X220811706Y-103930788D01*
X220794912Y-103862966D01*
X220817451Y-103796832D01*
X220862508Y-103757793D01*
X220871816Y-103753051D01*
X220951007Y-103695515D01*
X221043786Y-103628109D01*
X221043788Y-103628106D01*
X221043792Y-103628104D01*
X221194104Y-103477792D01*
X221194106Y-103477788D01*
X221194109Y-103477786D01*
X221275182Y-103366198D01*
X221330511Y-103323532D01*
X221400125Y-103317553D01*
X221461920Y-103350158D01*
G37*
%TD.AperFunction*%
%TA.AperFunction,Conductor*%
G36*
X208064766Y-96747267D02*
G01*
X208073605Y-96752494D01*
X208073608Y-96752494D01*
X208073610Y-96752496D01*
X208229002Y-96797642D01*
X208229005Y-96797642D01*
X208229007Y-96797643D01*
X208265310Y-96800500D01*
X208265318Y-96800500D01*
X208376000Y-96800500D01*
X208384685Y-96803050D01*
X208393647Y-96801762D01*
X208417687Y-96812740D01*
X208443039Y-96820185D01*
X208448966Y-96827025D01*
X208457203Y-96830787D01*
X208471492Y-96853021D01*
X208488794Y-96872989D01*
X208491081Y-96883503D01*
X208494977Y-96889565D01*
X208500000Y-96924500D01*
X208500000Y-97106000D01*
X208480315Y-97173039D01*
X208427511Y-97218794D01*
X208376000Y-97230000D01*
X207695496Y-97230000D01*
X207737968Y-97376195D01*
X207820278Y-97515374D01*
X207820285Y-97515383D01*
X207934616Y-97629714D01*
X207934625Y-97629721D01*
X208073803Y-97712030D01*
X208229090Y-97757145D01*
X208265362Y-97759999D01*
X208344498Y-97759999D01*
X208411538Y-97779683D01*
X208457294Y-97832486D01*
X208468500Y-97883999D01*
X208468500Y-100196738D01*
X208468499Y-100196738D01*
X208508743Y-100346927D01*
X208586480Y-100481571D01*
X208586482Y-100481573D01*
X208586483Y-100481575D01*
X208696425Y-100591517D01*
X208831076Y-100669258D01*
X208883798Y-100683384D01*
X208897684Y-100691401D01*
X208911131Y-100694327D01*
X208939385Y-100715478D01*
X209061726Y-100837819D01*
X209095211Y-100899142D01*
X209090227Y-100968834D01*
X209048355Y-101024767D01*
X208982891Y-101049184D01*
X208974045Y-101049500D01*
X208520943Y-101049500D01*
X208368216Y-101090423D01*
X208368209Y-101090426D01*
X208231290Y-101169475D01*
X208231282Y-101169481D01*
X208119481Y-101281282D01*
X208119475Y-101281290D01*
X208040426Y-101418209D01*
X208040423Y-101418216D01*
X207999500Y-101570943D01*
X207999500Y-104555951D01*
X207979815Y-104622990D01*
X207927011Y-104668745D01*
X207857853Y-104678689D01*
X207794297Y-104649664D01*
X207759318Y-104599284D01*
X207743797Y-104557671D01*
X207743793Y-104557664D01*
X207657547Y-104442455D01*
X207657544Y-104442452D01*
X207542335Y-104356206D01*
X207542328Y-104356202D01*
X207407482Y-104305908D01*
X207407483Y-104305908D01*
X207347883Y-104299501D01*
X207347881Y-104299500D01*
X207347873Y-104299500D01*
X207347865Y-104299500D01*
X206123500Y-104299500D01*
X206056461Y-104279815D01*
X206010706Y-104227011D01*
X205999500Y-104175500D01*
X205999500Y-99336955D01*
X206019185Y-99269916D01*
X206035819Y-99249274D01*
X206053885Y-99231208D01*
X206072518Y-99212575D01*
X206150258Y-99077924D01*
X206152560Y-99069334D01*
X206190500Y-98927741D01*
X206190500Y-98292548D01*
X206210185Y-98225509D01*
X206226814Y-98204872D01*
X207665367Y-96766318D01*
X207726690Y-96732834D01*
X207753048Y-96730000D01*
X208001648Y-96730000D01*
X208064766Y-96747267D01*
G37*
%TD.AperFunction*%
%TA.AperFunction,Conductor*%
G36*
X219107009Y-90768077D02*
G01*
X219153437Y-90797333D01*
X219284213Y-90928109D01*
X219456179Y-91053048D01*
X219456181Y-91053049D01*
X219456184Y-91053051D01*
X219465493Y-91057794D01*
X219516290Y-91105766D01*
X219533087Y-91173587D01*
X219510552Y-91239722D01*
X219465505Y-91278760D01*
X219456446Y-91283376D01*
X219456440Y-91283380D01*
X219402282Y-91322727D01*
X219402282Y-91322728D01*
X220034591Y-91955037D01*
X219971007Y-91972075D01*
X219856993Y-92037901D01*
X219763901Y-92130993D01*
X219698075Y-92245007D01*
X219681037Y-92308591D01*
X219048728Y-91676282D01*
X219048727Y-91676282D01*
X219009380Y-91730439D01*
X218912904Y-91919782D01*
X218847242Y-92121869D01*
X218847242Y-92121872D01*
X218814000Y-92331753D01*
X218814000Y-92544246D01*
X218847242Y-92754127D01*
X218847242Y-92754130D01*
X218912904Y-92956217D01*
X219009375Y-93145550D01*
X219048728Y-93199716D01*
X219681037Y-92567408D01*
X219698075Y-92630993D01*
X219763901Y-92745007D01*
X219856993Y-92838099D01*
X219971007Y-92903925D01*
X220034590Y-92920962D01*
X219402282Y-93553269D01*
X219402282Y-93553270D01*
X219456452Y-93592626D01*
X219456451Y-93592626D01*
X219465495Y-93597234D01*
X219516292Y-93645208D01*
X219533087Y-93713029D01*
X219510550Y-93779164D01*
X219465499Y-93818202D01*
X219456182Y-93822949D01*
X219284213Y-93947890D01*
X219133890Y-94098213D01*
X219008951Y-94270179D01*
X218912444Y-94459585D01*
X218846753Y-94661760D01*
X218813500Y-94871713D01*
X218813500Y-95084286D01*
X218846753Y-95294239D01*
X218912444Y-95496414D01*
X219008951Y-95685820D01*
X219133890Y-95857786D01*
X219284213Y-96008109D01*
X219456182Y-96133050D01*
X219464946Y-96137516D01*
X219515742Y-96185491D01*
X219532536Y-96253312D01*
X219509998Y-96319447D01*
X219464946Y-96358484D01*
X219456182Y-96362949D01*
X219284213Y-96487890D01*
X219133890Y-96638213D01*
X219008951Y-96810179D01*
X218912444Y-96999585D01*
X218846753Y-97201760D01*
X218813500Y-97411713D01*
X218813500Y-97624286D01*
X218846475Y-97832486D01*
X218846754Y-97834243D01*
X218895247Y-97983489D01*
X218912444Y-98036414D01*
X219008951Y-98225820D01*
X219133890Y-98397786D01*
X219284213Y-98548109D01*
X219456182Y-98673050D01*
X219464946Y-98677516D01*
X219515742Y-98725491D01*
X219532536Y-98793312D01*
X219509998Y-98859447D01*
X219464946Y-98898484D01*
X219456182Y-98902949D01*
X219284213Y-99027890D01*
X219133890Y-99178213D01*
X219008951Y-99350179D01*
X218912444Y-99539585D01*
X218846753Y-99741760D01*
X218820010Y-99910611D01*
X218813500Y-99951713D01*
X218813500Y-100164287D01*
X218825548Y-100240354D01*
X218842427Y-100346927D01*
X218846754Y-100374243D01*
X218849550Y-100382847D01*
X218851544Y-100452689D01*
X218815462Y-100512521D01*
X218752760Y-100543347D01*
X218683346Y-100535381D01*
X218643937Y-100508844D01*
X216715222Y-98580129D01*
X216681737Y-98518806D01*
X216686721Y-98449114D01*
X216728593Y-98393181D01*
X216733996Y-98389357D01*
X216760289Y-98371789D01*
X216871789Y-98260289D01*
X216959394Y-98129179D01*
X217019737Y-97983497D01*
X217049426Y-97834243D01*
X217050638Y-97828150D01*
X217083023Y-97766239D01*
X217084525Y-97764709D01*
X217308506Y-97540727D01*
X217308511Y-97540724D01*
X217318714Y-97530520D01*
X217318716Y-97530520D01*
X217430520Y-97418716D01*
X217509577Y-97281784D01*
X217544770Y-97150441D01*
X217550500Y-97129058D01*
X217550500Y-96970943D01*
X217550500Y-91816698D01*
X217556840Y-91795103D01*
X217558582Y-91772664D01*
X217566495Y-91762225D01*
X217570185Y-91749659D01*
X217587191Y-91734922D01*
X217600790Y-91716984D01*
X217616800Y-91709266D01*
X217622989Y-91703904D01*
X217631869Y-91700257D01*
X217637058Y-91698356D01*
X217781785Y-91659577D01*
X217839744Y-91626114D01*
X217918716Y-91580520D01*
X217922176Y-91577060D01*
X217983497Y-91543571D01*
X218034052Y-91543119D01*
X218071158Y-91550500D01*
X218228844Y-91550500D01*
X218228845Y-91550499D01*
X218383497Y-91519737D01*
X218529179Y-91459394D01*
X218660289Y-91371789D01*
X218771789Y-91260289D01*
X218859394Y-91129179D01*
X218919737Y-90983497D01*
X218938093Y-90891216D01*
X218944139Y-90860823D01*
X218976524Y-90798912D01*
X219037240Y-90764338D01*
X219107009Y-90768077D01*
G37*
%TD.AperFunction*%
%TA.AperFunction,Conductor*%
G36*
X210143039Y-98319685D02*
G01*
X210188794Y-98372489D01*
X210200000Y-98424000D01*
X210200000Y-99499999D01*
X210349972Y-99499999D01*
X210349986Y-99499998D01*
X210452697Y-99489505D01*
X210619119Y-99434358D01*
X210619126Y-99434355D01*
X210734425Y-99363237D01*
X210749447Y-99359126D01*
X210762391Y-99350465D01*
X210782459Y-99350093D01*
X210801818Y-99344796D01*
X210817639Y-99349441D01*
X210832249Y-99349171D01*
X210864618Y-99363235D01*
X210886859Y-99376954D01*
X210913914Y-99393641D01*
X210960639Y-99445589D01*
X210971862Y-99514551D01*
X210944019Y-99578633D01*
X210911940Y-99605912D01*
X210822402Y-99658865D01*
X210822396Y-99658869D01*
X210708869Y-99772396D01*
X210708863Y-99772404D01*
X210627131Y-99910606D01*
X210627129Y-99910611D01*
X210582335Y-100064791D01*
X210582334Y-100064797D01*
X210579500Y-100100811D01*
X210579500Y-100386045D01*
X210559815Y-100453084D01*
X210507011Y-100498839D01*
X210437853Y-100508783D01*
X210374297Y-100479758D01*
X210367819Y-100473726D01*
X209685819Y-99791726D01*
X209671115Y-99764798D01*
X209654523Y-99738980D01*
X209653631Y-99732779D01*
X209652334Y-99730403D01*
X209649500Y-99704045D01*
X209649500Y-99601861D01*
X209669185Y-99534822D01*
X209685819Y-99514180D01*
X209700000Y-99499999D01*
X209700000Y-98424000D01*
X209719685Y-98356961D01*
X209772489Y-98311206D01*
X209824000Y-98300000D01*
X210076000Y-98300000D01*
X210143039Y-98319685D01*
G37*
%TD.AperFunction*%
%TA.AperFunction,Conductor*%
G36*
X216292539Y-91499685D02*
G01*
X216338294Y-91552489D01*
X216349500Y-91604000D01*
X216349500Y-96749903D01*
X216340855Y-96779340D01*
X216334332Y-96809331D01*
X216330576Y-96814347D01*
X216329815Y-96816942D01*
X216313185Y-96837579D01*
X216267262Y-96883503D01*
X216235339Y-96915426D01*
X216174015Y-96948910D01*
X216171850Y-96949361D01*
X216016508Y-96980261D01*
X216016498Y-96980264D01*
X215870827Y-97040602D01*
X215870814Y-97040609D01*
X215783391Y-97099024D01*
X215716713Y-97119902D01*
X215649333Y-97101417D01*
X215602643Y-97049438D01*
X215590500Y-96995922D01*
X215590500Y-92467326D01*
X215610185Y-92400287D01*
X215623390Y-92383213D01*
X215630830Y-92375153D01*
X215665422Y-92348922D01*
X215713138Y-92285998D01*
X215717202Y-92281597D01*
X215742233Y-92266602D01*
X215765699Y-92249262D01*
X215771851Y-92248860D01*
X215777140Y-92245692D01*
X215806300Y-92246610D01*
X215835420Y-92244709D01*
X215842907Y-92246634D01*
X215879079Y-92257143D01*
X215879091Y-92257145D01*
X215900000Y-92258789D01*
X215900000Y-91604000D01*
X215902550Y-91595314D01*
X215901262Y-91586353D01*
X215912240Y-91562312D01*
X215919685Y-91536961D01*
X215926525Y-91531033D01*
X215930287Y-91522797D01*
X215952521Y-91508507D01*
X215972489Y-91491206D01*
X215983003Y-91488918D01*
X215989065Y-91485023D01*
X216024000Y-91480000D01*
X216225500Y-91480000D01*
X216292539Y-91499685D01*
G37*
%TD.AperFunction*%
%TA.AperFunction,Conductor*%
G36*
X211893539Y-95869685D02*
G01*
X211939294Y-95922489D01*
X211950500Y-95974000D01*
X211950500Y-96226000D01*
X211947949Y-96234685D01*
X211949238Y-96243647D01*
X211938259Y-96267687D01*
X211930815Y-96293039D01*
X211923974Y-96298966D01*
X211920213Y-96307203D01*
X211897978Y-96321492D01*
X211878011Y-96338794D01*
X211867496Y-96341081D01*
X211861435Y-96344977D01*
X211826500Y-96350000D01*
X211774000Y-96350000D01*
X211706961Y-96330315D01*
X211661206Y-96277511D01*
X211650000Y-96226000D01*
X211650000Y-95974000D01*
X211669685Y-95906961D01*
X211722489Y-95861206D01*
X211774000Y-95850000D01*
X211826500Y-95850000D01*
X211893539Y-95869685D01*
G37*
%TD.AperFunction*%
%TA.AperFunction,Conductor*%
G36*
X201175075Y-92683993D02*
G01*
X201240901Y-92798007D01*
X201333993Y-92891099D01*
X201448007Y-92956925D01*
X201511590Y-92973962D01*
X200879282Y-93606269D01*
X200879282Y-93606270D01*
X200933452Y-93645626D01*
X200933451Y-93645626D01*
X200942495Y-93650234D01*
X200993292Y-93698208D01*
X201010087Y-93766029D01*
X200987550Y-93832164D01*
X200942499Y-93871202D01*
X200933182Y-93875949D01*
X200761213Y-94000890D01*
X200610890Y-94151213D01*
X200485950Y-94323180D01*
X200484984Y-94325078D01*
X200484424Y-94325669D01*
X200483404Y-94327336D01*
X200483053Y-94327121D01*
X200437009Y-94375873D01*
X200369187Y-94392667D01*
X200303053Y-94370128D01*
X200259602Y-94315413D01*
X200250500Y-94268781D01*
X200250500Y-93252116D01*
X200270185Y-93185077D01*
X200322989Y-93139322D01*
X200392147Y-93129378D01*
X200455703Y-93158403D01*
X200484987Y-93195826D01*
X200486374Y-93198548D01*
X200525728Y-93252716D01*
X201158037Y-92620408D01*
X201175075Y-92683993D01*
G37*
%TD.AperFunction*%
%TA.AperFunction,Conductor*%
G36*
X221279270Y-93199717D02*
G01*
X221282845Y-93199435D01*
X221330512Y-93162679D01*
X221400125Y-93156700D01*
X221461920Y-93189305D01*
X221496277Y-93250144D01*
X221499500Y-93278230D01*
X221499500Y-94136916D01*
X221479815Y-94203955D01*
X221427011Y-94249710D01*
X221357853Y-94259654D01*
X221294297Y-94230629D01*
X221275182Y-94209801D01*
X221194109Y-94098214D01*
X221194105Y-94098209D01*
X221043786Y-93947890D01*
X220871817Y-93822949D01*
X220862504Y-93818204D01*
X220811707Y-93770230D01*
X220794912Y-93702409D01*
X220817449Y-93636274D01*
X220862507Y-93597232D01*
X220871555Y-93592622D01*
X220925716Y-93553270D01*
X220925717Y-93553270D01*
X220293408Y-92920962D01*
X220356993Y-92903925D01*
X220471007Y-92838099D01*
X220564099Y-92745007D01*
X220629925Y-92630993D01*
X220646962Y-92567408D01*
X221279270Y-93199717D01*
G37*
%TD.AperFunction*%
%TA.AperFunction,Conductor*%
G36*
X206634039Y-91792185D02*
G01*
X206679794Y-91844989D01*
X206691000Y-91896500D01*
X206691000Y-92176373D01*
X206707199Y-92236829D01*
X206707211Y-92236871D01*
X206731242Y-92326558D01*
X206731243Y-92326559D01*
X206808979Y-92461203D01*
X206813928Y-92467652D01*
X206811664Y-92469389D01*
X206819752Y-92484201D01*
X206836345Y-92510020D01*
X206837236Y-92516220D01*
X206838534Y-92518597D01*
X206841368Y-92544955D01*
X206841368Y-92785545D01*
X206821683Y-92852584D01*
X206805049Y-92873226D01*
X206698094Y-92980181D01*
X206636771Y-93013666D01*
X206610413Y-93016500D01*
X203548814Y-93016500D01*
X203403963Y-93055313D01*
X203403962Y-93055312D01*
X203398636Y-93056740D01*
X203398630Y-93056742D01*
X203263981Y-93134481D01*
X203263978Y-93134483D01*
X202524306Y-93874155D01*
X202497817Y-93888618D01*
X202472560Y-93905153D01*
X202467458Y-93905195D01*
X202462983Y-93907640D01*
X202432876Y-93905486D01*
X202402693Y-93905741D01*
X202396878Y-93902912D01*
X202393291Y-93902656D01*
X202370466Y-93891350D01*
X202367034Y-93889185D01*
X202348816Y-93875949D01*
X202334443Y-93868625D01*
X202329639Y-93865595D01*
X202310144Y-93843475D01*
X202288707Y-93823230D01*
X202287302Y-93817559D01*
X202283441Y-93813178D01*
X202278999Y-93784028D01*
X202271912Y-93755409D01*
X202273795Y-93749880D01*
X202272916Y-93744106D01*
X202284938Y-93717183D01*
X202294449Y-93689274D01*
X202299264Y-93685101D01*
X202301405Y-93680308D01*
X202315276Y-93671227D01*
X202339507Y-93650232D01*
X202348555Y-93645622D01*
X202402716Y-93606270D01*
X202402717Y-93606270D01*
X201770408Y-92973962D01*
X201833993Y-92956925D01*
X201948007Y-92891099D01*
X202041099Y-92798007D01*
X202106925Y-92683993D01*
X202123962Y-92620408D01*
X202756270Y-93252717D01*
X202756270Y-93252716D01*
X202795622Y-93198554D01*
X202892095Y-93009217D01*
X202957757Y-92807130D01*
X202957757Y-92807127D01*
X202991000Y-92597246D01*
X202991000Y-92384753D01*
X202957757Y-92174872D01*
X202957757Y-92174869D01*
X202892094Y-91972780D01*
X202881912Y-91952796D01*
X202869015Y-91884127D01*
X202895291Y-91819386D01*
X202952397Y-91779129D01*
X202992396Y-91772500D01*
X206567000Y-91772500D01*
X206634039Y-91792185D01*
G37*
%TD.AperFunction*%
%TA.AperFunction,Conductor*%
G36*
X200455703Y-90619505D02*
G01*
X200483276Y-90654742D01*
X200483404Y-90654664D01*
X200484084Y-90655773D01*
X200484988Y-90656929D01*
X200485951Y-90658820D01*
X200610890Y-90830786D01*
X200761213Y-90981109D01*
X200933179Y-91106048D01*
X200933181Y-91106049D01*
X200933184Y-91106051D01*
X200942493Y-91110794D01*
X200993290Y-91158766D01*
X201010087Y-91226587D01*
X200987552Y-91292722D01*
X200942505Y-91331760D01*
X200933446Y-91336376D01*
X200933440Y-91336380D01*
X200879282Y-91375727D01*
X200879282Y-91375728D01*
X201511591Y-92008037D01*
X201448007Y-92025075D01*
X201333993Y-92090901D01*
X201240901Y-92183993D01*
X201175075Y-92298007D01*
X201158037Y-92361591D01*
X200525728Y-91729282D01*
X200525727Y-91729282D01*
X200486380Y-91783440D01*
X200486378Y-91783443D01*
X200484984Y-91786180D01*
X200484180Y-91787030D01*
X200483838Y-91787590D01*
X200483720Y-91787517D01*
X200437009Y-91836976D01*
X200369188Y-91853770D01*
X200303053Y-91831232D01*
X200259602Y-91776516D01*
X200250500Y-91729884D01*
X200250500Y-90713218D01*
X200270185Y-90646179D01*
X200322989Y-90600424D01*
X200392147Y-90590480D01*
X200455703Y-90619505D01*
G37*
%TD.AperFunction*%
%TA.AperFunction,Conductor*%
G36*
X221461920Y-90650158D02*
G01*
X221496277Y-90710997D01*
X221499500Y-90739083D01*
X221499500Y-91597768D01*
X221479815Y-91664807D01*
X221427011Y-91710562D01*
X221357853Y-91720506D01*
X221294297Y-91691481D01*
X221280431Y-91676373D01*
X221279269Y-91676282D01*
X220646962Y-92308590D01*
X220629925Y-92245007D01*
X220564099Y-92130993D01*
X220471007Y-92037901D01*
X220356993Y-91972075D01*
X220293409Y-91955037D01*
X220925716Y-91322728D01*
X220871547Y-91283373D01*
X220871547Y-91283372D01*
X220862500Y-91278763D01*
X220811706Y-91230788D01*
X220794912Y-91162966D01*
X220817451Y-91096832D01*
X220862508Y-91057793D01*
X220871816Y-91053051D01*
X220967561Y-90983489D01*
X221043786Y-90928109D01*
X221043788Y-90928106D01*
X221043792Y-90928104D01*
X221194104Y-90777792D01*
X221194106Y-90777788D01*
X221194109Y-90777786D01*
X221275182Y-90666198D01*
X221330511Y-90623532D01*
X221400125Y-90617553D01*
X221461920Y-90650158D01*
G37*
%TD.AperFunction*%
%TA.AperFunction,Conductor*%
G36*
X210754398Y-86806500D02*
G01*
X210778720Y-86806500D01*
X210779500Y-86806510D01*
X210812193Y-86816565D01*
X210844952Y-86826185D01*
X210845869Y-86826923D01*
X210846282Y-86827051D01*
X210846825Y-86827694D01*
X210865594Y-86842819D01*
X210879952Y-86857177D01*
X210913437Y-86918500D01*
X210916271Y-86944858D01*
X210916271Y-87023342D01*
X210947032Y-87177985D01*
X210947035Y-87177997D01*
X211007373Y-87323668D01*
X211007380Y-87323681D01*
X211094981Y-87454784D01*
X211094984Y-87454788D01*
X211206478Y-87566282D01*
X211206482Y-87566285D01*
X211337585Y-87653886D01*
X211337598Y-87653893D01*
X211474988Y-87710801D01*
X211483274Y-87714233D01*
X211637924Y-87744995D01*
X211637927Y-87744996D01*
X211637929Y-87744996D01*
X211795614Y-87744996D01*
X211812379Y-87741660D01*
X211854087Y-87733364D01*
X211910374Y-87735206D01*
X211930127Y-87740500D01*
X211930128Y-87740500D01*
X212564872Y-87740500D01*
X212564873Y-87740500D01*
X212606555Y-87729331D01*
X212609798Y-87729408D01*
X212612652Y-87727861D01*
X212644483Y-87730232D01*
X212676405Y-87730992D01*
X212680061Y-87732884D01*
X212682329Y-87733053D01*
X212690214Y-87738137D01*
X212713255Y-87750059D01*
X212720188Y-87755281D01*
X212737425Y-87772518D01*
X212761605Y-87786478D01*
X212767648Y-87791030D01*
X212784161Y-87813227D01*
X212803257Y-87833253D01*
X212804724Y-87840866D01*
X212809353Y-87847088D01*
X212811244Y-87874689D01*
X212816482Y-87901860D01*
X212813835Y-87912493D01*
X212814130Y-87916794D01*
X212811635Y-87921329D01*
X212807604Y-87937528D01*
X212777766Y-88009563D01*
X212777763Y-88009575D01*
X212747002Y-88164218D01*
X212747002Y-88321911D01*
X212777763Y-88476554D01*
X212777766Y-88476566D01*
X212838104Y-88622237D01*
X212838111Y-88622250D01*
X212925712Y-88753353D01*
X212925715Y-88753357D01*
X212991335Y-88818977D01*
X213024820Y-88880300D01*
X213019836Y-88949992D01*
X212991336Y-88994339D01*
X212925712Y-89059963D01*
X212838111Y-89191066D01*
X212838104Y-89191079D01*
X212777766Y-89336750D01*
X212777763Y-89336762D01*
X212747002Y-89491405D01*
X212747002Y-89649098D01*
X212777763Y-89803741D01*
X212777766Y-89803753D01*
X212838104Y-89949424D01*
X212838111Y-89949437D01*
X212925712Y-90080540D01*
X212925715Y-90080544D01*
X213018697Y-90173526D01*
X213052182Y-90234849D01*
X213047198Y-90304541D01*
X213018698Y-90348888D01*
X212923348Y-90444238D01*
X212923346Y-90444241D01*
X212839725Y-90569390D01*
X212786113Y-90614196D01*
X212736623Y-90624500D01*
X211962579Y-90624500D01*
X211938388Y-90622117D01*
X211898567Y-90614196D01*
X211854846Y-90605499D01*
X211854844Y-90605499D01*
X211697160Y-90605499D01*
X211697157Y-90605499D01*
X211542512Y-90636260D01*
X211542500Y-90636263D01*
X211396829Y-90696601D01*
X211396816Y-90696608D01*
X211265713Y-90784209D01*
X211265709Y-90784212D01*
X211154215Y-90895706D01*
X211154212Y-90895710D01*
X211066611Y-91026813D01*
X211066604Y-91026826D01*
X211006266Y-91172497D01*
X211006263Y-91172509D01*
X210975502Y-91327152D01*
X210975502Y-91484845D01*
X211006263Y-91639488D01*
X211008033Y-91645323D01*
X211005324Y-91646144D01*
X211007206Y-91663757D01*
X211012913Y-91692998D01*
X211010876Y-91698119D01*
X211011462Y-91703601D01*
X210998105Y-91730237D01*
X210987097Y-91757923D01*
X210982614Y-91761130D01*
X210980144Y-91766058D01*
X210954511Y-91781242D01*
X210930278Y-91798585D01*
X210923217Y-91799780D01*
X210920030Y-91801669D01*
X210895637Y-91805345D01*
X210892536Y-91805500D01*
X210754398Y-91805500D01*
X210665936Y-91816123D01*
X210663895Y-91816927D01*
X210651586Y-91817543D01*
X210648550Y-91816814D01*
X210630613Y-91816814D01*
X210540555Y-91806000D01*
X210354445Y-91806000D01*
X210264387Y-91816814D01*
X210234821Y-91816814D01*
X210201271Y-91812785D01*
X210140602Y-91805500D01*
X209954398Y-91805500D01*
X209910940Y-91810718D01*
X209862283Y-91816561D01*
X209832717Y-91816561D01*
X209784059Y-91810718D01*
X209740602Y-91805500D01*
X209554398Y-91805500D01*
X209510940Y-91810718D01*
X209462283Y-91816561D01*
X209432717Y-91816561D01*
X209384059Y-91810718D01*
X209340602Y-91805500D01*
X209154398Y-91805500D01*
X209113160Y-91810452D01*
X209076549Y-91814848D01*
X209007641Y-91803296D01*
X208955917Y-91756323D01*
X208937800Y-91688843D01*
X208938649Y-91676967D01*
X208948000Y-91599102D01*
X208948000Y-91412898D01*
X208937377Y-91324436D01*
X208937376Y-91324434D01*
X208936938Y-91320785D01*
X208936938Y-91291215D01*
X208937376Y-91287565D01*
X208937377Y-91287564D01*
X208948000Y-91199102D01*
X208948000Y-91012898D01*
X208937377Y-90924436D01*
X208937376Y-90924434D01*
X208936938Y-90920785D01*
X208936937Y-90891216D01*
X208937374Y-90887569D01*
X208937377Y-90887564D01*
X208944802Y-90825729D01*
X208972337Y-90761521D01*
X209030220Y-90722388D01*
X209100070Y-90720761D01*
X209111201Y-90724542D01*
X209113993Y-90725388D01*
X209114004Y-90725393D01*
X209268654Y-90756155D01*
X209268657Y-90756156D01*
X209268659Y-90756156D01*
X209426345Y-90756156D01*
X209426346Y-90756155D01*
X209580998Y-90725393D01*
X209711934Y-90671158D01*
X209726673Y-90665053D01*
X209726673Y-90665052D01*
X209726680Y-90665050D01*
X209857790Y-90577445D01*
X209969290Y-90465945D01*
X210056895Y-90334835D01*
X210117238Y-90189153D01*
X210148001Y-90034498D01*
X210148001Y-89876814D01*
X210148001Y-89876811D01*
X210148000Y-89876809D01*
X210117239Y-89722166D01*
X210117238Y-89722159D01*
X210061372Y-89587287D01*
X210053904Y-89517821D01*
X210061370Y-89492391D01*
X210117238Y-89357515D01*
X210148001Y-89202860D01*
X210148001Y-89045176D01*
X210148001Y-89045173D01*
X210148000Y-89045171D01*
X210137889Y-88994339D01*
X210117238Y-88890521D01*
X210113004Y-88880300D01*
X210056898Y-88744845D01*
X210056891Y-88744832D01*
X210013125Y-88679332D01*
X209992247Y-88612655D01*
X210010731Y-88545274D01*
X210013102Y-88541585D01*
X210036614Y-88506399D01*
X210096957Y-88360717D01*
X210127720Y-88206062D01*
X210127720Y-88048378D01*
X210127720Y-88048375D01*
X210127719Y-88048373D01*
X210096957Y-87893723D01*
X210084598Y-87863886D01*
X210036617Y-87748047D01*
X210036610Y-87748034D01*
X210018104Y-87720338D01*
X209997226Y-87653661D01*
X210015710Y-87586280D01*
X210067689Y-87539590D01*
X210073754Y-87536886D01*
X210131653Y-87512904D01*
X210131656Y-87512902D01*
X210131659Y-87512901D01*
X210262769Y-87425296D01*
X210374269Y-87313796D01*
X210461874Y-87182686D01*
X210522217Y-87037004D01*
X210550014Y-86897260D01*
X210582399Y-86835349D01*
X210643114Y-86800775D01*
X210686414Y-86798336D01*
X210754398Y-86806500D01*
G37*
%TD.AperFunction*%
%TA.AperFunction,Conductor*%
G36*
X205823509Y-89279703D02*
G01*
X205831232Y-89278438D01*
X205856560Y-89289408D01*
X205883040Y-89297184D01*
X205888163Y-89303097D01*
X205895346Y-89306208D01*
X205910723Y-89329132D01*
X205928795Y-89349988D01*
X205930754Y-89358993D01*
X205934268Y-89364232D01*
X205939977Y-89399061D01*
X205942022Y-89503062D01*
X205933761Y-89533388D01*
X205927298Y-89564151D01*
X205924650Y-89566836D01*
X205923659Y-89570476D01*
X205900309Y-89591526D01*
X205878245Y-89613907D01*
X205874566Y-89614734D01*
X205871765Y-89617260D01*
X205818046Y-89629500D01*
X205030097Y-89629500D01*
X204963058Y-89609815D01*
X204942416Y-89593181D01*
X204838415Y-89489180D01*
X204804930Y-89427857D01*
X204809914Y-89358165D01*
X204851786Y-89302232D01*
X204917250Y-89277815D01*
X204926096Y-89277499D01*
X205816001Y-89277499D01*
X205823509Y-89279703D01*
G37*
%TD.AperFunction*%
%TA.AperFunction,Conductor*%
G36*
X216903539Y-84219685D02*
G01*
X216949294Y-84272489D01*
X216960500Y-84324000D01*
X216960500Y-85822056D01*
X216951732Y-85851915D01*
X216944891Y-85882284D01*
X216941969Y-85885162D01*
X216940815Y-85889095D01*
X216917299Y-85909471D01*
X216895123Y-85931323D01*
X216891109Y-85932165D01*
X216888011Y-85934850D01*
X216857199Y-85939280D01*
X216826742Y-85945671D01*
X216822912Y-85944210D01*
X216818853Y-85944794D01*
X216790539Y-85931863D01*
X216761460Y-85920773D01*
X216758175Y-85917083D01*
X216755297Y-85915769D01*
X216736688Y-85895633D01*
X216732962Y-85890579D01*
X216670117Y-85784313D01*
X216611191Y-85725387D01*
X216605658Y-85717881D01*
X216596756Y-85693467D01*
X216584304Y-85670663D01*
X216584659Y-85660289D01*
X216581724Y-85652238D01*
X216585512Y-85635418D01*
X216586394Y-85609708D01*
X216597643Y-85570993D01*
X216600500Y-85534690D01*
X216600500Y-85065310D01*
X216597643Y-85029007D01*
X216594733Y-85018992D01*
X216552495Y-84873608D01*
X216552492Y-84873600D01*
X216547266Y-84864763D01*
X216542916Y-84848862D01*
X216535023Y-84836580D01*
X216530000Y-84801645D01*
X216530000Y-84782897D01*
X216547267Y-84719778D01*
X216602494Y-84626395D01*
X216647643Y-84470993D01*
X216650500Y-84434690D01*
X216650500Y-84324000D01*
X216653050Y-84315314D01*
X216651762Y-84306353D01*
X216662740Y-84282312D01*
X216670185Y-84256961D01*
X216677025Y-84251033D01*
X216680787Y-84242797D01*
X216703021Y-84228507D01*
X216722989Y-84211206D01*
X216733503Y-84208918D01*
X216739565Y-84205023D01*
X216774500Y-84200000D01*
X216836500Y-84200000D01*
X216903539Y-84219685D01*
G37*
%TD.AperFunction*%
%TA.AperFunction,Conductor*%
G36*
X204467205Y-85143047D02*
G01*
X204522383Y-85185909D01*
X204545628Y-85251799D01*
X204529561Y-85319796D01*
X204519986Y-85334137D01*
X204437505Y-85473606D01*
X204437504Y-85473609D01*
X204392357Y-85629002D01*
X204392356Y-85629008D01*
X204390883Y-85647735D01*
X204390501Y-85648736D01*
X204390704Y-85649788D01*
X204378086Y-85681310D01*
X204365999Y-85713023D01*
X204365137Y-85713658D01*
X204364739Y-85714654D01*
X204337080Y-85734350D01*
X204309768Y-85754494D01*
X204308698Y-85754562D01*
X204307826Y-85755184D01*
X204273922Y-85756800D01*
X204240042Y-85758981D01*
X204238753Y-85758477D01*
X204238036Y-85758512D01*
X204205269Y-85745396D01*
X204196502Y-85740334D01*
X204148287Y-85689771D01*
X204134500Y-85632946D01*
X204134500Y-85274500D01*
X204154185Y-85207461D01*
X204206989Y-85161706D01*
X204258500Y-85150500D01*
X204328843Y-85150500D01*
X204348271Y-85146635D01*
X204397614Y-85136820D01*
X204467205Y-85143047D01*
G37*
%TD.AperFunction*%
%TA.AperFunction,Conductor*%
G36*
X217412256Y-66954556D02*
G01*
X217423985Y-66954121D01*
X217456612Y-66967581D01*
X217513808Y-67001406D01*
X217513811Y-67001407D01*
X217667870Y-67046166D01*
X217667876Y-67046167D01*
X217703864Y-67048999D01*
X217703880Y-67049000D01*
X217749500Y-67049000D01*
X217816539Y-67068685D01*
X217862294Y-67121489D01*
X217873500Y-67173000D01*
X217873500Y-77340045D01*
X217853815Y-77407084D01*
X217837181Y-77427726D01*
X216277483Y-78987423D01*
X216277479Y-78987428D01*
X216199741Y-79122075D01*
X216192583Y-79148793D01*
X216192583Y-79148795D01*
X216159550Y-79272075D01*
X216159500Y-79272260D01*
X216159500Y-81957216D01*
X216139815Y-82024255D01*
X216131358Y-82035876D01*
X216128208Y-82039713D01*
X216040609Y-82170814D01*
X216040602Y-82170827D01*
X215980264Y-82316498D01*
X215980261Y-82316510D01*
X215949500Y-82471153D01*
X215949500Y-82628846D01*
X215980261Y-82783489D01*
X215980264Y-82783501D01*
X216040602Y-82929172D01*
X216040609Y-82929185D01*
X216128210Y-83060288D01*
X216128213Y-83060292D01*
X216239707Y-83171786D01*
X216239711Y-83171789D01*
X216254856Y-83181909D01*
X216299661Y-83235521D01*
X216308368Y-83304846D01*
X216278213Y-83367874D01*
X216218770Y-83404593D01*
X216151371Y-83404088D01*
X216110991Y-83392356D01*
X216074697Y-83389500D01*
X216074690Y-83389500D01*
X215706323Y-83389500D01*
X215639284Y-83369815D01*
X215593529Y-83317011D01*
X215587247Y-83300095D01*
X215575422Y-83259394D01*
X215572869Y-83250607D01*
X215491135Y-83112402D01*
X215491133Y-83112400D01*
X215491130Y-83112396D01*
X215377603Y-82998869D01*
X215377595Y-82998863D01*
X215239391Y-82917130D01*
X215239389Y-82917129D01*
X215189904Y-82902752D01*
X215131018Y-82865145D01*
X215101813Y-82801672D01*
X215100500Y-82783676D01*
X215100500Y-82545945D01*
X215100500Y-82545943D01*
X215096707Y-82531785D01*
X215059577Y-82393215D01*
X215059575Y-82393212D01*
X215059575Y-82393210D01*
X215059574Y-82393209D01*
X215023958Y-82331521D01*
X215023957Y-82331520D01*
X214980520Y-82256284D01*
X214868716Y-82144480D01*
X214868715Y-82144479D01*
X214864385Y-82140149D01*
X214864374Y-82140139D01*
X214720127Y-81995892D01*
X214686642Y-81934569D01*
X214691626Y-81864877D01*
X214720128Y-81820529D01*
X214728069Y-81812588D01*
X214755472Y-81785185D01*
X214843478Y-81639606D01*
X214894086Y-81477196D01*
X214900500Y-81406616D01*
X214900500Y-80893384D01*
X214894086Y-80822804D01*
X214843478Y-80660394D01*
X214755472Y-80514815D01*
X214755470Y-80514813D01*
X214755469Y-80514811D01*
X214635188Y-80394530D01*
X214629254Y-80390943D01*
X214489606Y-80306522D01*
X214327196Y-80255914D01*
X214327194Y-80255913D01*
X214327192Y-80255913D01*
X214277778Y-80251423D01*
X214256616Y-80249500D01*
X214256613Y-80249500D01*
X212823500Y-80249500D01*
X212756461Y-80229815D01*
X212710706Y-80177011D01*
X212699500Y-80125500D01*
X212699500Y-77973999D01*
X212719185Y-77906960D01*
X212771989Y-77861205D01*
X212823500Y-77849999D01*
X213150000Y-77849999D01*
X213650000Y-77849999D01*
X214256581Y-77849999D01*
X214327102Y-77843591D01*
X214327107Y-77843590D01*
X214489396Y-77793018D01*
X214634877Y-77705072D01*
X214755072Y-77584877D01*
X214843019Y-77439395D01*
X214893590Y-77277106D01*
X214900000Y-77206572D01*
X214900000Y-77200000D01*
X213650000Y-77200000D01*
X213650000Y-77849999D01*
X213150000Y-77849999D01*
X213150000Y-76700000D01*
X213650000Y-76700000D01*
X214899999Y-76700000D01*
X214899999Y-76693417D01*
X214893591Y-76622897D01*
X214893590Y-76622892D01*
X214843018Y-76460603D01*
X214755072Y-76315122D01*
X214634877Y-76194927D01*
X214489395Y-76106980D01*
X214489396Y-76106980D01*
X214327105Y-76056409D01*
X214327106Y-76056409D01*
X214256572Y-76050000D01*
X213650000Y-76050000D01*
X213650000Y-76700000D01*
X213150000Y-76700000D01*
X213150000Y-76050000D01*
X212823500Y-76050000D01*
X212756461Y-76030315D01*
X212710706Y-75977511D01*
X212699500Y-75926000D01*
X212699500Y-70904107D01*
X212699332Y-70903482D01*
X212699319Y-70903433D01*
X212679524Y-70829557D01*
X212669063Y-70790516D01*
X212658577Y-70751380D01*
X212658575Y-70751376D01*
X212658574Y-70751373D01*
X212579524Y-70614454D01*
X212579521Y-70614450D01*
X212579520Y-70614448D01*
X212467716Y-70502644D01*
X212467715Y-70502643D01*
X212463385Y-70498313D01*
X212463374Y-70498303D01*
X211324819Y-69359748D01*
X211291334Y-69298425D01*
X211288500Y-69272067D01*
X211288500Y-68364500D01*
X211291050Y-68355814D01*
X211289762Y-68346853D01*
X211300740Y-68322812D01*
X211308185Y-68297461D01*
X211315025Y-68291533D01*
X211318787Y-68283297D01*
X211341021Y-68269007D01*
X211360989Y-68251706D01*
X211371503Y-68249418D01*
X211377565Y-68245523D01*
X211412500Y-68240500D01*
X211577331Y-68240500D01*
X211577347Y-68240501D01*
X211584943Y-68240501D01*
X211743054Y-68240501D01*
X211743057Y-68240501D01*
X211895785Y-68199577D01*
X211924660Y-68182905D01*
X211992558Y-68166432D01*
X212035750Y-68179115D01*
X212036566Y-68177147D01*
X212044074Y-68180257D01*
X212044076Y-68180258D01*
X212194259Y-68220500D01*
X212194262Y-68220500D01*
X215559739Y-68220500D01*
X215559741Y-68220500D01*
X215675254Y-68189547D01*
X215699666Y-68183007D01*
X215699668Y-68183006D01*
X215709925Y-68180258D01*
X215844575Y-68102518D01*
X216861275Y-67085818D01*
X216922598Y-67052333D01*
X216948956Y-67049499D01*
X217082168Y-67049499D01*
X217082180Y-67049499D01*
X217118204Y-67046665D01*
X217272393Y-67001869D01*
X217330369Y-66967581D01*
X217343254Y-66964312D01*
X217354164Y-66956715D01*
X217376461Y-66955886D01*
X217398093Y-66950398D01*
X217412256Y-66954556D01*
G37*
%TD.AperFunction*%
%TA.AperFunction,Conductor*%
G36*
X202756270Y-80552717D02*
G01*
X202756270Y-80552716D01*
X202771199Y-80532170D01*
X202786003Y-80520753D01*
X202797207Y-80505788D01*
X202813096Y-80499861D01*
X202826528Y-80489504D01*
X202845155Y-80487904D01*
X202862671Y-80481371D01*
X202879244Y-80484976D01*
X202896142Y-80483525D01*
X202912676Y-80492249D01*
X202930944Y-80496223D01*
X202956579Y-80515413D01*
X202957937Y-80516130D01*
X202959198Y-80517374D01*
X203073181Y-80631357D01*
X203106666Y-80692680D01*
X203109500Y-80719038D01*
X203109500Y-81721864D01*
X203089815Y-81788903D01*
X203037011Y-81834658D01*
X202967853Y-81844602D01*
X202904297Y-81815577D01*
X202875015Y-81778159D01*
X202822198Y-81674501D01*
X202796051Y-81623184D01*
X202757545Y-81570184D01*
X202671109Y-81451213D01*
X202520786Y-81300890D01*
X202348817Y-81175949D01*
X202339504Y-81171204D01*
X202288707Y-81123230D01*
X202271912Y-81055409D01*
X202294449Y-80989274D01*
X202339507Y-80950232D01*
X202348555Y-80945622D01*
X202402716Y-80906270D01*
X202402717Y-80906270D01*
X201770408Y-80273962D01*
X201833993Y-80256925D01*
X201948007Y-80191099D01*
X202041099Y-80098007D01*
X202106925Y-79983993D01*
X202123962Y-79920408D01*
X202756270Y-80552717D01*
G37*
%TD.AperFunction*%
%TA.AperFunction,Conductor*%
G36*
X201175075Y-79983993D02*
G01*
X201240901Y-80098007D01*
X201333993Y-80191099D01*
X201448007Y-80256925D01*
X201511590Y-80273962D01*
X200879282Y-80906269D01*
X200879282Y-80906270D01*
X200933452Y-80945626D01*
X200933451Y-80945626D01*
X200942495Y-80950234D01*
X200993292Y-80998208D01*
X201010087Y-81066029D01*
X200987550Y-81132164D01*
X200942499Y-81171202D01*
X200933182Y-81175949D01*
X200761213Y-81300890D01*
X200610890Y-81451213D01*
X200485950Y-81623180D01*
X200484984Y-81625078D01*
X200484424Y-81625669D01*
X200483404Y-81627336D01*
X200483053Y-81627121D01*
X200437009Y-81675873D01*
X200369187Y-81692667D01*
X200303053Y-81670128D01*
X200259602Y-81615413D01*
X200250500Y-81568781D01*
X200250500Y-80552116D01*
X200270185Y-80485077D01*
X200322989Y-80439322D01*
X200392147Y-80429378D01*
X200455703Y-80458403D01*
X200484987Y-80495826D01*
X200486374Y-80498548D01*
X200525728Y-80552716D01*
X201158037Y-79920408D01*
X201175075Y-79983993D01*
G37*
%TD.AperFunction*%
%TA.AperFunction,Conductor*%
G36*
X218719898Y-79565311D02*
G01*
X218733334Y-79566272D01*
X218751060Y-79579542D01*
X218771203Y-79588741D01*
X218778485Y-79600072D01*
X218789267Y-79608144D01*
X218797004Y-79628889D01*
X218808977Y-79647519D01*
X218812128Y-79669437D01*
X218813684Y-79673608D01*
X218814000Y-79682454D01*
X218814000Y-79844246D01*
X218847242Y-80054127D01*
X218847242Y-80054130D01*
X218912904Y-80256217D01*
X219009375Y-80445550D01*
X219048728Y-80499716D01*
X219681036Y-79867407D01*
X219698075Y-79930993D01*
X219763901Y-80045007D01*
X219856993Y-80138099D01*
X219971007Y-80203925D01*
X220034591Y-80220962D01*
X219745373Y-80510181D01*
X219684050Y-80543666D01*
X219657692Y-80546500D01*
X219613641Y-80546500D01*
X219495195Y-80578236D01*
X219495194Y-80578237D01*
X219479325Y-80582489D01*
X219463455Y-80586742D01*
X219328813Y-80664477D01*
X219328805Y-80664483D01*
X218353181Y-81640108D01*
X218291858Y-81673593D01*
X218222166Y-81668609D01*
X218166233Y-81626737D01*
X218141816Y-81561273D01*
X218141500Y-81552427D01*
X218141500Y-80106954D01*
X218161185Y-80039915D01*
X218177814Y-80019278D01*
X218602320Y-79594772D01*
X218621755Y-79584160D01*
X218638489Y-79569660D01*
X218651820Y-79567743D01*
X218663642Y-79561288D01*
X218685728Y-79562867D01*
X218707647Y-79559716D01*
X218719898Y-79565311D01*
G37*
%TD.AperFunction*%
%TA.AperFunction,Conductor*%
G36*
X207618834Y-73495448D02*
G01*
X207674767Y-73537320D01*
X207699184Y-73602784D01*
X207699500Y-73611630D01*
X207699500Y-75588330D01*
X207699499Y-75588348D01*
X207699499Y-75754054D01*
X207699498Y-75754054D01*
X207740423Y-75906785D01*
X207769358Y-75956900D01*
X207769359Y-75956904D01*
X207769360Y-75956904D01*
X207816459Y-76038484D01*
X207819479Y-76043714D01*
X207819481Y-76043717D01*
X207938349Y-76162585D01*
X207938355Y-76162590D01*
X208132181Y-76356416D01*
X208146884Y-76383343D01*
X208163477Y-76409162D01*
X208164368Y-76415362D01*
X208165666Y-76417739D01*
X208168500Y-76444097D01*
X208168500Y-76625333D01*
X208148815Y-76692372D01*
X208132181Y-76713014D01*
X208088887Y-76756307D01*
X208088881Y-76756315D01*
X208006505Y-76895606D01*
X208006504Y-76895609D01*
X207961357Y-77051002D01*
X207961356Y-77051008D01*
X207958500Y-77087302D01*
X207958500Y-77496697D01*
X207961356Y-77532991D01*
X207961357Y-77532997D01*
X208006504Y-77688390D01*
X208006507Y-77688397D01*
X208018910Y-77709370D01*
X208036093Y-77777094D01*
X208018912Y-77835608D01*
X208006968Y-77855804D01*
X207964496Y-78002000D01*
X208270648Y-78002000D01*
X208333766Y-78019267D01*
X208342605Y-78024494D01*
X208342608Y-78024494D01*
X208342610Y-78024496D01*
X208498002Y-78069642D01*
X208498005Y-78069642D01*
X208498007Y-78069643D01*
X208534310Y-78072500D01*
X208534318Y-78072500D01*
X208645000Y-78072500D01*
X208712039Y-78092185D01*
X208757794Y-78144989D01*
X208769000Y-78196500D01*
X208769000Y-78252000D01*
X208895000Y-78252000D01*
X208962039Y-78271685D01*
X209007794Y-78324489D01*
X209019000Y-78376000D01*
X209019000Y-79030789D01*
X209039910Y-79029145D01*
X209195196Y-78984031D01*
X209195198Y-78984030D01*
X209244113Y-78955102D01*
X209271707Y-78948100D01*
X209298384Y-78938149D01*
X209305137Y-78939617D01*
X209311837Y-78937918D01*
X209338841Y-78946948D01*
X209366658Y-78952999D01*
X209374510Y-78958876D01*
X209378099Y-78960077D01*
X209394906Y-78974142D01*
X209401284Y-78980520D01*
X209401286Y-78980521D01*
X209408353Y-78987588D01*
X210003181Y-79582416D01*
X210036666Y-79643739D01*
X210039500Y-79670097D01*
X210039500Y-79766000D01*
X210019815Y-79833039D01*
X209967011Y-79878794D01*
X209917778Y-79889514D01*
X209917789Y-79889790D01*
X209917791Y-79889810D01*
X209917790Y-79889810D01*
X209917794Y-79889906D01*
X209915580Y-79889992D01*
X209915548Y-79890000D01*
X209915398Y-79890000D01*
X209915351Y-79890001D01*
X209879089Y-79892854D01*
X209723803Y-79937969D01*
X209584625Y-80020278D01*
X209584616Y-80020285D01*
X209470285Y-80134616D01*
X209470278Y-80134625D01*
X209387968Y-80273804D01*
X209387966Y-80273809D01*
X209367585Y-80343963D01*
X209329979Y-80402849D01*
X209266507Y-80432055D01*
X209213914Y-80428444D01*
X209055208Y-80382335D01*
X209055202Y-80382334D01*
X209019181Y-80379500D01*
X208620830Y-80379500D01*
X208620808Y-80379501D01*
X208584794Y-80382335D01*
X208430611Y-80427129D01*
X208430604Y-80427132D01*
X208373119Y-80461128D01*
X208305395Y-80478309D01*
X208262897Y-80469100D01*
X208254594Y-80465690D01*
X208189393Y-80427131D01*
X208091280Y-80398626D01*
X208085141Y-80396105D01*
X208062843Y-80378248D01*
X208038763Y-80362870D01*
X208032245Y-80353744D01*
X208030604Y-80352430D01*
X208029979Y-80350571D01*
X208024857Y-80343400D01*
X207974521Y-80256217D01*
X207957321Y-80226425D01*
X207847379Y-80116483D01*
X207847377Y-80116482D01*
X207847375Y-80116480D01*
X207712731Y-80038743D01*
X207712732Y-80038743D01*
X207700415Y-80035442D01*
X207562545Y-79998500D01*
X207562542Y-79998500D01*
X205239505Y-79998500D01*
X205172466Y-79978815D01*
X205151824Y-79962181D01*
X204488819Y-79299176D01*
X204455334Y-79237853D01*
X204452500Y-79211495D01*
X204452500Y-78502000D01*
X207964496Y-78502000D01*
X208006968Y-78648195D01*
X208089278Y-78787374D01*
X208089285Y-78787383D01*
X208203616Y-78901714D01*
X208203625Y-78901721D01*
X208342804Y-78984031D01*
X208498089Y-79029145D01*
X208519000Y-79030789D01*
X208519000Y-78502000D01*
X207964496Y-78502000D01*
X204452500Y-78502000D01*
X204452500Y-76610630D01*
X204472185Y-76543591D01*
X204488819Y-76522949D01*
X207487819Y-73523949D01*
X207549142Y-73490464D01*
X207618834Y-73495448D01*
G37*
%TD.AperFunction*%
%TA.AperFunction,Conductor*%
G36*
X200455703Y-77919505D02*
G01*
X200483276Y-77954742D01*
X200483404Y-77954664D01*
X200484084Y-77955773D01*
X200484988Y-77956929D01*
X200485951Y-77958820D01*
X200610890Y-78130786D01*
X200761213Y-78281109D01*
X200933179Y-78406048D01*
X200933181Y-78406049D01*
X200933184Y-78406051D01*
X200942493Y-78410794D01*
X200993290Y-78458766D01*
X201010087Y-78526587D01*
X200987552Y-78592722D01*
X200942505Y-78631760D01*
X200933446Y-78636376D01*
X200933440Y-78636380D01*
X200879282Y-78675727D01*
X200879282Y-78675728D01*
X201511591Y-79308037D01*
X201448007Y-79325075D01*
X201333993Y-79390901D01*
X201240901Y-79483993D01*
X201175075Y-79598007D01*
X201158037Y-79661591D01*
X200525728Y-79029282D01*
X200525727Y-79029282D01*
X200486380Y-79083440D01*
X200486378Y-79083443D01*
X200484984Y-79086180D01*
X200484180Y-79087030D01*
X200483838Y-79087590D01*
X200483720Y-79087517D01*
X200437009Y-79136976D01*
X200369188Y-79153770D01*
X200303053Y-79131232D01*
X200259602Y-79076516D01*
X200250500Y-79029884D01*
X200250500Y-78013218D01*
X200270185Y-77946179D01*
X200322989Y-77900424D01*
X200392147Y-77890480D01*
X200455703Y-77919505D01*
G37*
%TD.AperFunction*%
%TA.AperFunction,Conductor*%
G36*
X210734320Y-72163722D02*
G01*
X210737512Y-72163148D01*
X210760361Y-72168991D01*
X210760672Y-72167968D01*
X210766495Y-72169733D01*
X210766503Y-72169737D01*
X210921153Y-72200499D01*
X210921156Y-72200500D01*
X210921158Y-72200500D01*
X210950500Y-72200500D01*
X211017539Y-72220185D01*
X211063294Y-72272989D01*
X211074500Y-72324500D01*
X211074500Y-76462581D01*
X211054815Y-76529620D01*
X211024953Y-76561741D01*
X210980000Y-76595493D01*
X210980000Y-77710000D01*
X210992263Y-77722263D01*
X211017539Y-77729685D01*
X211063294Y-77782489D01*
X211074500Y-77834000D01*
X211074500Y-78496000D01*
X211071949Y-78504685D01*
X211073238Y-78513647D01*
X211062259Y-78537687D01*
X211054815Y-78563039D01*
X211047974Y-78568966D01*
X211044213Y-78577203D01*
X211021978Y-78591492D01*
X211002011Y-78608794D01*
X210991496Y-78611081D01*
X210985435Y-78614977D01*
X210950500Y-78620000D01*
X210790598Y-78620000D01*
X210723559Y-78600315D01*
X210702917Y-78583681D01*
X210636319Y-78517083D01*
X210602834Y-78455760D01*
X210600000Y-78429402D01*
X210600000Y-78340000D01*
X210598337Y-78338337D01*
X210536961Y-78320315D01*
X210491206Y-78267511D01*
X210480000Y-78216000D01*
X210480000Y-77898352D01*
X210497267Y-77835233D01*
X210502494Y-77826395D01*
X210516818Y-77777094D01*
X210547642Y-77670997D01*
X210547643Y-77670991D01*
X210550499Y-77634697D01*
X210550500Y-77634690D01*
X210550500Y-77165310D01*
X210547643Y-77129007D01*
X210535526Y-77087302D01*
X210502495Y-76973608D01*
X210502492Y-76973600D01*
X210497266Y-76964763D01*
X210480000Y-76901645D01*
X210480000Y-76595494D01*
X210479998Y-76595493D01*
X210333809Y-76637965D01*
X210333806Y-76637967D01*
X210313608Y-76649912D01*
X210245884Y-76667092D01*
X210187370Y-76649910D01*
X210166397Y-76637507D01*
X210166390Y-76637504D01*
X210010997Y-76592357D01*
X210010991Y-76592356D01*
X209974697Y-76589500D01*
X209974690Y-76589500D01*
X209565310Y-76589500D01*
X209565302Y-76589500D01*
X209529008Y-76592356D01*
X209529004Y-76592357D01*
X209528087Y-76592624D01*
X209527554Y-76592622D01*
X209522777Y-76593495D01*
X209522614Y-76592607D01*
X209458217Y-76592419D01*
X209399550Y-76554473D01*
X209370711Y-76490833D01*
X209369500Y-76473545D01*
X209369500Y-76064945D01*
X209369500Y-76064943D01*
X209328577Y-75912216D01*
X209328577Y-75912215D01*
X209298393Y-75859935D01*
X209296984Y-75857495D01*
X209296976Y-75857479D01*
X209249524Y-75775290D01*
X209249521Y-75775286D01*
X209249520Y-75775284D01*
X209137716Y-75663480D01*
X209137715Y-75663479D01*
X209133385Y-75659149D01*
X209133374Y-75659139D01*
X208936819Y-75462584D01*
X208903334Y-75401261D01*
X208900500Y-75374903D01*
X208900500Y-73200096D01*
X208920185Y-73133057D01*
X208936815Y-73112419D01*
X209742291Y-72306942D01*
X209803612Y-72273459D01*
X209864562Y-72275548D01*
X209897431Y-72285098D01*
X209934306Y-72288000D01*
X209934314Y-72288000D01*
X210365686Y-72288000D01*
X210365694Y-72288000D01*
X210402569Y-72285098D01*
X210402571Y-72285097D01*
X210402573Y-72285097D01*
X210444248Y-72272989D01*
X210560398Y-72239244D01*
X210661082Y-72179699D01*
X210665447Y-72178592D01*
X210668747Y-72175523D01*
X210699006Y-72170077D01*
X210728805Y-72162517D01*
X210734320Y-72163722D01*
G37*
%TD.AperFunction*%
%TA.AperFunction,Conductor*%
G36*
X202599070Y-70661984D02*
G01*
X202632277Y-70669707D01*
X202632920Y-70670368D01*
X202633817Y-70670591D01*
X202657223Y-70695376D01*
X202680972Y-70719813D01*
X202681448Y-70721028D01*
X202681789Y-70721389D01*
X202681971Y-70722362D01*
X202691075Y-70745579D01*
X202699742Y-70777925D01*
X202712284Y-70799648D01*
X202777479Y-70912571D01*
X202777481Y-70912574D01*
X202777482Y-70912575D01*
X203637425Y-71772518D01*
X203772075Y-71850258D01*
X203787943Y-71854510D01*
X203803810Y-71858762D01*
X203803811Y-71858762D01*
X203828842Y-71865468D01*
X203922259Y-71890500D01*
X203922261Y-71890500D01*
X205563333Y-71890500D01*
X205563335Y-71890500D01*
X205588619Y-71883724D01*
X205620712Y-71879500D01*
X206219146Y-71879500D01*
X206219147Y-71879500D01*
X206266905Y-71866703D01*
X206331095Y-71866703D01*
X206378853Y-71879500D01*
X206378854Y-71879500D01*
X206534335Y-71879500D01*
X206967306Y-71879500D01*
X206994021Y-71887344D01*
X207021487Y-71891963D01*
X207027086Y-71897053D01*
X207034345Y-71899185D01*
X207052577Y-71920226D01*
X207073187Y-71938962D01*
X207077461Y-71948944D01*
X207080100Y-71951989D01*
X207087078Y-71971399D01*
X207097881Y-72011712D01*
X207097880Y-72011714D01*
X207097881Y-72011715D01*
X207108740Y-72052245D01*
X207108741Y-72052247D01*
X207127268Y-72084337D01*
X207143741Y-72152237D01*
X207120888Y-72218264D01*
X207107562Y-72234018D01*
X204352181Y-74989400D01*
X204290858Y-75022885D01*
X204221166Y-75017901D01*
X204165233Y-74976029D01*
X204140816Y-74910565D01*
X204140500Y-74901719D01*
X204140500Y-74872261D01*
X204140500Y-74872259D01*
X204100258Y-74722076D01*
X204100256Y-74722073D01*
X204100256Y-74722071D01*
X204100255Y-74722070D01*
X204088114Y-74701041D01*
X204074269Y-74665098D01*
X204071500Y-74652216D01*
X204071500Y-74614444D01*
X204031258Y-74464261D01*
X204031258Y-74464260D01*
X203953518Y-74329609D01*
X203620390Y-73996482D01*
X203620389Y-73996481D01*
X203620386Y-73996479D01*
X203485743Y-73918743D01*
X203485740Y-73918742D01*
X203454002Y-73910237D01*
X203337646Y-73879060D01*
X203282059Y-73846966D01*
X202666175Y-73231082D01*
X202632690Y-73169759D01*
X202637674Y-73100067D01*
X202666181Y-73055714D01*
X202671104Y-73050792D01*
X202796051Y-72878816D01*
X202892557Y-72689412D01*
X202958246Y-72487243D01*
X202991500Y-72277287D01*
X202991500Y-72064713D01*
X202958246Y-71854757D01*
X202892557Y-71652588D01*
X202796051Y-71463184D01*
X202796049Y-71463181D01*
X202796048Y-71463179D01*
X202671109Y-71291213D01*
X202520786Y-71140890D01*
X202348820Y-71015951D01*
X202348115Y-71015591D01*
X202340054Y-71011485D01*
X202289259Y-70963512D01*
X202272463Y-70895692D01*
X202294999Y-70829556D01*
X202324908Y-70799648D01*
X202332152Y-70794541D01*
X202348816Y-70786051D01*
X202499129Y-70676842D01*
X202499861Y-70676327D01*
X202532114Y-70665337D01*
X202564223Y-70653881D01*
X202565123Y-70654090D01*
X202565997Y-70653793D01*
X202599070Y-70661984D01*
G37*
%TD.AperFunction*%
%TA.AperFunction,Conductor*%
G36*
X205755447Y-60520185D02*
G01*
X205801202Y-60572989D01*
X205811146Y-60642147D01*
X205791510Y-60693391D01*
X205756814Y-60745316D01*
X205756807Y-60745328D01*
X205681430Y-60927306D01*
X205681427Y-60927318D01*
X205643000Y-61120504D01*
X205643000Y-61269000D01*
X206343000Y-61269000D01*
X206343000Y-61769000D01*
X205643000Y-61769000D01*
X205643000Y-61917495D01*
X205681427Y-62110681D01*
X205681430Y-62110693D01*
X205756807Y-62292671D01*
X205756814Y-62292684D01*
X205866248Y-62456462D01*
X205866251Y-62456466D01*
X206005533Y-62595748D01*
X206005537Y-62595751D01*
X206169315Y-62705185D01*
X206169328Y-62705192D01*
X206351308Y-62780569D01*
X206393000Y-62788862D01*
X206393000Y-61985988D01*
X206402940Y-62003205D01*
X206458795Y-62059060D01*
X206527204Y-62098556D01*
X206603504Y-62119000D01*
X206682496Y-62119000D01*
X206758796Y-62098556D01*
X206827205Y-62059060D01*
X206883060Y-62003205D01*
X206893000Y-61985988D01*
X206893000Y-62788862D01*
X206934690Y-62780569D01*
X206934692Y-62780569D01*
X207116671Y-62705192D01*
X207116684Y-62705185D01*
X207280462Y-62595751D01*
X207280466Y-62595748D01*
X207419748Y-62456466D01*
X207419751Y-62456462D01*
X207529185Y-62292684D01*
X207529192Y-62292671D01*
X207604569Y-62110693D01*
X207604572Y-62110681D01*
X207642999Y-61917495D01*
X207643000Y-61917492D01*
X207643000Y-61769000D01*
X206943000Y-61769000D01*
X206943000Y-61269000D01*
X207643000Y-61269000D01*
X207643000Y-61120508D01*
X207642999Y-61120504D01*
X207604572Y-60927318D01*
X207604569Y-60927306D01*
X207529192Y-60745328D01*
X207529185Y-60745316D01*
X207494490Y-60693391D01*
X207473612Y-60626714D01*
X207492096Y-60559334D01*
X207544075Y-60512643D01*
X207597592Y-60500500D01*
X214328408Y-60500500D01*
X214395447Y-60520185D01*
X214441202Y-60572989D01*
X214451146Y-60642147D01*
X214431510Y-60693391D01*
X214396814Y-60745316D01*
X214396807Y-60745328D01*
X214321430Y-60927306D01*
X214321427Y-60927318D01*
X214283000Y-61120504D01*
X214283000Y-61269000D01*
X214983000Y-61269000D01*
X214983000Y-61769000D01*
X214283000Y-61769000D01*
X214283000Y-61917495D01*
X214321427Y-62110681D01*
X214321430Y-62110693D01*
X214396807Y-62292671D01*
X214396814Y-62292684D01*
X214506248Y-62456462D01*
X214506251Y-62456466D01*
X214595086Y-62545301D01*
X214628571Y-62606624D01*
X214623587Y-62676316D01*
X214595086Y-62720663D01*
X212941102Y-64374647D01*
X212879779Y-64408132D01*
X212810087Y-64403148D01*
X212765740Y-64374647D01*
X212276576Y-63885483D01*
X212276571Y-63885479D01*
X212141928Y-63807743D01*
X212141925Y-63807742D01*
X212110188Y-63799237D01*
X212037101Y-63779654D01*
X211991741Y-63767500D01*
X210064259Y-63767500D01*
X209951621Y-63797681D01*
X209914075Y-63807742D01*
X209779426Y-63885481D01*
X209779423Y-63885483D01*
X208726755Y-64938150D01*
X208665432Y-64971635D01*
X208595740Y-64966651D01*
X208539807Y-64924779D01*
X208531691Y-64912476D01*
X208493505Y-64846335D01*
X208395665Y-64748495D01*
X208395664Y-64748494D01*
X208395661Y-64748492D01*
X208275838Y-64679313D01*
X208275837Y-64679312D01*
X208275836Y-64679312D01*
X208142183Y-64643500D01*
X208003817Y-64643500D01*
X207870164Y-64679312D01*
X207870161Y-64679313D01*
X207750338Y-64748492D01*
X207746613Y-64752217D01*
X207685288Y-64785699D01*
X207615596Y-64780710D01*
X207559665Y-64738836D01*
X207544375Y-64711984D01*
X207529190Y-64675324D01*
X207529185Y-64675315D01*
X207419751Y-64511537D01*
X207419748Y-64511533D01*
X207280466Y-64372251D01*
X207280462Y-64372248D01*
X207116684Y-64262814D01*
X207116671Y-64262807D01*
X206934691Y-64187429D01*
X206934683Y-64187427D01*
X206893000Y-64179135D01*
X206893000Y-64982011D01*
X206883060Y-64964795D01*
X206827205Y-64908940D01*
X206758796Y-64869444D01*
X206682496Y-64849000D01*
X206603504Y-64849000D01*
X206527204Y-64869444D01*
X206458795Y-64908940D01*
X206402940Y-64964795D01*
X206393000Y-64982011D01*
X206393000Y-64179136D01*
X206392999Y-64179135D01*
X206351316Y-64187427D01*
X206351308Y-64187429D01*
X206169328Y-64262807D01*
X206169315Y-64262814D01*
X206077174Y-64324382D01*
X206076838Y-64323880D01*
X206065628Y-64335294D01*
X206005226Y-64351000D01*
X205413409Y-64351000D01*
X205410066Y-64350955D01*
X205406865Y-64350868D01*
X205402181Y-64350500D01*
X205393197Y-64350500D01*
X205391529Y-64350455D01*
X205390263Y-64350046D01*
X205370681Y-64348117D01*
X205306216Y-64335294D01*
X205231844Y-64320500D01*
X205231842Y-64320500D01*
X205074158Y-64320500D01*
X204935308Y-64348118D01*
X204914468Y-64350455D01*
X204912781Y-64350500D01*
X204903820Y-64350501D01*
X204899144Y-64350868D01*
X204895954Y-64350955D01*
X204895669Y-64350879D01*
X204892606Y-64351000D01*
X204340156Y-64351000D01*
X204380594Y-64490193D01*
X204414419Y-64547388D01*
X204431601Y-64615112D01*
X204414419Y-64673628D01*
X204380130Y-64731607D01*
X204380129Y-64731611D01*
X204335335Y-64885791D01*
X204335334Y-64885797D01*
X204332500Y-64921811D01*
X204332500Y-65320169D01*
X204332501Y-65320191D01*
X204335335Y-65356205D01*
X204380129Y-65510388D01*
X204380131Y-65510393D01*
X204461863Y-65648595D01*
X204461869Y-65648603D01*
X204575396Y-65762130D01*
X204575400Y-65762133D01*
X204575402Y-65762135D01*
X204713607Y-65843869D01*
X204729547Y-65848500D01*
X204867791Y-65888664D01*
X204867794Y-65888664D01*
X204867796Y-65888665D01*
X204903819Y-65891500D01*
X204911121Y-65891499D01*
X204935314Y-65893881D01*
X205041596Y-65915022D01*
X205074157Y-65921500D01*
X205074158Y-65921500D01*
X205231844Y-65921500D01*
X205370685Y-65893882D01*
X205374019Y-65893266D01*
X205384374Y-65891499D01*
X205402180Y-65891499D01*
X205438204Y-65888665D01*
X205491188Y-65873271D01*
X205498142Y-65872085D01*
X205526113Y-65875360D01*
X205554273Y-65875441D01*
X205560349Y-65879370D01*
X205567537Y-65880212D01*
X205589295Y-65898089D01*
X205612944Y-65913382D01*
X205615931Y-65919974D01*
X205621522Y-65924567D01*
X205630159Y-65951364D01*
X205641788Y-65977020D01*
X205642720Y-65990334D01*
X205642957Y-65991067D01*
X205642810Y-65991617D01*
X205643000Y-65994318D01*
X205643000Y-66347495D01*
X205681427Y-66540681D01*
X205681430Y-66540693D01*
X205715277Y-66622408D01*
X205722746Y-66691878D01*
X205691470Y-66754357D01*
X205631381Y-66790008D01*
X205561556Y-66787514D01*
X205537595Y-66776592D01*
X205475721Y-66740000D01*
X205417395Y-66705506D01*
X205417394Y-66705505D01*
X205417393Y-66705505D01*
X205417390Y-66705504D01*
X205261997Y-66660357D01*
X205261991Y-66660356D01*
X205225697Y-66657500D01*
X205225690Y-66657500D01*
X204816310Y-66657500D01*
X204816302Y-66657500D01*
X204780008Y-66660356D01*
X204780002Y-66660357D01*
X204624609Y-66705504D01*
X204624604Y-66705506D01*
X204603628Y-66717911D01*
X204535903Y-66735092D01*
X204477389Y-66717911D01*
X204457191Y-66705966D01*
X204457190Y-66705965D01*
X204311001Y-66663493D01*
X204311000Y-66663494D01*
X204311000Y-66969645D01*
X204293734Y-67032763D01*
X204288507Y-67041600D01*
X204288504Y-67041608D01*
X204243357Y-67197002D01*
X204243356Y-67197008D01*
X204240500Y-67233302D01*
X204240500Y-67702697D01*
X204243356Y-67738991D01*
X204243357Y-67738997D01*
X204288503Y-67894389D01*
X204288505Y-67894393D01*
X204288506Y-67894395D01*
X204293732Y-67903233D01*
X204311000Y-67966352D01*
X204311000Y-68272503D01*
X204457194Y-68230032D01*
X204477384Y-68218091D01*
X204545108Y-68200906D01*
X204603629Y-68218089D01*
X204624605Y-68230494D01*
X204659049Y-68240501D01*
X204780002Y-68275642D01*
X204780005Y-68275642D01*
X204780007Y-68275643D01*
X204816310Y-68278500D01*
X204816318Y-68278500D01*
X205225682Y-68278500D01*
X205225690Y-68278500D01*
X205261993Y-68275643D01*
X205261995Y-68275642D01*
X205261997Y-68275642D01*
X205424887Y-68228318D01*
X205425087Y-68229008D01*
X205426154Y-68228787D01*
X205431234Y-68225523D01*
X205466169Y-68220500D01*
X205695000Y-68220500D01*
X205762039Y-68240185D01*
X205807794Y-68292989D01*
X205819000Y-68344500D01*
X205819000Y-68454000D01*
X205874500Y-68454000D01*
X205941539Y-68473685D01*
X205987294Y-68526489D01*
X205998500Y-68578000D01*
X205998500Y-68688697D01*
X206001356Y-68724991D01*
X206001357Y-68724997D01*
X206046504Y-68880390D01*
X206046504Y-68880392D01*
X206046506Y-68880395D01*
X206060732Y-68904450D01*
X206065082Y-68920351D01*
X206072977Y-68932636D01*
X206078000Y-68967571D01*
X206078000Y-69083645D01*
X206060734Y-69146763D01*
X206055507Y-69155600D01*
X206055504Y-69155608D01*
X206010357Y-69311002D01*
X206010356Y-69311008D01*
X206007500Y-69347302D01*
X206007500Y-69816697D01*
X206010356Y-69852991D01*
X206010357Y-69852997D01*
X206055503Y-70008389D01*
X206055505Y-70008393D01*
X206055506Y-70008395D01*
X206060732Y-70017233D01*
X206065082Y-70033132D01*
X206072977Y-70045417D01*
X206078000Y-70080352D01*
X206078000Y-70174427D01*
X206060734Y-70237545D01*
X206046507Y-70261601D01*
X206046504Y-70261610D01*
X206001357Y-70417002D01*
X206001356Y-70417008D01*
X205998500Y-70453302D01*
X205998500Y-70551457D01*
X205996559Y-70558064D01*
X205997775Y-70564842D01*
X205986842Y-70591158D01*
X205978815Y-70618496D01*
X205972972Y-70624544D01*
X205970970Y-70629365D01*
X205955716Y-70642410D01*
X205945113Y-70653388D01*
X205940918Y-70656293D01*
X205936425Y-70658888D01*
X205934736Y-70660576D01*
X205927007Y-70665931D01*
X205896592Y-70676018D01*
X205866717Y-70687570D01*
X205861050Y-70687806D01*
X205860689Y-70687926D01*
X205860336Y-70687835D01*
X205856394Y-70688000D01*
X205797535Y-70688000D01*
X205783496Y-70695666D01*
X205757138Y-70698500D01*
X205418853Y-70698500D01*
X205393569Y-70705275D01*
X205361476Y-70709500D01*
X204295955Y-70709500D01*
X204228916Y-70689815D01*
X204208274Y-70673181D01*
X203973092Y-70437999D01*
X205040209Y-70437999D01*
X205040210Y-70438000D01*
X205569000Y-70438000D01*
X205569000Y-69832000D01*
X205049210Y-69832000D01*
X205050854Y-69852910D01*
X205095968Y-70008195D01*
X205095968Y-70008196D01*
X205129130Y-70064269D01*
X205146313Y-70131993D01*
X205129131Y-70190510D01*
X205086967Y-70261806D01*
X205086966Y-70261809D01*
X205041855Y-70417081D01*
X205041854Y-70417087D01*
X205040209Y-70437999D01*
X203973092Y-70437999D01*
X203876819Y-70341726D01*
X203862115Y-70314798D01*
X203845523Y-70288980D01*
X203844631Y-70282779D01*
X203843334Y-70280403D01*
X203840500Y-70254045D01*
X203840500Y-70253764D01*
X203844725Y-70221670D01*
X203862500Y-70155335D01*
X203862500Y-68704000D01*
X205040210Y-68704000D01*
X205041854Y-68724910D01*
X205086968Y-68880195D01*
X205135636Y-68962488D01*
X205152819Y-69030212D01*
X205135636Y-69088730D01*
X205095968Y-69155804D01*
X205095966Y-69155809D01*
X205050855Y-69311081D01*
X205050854Y-69311087D01*
X205049209Y-69331999D01*
X205049210Y-69332000D01*
X205569000Y-69332000D01*
X205569000Y-68704000D01*
X205040210Y-68704000D01*
X203862500Y-68704000D01*
X203862500Y-67922259D01*
X203822258Y-67772076D01*
X203822253Y-67772067D01*
X203820438Y-67767684D01*
X203811000Y-67720232D01*
X203811000Y-66663494D01*
X203810998Y-66663493D01*
X203664809Y-66705965D01*
X203664806Y-66705967D01*
X203525625Y-66788278D01*
X203525616Y-66788285D01*
X203411285Y-66902616D01*
X203411278Y-66902625D01*
X203328969Y-67041803D01*
X203283854Y-67197089D01*
X203283854Y-67197092D01*
X203281000Y-67233355D01*
X203281000Y-67291109D01*
X203273154Y-67317828D01*
X203268536Y-67345291D01*
X203263446Y-67350889D01*
X203261315Y-67358148D01*
X203240272Y-67376381D01*
X203221537Y-67396991D01*
X203211554Y-67401265D01*
X203208511Y-67403903D01*
X203189093Y-67410884D01*
X203131319Y-67426364D01*
X203061469Y-67424701D01*
X203003607Y-67385538D01*
X202976103Y-67321309D01*
X202976753Y-67287190D01*
X202991000Y-67197244D01*
X202991000Y-66984753D01*
X202957757Y-66774872D01*
X202957757Y-66774869D01*
X202892095Y-66572782D01*
X202795624Y-66383449D01*
X202756270Y-66329282D01*
X202756269Y-66329282D01*
X202123962Y-66961590D01*
X202106925Y-66898007D01*
X202041099Y-66783993D01*
X201948007Y-66690901D01*
X201833993Y-66625075D01*
X201770409Y-66608037D01*
X202402716Y-65975728D01*
X202348547Y-65936373D01*
X202348547Y-65936372D01*
X202339500Y-65931763D01*
X202288706Y-65883788D01*
X202271912Y-65815966D01*
X202294451Y-65749832D01*
X202339508Y-65710793D01*
X202348816Y-65706051D01*
X202475016Y-65614362D01*
X202520786Y-65581109D01*
X202520788Y-65581106D01*
X202520792Y-65581104D01*
X202671104Y-65430792D01*
X202671106Y-65430788D01*
X202671109Y-65430786D01*
X202796048Y-65258820D01*
X202796047Y-65258820D01*
X202796051Y-65258816D01*
X202892557Y-65069412D01*
X202958246Y-64867243D01*
X202991500Y-64657287D01*
X202991500Y-64444713D01*
X202958246Y-64234757D01*
X202892557Y-64032588D01*
X202800033Y-63851000D01*
X204340156Y-63851000D01*
X204903000Y-63851000D01*
X205403000Y-63851000D01*
X205965844Y-63851000D01*
X205925404Y-63711805D01*
X205843738Y-63573714D01*
X205843731Y-63573705D01*
X205730294Y-63460268D01*
X205730285Y-63460261D01*
X205592191Y-63378593D01*
X205592188Y-63378592D01*
X205438130Y-63333834D01*
X205403000Y-63331068D01*
X205403000Y-63851000D01*
X204903000Y-63851000D01*
X204903000Y-63331068D01*
X204902999Y-63331068D01*
X204867869Y-63333834D01*
X204867868Y-63333834D01*
X204713811Y-63378592D01*
X204713808Y-63378593D01*
X204575714Y-63460261D01*
X204575705Y-63460268D01*
X204462268Y-63573705D01*
X204462261Y-63573714D01*
X204380595Y-63711805D01*
X204340156Y-63851000D01*
X202800033Y-63851000D01*
X202796051Y-63843184D01*
X202796049Y-63843181D01*
X202796048Y-63843179D01*
X202671109Y-63671213D01*
X202557569Y-63557673D01*
X202524084Y-63496350D01*
X202529068Y-63426658D01*
X202570940Y-63370725D01*
X202601915Y-63353810D01*
X202733331Y-63304796D01*
X202848546Y-63218546D01*
X202934796Y-63103331D01*
X202985091Y-62968483D01*
X202991500Y-62908873D01*
X202991499Y-61113128D01*
X202985091Y-61053517D01*
X202978108Y-61034795D01*
X202934797Y-60918671D01*
X202934793Y-60918664D01*
X202848547Y-60803455D01*
X202848544Y-60803452D01*
X202742098Y-60723766D01*
X202700227Y-60667832D01*
X202695243Y-60598141D01*
X202728729Y-60536818D01*
X202790052Y-60503334D01*
X202816409Y-60500500D01*
X205688408Y-60500500D01*
X205755447Y-60520185D01*
G37*
%TD.AperFunction*%
%TA.AperFunction,Conductor*%
G36*
X201175075Y-67283993D02*
G01*
X201240901Y-67398007D01*
X201333993Y-67491099D01*
X201448007Y-67556925D01*
X201511590Y-67573962D01*
X200879282Y-68206269D01*
X200879282Y-68206270D01*
X200933452Y-68245626D01*
X200933451Y-68245626D01*
X200942495Y-68250234D01*
X200993292Y-68298208D01*
X201010087Y-68366029D01*
X200987550Y-68432164D01*
X200942499Y-68471202D01*
X200933182Y-68475949D01*
X200761213Y-68600890D01*
X200610890Y-68751213D01*
X200485950Y-68923180D01*
X200484984Y-68925078D01*
X200484424Y-68925669D01*
X200483404Y-68927336D01*
X200483053Y-68927121D01*
X200437009Y-68975873D01*
X200369187Y-68992667D01*
X200303053Y-68970128D01*
X200259602Y-68915413D01*
X200250500Y-68868781D01*
X200250500Y-67852116D01*
X200270185Y-67785077D01*
X200322989Y-67739322D01*
X200392147Y-67729378D01*
X200455703Y-67758403D01*
X200484987Y-67795826D01*
X200486374Y-67798548D01*
X200525728Y-67852716D01*
X201158037Y-67220408D01*
X201175075Y-67283993D01*
G37*
%TD.AperFunction*%
%TA.AperFunction,Conductor*%
G36*
X221279270Y-67799717D02*
G01*
X221282845Y-67799435D01*
X221330512Y-67762679D01*
X221400125Y-67756700D01*
X221461920Y-67789305D01*
X221496277Y-67850144D01*
X221499500Y-67878230D01*
X221499500Y-68736916D01*
X221479815Y-68803955D01*
X221427011Y-68849710D01*
X221357853Y-68859654D01*
X221294297Y-68830629D01*
X221275182Y-68809801D01*
X221194109Y-68698214D01*
X221194105Y-68698209D01*
X221043786Y-68547890D01*
X220871817Y-68422949D01*
X220862504Y-68418204D01*
X220811707Y-68370230D01*
X220794912Y-68302409D01*
X220817449Y-68236274D01*
X220862507Y-68197232D01*
X220871555Y-68192622D01*
X220925716Y-68153270D01*
X220925717Y-68153270D01*
X220293408Y-67520962D01*
X220356993Y-67503925D01*
X220471007Y-67438099D01*
X220564099Y-67345007D01*
X220629925Y-67230993D01*
X220646962Y-67167408D01*
X221279270Y-67799717D01*
G37*
%TD.AperFunction*%
%TA.AperFunction,Conductor*%
G36*
X219698075Y-67230993D02*
G01*
X219763901Y-67345007D01*
X219856993Y-67438099D01*
X219971007Y-67503925D01*
X220034590Y-67520962D01*
X219402282Y-68153269D01*
X219402282Y-68153270D01*
X219456452Y-68192626D01*
X219456451Y-68192626D01*
X219465495Y-68197234D01*
X219516292Y-68245208D01*
X219533087Y-68313029D01*
X219510550Y-68379164D01*
X219465499Y-68418202D01*
X219456182Y-68422949D01*
X219284213Y-68547890D01*
X219284209Y-68547894D01*
X219266181Y-68565923D01*
X219204858Y-68599408D01*
X219135166Y-68594424D01*
X219079233Y-68552552D01*
X219054816Y-68487088D01*
X219054500Y-68478242D01*
X219054500Y-67845308D01*
X219074185Y-67778269D01*
X219090819Y-67757627D01*
X219681037Y-67167408D01*
X219698075Y-67230993D01*
G37*
%TD.AperFunction*%
%TA.AperFunction,Conductor*%
G36*
X207655539Y-66383685D02*
G01*
X207701294Y-66436489D01*
X207712500Y-66488000D01*
X207712501Y-66915500D01*
X207709950Y-66924186D01*
X207711239Y-66933147D01*
X207700261Y-66957183D01*
X207692817Y-66982539D01*
X207685974Y-66988467D01*
X207682214Y-66996703D01*
X207659982Y-67010989D01*
X207640013Y-67028294D01*
X207629497Y-67030581D01*
X207623436Y-67034477D01*
X207588501Y-67039500D01*
X207587000Y-67039500D01*
X207519961Y-67019815D01*
X207474206Y-66967011D01*
X207463000Y-66915500D01*
X207463000Y-66864000D01*
X206907000Y-66864000D01*
X206839961Y-66844315D01*
X206794206Y-66791511D01*
X206783000Y-66740000D01*
X206783000Y-66514581D01*
X206827205Y-66489060D01*
X206883060Y-66433205D01*
X206922556Y-66364796D01*
X206922769Y-66364000D01*
X207588500Y-66364000D01*
X207655539Y-66383685D01*
G37*
%TD.AperFunction*%
%TA.AperFunction,Conductor*%
G36*
X200455703Y-65219505D02*
G01*
X200483276Y-65254742D01*
X200483404Y-65254664D01*
X200484084Y-65255773D01*
X200484988Y-65256929D01*
X200485951Y-65258820D01*
X200610890Y-65430786D01*
X200761213Y-65581109D01*
X200933179Y-65706048D01*
X200933181Y-65706049D01*
X200933184Y-65706051D01*
X200942493Y-65710794D01*
X200993290Y-65758766D01*
X201010087Y-65826587D01*
X200987552Y-65892722D01*
X200942505Y-65931760D01*
X200933446Y-65936376D01*
X200933440Y-65936380D01*
X200879282Y-65975727D01*
X200879282Y-65975728D01*
X201511591Y-66608037D01*
X201448007Y-66625075D01*
X201333993Y-66690901D01*
X201240901Y-66783993D01*
X201175075Y-66898007D01*
X201158037Y-66961590D01*
X200525728Y-66329282D01*
X200525727Y-66329282D01*
X200486380Y-66383440D01*
X200486378Y-66383443D01*
X200484984Y-66386180D01*
X200484180Y-66387030D01*
X200483838Y-66387590D01*
X200483720Y-66387517D01*
X200437009Y-66436976D01*
X200369188Y-66453770D01*
X200303053Y-66431232D01*
X200259602Y-66376516D01*
X200250500Y-66329884D01*
X200250500Y-65313218D01*
X200270185Y-65246179D01*
X200322989Y-65200424D01*
X200392147Y-65190480D01*
X200455703Y-65219505D01*
G37*
%TD.AperFunction*%
%TA.AperFunction,Conductor*%
G36*
X221461920Y-65250158D02*
G01*
X221496277Y-65310997D01*
X221499500Y-65339083D01*
X221499500Y-66197768D01*
X221479815Y-66264807D01*
X221427011Y-66310562D01*
X221357853Y-66320506D01*
X221294297Y-66291481D01*
X221280431Y-66276373D01*
X221279269Y-66276282D01*
X220646962Y-66908590D01*
X220629925Y-66845007D01*
X220564099Y-66730993D01*
X220471007Y-66637901D01*
X220356993Y-66572075D01*
X220293408Y-66555037D01*
X220925716Y-65922728D01*
X220871547Y-65883373D01*
X220871547Y-65883372D01*
X220862500Y-65878763D01*
X220811706Y-65830788D01*
X220794912Y-65762966D01*
X220817451Y-65696832D01*
X220862508Y-65657793D01*
X220871816Y-65653051D01*
X220959280Y-65589505D01*
X221043786Y-65528109D01*
X221043788Y-65528106D01*
X221043792Y-65528104D01*
X221194104Y-65377792D01*
X221194106Y-65377788D01*
X221194109Y-65377786D01*
X221275182Y-65266198D01*
X221330511Y-65223532D01*
X221400125Y-65217553D01*
X221461920Y-65250158D01*
G37*
%TD.AperFunction*%
%TA.AperFunction,Conductor*%
G36*
X218983119Y-63206738D02*
G01*
X219005208Y-63208318D01*
X219024644Y-63218931D01*
X219028913Y-63220185D01*
X219036184Y-63225233D01*
X219071665Y-63251793D01*
X219071671Y-63251797D01*
X219203082Y-63300810D01*
X219259016Y-63342681D01*
X219283433Y-63408145D01*
X219268582Y-63476418D01*
X219247431Y-63504673D01*
X219133889Y-63618215D01*
X219008951Y-63790179D01*
X218912444Y-63979585D01*
X218846753Y-64181760D01*
X218816583Y-64372248D01*
X218813500Y-64391713D01*
X218813500Y-64604287D01*
X218824483Y-64673628D01*
X218846754Y-64814244D01*
X218846754Y-64814247D01*
X218863959Y-64867197D01*
X218865954Y-64937038D01*
X218833709Y-64993196D01*
X218404580Y-65422325D01*
X218343257Y-65455810D01*
X218282304Y-65453720D01*
X218153001Y-65416153D01*
X218153000Y-65416154D01*
X218153000Y-65622543D01*
X218133315Y-65689582D01*
X218116682Y-65710224D01*
X217991480Y-65835427D01*
X217991479Y-65835428D01*
X217913741Y-65970074D01*
X217913417Y-65971287D01*
X217897274Y-66031534D01*
X217860909Y-66091195D01*
X217798062Y-66121724D01*
X217728687Y-66113429D01*
X217674809Y-66068944D01*
X217653534Y-66002392D01*
X217653499Y-65999441D01*
X217653499Y-65979831D01*
X217653498Y-65979806D01*
X217653382Y-65978332D01*
X217653000Y-65968607D01*
X217653000Y-65416154D01*
X217652998Y-65416153D01*
X217513811Y-65456591D01*
X217513810Y-65456592D01*
X217456611Y-65490419D01*
X217388886Y-65507600D01*
X217330371Y-65490419D01*
X217295880Y-65470021D01*
X217272393Y-65456131D01*
X217272392Y-65456130D01*
X217272391Y-65456130D01*
X217272388Y-65456129D01*
X217118208Y-65411335D01*
X217118202Y-65411334D01*
X217082181Y-65408500D01*
X216683830Y-65408500D01*
X216683808Y-65408501D01*
X216647794Y-65411335D01*
X216493611Y-65456129D01*
X216493603Y-65456132D01*
X216470119Y-65470021D01*
X216402395Y-65487202D01*
X216336133Y-65465042D01*
X216292370Y-65410575D01*
X216283000Y-65363288D01*
X216283000Y-65050508D01*
X216282999Y-65050504D01*
X216244572Y-64857318D01*
X216244569Y-64857306D01*
X216169192Y-64675328D01*
X216169185Y-64675315D01*
X216059751Y-64511537D01*
X216059748Y-64511533D01*
X215920466Y-64372251D01*
X215920462Y-64372248D01*
X215756684Y-64262814D01*
X215756671Y-64262807D01*
X215574691Y-64187429D01*
X215574683Y-64187427D01*
X215533000Y-64179135D01*
X215533000Y-64982011D01*
X215523060Y-64964795D01*
X215467205Y-64908940D01*
X215398796Y-64869444D01*
X215322496Y-64849000D01*
X215243504Y-64849000D01*
X215167204Y-64869444D01*
X215098795Y-64908940D01*
X215042940Y-64964795D01*
X215033000Y-64982011D01*
X215033000Y-64179136D01*
X215014518Y-64163969D01*
X214975183Y-64106224D01*
X214973312Y-64036379D01*
X215005498Y-63980437D01*
X215749118Y-63236819D01*
X215810441Y-63203334D01*
X215836799Y-63200500D01*
X218961874Y-63200500D01*
X218983119Y-63206738D01*
G37*
%TD.AperFunction*%
%TA.AperFunction,Conductor*%
G36*
X218984832Y-60520185D02*
G01*
X219030587Y-60572989D01*
X219040531Y-60642147D01*
X219011506Y-60705703D01*
X218992107Y-60723763D01*
X218956454Y-60750454D01*
X218956453Y-60750455D01*
X218956452Y-60750456D01*
X218870206Y-60865664D01*
X218870202Y-60865671D01*
X218819908Y-61000517D01*
X218813501Y-61060116D01*
X218813500Y-61060135D01*
X218813501Y-61895500D01*
X218793817Y-61962539D01*
X218741013Y-62008294D01*
X218689501Y-62019500D01*
X216407000Y-62019500D01*
X216339961Y-61999815D01*
X216294206Y-61947011D01*
X216283000Y-61895500D01*
X216283000Y-61769000D01*
X215583000Y-61769000D01*
X215583000Y-61269000D01*
X216283000Y-61269000D01*
X216283000Y-61120508D01*
X216282999Y-61120504D01*
X216244572Y-60927318D01*
X216244569Y-60927306D01*
X216169192Y-60745328D01*
X216169185Y-60745316D01*
X216134490Y-60693391D01*
X216113612Y-60626714D01*
X216132096Y-60559334D01*
X216184075Y-60512643D01*
X216237592Y-60500500D01*
X218917793Y-60500500D01*
X218984832Y-60520185D01*
G37*
%TD.AperFunction*%
%TD*%
M02*
