%TF.GenerationSoftware,KiCad,Pcbnew,9.0.6*%
%TF.CreationDate,2025-12-03T22:27:59-06:00*%
%TF.ProjectId,Devboard,44657662-6f61-4726-942e-6b696361645f,rev?*%
%TF.SameCoordinates,Original*%
%TF.FileFunction,Legend,Bot*%
%TF.FilePolarity,Positive*%
%FSLAX46Y46*%
G04 Gerber Fmt 4.6, Leading zero omitted, Abs format (unit mm)*
G04 Created by KiCad (PCBNEW 9.0.6) date 2025-12-03 22:27:59*
%MOMM*%
%LPD*%
G01*
G04 APERTURE LIST*
%ADD10C,0.000000*%
G04 APERTURE END LIST*
D10*
G36*
X210939676Y-65903471D02*
G01*
X210961309Y-65905949D01*
X210982877Y-65910492D01*
X211004494Y-65917100D01*
X211026276Y-65925778D01*
X211048338Y-65936526D01*
X211070796Y-65949348D01*
X211093765Y-65964245D01*
X211117361Y-65981220D01*
X211141697Y-66000275D01*
X211166891Y-66021412D01*
X211220310Y-66069942D01*
X211278541Y-66126828D01*
X211342505Y-66192088D01*
X211405878Y-66256211D01*
X211461708Y-66319032D01*
X211486790Y-66349999D01*
X211509979Y-66380696D01*
X211531273Y-66411139D01*
X211550671Y-66441346D01*
X211568170Y-66471337D01*
X211583767Y-66501129D01*
X211597460Y-66530740D01*
X211609248Y-66560188D01*
X211619127Y-66589492D01*
X211627096Y-66618669D01*
X211633153Y-66647737D01*
X211637294Y-66676715D01*
X211639519Y-66705621D01*
X211639823Y-66734472D01*
X211638207Y-66763288D01*
X211634666Y-66792085D01*
X211629199Y-66820882D01*
X211621803Y-66849697D01*
X211612477Y-66878548D01*
X211601217Y-66907454D01*
X211588023Y-66936432D01*
X211572890Y-66965500D01*
X211555818Y-66994677D01*
X211536804Y-67023980D01*
X211515846Y-67053428D01*
X211492941Y-67083039D01*
X211468087Y-67112831D01*
X211441282Y-67142821D01*
X211416406Y-67169699D01*
X211390434Y-67194770D01*
X211363432Y-67218037D01*
X211335463Y-67239502D01*
X211306588Y-67259167D01*
X211276873Y-67277035D01*
X211246381Y-67293108D01*
X211215173Y-67307388D01*
X211183315Y-67319878D01*
X211150869Y-67330579D01*
X211117898Y-67339494D01*
X211084466Y-67346625D01*
X211050637Y-67351974D01*
X211016472Y-67355545D01*
X210982037Y-67357338D01*
X210947393Y-67357357D01*
X210912604Y-67355603D01*
X210877735Y-67352078D01*
X210842847Y-67346786D01*
X210808004Y-67339728D01*
X210773270Y-67330907D01*
X210738708Y-67320324D01*
X210704381Y-67307982D01*
X210670352Y-67293884D01*
X210636685Y-67278032D01*
X210603443Y-67260427D01*
X210570689Y-67241072D01*
X210538487Y-67219970D01*
X210506900Y-67197122D01*
X210475992Y-67172531D01*
X210445824Y-67146199D01*
X210416462Y-67118129D01*
X210386257Y-67086841D01*
X210358151Y-67055491D01*
X210332142Y-67024092D01*
X210308231Y-66992655D01*
X210286419Y-66961190D01*
X210266704Y-66929710D01*
X210249088Y-66898225D01*
X210233569Y-66866747D01*
X210220149Y-66835287D01*
X210208827Y-66803856D01*
X210199603Y-66772466D01*
X210192477Y-66741128D01*
X210187448Y-66709854D01*
X210184518Y-66678654D01*
X210183686Y-66647540D01*
X210184952Y-66616523D01*
X210188317Y-66585614D01*
X210193779Y-66554826D01*
X210201339Y-66524169D01*
X210210997Y-66493654D01*
X210222754Y-66463292D01*
X210236608Y-66433096D01*
X210252561Y-66403077D01*
X210270611Y-66373244D01*
X210290760Y-66343611D01*
X210313007Y-66314188D01*
X210337351Y-66284987D01*
X210363794Y-66256018D01*
X210392335Y-66227294D01*
X210422974Y-66198825D01*
X210455711Y-66170623D01*
X210490546Y-66142699D01*
X210565362Y-66084246D01*
X210632998Y-66033913D01*
X210694375Y-65991719D01*
X210723005Y-65973681D01*
X210750417Y-65957683D01*
X210776725Y-65943730D01*
X210802045Y-65931822D01*
X210826493Y-65921963D01*
X210850183Y-65914154D01*
X210873231Y-65908398D01*
X210895753Y-65904698D01*
X210917863Y-65903055D01*
X210939676Y-65903471D01*
G37*
G36*
X216274255Y-101443987D02*
G01*
X216284698Y-101446703D01*
X216289272Y-101448690D01*
X216293403Y-101451101D01*
X216297083Y-101453936D01*
X216300301Y-101457199D01*
X216303048Y-101460891D01*
X216305317Y-101465016D01*
X216307097Y-101469574D01*
X216308379Y-101474568D01*
X216309416Y-101485876D01*
X216308355Y-101498955D01*
X216305124Y-101513826D01*
X216299650Y-101530505D01*
X216291861Y-101549010D01*
X216281684Y-101569361D01*
X216269047Y-101591574D01*
X216195738Y-101706359D01*
X216097560Y-101845416D01*
X215834771Y-102186942D01*
X215497031Y-102597343D01*
X215100690Y-103057808D01*
X214662098Y-103549526D01*
X214197607Y-104053688D01*
X213723565Y-104551483D01*
X213256324Y-105024102D01*
X213006287Y-105269087D01*
X212731905Y-105528939D01*
X212130797Y-106076317D01*
X211494385Y-106632376D01*
X210864050Y-107163258D01*
X210281174Y-107635105D01*
X209787141Y-108014059D01*
X209586372Y-108158120D01*
X209423332Y-108266261D01*
X209303194Y-108334249D01*
X209260830Y-108351863D01*
X209231130Y-108357852D01*
X209220742Y-108358853D01*
X209208220Y-108361807D01*
X209193745Y-108366642D01*
X209177497Y-108373286D01*
X209159657Y-108381667D01*
X209140407Y-108391711D01*
X209119927Y-108403347D01*
X209098397Y-108416502D01*
X209076000Y-108431105D01*
X209052915Y-108447081D01*
X209029324Y-108464361D01*
X209005407Y-108482870D01*
X208981346Y-108502536D01*
X208957320Y-108523288D01*
X208933512Y-108545053D01*
X208910102Y-108567758D01*
X208898601Y-108577922D01*
X208887258Y-108587577D01*
X208876087Y-108596722D01*
X208865102Y-108605353D01*
X208854315Y-108613469D01*
X208843741Y-108621067D01*
X208833393Y-108628145D01*
X208823285Y-108634701D01*
X208813430Y-108640732D01*
X208803842Y-108646237D01*
X208794534Y-108651213D01*
X208785520Y-108655657D01*
X208776813Y-108659568D01*
X208768428Y-108662943D01*
X208760377Y-108665780D01*
X208752674Y-108668076D01*
X208745333Y-108669830D01*
X208738367Y-108671039D01*
X208731791Y-108671701D01*
X208725616Y-108671814D01*
X208719858Y-108671375D01*
X208714529Y-108670382D01*
X208709643Y-108668833D01*
X208705214Y-108666725D01*
X208701256Y-108664057D01*
X208697781Y-108660826D01*
X208694803Y-108657029D01*
X208692336Y-108652665D01*
X208690394Y-108647732D01*
X208688990Y-108642226D01*
X208688138Y-108636146D01*
X208687851Y-108629490D01*
X208697922Y-108597010D01*
X208728486Y-108550223D01*
X208780066Y-108488713D01*
X208853188Y-108412065D01*
X209066154Y-108211688D01*
X209371579Y-107945765D01*
X209773660Y-107610967D01*
X210276592Y-107203967D01*
X211601796Y-106160047D01*
X211925380Y-105897259D01*
X212241150Y-105625065D01*
X212552869Y-105339849D01*
X212864299Y-105037993D01*
X213179202Y-104715880D01*
X213501339Y-104369892D01*
X213834473Y-103996412D01*
X214182365Y-103591823D01*
X214454969Y-103266069D01*
X214721785Y-102951311D01*
X214975868Y-102655074D01*
X215210272Y-102384883D01*
X215418052Y-102148260D01*
X215592264Y-101952731D01*
X215725961Y-101805819D01*
X215812198Y-101715048D01*
X215842174Y-101687921D01*
X215871860Y-101662114D01*
X215901185Y-101637645D01*
X215930076Y-101614533D01*
X215958460Y-101592796D01*
X215986265Y-101572451D01*
X216013419Y-101553517D01*
X216039850Y-101536012D01*
X216065485Y-101519954D01*
X216090252Y-101505361D01*
X216114078Y-101492251D01*
X216136892Y-101480642D01*
X216158620Y-101470553D01*
X216179191Y-101462001D01*
X216198532Y-101455004D01*
X216216570Y-101449581D01*
X216233234Y-101445750D01*
X216248451Y-101443528D01*
X216262149Y-101442934D01*
X216274255Y-101443987D01*
G37*
G36*
X206177377Y-80221899D02*
G01*
X206193965Y-80223321D01*
X206211293Y-80226080D01*
X206229498Y-80230150D01*
X206248717Y-80235506D01*
X206290754Y-80249979D01*
X206338506Y-80269298D01*
X206393077Y-80293266D01*
X206527087Y-80354351D01*
X206560108Y-80370360D01*
X206592013Y-80388225D01*
X206622768Y-80407848D01*
X206652344Y-80429134D01*
X206680708Y-80451984D01*
X206707828Y-80476301D01*
X206733673Y-80501989D01*
X206758212Y-80528949D01*
X206781412Y-80557085D01*
X206803242Y-80586299D01*
X206823670Y-80616494D01*
X206842665Y-80647574D01*
X206860195Y-80679440D01*
X206876228Y-80711996D01*
X206890733Y-80745144D01*
X206903678Y-80778787D01*
X206915031Y-80812828D01*
X206924761Y-80847170D01*
X206932836Y-80881716D01*
X206939224Y-80916367D01*
X206943894Y-80951028D01*
X206946815Y-80985600D01*
X206947953Y-81019987D01*
X206947279Y-81054092D01*
X206944759Y-81087816D01*
X206940364Y-81121064D01*
X206934060Y-81153737D01*
X206925816Y-81185739D01*
X206915600Y-81216972D01*
X206903382Y-81247339D01*
X206889129Y-81276744D01*
X206872809Y-81305087D01*
X206857508Y-81326189D01*
X206839530Y-81347724D01*
X206819092Y-81369549D01*
X206796411Y-81391518D01*
X206771705Y-81413487D01*
X206745189Y-81435312D01*
X206717083Y-81456847D01*
X206687601Y-81477948D01*
X206656962Y-81498471D01*
X206625383Y-81518270D01*
X206593080Y-81537200D01*
X206560271Y-81555118D01*
X206527172Y-81571879D01*
X206494001Y-81587337D01*
X206460975Y-81601348D01*
X206428311Y-81613767D01*
X206366512Y-81632550D01*
X206306219Y-81645091D01*
X206247563Y-81651658D01*
X206190675Y-81652521D01*
X206135685Y-81647950D01*
X206082727Y-81638212D01*
X206031929Y-81623577D01*
X205983424Y-81604314D01*
X205937343Y-81580693D01*
X205893816Y-81552981D01*
X205852976Y-81521449D01*
X205814952Y-81486365D01*
X205779877Y-81447998D01*
X205747880Y-81406617D01*
X205719094Y-81362492D01*
X205693650Y-81315891D01*
X205671678Y-81267084D01*
X205653311Y-81216339D01*
X205638678Y-81163925D01*
X205627911Y-81110112D01*
X205621141Y-81055169D01*
X205618500Y-80999364D01*
X205620118Y-80942967D01*
X205626126Y-80886247D01*
X205636656Y-80829472D01*
X205651839Y-80772912D01*
X205671806Y-80716836D01*
X205696689Y-80661513D01*
X205726617Y-80607211D01*
X205761722Y-80554201D01*
X205802137Y-80502751D01*
X205847990Y-80453129D01*
X205945538Y-80356208D01*
X205985784Y-80318102D01*
X206021816Y-80286634D01*
X206038597Y-80273327D01*
X206054737Y-80261605D01*
X206070376Y-80251443D01*
X206085650Y-80242816D01*
X206100699Y-80235699D01*
X206115659Y-80230068D01*
X206130669Y-80225897D01*
X206145867Y-80223162D01*
X206161391Y-80221837D01*
X206177377Y-80221899D01*
G37*
G36*
X204936611Y-95536420D02*
G01*
X204998192Y-95542176D01*
X205059565Y-95552150D01*
X205120594Y-95566257D01*
X205181144Y-95584411D01*
X205241079Y-95606526D01*
X205300263Y-95632515D01*
X205358561Y-95662295D01*
X205415838Y-95695777D01*
X205471956Y-95732877D01*
X205526782Y-95773508D01*
X205580178Y-95817584D01*
X205632010Y-95865020D01*
X205682142Y-95915730D01*
X205730438Y-95969628D01*
X205776763Y-96026628D01*
X205820981Y-96086643D01*
X205862955Y-96149589D01*
X205902552Y-96215378D01*
X205939634Y-96283926D01*
X205974067Y-96355146D01*
X206005714Y-96428953D01*
X206034440Y-96505260D01*
X206060110Y-96583981D01*
X206082587Y-96665032D01*
X206114695Y-96819449D01*
X206134997Y-96972154D01*
X206144057Y-97122666D01*
X206142442Y-97270504D01*
X206130717Y-97415186D01*
X206109446Y-97556230D01*
X206079195Y-97693154D01*
X206040530Y-97825478D01*
X205994014Y-97952720D01*
X205940215Y-98074397D01*
X205879696Y-98190029D01*
X205813023Y-98299134D01*
X205740761Y-98401230D01*
X205663475Y-98495837D01*
X205581732Y-98582471D01*
X205496095Y-98660652D01*
X205407130Y-98729898D01*
X205315402Y-98789728D01*
X205221477Y-98839660D01*
X205125919Y-98879213D01*
X205029294Y-98907904D01*
X204932168Y-98925252D01*
X204835104Y-98930777D01*
X204738670Y-98923996D01*
X204643429Y-98904427D01*
X204549947Y-98871589D01*
X204458789Y-98825001D01*
X204370520Y-98764181D01*
X204285706Y-98688648D01*
X204204912Y-98597919D01*
X204128703Y-98491514D01*
X204057644Y-98368951D01*
X204022437Y-98293665D01*
X203990864Y-98213916D01*
X203962868Y-98130089D01*
X203938391Y-98042568D01*
X203917379Y-97951737D01*
X203899773Y-97857980D01*
X203874557Y-97663227D01*
X203862291Y-97461385D01*
X203862306Y-97448148D01*
X204451529Y-97448148D01*
X204451826Y-97528823D01*
X204455071Y-97609051D01*
X204461147Y-97688381D01*
X204469936Y-97766364D01*
X204481320Y-97842550D01*
X204495182Y-97916488D01*
X204511404Y-97987729D01*
X204529869Y-98055823D01*
X204550459Y-98120320D01*
X204573057Y-98180770D01*
X204597545Y-98236723D01*
X204623806Y-98287729D01*
X204651721Y-98333339D01*
X204681174Y-98373102D01*
X204712046Y-98406569D01*
X204744221Y-98433290D01*
X204777581Y-98452814D01*
X204812007Y-98464692D01*
X204847383Y-98468474D01*
X204883591Y-98463710D01*
X204920514Y-98449950D01*
X204958033Y-98426744D01*
X204996032Y-98393643D01*
X205015310Y-98371411D01*
X205033773Y-98344275D01*
X205068186Y-98276514D01*
X205099127Y-98192799D01*
X205126450Y-98095574D01*
X205150011Y-97987280D01*
X205169665Y-97870358D01*
X205185268Y-97747251D01*
X205196675Y-97620399D01*
X205203741Y-97492246D01*
X205206321Y-97365232D01*
X205204271Y-97241798D01*
X205197446Y-97124388D01*
X205185702Y-97015443D01*
X205168893Y-96917404D01*
X205146875Y-96832712D01*
X205119504Y-96763811D01*
X205102247Y-96733534D01*
X205085193Y-96705212D01*
X205068329Y-96678849D01*
X205051642Y-96654446D01*
X205035118Y-96632005D01*
X205018742Y-96611528D01*
X205002503Y-96593019D01*
X204986385Y-96576479D01*
X204970376Y-96561910D01*
X204954462Y-96549316D01*
X204938629Y-96538697D01*
X204922865Y-96530056D01*
X204907154Y-96523396D01*
X204891484Y-96518719D01*
X204875841Y-96516026D01*
X204860212Y-96515321D01*
X204844583Y-96516606D01*
X204828940Y-96519882D01*
X204813270Y-96525153D01*
X204797560Y-96532419D01*
X204781795Y-96541685D01*
X204765962Y-96552951D01*
X204750048Y-96566220D01*
X204734039Y-96581495D01*
X204717922Y-96598778D01*
X204701682Y-96618070D01*
X204685307Y-96639374D01*
X204668783Y-96662693D01*
X204652096Y-96688029D01*
X204635232Y-96715383D01*
X204618179Y-96744759D01*
X204600922Y-96776158D01*
X204569395Y-96840617D01*
X204541874Y-96908677D01*
X204518243Y-96979889D01*
X204498382Y-97053802D01*
X204482175Y-97129967D01*
X204469503Y-97207934D01*
X204460250Y-97287253D01*
X204454298Y-97367474D01*
X204451529Y-97448148D01*
X203862306Y-97448148D01*
X203862523Y-97255527D01*
X203874801Y-97048729D01*
X203898673Y-96844065D01*
X203933686Y-96644610D01*
X203979388Y-96453439D01*
X204035328Y-96273627D01*
X204101052Y-96108248D01*
X204137442Y-96031932D01*
X204176109Y-95960377D01*
X204216996Y-95893968D01*
X204260047Y-95833089D01*
X204305205Y-95778124D01*
X204352413Y-95729458D01*
X204401615Y-95687475D01*
X204452755Y-95652560D01*
X204511117Y-95621473D01*
X204570355Y-95595292D01*
X204630335Y-95573931D01*
X204690921Y-95557304D01*
X204751978Y-95545325D01*
X204813368Y-95537909D01*
X204874958Y-95534969D01*
X204936611Y-95536420D01*
G37*
G36*
X211024882Y-64172985D02*
G01*
X211157537Y-64183590D01*
X211289395Y-64202080D01*
X211420060Y-64228493D01*
X211549133Y-64262864D01*
X211676217Y-64305230D01*
X211800913Y-64355626D01*
X211922824Y-64414088D01*
X212165683Y-64554408D01*
X212425129Y-64737358D01*
X212698935Y-64960135D01*
X212984878Y-65219936D01*
X213280732Y-65513957D01*
X213584273Y-65839395D01*
X213893276Y-66193446D01*
X214205517Y-66573307D01*
X214518771Y-66976175D01*
X214830812Y-67399245D01*
X215139417Y-67839715D01*
X215442361Y-68294781D01*
X215737420Y-68761639D01*
X216022367Y-69237486D01*
X216294980Y-69719519D01*
X216553032Y-70204935D01*
X217003585Y-71130808D01*
X217441839Y-72122806D01*
X217858968Y-73155608D01*
X218246145Y-74203892D01*
X218594544Y-75242337D01*
X218895339Y-76245621D01*
X219139703Y-77188423D01*
X219237965Y-77629230D01*
X219318810Y-78045421D01*
X219342124Y-78220784D01*
X219361205Y-78437204D01*
X219387105Y-78968761D01*
X219397379Y-79591186D01*
X219392893Y-80255573D01*
X219374517Y-80913014D01*
X219343119Y-81514604D01*
X219299565Y-82011435D01*
X219273502Y-82205282D01*
X219244725Y-82354600D01*
X219229705Y-82411218D01*
X219217162Y-82460854D01*
X219207259Y-82503762D01*
X219200160Y-82540195D01*
X219197713Y-82556062D01*
X219196028Y-82570405D01*
X219195125Y-82583257D01*
X219195024Y-82594648D01*
X219195746Y-82604610D01*
X219197312Y-82613175D01*
X219199741Y-82620374D01*
X219203055Y-82626239D01*
X219207272Y-82630802D01*
X219212414Y-82634095D01*
X219218502Y-82636148D01*
X219225554Y-82636995D01*
X219233593Y-82636665D01*
X219242637Y-82635192D01*
X219252708Y-82632606D01*
X219263826Y-82628940D01*
X219276010Y-82624225D01*
X219289283Y-82618492D01*
X219319171Y-82604101D01*
X219353653Y-82586020D01*
X219392892Y-82564503D01*
X219428819Y-82547303D01*
X219462683Y-82532816D01*
X219494740Y-82521150D01*
X219510168Y-82516409D01*
X219525240Y-82512414D01*
X219539986Y-82509179D01*
X219554438Y-82506717D01*
X219568628Y-82505041D01*
X219582587Y-82504166D01*
X219596348Y-82504105D01*
X219609941Y-82504872D01*
X219623398Y-82506479D01*
X219636751Y-82508941D01*
X219650032Y-82512272D01*
X219663273Y-82516483D01*
X219676504Y-82521591D01*
X219689758Y-82527607D01*
X219703066Y-82534545D01*
X219716460Y-82542420D01*
X219729971Y-82551244D01*
X219743632Y-82561031D01*
X219757474Y-82571795D01*
X219771528Y-82583549D01*
X219785826Y-82596307D01*
X219800400Y-82610082D01*
X219830503Y-82640739D01*
X219862088Y-82675629D01*
X219919845Y-82746577D01*
X219972827Y-82825918D01*
X220021179Y-82914808D01*
X220065045Y-83014406D01*
X220104571Y-83125868D01*
X220139900Y-83250354D01*
X220171178Y-83389019D01*
X220198549Y-83543021D01*
X220222158Y-83713519D01*
X220242150Y-83901670D01*
X220271860Y-84335558D01*
X220288838Y-84853948D01*
X220294239Y-85466100D01*
X220293787Y-85698361D01*
X220292358Y-85909660D01*
X220289844Y-86101027D01*
X220286137Y-86273493D01*
X220281126Y-86428090D01*
X220274706Y-86565848D01*
X220266765Y-86687798D01*
X220257198Y-86794971D01*
X220245893Y-86888398D01*
X220232744Y-86969110D01*
X220225444Y-87005020D01*
X220217642Y-87038138D01*
X220209324Y-87068593D01*
X220200477Y-87096513D01*
X220191088Y-87122028D01*
X220181143Y-87145266D01*
X220170627Y-87166356D01*
X220159529Y-87185427D01*
X220147834Y-87202608D01*
X220135528Y-87218029D01*
X220122598Y-87231816D01*
X220109031Y-87244100D01*
X220080831Y-87268789D01*
X220056483Y-87292283D01*
X220036078Y-87315127D01*
X220027383Y-87326474D01*
X220019707Y-87337862D01*
X220013062Y-87349358D01*
X220007459Y-87361031D01*
X220002910Y-87372948D01*
X219999425Y-87385177D01*
X219997017Y-87397786D01*
X219995697Y-87410842D01*
X219995475Y-87424414D01*
X219996363Y-87438569D01*
X219998372Y-87453375D01*
X220001515Y-87468901D01*
X220005801Y-87485213D01*
X220011242Y-87502379D01*
X220025636Y-87539548D01*
X220044787Y-87580948D01*
X220068786Y-87627124D01*
X220097721Y-87678617D01*
X220131685Y-87735970D01*
X220170768Y-87799726D01*
X220223142Y-87891932D01*
X220269112Y-87987539D01*
X220308644Y-88085894D01*
X220341701Y-88186348D01*
X220368246Y-88288249D01*
X220388244Y-88390945D01*
X220401658Y-88493787D01*
X220408453Y-88596121D01*
X220408591Y-88697299D01*
X220402038Y-88796668D01*
X220388756Y-88893577D01*
X220368710Y-88987375D01*
X220341863Y-89077411D01*
X220308180Y-89163034D01*
X220288763Y-89203987D01*
X220267623Y-89243593D01*
X220244756Y-89281770D01*
X220220158Y-89318436D01*
X220198381Y-89347475D01*
X220170383Y-89378846D01*
X220136597Y-89412279D01*
X220097458Y-89447503D01*
X220053398Y-89484246D01*
X220004854Y-89522237D01*
X219952257Y-89561205D01*
X219896044Y-89600878D01*
X219774501Y-89681255D01*
X219643697Y-89761199D01*
X219507106Y-89838537D01*
X219368200Y-89911101D01*
X219297676Y-89945472D01*
X219225362Y-89983497D01*
X219151782Y-90024777D01*
X219077461Y-90068914D01*
X219002922Y-90115512D01*
X218928691Y-90164171D01*
X218855292Y-90214495D01*
X218783249Y-90266084D01*
X218713087Y-90318542D01*
X218645331Y-90371470D01*
X218580505Y-90424470D01*
X218519134Y-90477145D01*
X218461742Y-90529096D01*
X218408853Y-90579926D01*
X218360993Y-90629237D01*
X218318686Y-90676630D01*
X218222512Y-90815319D01*
X218086403Y-91038364D01*
X217916725Y-91334046D01*
X217719845Y-91690644D01*
X217269943Y-92539708D01*
X216787630Y-93491795D01*
X216374134Y-94316783D01*
X215965503Y-95099177D01*
X215559368Y-95842106D01*
X215153359Y-96548698D01*
X214745108Y-97222083D01*
X214332245Y-97865390D01*
X213912400Y-98481747D01*
X213483204Y-99074284D01*
X213042289Y-99646130D01*
X212587283Y-100200414D01*
X212115819Y-100740264D01*
X211625526Y-101268809D01*
X211114036Y-101789180D01*
X210578978Y-102304504D01*
X210017985Y-102817911D01*
X209428685Y-103332530D01*
X208921991Y-103766227D01*
X208535248Y-104100374D01*
X208384190Y-104232648D01*
X208259919Y-104343074D01*
X208161368Y-104432664D01*
X208087468Y-104502430D01*
X208037154Y-104553387D01*
X208020507Y-104572128D01*
X208009357Y-104586546D01*
X208003570Y-104596768D01*
X208002645Y-104600345D01*
X208003012Y-104602920D01*
X208004652Y-104604510D01*
X208007550Y-104605130D01*
X208017050Y-104603523D01*
X208031379Y-104598227D01*
X208050405Y-104589368D01*
X208102009Y-104561466D01*
X208170796Y-104520831D01*
X208255698Y-104468476D01*
X208565877Y-104269522D01*
X208897200Y-104040182D01*
X209246790Y-103783061D01*
X209611771Y-103500763D01*
X209989269Y-103195892D01*
X210376407Y-102871054D01*
X211168100Y-102171893D01*
X211963845Y-101424114D01*
X212740634Y-100648554D01*
X213114731Y-100256867D01*
X213475462Y-99866049D01*
X213819952Y-99478703D01*
X214145323Y-99097434D01*
X214591078Y-98547477D01*
X215067507Y-97920397D01*
X215561300Y-97236308D01*
X216059144Y-96515321D01*
X216547727Y-95777550D01*
X217013739Y-95043108D01*
X217443866Y-94332105D01*
X217824797Y-93664656D01*
X217985615Y-93375003D01*
X218130897Y-93116170D01*
X218261890Y-92886565D01*
X218379842Y-92684596D01*
X218486002Y-92508672D01*
X218535050Y-92429980D01*
X218581618Y-92357202D01*
X218625861Y-92290139D01*
X218667937Y-92228593D01*
X218708000Y-92172364D01*
X218746207Y-92121254D01*
X218782714Y-92075064D01*
X218817677Y-92033594D01*
X218851252Y-91996645D01*
X218883594Y-91964020D01*
X218914861Y-91935518D01*
X218945207Y-91910941D01*
X218974789Y-91890090D01*
X219003763Y-91872766D01*
X219032285Y-91858770D01*
X219060510Y-91847903D01*
X219088596Y-91839966D01*
X219116697Y-91834760D01*
X219144970Y-91832086D01*
X219173571Y-91831746D01*
X219202656Y-91833539D01*
X219232381Y-91837268D01*
X219270028Y-91842956D01*
X219304366Y-91850941D01*
X219335557Y-91861495D01*
X219363763Y-91874888D01*
X219376798Y-91882734D01*
X219389148Y-91891392D01*
X219400833Y-91900895D01*
X219411874Y-91911278D01*
X219422290Y-91922574D01*
X219432103Y-91934818D01*
X219441333Y-91948043D01*
X219450000Y-91962283D01*
X219465726Y-91993944D01*
X219479445Y-92030072D01*
X219491319Y-92070939D01*
X219501511Y-92116817D01*
X219510183Y-92167975D01*
X219517499Y-92224686D01*
X219523622Y-92287221D01*
X219528713Y-92355852D01*
X219523296Y-92622188D01*
X219467435Y-92945262D01*
X219364223Y-93319594D01*
X219216753Y-93739704D01*
X219028117Y-94200111D01*
X218801408Y-94695336D01*
X218539720Y-95219897D01*
X218246145Y-95768314D01*
X217923776Y-96335108D01*
X217575706Y-96914797D01*
X217205027Y-97501903D01*
X216814832Y-98090943D01*
X216408215Y-98676438D01*
X215988267Y-99252909D01*
X215558083Y-99814873D01*
X215120754Y-100356852D01*
X214637693Y-100909486D01*
X214066803Y-101522891D01*
X213433694Y-102172181D01*
X212763978Y-102832468D01*
X212083265Y-103478865D01*
X211417166Y-104086483D01*
X210791293Y-104630437D01*
X210231255Y-105085839D01*
X209560863Y-105595138D01*
X208843157Y-106115868D01*
X208115322Y-106623575D01*
X207414544Y-107093807D01*
X206778011Y-107502109D01*
X206242909Y-107824029D01*
X206025015Y-107944954D01*
X205846423Y-108035114D01*
X205711782Y-108091451D01*
X205662396Y-108105981D01*
X205625741Y-108110909D01*
X205593505Y-108109022D01*
X205559432Y-108103482D01*
X205523708Y-108094468D01*
X205486521Y-108082163D01*
X205448059Y-108066747D01*
X205408509Y-108048401D01*
X205326899Y-108003643D01*
X205243190Y-107949334D01*
X205158885Y-107886923D01*
X205075484Y-107817856D01*
X204994488Y-107743579D01*
X204917399Y-107665541D01*
X204845719Y-107585187D01*
X204780947Y-107503966D01*
X204724586Y-107423323D01*
X204678136Y-107344705D01*
X204659097Y-107306609D01*
X204643099Y-107269561D01*
X204630329Y-107233743D01*
X204620976Y-107199336D01*
X204615226Y-107166520D01*
X204613268Y-107135477D01*
X204614263Y-107111491D01*
X204616271Y-107093887D01*
X205083451Y-107093887D01*
X205084301Y-107106363D01*
X205086076Y-107118936D01*
X205088754Y-107131629D01*
X205096739Y-107157470D01*
X205108088Y-107184070D01*
X205122633Y-107211615D01*
X205140208Y-107240291D01*
X205160646Y-107270283D01*
X205183778Y-107301776D01*
X205209438Y-107334955D01*
X205267671Y-107407115D01*
X205539310Y-107765187D01*
X207576601Y-106382295D01*
X208425738Y-105795923D01*
X209188493Y-105249630D01*
X209882663Y-104729093D01*
X210526044Y-104219988D01*
X211136436Y-103707988D01*
X211731635Y-103178770D01*
X212329438Y-102618010D01*
X212947643Y-102011381D01*
X213439753Y-101505163D01*
X213920035Y-100987478D01*
X214387655Y-100459591D01*
X214841784Y-99922770D01*
X215281587Y-99378281D01*
X215706234Y-98827388D01*
X216114892Y-98271359D01*
X216506730Y-97711459D01*
X216880915Y-97148955D01*
X217236615Y-96585112D01*
X217572998Y-96021197D01*
X217889233Y-95458476D01*
X218184487Y-94898214D01*
X218457929Y-94341679D01*
X218708725Y-93790135D01*
X218936045Y-93244849D01*
X219018241Y-93031731D01*
X219088915Y-92837512D01*
X219148123Y-92663154D01*
X219195917Y-92509612D01*
X219232353Y-92377848D01*
X219257484Y-92268818D01*
X219271366Y-92183482D01*
X219274105Y-92149998D01*
X219274052Y-92122798D01*
X219271213Y-92102000D01*
X219265596Y-92087724D01*
X219257207Y-92080091D01*
X219246053Y-92079220D01*
X219232141Y-92085232D01*
X219215478Y-92098245D01*
X219196069Y-92118379D01*
X219173923Y-92145755D01*
X219121444Y-92222711D01*
X219058095Y-92330071D01*
X218983930Y-92468794D01*
X218899003Y-92639837D01*
X218413459Y-93597202D01*
X217897528Y-94537619D01*
X217352370Y-95459769D01*
X216779140Y-96362331D01*
X216178998Y-97243985D01*
X215553100Y-98103410D01*
X214902604Y-98939287D01*
X214228668Y-99750294D01*
X213532448Y-100535111D01*
X212815104Y-101292418D01*
X212077791Y-102020896D01*
X211321668Y-102719222D01*
X210547893Y-103386078D01*
X209757623Y-104020142D01*
X208952015Y-104620095D01*
X208132227Y-105184615D01*
X207894519Y-105337750D01*
X207640460Y-105497541D01*
X207378009Y-105659067D01*
X207115124Y-105817411D01*
X206859763Y-105967652D01*
X206619884Y-106104870D01*
X206403446Y-106224146D01*
X206218407Y-106320561D01*
X205994487Y-106436129D01*
X205798747Y-106538421D01*
X205629846Y-106628921D01*
X205555043Y-106670212D01*
X205486449Y-106709111D01*
X205423895Y-106745804D01*
X205367215Y-106780475D01*
X205316241Y-106813311D01*
X205270806Y-106844496D01*
X205230743Y-106874217D01*
X205195885Y-106902657D01*
X205166063Y-106930004D01*
X205141112Y-106956441D01*
X205120863Y-106982156D01*
X205112450Y-106994799D01*
X205105149Y-107007332D01*
X205098941Y-107019776D01*
X205093804Y-107032155D01*
X205089717Y-107044492D01*
X205086659Y-107056811D01*
X205084609Y-107069134D01*
X205083547Y-107081485D01*
X205083451Y-107093887D01*
X204616271Y-107093887D01*
X204617175Y-107085968D01*
X204621895Y-107059106D01*
X204628316Y-107031105D01*
X204636329Y-107002163D01*
X204645824Y-106972480D01*
X204656694Y-106942253D01*
X204668831Y-106911684D01*
X204682125Y-106880969D01*
X204696467Y-106850309D01*
X204711751Y-106819902D01*
X204727866Y-106789947D01*
X204744705Y-106760643D01*
X204762158Y-106732190D01*
X204780118Y-106704785D01*
X204798476Y-106678628D01*
X204841731Y-106621275D01*
X204878854Y-106569384D01*
X204909791Y-106522630D01*
X204922923Y-106501078D01*
X204934489Y-106480687D01*
X204944480Y-106461418D01*
X204952892Y-106443229D01*
X204959716Y-106426081D01*
X204964947Y-106409932D01*
X204968577Y-106394741D01*
X204970599Y-106380469D01*
X204971007Y-106367073D01*
X204969794Y-106354514D01*
X204966954Y-106342751D01*
X204962478Y-106331743D01*
X204956362Y-106321449D01*
X204948597Y-106311829D01*
X204939177Y-106302842D01*
X204928095Y-106294448D01*
X204915345Y-106286605D01*
X204900920Y-106279273D01*
X204884813Y-106272411D01*
X204867016Y-106265979D01*
X204847525Y-106259935D01*
X204826330Y-106254240D01*
X204778807Y-106243731D01*
X204724393Y-106234127D01*
X204696214Y-106228505D01*
X204667384Y-106220984D01*
X204638119Y-106211691D01*
X204608638Y-106200752D01*
X204579157Y-106188293D01*
X204549892Y-106174442D01*
X204521062Y-106159325D01*
X204492883Y-106143068D01*
X204465572Y-106125798D01*
X204439346Y-106107642D01*
X204414423Y-106088727D01*
X204391018Y-106069178D01*
X204369350Y-106049122D01*
X204349636Y-106028687D01*
X204332092Y-106007999D01*
X204316935Y-105987184D01*
X204287906Y-105931736D01*
X204278576Y-105900754D01*
X204489796Y-105900754D01*
X204490664Y-105928783D01*
X204493848Y-105952507D01*
X204500214Y-105971672D01*
X204504862Y-105979467D01*
X204510632Y-105986027D01*
X204517632Y-105991321D01*
X204525970Y-105995318D01*
X204535755Y-105997985D01*
X204547095Y-105999291D01*
X204574876Y-105997693D01*
X204610182Y-105990271D01*
X204653879Y-105976773D01*
X204706837Y-105956944D01*
X204769924Y-105930531D01*
X204844007Y-105897281D01*
X205028637Y-105809259D01*
X205267671Y-105690851D01*
X205697810Y-105461620D01*
X206143649Y-105201496D01*
X206602365Y-104912868D01*
X207071137Y-104598122D01*
X207547144Y-104259647D01*
X208027565Y-103899829D01*
X208509577Y-103521056D01*
X208990359Y-103125716D01*
X209467089Y-102716196D01*
X209936947Y-102294883D01*
X210397110Y-101864165D01*
X210844757Y-101426429D01*
X211277066Y-100984064D01*
X211691217Y-100539455D01*
X212084387Y-100094991D01*
X212453754Y-99653060D01*
X213062338Y-98873159D01*
X213650664Y-98055638D01*
X214223941Y-97191815D01*
X214787380Y-96273008D01*
X215346188Y-95290536D01*
X215905575Y-94235716D01*
X216470749Y-93099868D01*
X217046921Y-91874311D01*
X217164406Y-91627902D01*
X217285328Y-91393395D01*
X217409650Y-91170825D01*
X217537337Y-90960229D01*
X217668351Y-90761643D01*
X217802657Y-90575102D01*
X217940219Y-90400643D01*
X218081000Y-90238302D01*
X218224965Y-90088116D01*
X218372077Y-89950120D01*
X218522299Y-89824351D01*
X218675596Y-89710844D01*
X218831932Y-89609637D01*
X218991271Y-89520765D01*
X219153575Y-89444264D01*
X219318810Y-89380171D01*
X219936173Y-89157920D01*
X219899130Y-88540560D01*
X219889113Y-88411993D01*
X219876871Y-88299162D01*
X219861338Y-88201596D01*
X219852003Y-88158390D01*
X219841445Y-88118825D01*
X219829531Y-88082840D01*
X219816127Y-88050378D01*
X219801099Y-88021380D01*
X219784315Y-87995786D01*
X219765641Y-87973539D01*
X219744944Y-87954579D01*
X219722089Y-87938847D01*
X219696944Y-87926285D01*
X219669376Y-87916834D01*
X219639251Y-87910435D01*
X219606435Y-87907029D01*
X219570795Y-87906558D01*
X219532199Y-87908963D01*
X219490511Y-87914185D01*
X219445600Y-87922165D01*
X219397332Y-87932844D01*
X219290189Y-87962066D01*
X219168016Y-88001381D01*
X219029746Y-88050317D01*
X218874311Y-88108406D01*
X218743330Y-88164448D01*
X218610124Y-88230311D01*
X218475362Y-88305398D01*
X218339715Y-88389113D01*
X218203850Y-88480858D01*
X218068437Y-88580037D01*
X217934146Y-88686053D01*
X217801645Y-88798308D01*
X217671605Y-88916207D01*
X217544693Y-89039151D01*
X217421579Y-89166545D01*
X217302933Y-89297792D01*
X217189423Y-89432294D01*
X217081720Y-89569454D01*
X216980491Y-89708677D01*
X216886407Y-89849364D01*
X216811166Y-89986679D01*
X216717404Y-90188528D01*
X216608594Y-90445360D01*
X216488209Y-90747625D01*
X216359721Y-91085775D01*
X216226603Y-91450259D01*
X216092327Y-91831529D01*
X215960367Y-92220033D01*
X215752240Y-92828139D01*
X215535087Y-93421234D01*
X215308566Y-93999932D01*
X215072331Y-94564847D01*
X214826041Y-95116596D01*
X214569351Y-95655792D01*
X214301917Y-96183051D01*
X214023396Y-96698987D01*
X213733444Y-97204217D01*
X213431718Y-97699353D01*
X213117873Y-98185013D01*
X212791567Y-98661810D01*
X212452455Y-99130359D01*
X212100195Y-99591276D01*
X211734442Y-100045174D01*
X211354852Y-100492671D01*
X211034421Y-100848338D01*
X210694999Y-101205795D01*
X210338720Y-101563361D01*
X209967718Y-101919354D01*
X209584128Y-102272091D01*
X209190084Y-102619890D01*
X208787720Y-102961070D01*
X208379170Y-103293947D01*
X207966570Y-103616841D01*
X207552051Y-103928069D01*
X207137750Y-104225949D01*
X206725800Y-104508799D01*
X206318336Y-104774937D01*
X205917491Y-105022680D01*
X205525401Y-105250347D01*
X205144198Y-105456256D01*
X205077841Y-105491090D01*
X205013274Y-105525997D01*
X204950842Y-105560760D01*
X204890887Y-105595161D01*
X204833754Y-105628983D01*
X204779787Y-105662009D01*
X204729328Y-105694023D01*
X204682721Y-105724807D01*
X204640311Y-105754144D01*
X204602440Y-105781816D01*
X204569453Y-105807608D01*
X204541693Y-105831302D01*
X204519504Y-105852680D01*
X204510605Y-105862434D01*
X204503229Y-105871527D01*
X204497416Y-105879932D01*
X204493212Y-105887624D01*
X204490657Y-105894573D01*
X204489796Y-105900754D01*
X204278576Y-105900754D01*
X204271067Y-105875818D01*
X204267613Y-105818380D01*
X204278736Y-105758375D01*
X204305631Y-105694752D01*
X204349491Y-105626462D01*
X204411511Y-105552457D01*
X204492883Y-105471688D01*
X204594802Y-105383105D01*
X204718461Y-105285660D01*
X204865054Y-105178303D01*
X205035775Y-105059986D01*
X205454374Y-104786273D01*
X205983809Y-104456129D01*
X206624569Y-104042259D01*
X207250027Y-103606703D01*
X207859641Y-103150058D01*
X208452868Y-102672920D01*
X209029166Y-102175887D01*
X209587993Y-101659556D01*
X210128805Y-101124522D01*
X210651060Y-100571384D01*
X211154215Y-100000738D01*
X211637728Y-99413181D01*
X212101057Y-98809309D01*
X212543657Y-98189720D01*
X212964988Y-97555011D01*
X213364506Y-96905778D01*
X213741669Y-96242618D01*
X214095935Y-95566128D01*
X214223944Y-95306315D01*
X214356601Y-95021380D01*
X214627830Y-94398352D01*
X214893561Y-93741465D01*
X215137732Y-93095141D01*
X215344283Y-92503801D01*
X215428432Y-92242631D01*
X215497152Y-92011866D01*
X215548438Y-91817056D01*
X215580279Y-91663756D01*
X215590670Y-91557518D01*
X215587194Y-91523782D01*
X215577603Y-91503894D01*
X215573772Y-91499551D01*
X215569244Y-91495775D01*
X215564041Y-91492556D01*
X215558189Y-91489882D01*
X215551714Y-91487741D01*
X215544639Y-91486123D01*
X215528792Y-91484408D01*
X215510847Y-91484646D01*
X215491002Y-91486747D01*
X215469458Y-91490620D01*
X215446412Y-91496176D01*
X215422064Y-91503323D01*
X215396613Y-91511972D01*
X215370257Y-91522031D01*
X215343196Y-91533410D01*
X215315629Y-91546020D01*
X215287754Y-91559769D01*
X215259771Y-91574566D01*
X215231878Y-91590323D01*
X215187780Y-91616036D01*
X215147642Y-91637445D01*
X215110797Y-91654295D01*
X215093399Y-91660932D01*
X215076574Y-91666335D01*
X215060237Y-91670472D01*
X215044304Y-91673311D01*
X215028693Y-91674820D01*
X215013319Y-91674968D01*
X214998098Y-91673724D01*
X214982948Y-91671056D01*
X214967784Y-91666931D01*
X214952523Y-91661319D01*
X214937081Y-91654188D01*
X214921375Y-91645505D01*
X214905320Y-91635240D01*
X214888834Y-91623361D01*
X214871832Y-91609836D01*
X214854231Y-91594633D01*
X214816897Y-91559069D01*
X214776162Y-91516415D01*
X214731358Y-91466417D01*
X214681816Y-91408823D01*
X214626865Y-91343380D01*
X214281143Y-90935921D01*
X214207059Y-92022477D01*
X214155201Y-92546112D01*
X214064801Y-93079225D01*
X213936382Y-93620875D01*
X213770470Y-94170122D01*
X213567588Y-94726024D01*
X213328261Y-95287642D01*
X213053014Y-95854035D01*
X212742371Y-96424262D01*
X212396857Y-96997383D01*
X212016996Y-97572457D01*
X211603313Y-98148544D01*
X211156332Y-98724704D01*
X210676578Y-99299995D01*
X210164575Y-99873477D01*
X209620849Y-100444211D01*
X209045922Y-101011254D01*
X208555722Y-101461446D01*
X207992742Y-101945785D01*
X207384906Y-102442858D01*
X206760142Y-102931248D01*
X206146374Y-103389542D01*
X205571528Y-103796325D01*
X205063532Y-104130183D01*
X204843329Y-104263072D01*
X204650310Y-104369699D01*
X204008254Y-104715422D01*
X203687226Y-104406742D01*
X203612079Y-104328028D01*
X203539808Y-104236580D01*
X203470972Y-104134137D01*
X203406134Y-104022433D01*
X203345854Y-103903204D01*
X203290693Y-103778189D01*
X203241210Y-103649121D01*
X203197968Y-103517739D01*
X203161526Y-103385778D01*
X203132446Y-103254974D01*
X203111287Y-103127065D01*
X203098611Y-103003785D01*
X203094979Y-102886872D01*
X203098093Y-102830130D01*
X203529619Y-102830130D01*
X203531343Y-102867967D01*
X203535382Y-102911013D01*
X203541664Y-102958835D01*
X203560667Y-103067066D01*
X203587773Y-103189188D01*
X203622404Y-103321727D01*
X203663979Y-103461213D01*
X203711921Y-103604170D01*
X203934171Y-104295615D01*
X205168893Y-103480699D01*
X206242562Y-102727485D01*
X207261482Y-101935294D01*
X208221548Y-101110584D01*
X209118654Y-100259810D01*
X209948694Y-99389430D01*
X210707563Y-98505901D01*
X211391155Y-97615681D01*
X211995364Y-96725225D01*
X212516084Y-95840991D01*
X212949211Y-94969435D01*
X213131643Y-94540430D01*
X213290637Y-94117016D01*
X213425680Y-93700000D01*
X213536258Y-93290190D01*
X213621859Y-92888391D01*
X213681968Y-92495413D01*
X213716073Y-92112061D01*
X213723661Y-91739143D01*
X213704218Y-91377465D01*
X213657231Y-91027836D01*
X213582188Y-90691062D01*
X213478573Y-90367950D01*
X213406974Y-90194058D01*
X213322497Y-90020347D01*
X213226155Y-89847865D01*
X213118961Y-89677663D01*
X213001928Y-89510788D01*
X212876068Y-89348291D01*
X212742395Y-89191219D01*
X212601921Y-89040623D01*
X212455660Y-88897550D01*
X212304624Y-88763051D01*
X212149825Y-88638174D01*
X211992278Y-88523968D01*
X211832994Y-88421483D01*
X211672986Y-88331766D01*
X211513268Y-88255868D01*
X211354852Y-88194838D01*
X211195520Y-88145201D01*
X211032860Y-88102764D01*
X210867595Y-88067488D01*
X210700449Y-88039339D01*
X210532146Y-88018280D01*
X210363409Y-88004275D01*
X210194961Y-87997287D01*
X210027525Y-87997281D01*
X209861827Y-88004220D01*
X209698588Y-88018068D01*
X209538532Y-88038790D01*
X209382383Y-88066348D01*
X209230864Y-88100707D01*
X209084699Y-88141830D01*
X208944611Y-88189681D01*
X208811324Y-88244225D01*
X208726060Y-88285957D01*
X208650689Y-88323421D01*
X208584977Y-88356978D01*
X208528688Y-88386990D01*
X208504004Y-88400780D01*
X208481587Y-88413819D01*
X208461409Y-88426153D01*
X208443439Y-88437826D01*
X208427649Y-88448885D01*
X208414009Y-88459374D01*
X208402490Y-88469338D01*
X208393062Y-88478823D01*
X208385695Y-88487874D01*
X208380362Y-88496536D01*
X208377031Y-88504855D01*
X208376108Y-88508899D01*
X208375674Y-88512875D01*
X208375727Y-88516787D01*
X208376262Y-88520642D01*
X208377275Y-88524444D01*
X208378764Y-88528201D01*
X208383152Y-88535597D01*
X208389396Y-88542875D01*
X208397467Y-88550081D01*
X208407335Y-88557260D01*
X208418971Y-88564458D01*
X208432346Y-88571718D01*
X208447429Y-88579087D01*
X208464193Y-88586610D01*
X208502642Y-88602297D01*
X208532495Y-88613719D01*
X208570721Y-88624796D01*
X208669909Y-88645704D01*
X208795431Y-88664587D01*
X208942513Y-88681009D01*
X209106379Y-88694538D01*
X209282255Y-88704739D01*
X209465365Y-88711178D01*
X209650936Y-88713421D01*
X209844781Y-88718672D01*
X210028515Y-88729964D01*
X210202735Y-88747551D01*
X210368039Y-88771684D01*
X210525023Y-88802619D01*
X210674284Y-88840607D01*
X210816419Y-88885902D01*
X210885000Y-88911369D01*
X210952024Y-88938757D01*
X211017565Y-88968099D01*
X211081697Y-88999426D01*
X211144495Y-89032770D01*
X211206034Y-89068162D01*
X211266388Y-89105634D01*
X211325633Y-89145217D01*
X211441089Y-89230846D01*
X211553001Y-89325301D01*
X211661965Y-89428835D01*
X211768577Y-89541703D01*
X211873435Y-89664156D01*
X211994529Y-89823597D01*
X212103089Y-89995699D01*
X212199024Y-90179521D01*
X212282244Y-90374122D01*
X212352659Y-90578563D01*
X212410177Y-90791902D01*
X212454710Y-91013200D01*
X212486166Y-91241515D01*
X212504455Y-91475907D01*
X212509486Y-91715436D01*
X212501169Y-91959161D01*
X212479414Y-92206142D01*
X212444130Y-92455437D01*
X212395226Y-92706108D01*
X212332613Y-92957212D01*
X212256200Y-93207810D01*
X212018820Y-93847945D01*
X211734650Y-94492765D01*
X211406673Y-95138850D01*
X211037875Y-95782784D01*
X210631240Y-96421147D01*
X210189751Y-97050520D01*
X209716394Y-97667487D01*
X209214152Y-98268627D01*
X208686010Y-98850523D01*
X208134952Y-99409756D01*
X207563962Y-99942908D01*
X206976025Y-100446561D01*
X206374125Y-100917295D01*
X205761247Y-101351694D01*
X205140374Y-101746337D01*
X204514491Y-102097808D01*
X204332297Y-102199866D01*
X204158929Y-102300766D01*
X204076866Y-102350058D01*
X203998584Y-102398193D01*
X203924606Y-102444881D01*
X203855457Y-102489833D01*
X203791662Y-102532759D01*
X203733746Y-102573370D01*
X203682231Y-102611376D01*
X203637645Y-102646489D01*
X203600510Y-102678418D01*
X203571351Y-102706874D01*
X203559927Y-102719710D01*
X203550693Y-102731569D01*
X203543716Y-102742415D01*
X203539060Y-102752212D01*
X203533405Y-102771818D01*
X203530282Y-102797935D01*
X203529619Y-102830130D01*
X203098093Y-102830130D01*
X203100950Y-102778062D01*
X203107713Y-102727238D01*
X203117087Y-102679091D01*
X203129142Y-102633838D01*
X203143948Y-102591696D01*
X203161004Y-102544750D01*
X203175058Y-102500878D01*
X203186000Y-102459683D01*
X203190271Y-102439964D01*
X203193723Y-102420766D01*
X203196344Y-102402038D01*
X203198118Y-102383731D01*
X203199034Y-102365794D01*
X203199077Y-102348178D01*
X203198234Y-102330834D01*
X203196491Y-102313711D01*
X203193834Y-102296760D01*
X203190251Y-102279931D01*
X203185727Y-102263175D01*
X203180249Y-102246441D01*
X203173803Y-102229679D01*
X203166376Y-102212841D01*
X203157955Y-102195877D01*
X203148525Y-102178736D01*
X203138073Y-102161368D01*
X203126586Y-102143725D01*
X203100450Y-102107413D01*
X203070010Y-102069401D01*
X203035157Y-102029290D01*
X202995782Y-101986684D01*
X202931451Y-101896509D01*
X202863701Y-101761299D01*
X202792876Y-101582608D01*
X202719320Y-101361993D01*
X202565390Y-100801207D01*
X202404659Y-100091386D01*
X202239877Y-99244975D01*
X202073792Y-98274415D01*
X201909155Y-97192152D01*
X201748713Y-96010630D01*
X201662065Y-95320222D01*
X201594951Y-94686968D01*
X201544911Y-94045323D01*
X201509485Y-93329738D01*
X201486214Y-92474669D01*
X201472636Y-91414569D01*
X201465378Y-88664031D01*
X201896879Y-88664031D01*
X201910649Y-90369154D01*
X201953792Y-91949551D01*
X202029057Y-93436764D01*
X202139194Y-94862338D01*
X202286950Y-96257815D01*
X202475077Y-97654739D01*
X202706322Y-99084654D01*
X202983435Y-100579103D01*
X203017050Y-100746914D01*
X203048620Y-100898900D01*
X203078418Y-101035729D01*
X203106714Y-101158071D01*
X203120385Y-101214018D01*
X203133781Y-101266594D01*
X203146938Y-101315883D01*
X203159889Y-101361969D01*
X203172669Y-101404934D01*
X203185310Y-101444863D01*
X203197848Y-101481840D01*
X203210315Y-101515947D01*
X203222746Y-101547269D01*
X203235175Y-101575890D01*
X203247636Y-101601892D01*
X203260162Y-101625360D01*
X203272788Y-101646377D01*
X203285547Y-101665027D01*
X203298473Y-101681394D01*
X203311601Y-101695561D01*
X203324964Y-101707611D01*
X203338595Y-101717630D01*
X203352530Y-101725699D01*
X203366802Y-101731903D01*
X203381444Y-101736326D01*
X203396491Y-101739050D01*
X203411977Y-101740161D01*
X203427935Y-101739741D01*
X203516891Y-101720795D01*
X203633738Y-101679041D01*
X203775689Y-101616271D01*
X203939959Y-101534275D01*
X204324314Y-101319766D01*
X204764522Y-101049839D01*
X205238298Y-100738819D01*
X205723361Y-100401030D01*
X206197426Y-100050798D01*
X206638213Y-99702447D01*
X207149700Y-99256259D01*
X207641184Y-98790104D01*
X208110891Y-98306874D01*
X208557049Y-97809464D01*
X208977885Y-97300769D01*
X209371628Y-96783681D01*
X209736504Y-96261094D01*
X210070741Y-95735903D01*
X210372566Y-95211002D01*
X210640208Y-94689283D01*
X210871893Y-94173642D01*
X211065849Y-93666972D01*
X211220304Y-93172167D01*
X211333484Y-92692120D01*
X211403619Y-92229726D01*
X211428934Y-91787879D01*
X211428467Y-91621113D01*
X211422302Y-91463137D01*
X211410242Y-91313481D01*
X211392086Y-91171675D01*
X211367636Y-91037248D01*
X211352988Y-90972655D01*
X211336692Y-90909730D01*
X211318723Y-90848415D01*
X211299057Y-90788652D01*
X211277667Y-90730380D01*
X211254530Y-90673541D01*
X211229621Y-90618078D01*
X211202914Y-90563930D01*
X211174384Y-90511039D01*
X211144008Y-90459346D01*
X211111760Y-90408793D01*
X211077615Y-90359320D01*
X211041548Y-90310870D01*
X211003534Y-90263382D01*
X210963549Y-90216799D01*
X210921568Y-90171062D01*
X210877566Y-90126111D01*
X210831517Y-90081888D01*
X210733183Y-89995391D01*
X210626365Y-89911101D01*
X210568919Y-89871555D01*
X210511165Y-89836077D01*
X210451349Y-89804398D01*
X210387716Y-89776246D01*
X210318513Y-89751350D01*
X210241985Y-89729438D01*
X210156378Y-89710239D01*
X210059936Y-89693482D01*
X209950906Y-89678895D01*
X209827533Y-89666207D01*
X209530742Y-89645444D01*
X209155526Y-89629021D01*
X208687851Y-89614769D01*
X208298576Y-89600179D01*
X207962838Y-89583707D01*
X207814412Y-89574540D01*
X207678610Y-89564632D01*
X207555180Y-89553891D01*
X207443869Y-89542228D01*
X207344422Y-89529552D01*
X207256586Y-89515773D01*
X207180109Y-89500800D01*
X207114738Y-89484543D01*
X207060218Y-89466912D01*
X207036949Y-89457552D01*
X207016298Y-89447815D01*
X206998233Y-89437689D01*
X206982723Y-89427163D01*
X206969736Y-89416226D01*
X206959240Y-89404866D01*
X206934334Y-89369730D01*
X206915102Y-89331560D01*
X206901432Y-89290505D01*
X206893211Y-89246715D01*
X206890326Y-89200338D01*
X206892663Y-89151524D01*
X206900109Y-89100422D01*
X206912552Y-89047182D01*
X206929878Y-88991952D01*
X206951975Y-88934881D01*
X206967255Y-88903541D01*
X207633029Y-88903541D01*
X207633129Y-88919079D01*
X207634332Y-88933929D01*
X207636641Y-88948096D01*
X207640057Y-88961585D01*
X207644584Y-88974400D01*
X207650223Y-88986546D01*
X207656976Y-88998028D01*
X207664846Y-89008849D01*
X207673836Y-89019015D01*
X207683947Y-89028529D01*
X207695181Y-89037397D01*
X207707542Y-89045623D01*
X207721030Y-89053211D01*
X207735649Y-89060166D01*
X207751401Y-89066493D01*
X207768288Y-89072195D01*
X207786312Y-89077279D01*
X207805475Y-89081747D01*
X207825780Y-89085605D01*
X207869824Y-89091507D01*
X207918463Y-89095022D01*
X207971713Y-89096186D01*
X207995334Y-89095790D01*
X208017581Y-89094609D01*
X208038453Y-89092655D01*
X208057951Y-89089940D01*
X208076074Y-89086473D01*
X208092822Y-89082268D01*
X208108196Y-89077334D01*
X208122195Y-89071684D01*
X208134819Y-89065328D01*
X208146069Y-89058278D01*
X208155945Y-89050546D01*
X208164445Y-89042142D01*
X208171571Y-89033078D01*
X208177323Y-89023365D01*
X208181700Y-89013014D01*
X208184702Y-89002037D01*
X208186330Y-88990445D01*
X208186583Y-88978250D01*
X208185462Y-88965462D01*
X208182966Y-88952094D01*
X208179095Y-88938155D01*
X208173850Y-88923658D01*
X208167230Y-88908614D01*
X208159236Y-88893034D01*
X208149867Y-88876930D01*
X208139124Y-88860312D01*
X208127005Y-88843193D01*
X208113513Y-88825583D01*
X208098646Y-88807494D01*
X208082404Y-88788937D01*
X208045796Y-88750463D01*
X208027527Y-88732557D01*
X208009755Y-88715878D01*
X207992472Y-88700425D01*
X207975668Y-88686194D01*
X207959334Y-88673185D01*
X207943461Y-88661394D01*
X207928041Y-88650820D01*
X207913064Y-88641459D01*
X207898520Y-88633311D01*
X207884402Y-88626372D01*
X207870700Y-88620640D01*
X207857405Y-88616113D01*
X207844507Y-88612790D01*
X207831999Y-88610666D01*
X207819870Y-88609741D01*
X207808112Y-88610012D01*
X207796716Y-88611477D01*
X207785673Y-88614133D01*
X207774973Y-88617978D01*
X207764608Y-88623011D01*
X207754568Y-88629228D01*
X207744845Y-88636627D01*
X207735430Y-88645206D01*
X207726312Y-88654964D01*
X207717485Y-88665897D01*
X207708937Y-88678003D01*
X207700661Y-88691281D01*
X207692647Y-88705727D01*
X207684886Y-88721340D01*
X207677370Y-88738117D01*
X207670088Y-88756056D01*
X207663033Y-88775156D01*
X207649001Y-88815387D01*
X207643618Y-88834428D01*
X207639327Y-88852760D01*
X207636130Y-88870386D01*
X207634030Y-88887312D01*
X207633029Y-88903541D01*
X206967255Y-88903541D01*
X207010028Y-88815816D01*
X207085805Y-88691180D01*
X207178403Y-88562167D01*
X207286918Y-88429971D01*
X207410445Y-88295786D01*
X207548079Y-88160804D01*
X207698916Y-88026221D01*
X207862053Y-87893229D01*
X208036584Y-87763023D01*
X208221606Y-87636795D01*
X208416213Y-87515741D01*
X208600553Y-87412790D01*
X208684585Y-87370350D01*
X208765794Y-87333426D01*
X208846135Y-87301638D01*
X208927562Y-87274607D01*
X209012027Y-87251954D01*
X209101484Y-87233297D01*
X209197886Y-87218258D01*
X209303188Y-87206457D01*
X209419341Y-87197513D01*
X209548299Y-87191047D01*
X209852446Y-87184030D01*
X210231255Y-87182366D01*
X210607146Y-87184536D01*
X210767373Y-87187738D01*
X210911702Y-87192784D01*
X211042069Y-87200001D01*
X211160407Y-87209713D01*
X211268653Y-87222248D01*
X211368742Y-87237929D01*
X211462610Y-87257083D01*
X211552190Y-87280035D01*
X211639420Y-87307111D01*
X211726233Y-87338636D01*
X211814566Y-87374936D01*
X211906353Y-87416336D01*
X212003530Y-87463163D01*
X212108032Y-87515741D01*
X212344993Y-87648796D01*
X212574140Y-87793047D01*
X212795184Y-87948113D01*
X213007836Y-88113616D01*
X213211807Y-88289175D01*
X213406806Y-88474411D01*
X213592545Y-88668943D01*
X213768734Y-88872391D01*
X213935084Y-89084377D01*
X214091305Y-89304520D01*
X214237109Y-89532440D01*
X214372205Y-89767758D01*
X214496304Y-90010093D01*
X214609117Y-90259066D01*
X214710354Y-90514297D01*
X214799727Y-90775407D01*
X214836979Y-90895153D01*
X214870289Y-91000068D01*
X214900054Y-91090659D01*
X214926672Y-91167431D01*
X214950540Y-91230892D01*
X214961568Y-91257788D01*
X214972058Y-91281547D01*
X214982059Y-91302230D01*
X214991621Y-91319903D01*
X215000795Y-91334627D01*
X215009630Y-91346466D01*
X215018175Y-91355484D01*
X215026481Y-91361743D01*
X215030559Y-91363859D01*
X215034596Y-91365308D01*
X215038599Y-91366100D01*
X215042572Y-91366241D01*
X215046523Y-91365740D01*
X215050457Y-91364606D01*
X215058301Y-91360465D01*
X215066155Y-91353883D01*
X215074067Y-91344923D01*
X215082087Y-91333648D01*
X215090266Y-91320120D01*
X215098653Y-91304404D01*
X215107298Y-91286563D01*
X215125559Y-91244759D01*
X215145449Y-91195214D01*
X215322817Y-90788216D01*
X215512176Y-90400770D01*
X215713364Y-90033039D01*
X215926218Y-89685186D01*
X216150575Y-89357372D01*
X216386273Y-89049762D01*
X216633148Y-88762517D01*
X216891038Y-88495800D01*
X217159780Y-88249775D01*
X217439211Y-88024604D01*
X217729169Y-87820450D01*
X218029491Y-87637475D01*
X218340013Y-87475843D01*
X218660573Y-87335716D01*
X218991009Y-87217257D01*
X219331157Y-87120629D01*
X219923822Y-86972463D01*
X219862088Y-85527837D01*
X219825552Y-84852140D01*
X219789740Y-84277873D01*
X219771970Y-84028279D01*
X219754218Y-83803446D01*
X219736430Y-83603174D01*
X219718551Y-83427265D01*
X219700528Y-83275521D01*
X219682305Y-83147741D01*
X219663830Y-83043727D01*
X219645047Y-82963280D01*
X219635523Y-82931832D01*
X219625902Y-82906201D01*
X219616177Y-82886362D01*
X219606342Y-82872291D01*
X219596389Y-82863963D01*
X219586311Y-82861352D01*
X219576102Y-82864434D01*
X219565755Y-82873183D01*
X219555654Y-82887451D01*
X219543979Y-82906873D01*
X219516559Y-82959807D01*
X219484798Y-83029237D01*
X219449999Y-83112412D01*
X219413463Y-83206584D01*
X219376494Y-83309003D01*
X219340393Y-83416920D01*
X219306462Y-83527587D01*
X219255253Y-83666321D01*
X219190226Y-83808655D01*
X219112320Y-83953557D01*
X219022477Y-84099997D01*
X218921638Y-84246943D01*
X218810742Y-84393364D01*
X218690730Y-84538230D01*
X218562544Y-84680510D01*
X218427122Y-84819172D01*
X218285406Y-84953186D01*
X218138337Y-85081520D01*
X217986854Y-85203145D01*
X217831898Y-85317028D01*
X217674411Y-85422139D01*
X217515331Y-85517447D01*
X217355601Y-85601921D01*
X216651809Y-85947644D01*
X213379795Y-85947644D01*
X212336335Y-85952779D01*
X211530607Y-85960954D01*
X211204005Y-85967131D01*
X210921373Y-85975207D01*
X210677554Y-85985561D01*
X210467396Y-85998575D01*
X210285741Y-86014627D01*
X210127437Y-86034098D01*
X209987328Y-86057366D01*
X209860260Y-86084813D01*
X209741077Y-86116817D01*
X209624625Y-86153760D01*
X209505750Y-86196019D01*
X209379297Y-86243976D01*
X209196551Y-86326024D01*
X209005431Y-86428075D01*
X208806824Y-86549299D01*
X208601615Y-86688862D01*
X208390690Y-86845934D01*
X208174936Y-87019681D01*
X207955239Y-87209273D01*
X207732486Y-87413876D01*
X207507562Y-87632659D01*
X207281354Y-87864791D01*
X207054748Y-88109438D01*
X206828630Y-88365769D01*
X206603887Y-88632953D01*
X206381405Y-88910156D01*
X206162070Y-89196547D01*
X205946768Y-89491295D01*
X205786667Y-89717461D01*
X205638883Y-89919662D01*
X205502132Y-90098820D01*
X205375130Y-90255858D01*
X205314884Y-90326371D01*
X205256593Y-90391699D01*
X205200097Y-90451959D01*
X205145236Y-90507265D01*
X205091849Y-90557732D01*
X205039775Y-90603477D01*
X204988854Y-90644614D01*
X204938926Y-90681259D01*
X204889830Y-90713527D01*
X204841406Y-90741533D01*
X204793492Y-90765393D01*
X204745929Y-90785222D01*
X204698555Y-90801135D01*
X204651211Y-90813247D01*
X204603736Y-90821675D01*
X204555970Y-90826532D01*
X204507751Y-90827935D01*
X204458919Y-90825998D01*
X204409314Y-90820838D01*
X204358776Y-90812569D01*
X204307143Y-90801307D01*
X204254256Y-90787166D01*
X204199953Y-90770263D01*
X204144074Y-90750712D01*
X204034251Y-90703971D01*
X203931660Y-90645049D01*
X203836300Y-90574352D01*
X203748167Y-90492288D01*
X203667260Y-90399264D01*
X203593576Y-90295685D01*
X203527114Y-90181960D01*
X203467870Y-90058496D01*
X203371031Y-89783975D01*
X203370822Y-89783029D01*
X203934162Y-89783029D01*
X203935135Y-89797469D01*
X203937501Y-89813265D01*
X203941294Y-89830402D01*
X203946547Y-89848863D01*
X203953294Y-89868634D01*
X203961570Y-89889698D01*
X203971408Y-89912039D01*
X203982842Y-89935642D01*
X203995906Y-89960491D01*
X204013119Y-89989716D01*
X204032322Y-90017187D01*
X204053477Y-90042885D01*
X204076550Y-90066793D01*
X204101504Y-90088891D01*
X204128302Y-90109164D01*
X204156909Y-90127591D01*
X204187289Y-90144155D01*
X204219405Y-90158838D01*
X204253221Y-90171623D01*
X204288701Y-90182490D01*
X204325809Y-90191421D01*
X204364509Y-90198400D01*
X204404764Y-90203407D01*
X204446539Y-90206424D01*
X204489796Y-90207434D01*
X204547981Y-90205692D01*
X204602802Y-90199862D01*
X204655236Y-90189040D01*
X204706258Y-90172322D01*
X204756847Y-90148803D01*
X204807978Y-90117579D01*
X204860629Y-90077746D01*
X204915775Y-90028399D01*
X204974395Y-89968635D01*
X205037463Y-89897548D01*
X205105958Y-89814234D01*
X205180855Y-89717790D01*
X205263132Y-89607310D01*
X205353765Y-89481890D01*
X205564005Y-89182615D01*
X205730090Y-88957712D01*
X205927283Y-88705317D01*
X206148496Y-88433823D01*
X206386638Y-88151621D01*
X206634620Y-87867104D01*
X206885350Y-87588665D01*
X207131740Y-87324695D01*
X207366699Y-87083587D01*
X207782453Y-86665710D01*
X208118336Y-86324232D01*
X208245836Y-86192994D01*
X208340779Y-86093879D01*
X208398971Y-86031227D01*
X208412973Y-86014931D01*
X208415971Y-86010777D01*
X208416213Y-86009378D01*
X208409307Y-86010939D01*
X208398006Y-86015503D01*
X208363159Y-86032915D01*
X208313553Y-86060165D01*
X208251069Y-86095808D01*
X207909977Y-86293366D01*
X207769253Y-86384737D01*
X207621096Y-86491283D01*
X207466752Y-86611683D01*
X207307471Y-86744618D01*
X207144500Y-86888766D01*
X206979088Y-87042808D01*
X206812482Y-87205423D01*
X206645930Y-87375291D01*
X206480680Y-87551091D01*
X206317981Y-87731503D01*
X206159080Y-87915207D01*
X206005225Y-88100883D01*
X205857664Y-88287210D01*
X205717646Y-88472867D01*
X205586417Y-88656535D01*
X205465227Y-88836893D01*
X205356266Y-89005757D01*
X205251610Y-89160477D01*
X205151223Y-89301090D01*
X205055067Y-89427631D01*
X205008565Y-89485636D01*
X204963108Y-89540136D01*
X204918691Y-89591137D01*
X204875309Y-89638643D01*
X204832958Y-89682658D01*
X204791634Y-89723186D01*
X204751331Y-89760233D01*
X204712046Y-89793803D01*
X204673774Y-89823900D01*
X204636510Y-89850529D01*
X204600249Y-89873694D01*
X204564989Y-89893401D01*
X204530722Y-89909652D01*
X204497447Y-89922454D01*
X204465157Y-89931810D01*
X204433848Y-89937725D01*
X204403515Y-89940204D01*
X204374155Y-89939250D01*
X204345763Y-89934869D01*
X204318334Y-89927066D01*
X204291863Y-89915843D01*
X204266346Y-89901207D01*
X204241779Y-89883162D01*
X204218157Y-89861712D01*
X204196459Y-89840584D01*
X204175373Y-89821177D01*
X204154934Y-89803474D01*
X204135175Y-89787460D01*
X204116131Y-89773119D01*
X204097835Y-89760436D01*
X204080322Y-89749393D01*
X204063624Y-89739977D01*
X204047777Y-89732170D01*
X204032813Y-89725956D01*
X204018768Y-89721321D01*
X204005674Y-89718248D01*
X203993566Y-89716722D01*
X203982478Y-89716726D01*
X203972443Y-89718245D01*
X203963496Y-89721263D01*
X203955670Y-89725764D01*
X203948999Y-89731732D01*
X203943518Y-89739152D01*
X203939259Y-89748007D01*
X203936258Y-89758282D01*
X203934548Y-89769962D01*
X203934162Y-89783029D01*
X203370822Y-89783029D01*
X203303040Y-89475379D01*
X203263879Y-89135963D01*
X203253530Y-88768983D01*
X203271976Y-88377695D01*
X203319197Y-87965353D01*
X203395176Y-87535214D01*
X203499896Y-87090533D01*
X203633337Y-86634566D01*
X203795482Y-86170569D01*
X203986312Y-85701796D01*
X204205810Y-85231504D01*
X204346865Y-84961816D01*
X204500817Y-84695148D01*
X204666669Y-84432495D01*
X204843428Y-84174852D01*
X205030098Y-83923214D01*
X205225685Y-83678576D01*
X205429195Y-83441932D01*
X205639631Y-83214277D01*
X205856000Y-82996606D01*
X206077306Y-82789913D01*
X206302556Y-82595194D01*
X206530753Y-82413444D01*
X206760904Y-82245656D01*
X206992014Y-82092826D01*
X207223087Y-81955948D01*
X207453130Y-81836018D01*
X207723189Y-81711741D01*
X208000555Y-81598261D01*
X208284722Y-81495670D01*
X208575183Y-81404058D01*
X208871432Y-81323514D01*
X209172962Y-81254130D01*
X209479267Y-81195996D01*
X209789841Y-81149203D01*
X210104177Y-81113840D01*
X210421768Y-81089999D01*
X210742108Y-81077769D01*
X211064692Y-81077242D01*
X211389011Y-81088507D01*
X211714561Y-81111655D01*
X212040834Y-81146777D01*
X212367324Y-81193962D01*
X212515870Y-81221776D01*
X212668432Y-81253841D01*
X212822948Y-81289487D01*
X212977354Y-81328045D01*
X213129590Y-81368845D01*
X213277594Y-81411220D01*
X213419304Y-81454498D01*
X213552658Y-81498012D01*
X213675593Y-81541091D01*
X213786049Y-81583068D01*
X213881963Y-81623272D01*
X213961273Y-81661034D01*
X214021918Y-81695685D01*
X214044597Y-81711635D01*
X214061836Y-81726556D01*
X214073378Y-81740365D01*
X214078964Y-81752978D01*
X214078338Y-81764311D01*
X214071241Y-81774281D01*
X214061354Y-81778191D01*
X214041338Y-81780672D01*
X213973235Y-81781419D01*
X213871563Y-81776669D01*
X213740952Y-81766564D01*
X213586033Y-81751251D01*
X213411436Y-81730873D01*
X213221790Y-81705575D01*
X213021727Y-81675503D01*
X212741961Y-81639065D01*
X212480571Y-81613189D01*
X212229310Y-81598020D01*
X211979930Y-81593704D01*
X211724183Y-81600384D01*
X211453822Y-81618205D01*
X211160600Y-81647313D01*
X210836269Y-81687852D01*
X210309242Y-81763946D01*
X209810846Y-81858470D01*
X209339906Y-81972202D01*
X208895247Y-82105920D01*
X208682404Y-82180517D01*
X208475691Y-82260402D01*
X208274960Y-82345672D01*
X208080065Y-82436425D01*
X207890857Y-82532758D01*
X207707191Y-82634768D01*
X207528920Y-82742551D01*
X207355895Y-82856207D01*
X207187971Y-82975830D01*
X207025001Y-83101520D01*
X206866837Y-83233373D01*
X206713333Y-83371486D01*
X206564342Y-83515957D01*
X206419716Y-83666882D01*
X206279309Y-83824359D01*
X206142974Y-83988486D01*
X206010563Y-84159358D01*
X205881931Y-84337075D01*
X205635411Y-84713427D01*
X205402240Y-85118320D01*
X205181241Y-85552532D01*
X205070044Y-85793350D01*
X204960727Y-86039089D01*
X204856331Y-86283091D01*
X204759892Y-86518701D01*
X204674450Y-86739263D01*
X204603044Y-86938121D01*
X204548711Y-87108619D01*
X204528897Y-87181153D01*
X204514491Y-87244100D01*
X204476328Y-87418984D01*
X204440697Y-87603689D01*
X204407815Y-87795304D01*
X204377900Y-87990915D01*
X204351167Y-88187611D01*
X204327835Y-88382481D01*
X204308121Y-88572612D01*
X204292241Y-88755093D01*
X204280412Y-88927010D01*
X204272851Y-89085453D01*
X204269777Y-89227510D01*
X204271405Y-89350268D01*
X204277952Y-89450815D01*
X204289636Y-89526240D01*
X204297472Y-89553621D01*
X204306674Y-89573630D01*
X204317268Y-89585902D01*
X204329283Y-89590074D01*
X204336800Y-89588997D01*
X204345437Y-89585800D01*
X204365914Y-89573241D01*
X204390407Y-89552797D01*
X204418607Y-89524865D01*
X204450207Y-89489843D01*
X204484901Y-89448129D01*
X204562336Y-89346216D01*
X204648453Y-89222310D01*
X204740792Y-89079594D01*
X204836892Y-88921250D01*
X204934295Y-88750463D01*
X205063402Y-88543087D01*
X205213000Y-88325400D01*
X205380722Y-88099828D01*
X205564197Y-87868794D01*
X205761057Y-87634721D01*
X205968931Y-87400034D01*
X206185450Y-87167154D01*
X206408246Y-86938508D01*
X206634948Y-86716517D01*
X206863188Y-86503606D01*
X207090596Y-86302197D01*
X207314802Y-86114716D01*
X207533438Y-85943585D01*
X207744133Y-85791229D01*
X207944519Y-85660069D01*
X208132227Y-85552532D01*
X208570414Y-85332579D01*
X211770205Y-85332579D01*
X211771341Y-85334690D01*
X211774464Y-85336841D01*
X211779595Y-85339029D01*
X211786754Y-85341248D01*
X211807237Y-85345764D01*
X211836077Y-85350352D01*
X211873435Y-85354976D01*
X211961482Y-85363079D01*
X212056908Y-85368867D01*
X212156674Y-85372339D01*
X212257743Y-85373497D01*
X212357075Y-85372339D01*
X212451633Y-85368867D01*
X212538376Y-85363079D01*
X212614268Y-85354976D01*
X212644690Y-85350352D01*
X212666647Y-85345764D01*
X212680357Y-85341248D01*
X212684187Y-85339029D01*
X212686036Y-85336841D01*
X212685932Y-85334690D01*
X212683902Y-85332579D01*
X212674171Y-85328497D01*
X212657061Y-85324633D01*
X212632789Y-85321022D01*
X212563625Y-85314703D01*
X212468417Y-85309832D01*
X212348899Y-85306697D01*
X212206810Y-85305587D01*
X212133477Y-85305871D01*
X212066384Y-85306697D01*
X212005694Y-85308029D01*
X211951569Y-85309832D01*
X211904173Y-85312069D01*
X211863668Y-85314703D01*
X211830216Y-85317700D01*
X211803981Y-85321022D01*
X211785126Y-85324633D01*
X211778516Y-85326536D01*
X211773813Y-85328497D01*
X211771035Y-85330513D01*
X211770375Y-85331540D01*
X211770205Y-85332579D01*
X208570414Y-85332579D01*
X208648881Y-85293192D01*
X208883406Y-85186438D01*
X209109973Y-85093755D01*
X209334514Y-85014240D01*
X209562961Y-84946987D01*
X209801248Y-84891093D01*
X210055307Y-84845654D01*
X210331069Y-84809763D01*
X210634469Y-84782519D01*
X210971437Y-84763015D01*
X211347907Y-84750349D01*
X212243080Y-84741908D01*
X213367449Y-84749963D01*
X216380171Y-84787003D01*
X217022226Y-84465977D01*
X217148493Y-84401633D01*
X217268375Y-84333220D01*
X217382433Y-84260141D01*
X217491228Y-84181798D01*
X217595320Y-84097595D01*
X217695270Y-84006935D01*
X217791640Y-83909221D01*
X217884988Y-83803857D01*
X217975877Y-83690245D01*
X218064867Y-83567788D01*
X218152519Y-83435891D01*
X218239392Y-83293955D01*
X218326049Y-83141384D01*
X218413049Y-82977581D01*
X218500954Y-82801950D01*
X218590323Y-82613893D01*
X218669954Y-82427792D01*
X218703891Y-82335239D01*
X218734246Y-82240968D01*
X218761274Y-82143441D01*
X218785227Y-82041121D01*
X218806358Y-81932471D01*
X218824921Y-81815954D01*
X218855355Y-81553165D01*
X218878554Y-81240458D01*
X218896544Y-80865531D01*
X218911351Y-80416087D01*
X218922324Y-79799619D01*
X218915789Y-79248696D01*
X218904825Y-78990083D01*
X218888128Y-78738578D01*
X218865246Y-78491088D01*
X218835725Y-78244520D01*
X218799115Y-77995782D01*
X218754962Y-77741780D01*
X218702815Y-77479423D01*
X218642221Y-77205617D01*
X218493886Y-76611285D01*
X218306338Y-75934045D01*
X218150406Y-75414599D01*
X217979715Y-74885929D01*
X217795423Y-74350676D01*
X217598687Y-73811480D01*
X217172515Y-72731821D01*
X216710459Y-71668079D01*
X216221779Y-70641379D01*
X215970350Y-70148522D01*
X215715737Y-69672846D01*
X215459098Y-69216994D01*
X215201591Y-68783606D01*
X214944373Y-68375322D01*
X214688602Y-67994783D01*
X214529032Y-67766935D01*
X214353129Y-67529808D01*
X214163661Y-67286279D01*
X213963396Y-67039223D01*
X213755100Y-66791515D01*
X213541540Y-66546033D01*
X213325485Y-66305651D01*
X213109701Y-66073245D01*
X212896955Y-65851691D01*
X212690016Y-65643865D01*
X212491649Y-65452643D01*
X212304623Y-65280900D01*
X212131705Y-65131513D01*
X211975662Y-65007357D01*
X211839261Y-64911308D01*
X211725269Y-64846241D01*
X211557336Y-64773342D01*
X211474074Y-64743021D01*
X211391194Y-64716812D01*
X211308631Y-64694736D01*
X211226319Y-64676813D01*
X211144191Y-64663064D01*
X211062184Y-64653508D01*
X210980231Y-64648167D01*
X210898267Y-64647060D01*
X210816226Y-64650208D01*
X210734042Y-64657631D01*
X210651651Y-64669350D01*
X210568985Y-64685385D01*
X210485981Y-64705757D01*
X210402572Y-64730484D01*
X210318693Y-64759589D01*
X210234278Y-64793091D01*
X210149261Y-64831011D01*
X210063578Y-64873369D01*
X209889948Y-64971481D01*
X209712864Y-65087588D01*
X209531800Y-65221855D01*
X209346233Y-65374444D01*
X209155638Y-65545518D01*
X208959490Y-65735239D01*
X208496551Y-66223714D01*
X208039309Y-66756682D01*
X207589120Y-67331467D01*
X207147342Y-67945392D01*
X206715331Y-68595779D01*
X206294444Y-69279953D01*
X205886036Y-69995236D01*
X205491464Y-70738951D01*
X205112086Y-71508421D01*
X204749256Y-72300971D01*
X204404333Y-73113922D01*
X204078672Y-73944598D01*
X203773630Y-74790323D01*
X203490563Y-75648418D01*
X203230828Y-76516209D01*
X202995782Y-77391016D01*
X202703958Y-78636567D01*
X202464658Y-79838275D01*
X202273686Y-81041430D01*
X202126846Y-82291321D01*
X202019941Y-83633238D01*
X201948776Y-85112469D01*
X201909154Y-86774304D01*
X201896879Y-88664031D01*
X201465378Y-88664031D01*
X201464726Y-88417089D01*
X201466680Y-86855960D01*
X201473408Y-85579734D01*
X201486214Y-84545726D01*
X201506398Y-83711252D01*
X201535265Y-83033625D01*
X201574115Y-82470163D01*
X201624252Y-81978179D01*
X201686976Y-81514989D01*
X201850405Y-80492816D01*
X202030745Y-79499836D01*
X202228412Y-78534853D01*
X202443823Y-77596675D01*
X202677392Y-76684108D01*
X202929536Y-75795958D01*
X203200672Y-74931032D01*
X203491214Y-74088135D01*
X203801580Y-73266074D01*
X204132185Y-72463656D01*
X204483445Y-71679686D01*
X204855775Y-70912971D01*
X205249593Y-70162316D01*
X205665314Y-69426530D01*
X206103354Y-68704416D01*
X206564129Y-67994783D01*
X206763662Y-67702669D01*
X206972167Y-67410990D01*
X207187905Y-67121626D01*
X207409143Y-66836458D01*
X207634142Y-66557367D01*
X207861167Y-66286235D01*
X208088481Y-66024941D01*
X208314348Y-65775368D01*
X208537032Y-65539396D01*
X208754797Y-65318906D01*
X208965905Y-65115780D01*
X209168622Y-64931898D01*
X209361209Y-64769141D01*
X209541932Y-64629390D01*
X209709054Y-64514527D01*
X209860838Y-64426432D01*
X209982748Y-64367693D01*
X210107444Y-64316514D01*
X210234528Y-64272931D01*
X210363601Y-64236981D01*
X210494265Y-64208699D01*
X210626124Y-64188123D01*
X210758778Y-64175287D01*
X210891830Y-64170229D01*
X211024882Y-64172985D01*
G37*
G36*
X216555311Y-101567202D02*
G01*
X216557518Y-101568158D01*
X216559652Y-101569728D01*
X216561714Y-101571896D01*
X216565621Y-101577949D01*
X216569238Y-101586172D01*
X216572566Y-101596421D01*
X216575605Y-101608551D01*
X216578354Y-101622417D01*
X216580814Y-101637875D01*
X216584866Y-101672988D01*
X216587759Y-101712730D01*
X216589496Y-101755945D01*
X216590075Y-101801475D01*
X216576446Y-101897290D01*
X216535453Y-102013525D01*
X216466931Y-102150342D01*
X216370719Y-102307905D01*
X216246653Y-102486376D01*
X216094570Y-102685918D01*
X215914309Y-102906694D01*
X215705705Y-103148867D01*
X215202821Y-103698053D01*
X214584616Y-104334779D01*
X213849788Y-105060347D01*
X212997034Y-105876060D01*
X212336867Y-106498244D01*
X211774079Y-107019721D01*
X211296083Y-107450910D01*
X211084947Y-107635901D01*
X210890288Y-107802227D01*
X210710533Y-107951189D01*
X210544108Y-108084090D01*
X210389439Y-108202233D01*
X210244952Y-108306919D01*
X210109076Y-108399451D01*
X209980234Y-108481130D01*
X209856855Y-108553260D01*
X209737365Y-108617142D01*
X209654676Y-108657919D01*
X209573596Y-108696796D01*
X209494578Y-108733611D01*
X209418074Y-108768202D01*
X209344536Y-108800406D01*
X209274417Y-108830059D01*
X209208168Y-108856999D01*
X209146242Y-108881064D01*
X209089091Y-108902090D01*
X209037167Y-108919914D01*
X208990923Y-108934375D01*
X208950809Y-108945308D01*
X208917279Y-108952552D01*
X208890785Y-108955943D01*
X208880318Y-108956143D01*
X208871779Y-108955319D01*
X208865226Y-108953451D01*
X208860713Y-108950517D01*
X208858103Y-108945385D01*
X208857195Y-108939270D01*
X208857956Y-108932201D01*
X208860351Y-108924207D01*
X208869910Y-108905562D01*
X208885600Y-108883572D01*
X208907150Y-108858471D01*
X208934289Y-108830494D01*
X208966746Y-108799876D01*
X209004249Y-108766853D01*
X209046526Y-108731659D01*
X209093308Y-108694530D01*
X209199296Y-108615407D01*
X209320043Y-108531365D01*
X209453379Y-108444284D01*
X209801121Y-108211673D01*
X210178923Y-107938313D01*
X210581829Y-107628887D01*
X211004885Y-107288081D01*
X211443133Y-106920579D01*
X211891618Y-106531066D01*
X212799476Y-105704742D01*
X213688814Y-104846586D01*
X214519985Y-103994073D01*
X214901368Y-103581644D01*
X215253342Y-103184679D01*
X215570952Y-102807863D01*
X215849241Y-102455880D01*
X216113741Y-102113822D01*
X216335413Y-101830801D01*
X216422591Y-101721195D01*
X216489946Y-101638069D01*
X216534439Y-101585328D01*
X216547163Y-101571573D01*
X216553032Y-101566880D01*
X216555311Y-101567202D01*
G37*
G36*
X210932297Y-63250553D02*
G01*
X211055257Y-63255039D01*
X211178904Y-63262707D01*
X211302840Y-63273559D01*
X211426668Y-63287594D01*
X211549990Y-63304813D01*
X211672407Y-63325215D01*
X211793521Y-63348800D01*
X211912936Y-63375568D01*
X212030252Y-63405520D01*
X212145073Y-63438655D01*
X212276763Y-63497114D01*
X212442130Y-63600157D01*
X212636943Y-63743462D01*
X212856968Y-63922705D01*
X213097974Y-64133563D01*
X213355729Y-64371715D01*
X213625999Y-64632837D01*
X213904553Y-64912606D01*
X214469583Y-65510795D01*
X214747595Y-65820570D01*
X215016961Y-66131702D01*
X215273449Y-66439867D01*
X215512828Y-66740743D01*
X215730864Y-67030007D01*
X215923325Y-67303337D01*
X216450120Y-68107715D01*
X216947469Y-68924682D01*
X217416024Y-69756118D01*
X217856436Y-70603904D01*
X218269357Y-71469922D01*
X218655437Y-72356052D01*
X219015327Y-73264175D01*
X219349678Y-74196173D01*
X219659143Y-75153927D01*
X219944371Y-76139317D01*
X220206014Y-77154225D01*
X220444722Y-78200532D01*
X220661148Y-79280118D01*
X220855942Y-80394865D01*
X221029756Y-81546654D01*
X221183240Y-82737366D01*
X221266174Y-83798093D01*
X221321182Y-85280314D01*
X221349277Y-87051055D01*
X221351471Y-88977342D01*
X221328778Y-90926201D01*
X221282210Y-92764659D01*
X221212781Y-94359742D01*
X221121503Y-95578475D01*
X220993657Y-96699502D01*
X220851142Y-97783685D01*
X220694339Y-98829778D01*
X220523628Y-99836532D01*
X220339387Y-100802699D01*
X220141998Y-101727032D01*
X219931839Y-102608282D01*
X219709291Y-103445201D01*
X219474733Y-104236541D01*
X219228545Y-104981055D01*
X218971108Y-105677495D01*
X218702800Y-106324612D01*
X218424002Y-106921158D01*
X218135094Y-107465886D01*
X217836455Y-107957547D01*
X217528465Y-108394894D01*
X217438464Y-108513133D01*
X217354831Y-108625440D01*
X217279300Y-108729354D01*
X217213609Y-108822416D01*
X217159494Y-108902166D01*
X217137319Y-108936281D01*
X217118690Y-108966145D01*
X217103822Y-108991452D01*
X217092934Y-109011893D01*
X217086242Y-109027161D01*
X217084537Y-109032759D01*
X217083963Y-109036949D01*
X217094071Y-109043747D01*
X217123730Y-109050237D01*
X217237725Y-109062223D01*
X217417989Y-109072761D01*
X217656566Y-109081708D01*
X218276821Y-109094249D01*
X219034825Y-109098686D01*
X221410507Y-109133219D01*
X224399693Y-109217527D01*
X227129587Y-109322671D01*
X228124552Y-109374014D01*
X228727396Y-109419713D01*
X228802155Y-109427220D01*
X228873440Y-109435775D01*
X228940964Y-109445270D01*
X229004436Y-109455598D01*
X229063568Y-109466649D01*
X229118069Y-109478315D01*
X229167651Y-109490488D01*
X229212024Y-109503058D01*
X229250898Y-109515917D01*
X229268183Y-109522422D01*
X229283985Y-109528958D01*
X229298268Y-109535512D01*
X229310995Y-109542071D01*
X229322130Y-109548620D01*
X229331638Y-109555147D01*
X229339481Y-109561638D01*
X229345625Y-109568078D01*
X229350032Y-109574456D01*
X229352667Y-109580757D01*
X229353492Y-109586967D01*
X229352473Y-109593073D01*
X229349574Y-109599062D01*
X229344756Y-109604919D01*
X229266868Y-109645718D01*
X229116959Y-109684743D01*
X228603536Y-109757332D01*
X227809406Y-109822396D01*
X226739490Y-109879647D01*
X223791977Y-109969549D01*
X219800351Y-110024726D01*
X218225188Y-110032178D01*
X216954896Y-110035723D01*
X215977174Y-110034927D01*
X215279725Y-110029356D01*
X215032259Y-110024645D01*
X214850249Y-110018576D01*
X214732158Y-110011097D01*
X214696601Y-110006812D01*
X214676448Y-110002153D01*
X214672087Y-109999682D01*
X214671505Y-109997115D01*
X214681582Y-109991690D01*
X214746022Y-109979653D01*
X214868231Y-109965988D01*
X215046672Y-109950642D01*
X215656509Y-109900867D01*
X216221201Y-109848778D01*
X216677084Y-109801319D01*
X216844326Y-109781497D01*
X216960492Y-109765436D01*
X217392643Y-109691351D01*
X217046921Y-109444403D01*
X217012655Y-109418247D01*
X216979421Y-109390843D01*
X216947380Y-109362390D01*
X216916696Y-109333087D01*
X216887531Y-109303133D01*
X216860048Y-109272727D01*
X216834411Y-109242067D01*
X216810780Y-109211353D01*
X216789320Y-109180783D01*
X216770194Y-109150558D01*
X216753563Y-109120874D01*
X216739591Y-109091933D01*
X216728440Y-109063931D01*
X216723974Y-109050345D01*
X216720274Y-109037069D01*
X216717361Y-109024128D01*
X216715255Y-109011546D01*
X216713977Y-108999348D01*
X216713546Y-108987559D01*
X216716250Y-108962763D01*
X216724181Y-108930406D01*
X216737068Y-108891032D01*
X216754639Y-108845182D01*
X216802750Y-108736228D01*
X216866343Y-108607884D01*
X216943248Y-108464492D01*
X217031294Y-108310393D01*
X217128312Y-108149927D01*
X217232129Y-107987435D01*
X217688127Y-107220831D01*
X218115872Y-106371951D01*
X218514896Y-105443308D01*
X218884728Y-104437417D01*
X219224898Y-103356791D01*
X219534935Y-102203944D01*
X219814369Y-100981392D01*
X220062730Y-99691646D01*
X220279548Y-98337223D01*
X220464353Y-96920635D01*
X220616673Y-95444397D01*
X220736040Y-93911023D01*
X220821982Y-92323028D01*
X220874029Y-90682924D01*
X220891712Y-88993226D01*
X220874560Y-87256448D01*
X220839125Y-85972982D01*
X220783234Y-84740846D01*
X220706109Y-83556387D01*
X220606972Y-82415951D01*
X220485047Y-81315885D01*
X220339554Y-80252535D01*
X220169716Y-79222247D01*
X219974756Y-78221368D01*
X219753895Y-77246245D01*
X219506357Y-76293224D01*
X219231363Y-75358652D01*
X218928136Y-74438875D01*
X218595897Y-73530238D01*
X218233870Y-72629090D01*
X217841276Y-71731777D01*
X217417338Y-70834644D01*
X217108817Y-70224930D01*
X216786207Y-69628691D01*
X216451044Y-69047826D01*
X216104866Y-68484234D01*
X215749212Y-67939813D01*
X215385617Y-67416464D01*
X215015619Y-66916085D01*
X214640756Y-66440575D01*
X214262565Y-65991833D01*
X213882584Y-65571759D01*
X213502349Y-65182252D01*
X213123398Y-64825210D01*
X212747269Y-64502534D01*
X212375499Y-64216121D01*
X212009625Y-63967871D01*
X211651185Y-63759683D01*
X210786879Y-63302838D01*
X209959616Y-63809071D01*
X209408775Y-64172564D01*
X208855383Y-64607373D01*
X208302100Y-65109283D01*
X207751585Y-65674081D01*
X207206495Y-66297553D01*
X206669490Y-66975484D01*
X206143229Y-67703660D01*
X205630370Y-68477866D01*
X205133572Y-69293889D01*
X204655494Y-70147515D01*
X204198795Y-71034528D01*
X203766132Y-71950716D01*
X203360166Y-72891863D01*
X202983555Y-73853756D01*
X202638957Y-74832180D01*
X202329032Y-75822920D01*
X201885111Y-77470455D01*
X201523376Y-79131590D01*
X201240354Y-80843079D01*
X201032574Y-82641674D01*
X200896561Y-84564127D01*
X200828845Y-86647190D01*
X200825951Y-88927616D01*
X200884407Y-91442156D01*
X200960155Y-93320526D01*
X201052831Y-94969989D01*
X201168948Y-96440611D01*
X201315017Y-97782455D01*
X201497548Y-99045586D01*
X201723054Y-100280067D01*
X201998045Y-101535962D01*
X202329032Y-102863336D01*
X202531411Y-103602772D01*
X202741892Y-104296773D01*
X202962792Y-104950838D01*
X203077872Y-105264613D01*
X203196424Y-105570466D01*
X203318739Y-105869084D01*
X203445105Y-106161155D01*
X203575812Y-106447366D01*
X203711149Y-106728404D01*
X203851406Y-107004957D01*
X203996872Y-107277711D01*
X204147836Y-107547354D01*
X204304588Y-107814574D01*
X204440118Y-108042371D01*
X204566966Y-108259460D01*
X204682239Y-108460923D01*
X204783043Y-108641838D01*
X204866483Y-108797288D01*
X204929666Y-108922351D01*
X204952756Y-108971951D01*
X204969698Y-109012110D01*
X204980128Y-109042212D01*
X204983685Y-109061644D01*
X204983362Y-109067717D01*
X204982404Y-109074344D01*
X204978645Y-109089160D01*
X204972534Y-109105893D01*
X204964199Y-109124345D01*
X204953766Y-109144315D01*
X204941362Y-109165606D01*
X204927112Y-109188019D01*
X204911145Y-109211354D01*
X204893585Y-109235412D01*
X204874561Y-109259995D01*
X204854199Y-109284903D01*
X204832624Y-109309938D01*
X204809964Y-109334901D01*
X204786346Y-109359592D01*
X204761896Y-109383814D01*
X204736741Y-109407366D01*
X204676466Y-109464990D01*
X204630173Y-109517623D01*
X204598241Y-109565480D01*
X204587779Y-109587686D01*
X204581050Y-109608780D01*
X204578101Y-109628789D01*
X204578979Y-109647739D01*
X204583732Y-109665659D01*
X204592408Y-109682574D01*
X204605054Y-109698513D01*
X204621718Y-109713503D01*
X204642446Y-109727570D01*
X204667287Y-109740741D01*
X204729497Y-109764508D01*
X204808726Y-109785018D01*
X204905354Y-109802490D01*
X205019762Y-109817141D01*
X205152329Y-109829186D01*
X205303434Y-109838845D01*
X205473459Y-109846333D01*
X205662782Y-109851868D01*
X206070048Y-109867495D01*
X206531718Y-109893539D01*
X206991073Y-109926529D01*
X207391393Y-109962989D01*
X207448562Y-109974124D01*
X207452812Y-109979355D01*
X207441288Y-109984356D01*
X207244191Y-110001960D01*
X206195256Y-110024726D01*
X204417063Y-110028970D01*
X202082088Y-110012379D01*
X199498817Y-109986454D01*
X197302169Y-109946205D01*
X195501404Y-109892355D01*
X194752371Y-109860555D01*
X194105782Y-109825627D01*
X193562794Y-109787659D01*
X193124564Y-109746744D01*
X192792250Y-109702971D01*
X192567009Y-109656430D01*
X192494903Y-109632151D01*
X192450000Y-109607213D01*
X192432444Y-109581629D01*
X192442380Y-109555409D01*
X192479952Y-109528565D01*
X192545305Y-109501109D01*
X192759935Y-109444403D01*
X193351082Y-109396173D01*
X194558192Y-109338682D01*
X198033742Y-109219070D01*
X201613472Y-109131869D01*
X202950807Y-109114892D01*
X203724269Y-109123381D01*
X203900723Y-109136090D01*
X204066325Y-109146339D01*
X204217168Y-109153984D01*
X204349346Y-109158879D01*
X204458952Y-109160880D01*
X204504069Y-109160750D01*
X204542078Y-109159842D01*
X204572491Y-109158138D01*
X204594819Y-109155620D01*
X204608574Y-109152271D01*
X204612084Y-109150278D01*
X204613268Y-109148070D01*
X204610133Y-109138751D01*
X204600921Y-109120387D01*
X204565422Y-109058556D01*
X204509088Y-108966628D01*
X204434233Y-108848654D01*
X204238221Y-108550779D01*
X204121694Y-108378979D01*
X203995906Y-108197341D01*
X203730185Y-107778882D01*
X203470450Y-107316419D01*
X203217191Y-106811668D01*
X202970895Y-106266350D01*
X202732050Y-105682181D01*
X202501146Y-105060879D01*
X202278670Y-104404164D01*
X202065110Y-103713754D01*
X201666695Y-102238719D01*
X201309807Y-100649520D01*
X200998353Y-98959903D01*
X200736240Y-97183615D01*
X200622125Y-96068555D01*
X200522479Y-94631985D01*
X200440196Y-92972586D01*
X200378171Y-91189039D01*
X200339296Y-89380026D01*
X200326467Y-87644228D01*
X200342576Y-86080326D01*
X200390518Y-84787003D01*
X200458485Y-83747509D01*
X200542423Y-82743248D01*
X200642964Y-81771543D01*
X200760742Y-80829718D01*
X200896390Y-79915095D01*
X201050540Y-79024998D01*
X201223826Y-78156749D01*
X201416881Y-77307673D01*
X201630338Y-76475092D01*
X201864830Y-75656329D01*
X202120989Y-74848707D01*
X202399450Y-74049550D01*
X202700844Y-73256181D01*
X203025806Y-72465923D01*
X203374967Y-71676099D01*
X203748962Y-70884032D01*
X204005556Y-70371133D01*
X204274322Y-69861672D01*
X204553832Y-69357636D01*
X204842656Y-68861016D01*
X205139367Y-68373801D01*
X205442534Y-67897981D01*
X205750729Y-67435545D01*
X206062524Y-66988483D01*
X206376488Y-66558784D01*
X206691195Y-66148438D01*
X207005214Y-65759434D01*
X207317117Y-65393762D01*
X207625475Y-65053412D01*
X207928860Y-64740372D01*
X208225841Y-64456633D01*
X208514991Y-64204184D01*
X208653638Y-64089200D01*
X208783206Y-63984634D01*
X208904742Y-63889908D01*
X209019298Y-63804442D01*
X209127921Y-63727658D01*
X209231660Y-63658976D01*
X209331566Y-63597819D01*
X209428685Y-63543607D01*
X209524069Y-63495761D01*
X209618765Y-63453704D01*
X209713823Y-63416855D01*
X209810292Y-63384637D01*
X209909220Y-63356470D01*
X210011657Y-63331776D01*
X210118653Y-63309975D01*
X210231255Y-63290490D01*
X210341735Y-63275876D01*
X210455289Y-63264445D01*
X210571521Y-63256197D01*
X210690031Y-63251132D01*
X210810423Y-63249251D01*
X210932297Y-63250553D01*
G37*
G36*
X206630401Y-74420106D02*
G01*
X206652899Y-74422016D01*
X206676056Y-74425346D01*
X206699994Y-74430080D01*
X206724831Y-74436202D01*
X206750688Y-74443696D01*
X206805940Y-74462738D01*
X206866709Y-74487080D01*
X206933952Y-74516594D01*
X207008630Y-74551154D01*
X207119881Y-74609178D01*
X207222192Y-74678494D01*
X207315668Y-74758242D01*
X207400413Y-74847560D01*
X207476530Y-74945587D01*
X207544124Y-75051461D01*
X207603299Y-75164322D01*
X207654158Y-75283307D01*
X207696806Y-75407555D01*
X207731346Y-75536205D01*
X207757883Y-75668395D01*
X207776521Y-75803265D01*
X207787363Y-75939952D01*
X207790514Y-76077596D01*
X207786077Y-76215335D01*
X207774157Y-76352307D01*
X207754858Y-76487651D01*
X207728283Y-76620506D01*
X207694537Y-76750011D01*
X207653724Y-76875304D01*
X207605947Y-76995523D01*
X207551310Y-77109808D01*
X207489919Y-77217296D01*
X207421876Y-77317127D01*
X207347285Y-77408439D01*
X207266251Y-77490371D01*
X207178878Y-77562061D01*
X207085269Y-77622649D01*
X206985529Y-77671272D01*
X206879761Y-77707069D01*
X206768070Y-77729179D01*
X206650560Y-77736740D01*
X206615416Y-77734916D01*
X206579506Y-77729529D01*
X206542931Y-77720706D01*
X206505794Y-77708573D01*
X206468195Y-77693256D01*
X206430236Y-77674883D01*
X206353648Y-77629473D01*
X206276842Y-77573356D01*
X206200634Y-77507545D01*
X206125836Y-77433051D01*
X206053263Y-77350889D01*
X205983728Y-77262071D01*
X205918046Y-77167610D01*
X205857030Y-77068518D01*
X205801495Y-76965810D01*
X205752254Y-76860496D01*
X205710121Y-76753592D01*
X205675910Y-76646108D01*
X205659585Y-76577508D01*
X206271811Y-76577508D01*
X206273391Y-76627505D01*
X206276707Y-76676470D01*
X206281687Y-76724269D01*
X206288258Y-76770765D01*
X206296349Y-76815824D01*
X206305887Y-76859309D01*
X206316799Y-76901084D01*
X206329013Y-76941015D01*
X206342458Y-76978966D01*
X206357060Y-77014800D01*
X206372747Y-77048383D01*
X206389447Y-77079578D01*
X206407088Y-77108250D01*
X206425597Y-77134263D01*
X206444901Y-77157482D01*
X206464929Y-77177770D01*
X206485609Y-77194993D01*
X206506867Y-77209015D01*
X206528631Y-77219700D01*
X206550829Y-77226912D01*
X206573390Y-77230515D01*
X206596239Y-77230375D01*
X206619306Y-77226355D01*
X206642517Y-77218320D01*
X206665801Y-77206134D01*
X206689084Y-77189662D01*
X206712296Y-77168767D01*
X206748710Y-77125862D01*
X206783678Y-77072087D01*
X206816910Y-77008726D01*
X206848115Y-76937064D01*
X206877006Y-76858383D01*
X206903292Y-76773970D01*
X206926684Y-76685106D01*
X206946893Y-76593078D01*
X206963629Y-76499169D01*
X206976604Y-76404663D01*
X206985526Y-76310844D01*
X206990108Y-76218997D01*
X206990060Y-76130405D01*
X206985092Y-76046353D01*
X206974915Y-75968125D01*
X206959240Y-75897005D01*
X206944677Y-75839407D01*
X206928827Y-75786959D01*
X206911779Y-75739602D01*
X206893621Y-75697278D01*
X206874442Y-75659928D01*
X206854328Y-75627493D01*
X206833369Y-75599915D01*
X206811652Y-75577134D01*
X206789267Y-75559091D01*
X206766300Y-75545729D01*
X206742840Y-75536988D01*
X206718976Y-75532809D01*
X206694795Y-75533134D01*
X206670386Y-75537903D01*
X206645837Y-75547059D01*
X206621235Y-75560542D01*
X206596670Y-75578293D01*
X206572229Y-75600254D01*
X206548001Y-75626366D01*
X206524073Y-75656570D01*
X206500535Y-75690808D01*
X206477473Y-75729020D01*
X206454976Y-75771148D01*
X206433133Y-75817133D01*
X206412032Y-75866916D01*
X206391760Y-75920438D01*
X206354058Y-76038467D01*
X206320733Y-76170747D01*
X206292490Y-76316810D01*
X206284303Y-76369927D01*
X206278214Y-76422690D01*
X206274150Y-76474965D01*
X206272040Y-76526617D01*
X206271811Y-76577508D01*
X205659585Y-76577508D01*
X205650434Y-76539058D01*
X205633740Y-76420180D01*
X205625113Y-76295876D01*
X205624227Y-76167376D01*
X205630756Y-76035909D01*
X205644376Y-75902706D01*
X205664760Y-75768997D01*
X205691582Y-75636012D01*
X205724518Y-75504979D01*
X205763242Y-75377130D01*
X205807428Y-75253694D01*
X205856750Y-75135901D01*
X205910884Y-75024981D01*
X205969503Y-74922163D01*
X206032282Y-74828679D01*
X206098895Y-74745757D01*
X206133538Y-74708641D01*
X206169018Y-74674627D01*
X206232843Y-74620201D01*
X206290681Y-74572594D01*
X206343492Y-74531679D01*
X206392232Y-74497329D01*
X206415376Y-74482577D01*
X206437862Y-74469418D01*
X206459810Y-74457838D01*
X206481340Y-74447820D01*
X206502571Y-74439348D01*
X206523624Y-74432407D01*
X206544617Y-74426981D01*
X206565672Y-74423053D01*
X206586908Y-74420609D01*
X206608444Y-74419632D01*
X206630401Y-74420106D01*
G37*
G36*
X210638852Y-70341973D02*
G01*
X210899307Y-70350497D01*
X211149562Y-70366691D01*
X211390736Y-70390915D01*
X211623953Y-70423531D01*
X211850332Y-70464901D01*
X212070997Y-70515387D01*
X212287067Y-70575351D01*
X212499665Y-70645153D01*
X212709911Y-70725157D01*
X212918928Y-70815723D01*
X213127836Y-70917214D01*
X213337757Y-71029991D01*
X213549812Y-71154416D01*
X213765123Y-71290851D01*
X213984811Y-71439657D01*
X214357159Y-71722172D01*
X214709848Y-72031745D01*
X215042316Y-72367073D01*
X215354001Y-72726855D01*
X215644345Y-73109788D01*
X215912786Y-73514569D01*
X216158762Y-73939898D01*
X216381715Y-74384470D01*
X216581082Y-74846984D01*
X216756303Y-75326139D01*
X216906818Y-75820630D01*
X217032066Y-76329157D01*
X217131486Y-76850418D01*
X217204517Y-77383109D01*
X217250599Y-77925928D01*
X217269172Y-78477574D01*
X217267049Y-78907460D01*
X217263963Y-79090226D01*
X217259139Y-79254291D01*
X217252290Y-79401716D01*
X217243127Y-79534564D01*
X217231358Y-79654895D01*
X217216696Y-79764772D01*
X217198850Y-79866256D01*
X217177532Y-79961411D01*
X217152452Y-80052297D01*
X217123320Y-80140976D01*
X217089848Y-80229511D01*
X217051745Y-80319962D01*
X217008723Y-80414393D01*
X216960492Y-80514865D01*
X216886432Y-80655643D01*
X216807887Y-80786239D01*
X216725002Y-80906597D01*
X216637920Y-81016664D01*
X216546787Y-81116385D01*
X216499746Y-81162349D01*
X216451747Y-81205707D01*
X216402807Y-81246450D01*
X216352945Y-81284574D01*
X216302178Y-81320070D01*
X216250525Y-81352933D01*
X216198004Y-81383154D01*
X216144633Y-81410729D01*
X216090430Y-81435649D01*
X216035413Y-81457908D01*
X215979601Y-81477499D01*
X215923010Y-81494416D01*
X215865660Y-81508651D01*
X215807569Y-81520198D01*
X215748753Y-81529051D01*
X215689233Y-81535201D01*
X215629025Y-81538643D01*
X215568148Y-81539370D01*
X215506620Y-81537375D01*
X215444459Y-81532651D01*
X215381683Y-81525191D01*
X215318310Y-81514989D01*
X215201554Y-81486831D01*
X215091526Y-81447731D01*
X214987431Y-81396295D01*
X214888472Y-81331132D01*
X214793854Y-81250848D01*
X214702782Y-81154050D01*
X214614458Y-81039347D01*
X214528088Y-80905346D01*
X214442875Y-80750653D01*
X214358024Y-80573876D01*
X214272739Y-80373623D01*
X214186224Y-80148500D01*
X214097683Y-79897116D01*
X214006321Y-79618076D01*
X213811948Y-78971463D01*
X213707558Y-78626099D01*
X213602480Y-78297935D01*
X213496317Y-77986231D01*
X213388671Y-77690244D01*
X213279143Y-77409233D01*
X213167337Y-77142457D01*
X213052854Y-76889173D01*
X212935296Y-76648641D01*
X212814266Y-76420118D01*
X212689365Y-76202863D01*
X212560195Y-75996134D01*
X212426359Y-75799191D01*
X212287459Y-75611291D01*
X212143096Y-75431693D01*
X211992874Y-75259655D01*
X211836393Y-75094435D01*
X211648387Y-74909136D01*
X211466169Y-74741236D01*
X211285977Y-74589325D01*
X211104049Y-74451992D01*
X210916622Y-74327827D01*
X210719934Y-74215417D01*
X210510224Y-74113354D01*
X210283730Y-74020225D01*
X210036689Y-73934621D01*
X209765340Y-73855129D01*
X209465919Y-73780341D01*
X209134667Y-73708844D01*
X208767819Y-73639229D01*
X208361615Y-73570083D01*
X207692994Y-73469300D01*
X210553528Y-73469300D01*
X210556123Y-73476441D01*
X210563176Y-73486006D01*
X210574710Y-73497976D01*
X210611312Y-73529061D01*
X210666108Y-73569551D01*
X210739281Y-73619302D01*
X210831011Y-73678168D01*
X210941479Y-73746005D01*
X211070865Y-73822669D01*
X211204729Y-73907185D01*
X211341902Y-74002789D01*
X211481643Y-74108702D01*
X211623211Y-74224147D01*
X211765864Y-74348345D01*
X211908861Y-74480520D01*
X212051460Y-74619894D01*
X212192919Y-74765688D01*
X212332498Y-74917125D01*
X212469454Y-75073428D01*
X212603045Y-75233819D01*
X212732531Y-75397519D01*
X212857170Y-75563751D01*
X212976220Y-75731738D01*
X213088939Y-75900702D01*
X213194587Y-76069865D01*
X213294692Y-76251190D01*
X213407384Y-76483304D01*
X213529048Y-76756799D01*
X213656066Y-77062272D01*
X213784819Y-77390318D01*
X213911692Y-77731531D01*
X214033065Y-78076505D01*
X214145323Y-78415837D01*
X214271135Y-78810520D01*
X214385516Y-79162699D01*
X214489768Y-79474726D01*
X214585194Y-79748951D01*
X214630004Y-79872623D01*
X214673095Y-79987727D01*
X214714632Y-80094555D01*
X214754775Y-80193403D01*
X214793689Y-80284564D01*
X214831535Y-80368332D01*
X214868478Y-80445001D01*
X214904678Y-80514865D01*
X214940300Y-80578218D01*
X214975506Y-80635353D01*
X215010459Y-80686565D01*
X215045321Y-80732147D01*
X215080256Y-80772394D01*
X215115425Y-80807599D01*
X215150993Y-80838056D01*
X215187121Y-80864060D01*
X215223973Y-80885903D01*
X215261711Y-80903881D01*
X215300498Y-80918286D01*
X215340497Y-80929413D01*
X215381870Y-80937556D01*
X215424781Y-80943009D01*
X215469392Y-80946064D01*
X215515866Y-80947018D01*
X215548114Y-80946110D01*
X215575335Y-80943232D01*
X215587026Y-80940979D01*
X215597419Y-80938146D01*
X215606501Y-80934703D01*
X215614258Y-80930619D01*
X215620676Y-80925866D01*
X215625743Y-80920415D01*
X215629444Y-80914236D01*
X215631766Y-80907299D01*
X215632695Y-80899576D01*
X215632218Y-80891036D01*
X215630321Y-80881651D01*
X215626991Y-80871391D01*
X215622214Y-80860227D01*
X215615976Y-80848128D01*
X215599065Y-80821013D01*
X215576149Y-80789811D01*
X215547120Y-80754285D01*
X215511869Y-80714202D01*
X215470287Y-80669326D01*
X215422267Y-80619421D01*
X215367699Y-80564253D01*
X215328237Y-80524833D01*
X215288720Y-80480982D01*
X215249385Y-80433188D01*
X215210465Y-80381939D01*
X215172196Y-80327725D01*
X215134814Y-80271032D01*
X215098553Y-80212349D01*
X215063648Y-80152166D01*
X215030336Y-80090969D01*
X214998850Y-80029248D01*
X214969426Y-79967491D01*
X214942299Y-79906186D01*
X214917704Y-79845822D01*
X214895876Y-79786886D01*
X214877051Y-79729867D01*
X214861464Y-79675254D01*
X214739767Y-79207570D01*
X214619462Y-78770940D01*
X214499628Y-78363430D01*
X214379342Y-77983105D01*
X214257681Y-77628029D01*
X214133724Y-77296266D01*
X214006547Y-76985883D01*
X213875228Y-76694942D01*
X213738845Y-76421510D01*
X213596475Y-76163650D01*
X213447196Y-75919428D01*
X213290086Y-75686908D01*
X213124222Y-75464155D01*
X212948681Y-75249233D01*
X212762542Y-75040208D01*
X212564881Y-74835144D01*
X212395034Y-74679042D01*
X212213177Y-74519323D01*
X212024665Y-74360473D01*
X211834851Y-74206977D01*
X211649088Y-74063320D01*
X211472730Y-73933988D01*
X211311130Y-73823467D01*
X211237538Y-73776662D01*
X211169643Y-73736241D01*
X211034240Y-73665317D01*
X210915223Y-73605244D01*
X210812774Y-73555879D01*
X210727073Y-73517077D01*
X210658301Y-73488692D01*
X210606639Y-73470581D01*
X210572268Y-73462599D01*
X210561624Y-73462360D01*
X210555369Y-73464600D01*
X210553528Y-73469300D01*
X207692994Y-73469300D01*
X207416088Y-73427561D01*
X207241891Y-73401877D01*
X207084569Y-73375470D01*
X206943345Y-73347906D01*
X206878526Y-73333554D01*
X206817440Y-73318750D01*
X206759989Y-73303440D01*
X206706077Y-73287568D01*
X206655606Y-73271082D01*
X206608478Y-73253927D01*
X206564597Y-73236048D01*
X206523865Y-73217391D01*
X206486186Y-73197903D01*
X206451461Y-73177528D01*
X206419594Y-73156213D01*
X206390487Y-73133903D01*
X206364044Y-73110544D01*
X206340167Y-73086081D01*
X206318759Y-73060462D01*
X206299722Y-73033630D01*
X206282960Y-73005532D01*
X206268375Y-72976114D01*
X206255870Y-72945322D01*
X206245347Y-72913100D01*
X206236711Y-72879396D01*
X206229862Y-72844154D01*
X206224705Y-72807320D01*
X206221141Y-72768841D01*
X206219075Y-72728661D01*
X206218407Y-72686727D01*
X206222203Y-72610651D01*
X206223701Y-72600295D01*
X206835769Y-72600295D01*
X206836799Y-72616598D01*
X206839817Y-72633050D01*
X206844711Y-72649584D01*
X206851371Y-72666131D01*
X206859686Y-72682624D01*
X206869546Y-72698994D01*
X206880838Y-72715175D01*
X206893453Y-72731098D01*
X206907280Y-72746696D01*
X206922208Y-72761900D01*
X206938126Y-72776643D01*
X206954924Y-72790857D01*
X206990715Y-72817426D01*
X207028694Y-72841066D01*
X207067975Y-72861233D01*
X207087828Y-72869844D01*
X207107673Y-72877384D01*
X207127401Y-72883785D01*
X207146900Y-72888978D01*
X207166060Y-72892896D01*
X207184771Y-72895471D01*
X207202920Y-72896636D01*
X207220399Y-72896322D01*
X207237095Y-72894461D01*
X207252898Y-72890986D01*
X207267697Y-72885829D01*
X207281381Y-72878922D01*
X207293841Y-72870198D01*
X207304964Y-72859588D01*
X207308184Y-72857022D01*
X207310908Y-72853965D01*
X207313143Y-72850434D01*
X207314899Y-72846444D01*
X207316185Y-72842011D01*
X207317009Y-72837150D01*
X207317381Y-72831878D01*
X207317310Y-72826211D01*
X207315875Y-72813752D01*
X207312777Y-72799900D01*
X207308086Y-72784783D01*
X207301876Y-72768526D01*
X207294219Y-72751256D01*
X207285188Y-72733100D01*
X207274854Y-72714184D01*
X207263291Y-72694636D01*
X207250570Y-72674581D01*
X207236763Y-72654146D01*
X207221944Y-72633458D01*
X207206184Y-72612643D01*
X207187740Y-72591336D01*
X207169468Y-72571402D01*
X207151395Y-72552838D01*
X207133548Y-72535642D01*
X207115954Y-72519811D01*
X207098641Y-72505344D01*
X207081635Y-72492237D01*
X207064963Y-72480489D01*
X207048654Y-72470098D01*
X207032733Y-72461061D01*
X207017228Y-72453376D01*
X207002166Y-72447041D01*
X206987575Y-72442053D01*
X206973481Y-72438411D01*
X206959911Y-72436111D01*
X206946893Y-72435152D01*
X206934454Y-72435532D01*
X206922621Y-72437247D01*
X206911421Y-72440297D01*
X206900881Y-72444678D01*
X206891028Y-72450388D01*
X206881890Y-72457426D01*
X206873493Y-72465788D01*
X206865865Y-72475473D01*
X206859033Y-72486479D01*
X206853023Y-72498802D01*
X206847864Y-72512441D01*
X206843582Y-72527394D01*
X206840204Y-72543658D01*
X206837758Y-72561231D01*
X206836270Y-72580111D01*
X206835769Y-72600295D01*
X206223701Y-72600295D01*
X206233434Y-72533032D01*
X206251869Y-72454066D01*
X206277274Y-72373947D01*
X206293230Y-72333696D01*
X207475436Y-72333696D01*
X207477012Y-72353346D01*
X207481987Y-72371464D01*
X207490456Y-72387959D01*
X207502518Y-72402739D01*
X207518459Y-72412273D01*
X207547277Y-72422296D01*
X207640653Y-72443446D01*
X207776858Y-72465463D01*
X207950105Y-72487626D01*
X208154606Y-72509210D01*
X208384573Y-72529492D01*
X208634218Y-72547748D01*
X208897754Y-72563255D01*
X209288935Y-72591108D01*
X209458127Y-72605821D01*
X209612543Y-72621709D01*
X209754298Y-72639262D01*
X209885508Y-72658968D01*
X210008290Y-72681314D01*
X210124760Y-72706789D01*
X210237033Y-72735881D01*
X210347227Y-72769079D01*
X210457457Y-72806872D01*
X210569839Y-72849746D01*
X210686490Y-72898192D01*
X210809525Y-72952696D01*
X211083214Y-73081836D01*
X211300466Y-73196934D01*
X211520720Y-73328346D01*
X211742638Y-73474735D01*
X211964882Y-73634761D01*
X212186113Y-73807085D01*
X212404992Y-73990371D01*
X212620182Y-74183278D01*
X212830344Y-74384469D01*
X213034140Y-74592606D01*
X213230231Y-74806349D01*
X213417278Y-75024361D01*
X213593943Y-75245303D01*
X213758889Y-75467836D01*
X213910775Y-75690623D01*
X214048265Y-75912324D01*
X214170019Y-76131602D01*
X214269544Y-76332436D01*
X214380501Y-76585361D01*
X214499270Y-76879957D01*
X214622236Y-77205808D01*
X214745780Y-77552495D01*
X214866286Y-77909600D01*
X214980135Y-78266705D01*
X215083712Y-78613392D01*
X215156601Y-78868014D01*
X215222908Y-79095778D01*
X215283281Y-79298183D01*
X215338374Y-79476733D01*
X215388836Y-79632927D01*
X215412534Y-79703110D01*
X215435319Y-79768268D01*
X215457272Y-79828587D01*
X215478474Y-79884255D01*
X215499007Y-79935461D01*
X215518953Y-79982391D01*
X215538391Y-80025234D01*
X215557405Y-80064176D01*
X215576075Y-80099407D01*
X215594483Y-80131112D01*
X215612710Y-80159481D01*
X215630837Y-80184701D01*
X215648947Y-80206958D01*
X215667119Y-80226442D01*
X215685437Y-80243339D01*
X215703980Y-80257838D01*
X215722831Y-80270125D01*
X215742071Y-80280389D01*
X215761781Y-80288817D01*
X215782042Y-80295597D01*
X215802937Y-80300916D01*
X215824546Y-80304963D01*
X215904019Y-80309687D01*
X215975896Y-80299923D01*
X216040394Y-80274496D01*
X216097729Y-80232230D01*
X216148118Y-80171949D01*
X216191780Y-80092479D01*
X216228930Y-79992643D01*
X216259786Y-79871266D01*
X216284565Y-79727172D01*
X216303483Y-79559185D01*
X216316759Y-79366130D01*
X216324608Y-79146831D01*
X216327249Y-78900113D01*
X216324897Y-78624799D01*
X216306087Y-77983684D01*
X216289809Y-77549144D01*
X216268467Y-77167418D01*
X216255761Y-76994415D01*
X216241627Y-76832282D01*
X216226009Y-76680242D01*
X216208854Y-76537517D01*
X216190107Y-76403328D01*
X216169714Y-76276899D01*
X216147621Y-76157451D01*
X216123773Y-76044206D01*
X216098117Y-75936388D01*
X216070598Y-75833218D01*
X216041162Y-75733919D01*
X216009754Y-75637712D01*
X215827717Y-75164701D01*
X215633453Y-74717989D01*
X215426890Y-74297538D01*
X215207956Y-73903313D01*
X214976578Y-73535278D01*
X214732685Y-73193396D01*
X214476202Y-72877632D01*
X214207060Y-72587949D01*
X213925184Y-72324310D01*
X213779448Y-72202247D01*
X213630502Y-72086681D01*
X213478337Y-71977608D01*
X213322943Y-71875023D01*
X213164312Y-71778923D01*
X213002434Y-71689303D01*
X212837300Y-71606157D01*
X212668902Y-71529482D01*
X212497230Y-71459273D01*
X212322276Y-71395526D01*
X212144029Y-71338235D01*
X211962482Y-71287397D01*
X211777625Y-71243007D01*
X211589449Y-71205060D01*
X211371362Y-71167295D01*
X211156838Y-71137343D01*
X210945678Y-71115204D01*
X210737683Y-71100879D01*
X210532655Y-71094368D01*
X210330394Y-71095670D01*
X210130701Y-71104785D01*
X209933377Y-71121715D01*
X209738224Y-71146457D01*
X209545043Y-71179013D01*
X209353634Y-71219383D01*
X209163798Y-71267566D01*
X208975338Y-71323562D01*
X208788052Y-71387372D01*
X208601744Y-71458996D01*
X208416213Y-71538433D01*
X208362114Y-71563305D01*
X208308690Y-71589242D01*
X208204260Y-71643940D01*
X208103701Y-71701784D01*
X208007790Y-71762034D01*
X207917305Y-71823948D01*
X207833024Y-71886785D01*
X207755724Y-71949802D01*
X207686183Y-72012259D01*
X207654566Y-72043045D01*
X207625180Y-72073413D01*
X207598122Y-72103270D01*
X207573491Y-72132524D01*
X207551382Y-72161081D01*
X207531894Y-72188849D01*
X207515124Y-72215735D01*
X207501168Y-72241647D01*
X207490124Y-72266492D01*
X207482089Y-72290177D01*
X207477161Y-72312609D01*
X207475436Y-72333696D01*
X206293230Y-72333696D01*
X206309416Y-72292869D01*
X206348062Y-72211027D01*
X206443937Y-72045829D01*
X206563035Y-71879907D01*
X206703494Y-71714816D01*
X206863450Y-71552114D01*
X207041041Y-71393354D01*
X207234403Y-71240093D01*
X207441674Y-71093886D01*
X207660991Y-70956288D01*
X207890491Y-70828854D01*
X208128311Y-70713141D01*
X208372587Y-70610704D01*
X208621458Y-70523098D01*
X208873059Y-70451879D01*
X208917646Y-70440593D01*
X208972199Y-70429886D01*
X209108235Y-70410207D01*
X209275237Y-70392843D01*
X209467270Y-70377795D01*
X209678403Y-70365062D01*
X209902703Y-70354644D01*
X210367075Y-70340755D01*
X210638852Y-70341973D01*
G37*
G36*
X204936524Y-93685313D02*
G01*
X204984288Y-93689183D01*
X205031771Y-93696390D01*
X205078764Y-93706851D01*
X205125056Y-93720481D01*
X205170437Y-93737197D01*
X205214696Y-93756916D01*
X205257624Y-93779553D01*
X205299010Y-93805026D01*
X205338644Y-93833250D01*
X205376315Y-93864142D01*
X205411813Y-93897617D01*
X205444929Y-93933594D01*
X205475452Y-93971987D01*
X205503171Y-94012713D01*
X205527876Y-94055689D01*
X205549357Y-94100831D01*
X205567405Y-94148055D01*
X205581807Y-94197278D01*
X205592355Y-94248415D01*
X205598838Y-94301384D01*
X205601046Y-94356100D01*
X205599084Y-94410712D01*
X205593308Y-94463376D01*
X205583883Y-94514029D01*
X205570974Y-94562603D01*
X205554746Y-94609035D01*
X205535364Y-94653257D01*
X205512993Y-94695205D01*
X205487799Y-94734814D01*
X205459946Y-94772016D01*
X205429599Y-94806748D01*
X205396923Y-94838943D01*
X205362084Y-94868535D01*
X205325246Y-94895460D01*
X205286575Y-94919652D01*
X205246235Y-94941044D01*
X205204392Y-94959572D01*
X205161210Y-94975170D01*
X205116855Y-94987772D01*
X205071491Y-94997313D01*
X205025285Y-95003728D01*
X204978400Y-95006950D01*
X204931001Y-95006914D01*
X204883255Y-95003555D01*
X204835325Y-94996806D01*
X204787378Y-94986603D01*
X204739577Y-94972880D01*
X204692088Y-94955571D01*
X204645077Y-94934611D01*
X204598707Y-94909934D01*
X204553145Y-94881475D01*
X204508555Y-94849167D01*
X204465101Y-94812947D01*
X204440396Y-94789405D01*
X204417214Y-94765107D01*
X204395560Y-94740096D01*
X204375439Y-94714410D01*
X204356856Y-94688092D01*
X204339814Y-94661181D01*
X204324319Y-94633719D01*
X204310375Y-94605746D01*
X204297987Y-94577302D01*
X204287158Y-94548429D01*
X204277894Y-94519167D01*
X204270199Y-94489556D01*
X204264077Y-94459639D01*
X204259533Y-94429454D01*
X204256572Y-94399044D01*
X204255199Y-94368448D01*
X204255416Y-94337707D01*
X204257230Y-94306862D01*
X204260645Y-94275954D01*
X204265665Y-94245024D01*
X204272295Y-94214111D01*
X204280538Y-94183258D01*
X204290401Y-94152503D01*
X204301887Y-94121889D01*
X204315001Y-94091456D01*
X204329747Y-94061245D01*
X204346130Y-94031295D01*
X204364154Y-94001649D01*
X204383824Y-93972346D01*
X204405145Y-93943428D01*
X204428120Y-93914934D01*
X204452755Y-93886907D01*
X204489726Y-93848549D01*
X204528729Y-93814448D01*
X204569554Y-93784521D01*
X204611991Y-93758684D01*
X204655830Y-93736853D01*
X204700860Y-93718945D01*
X204746872Y-93704875D01*
X204793654Y-93694561D01*
X204840997Y-93687918D01*
X204888691Y-93684863D01*
X204936524Y-93685313D01*
G37*
M02*
