%TF.GenerationSoftware,KiCad,Pcbnew,9.0.6*%
%TF.CreationDate,2025-12-03T22:27:59-06:00*%
%TF.ProjectId,Devboard,44657662-6f61-4726-942e-6b696361645f,rev?*%
%TF.SameCoordinates,Original*%
%TF.FileFunction,Soldermask,Top*%
%TF.FilePolarity,Negative*%
%FSLAX46Y46*%
G04 Gerber Fmt 4.6, Leading zero omitted, Abs format (unit mm)*
G04 Created by KiCad (PCBNEW 9.0.6) date 2025-12-03 22:27:59*
%MOMM*%
%LPD*%
G01*
G04 APERTURE LIST*
G04 Aperture macros list*
%AMRoundRect*
0 Rectangle with rounded corners*
0 $1 Rounding radius*
0 $2 $3 $4 $5 $6 $7 $8 $9 X,Y pos of 4 corners*
0 Add a 4 corners polygon primitive as box body*
4,1,4,$2,$3,$4,$5,$6,$7,$8,$9,$2,$3,0*
0 Add four circle primitives for the rounded corners*
1,1,$1+$1,$2,$3*
1,1,$1+$1,$4,$5*
1,1,$1+$1,$6,$7*
1,1,$1+$1,$8,$9*
0 Add four rect primitives between the rounded corners*
20,1,$1+$1,$2,$3,$4,$5,0*
20,1,$1+$1,$4,$5,$6,$7,0*
20,1,$1+$1,$6,$7,$8,$9,0*
20,1,$1+$1,$8,$9,$2,$3,0*%
G04 Aperture macros list end*
%ADD10RoundRect,0.140000X-0.170000X0.140000X-0.170000X-0.140000X0.170000X-0.140000X0.170000X0.140000X0*%
%ADD11RoundRect,0.140000X0.140000X0.170000X-0.140000X0.170000X-0.140000X-0.170000X0.140000X-0.170000X0*%
%ADD12RoundRect,0.140000X0.170000X-0.140000X0.170000X0.140000X-0.170000X0.140000X-0.170000X-0.140000X0*%
%ADD13RoundRect,0.162500X-0.650000X-0.162500X0.650000X-0.162500X0.650000X0.162500X-0.650000X0.162500X0*%
%ADD14RoundRect,0.140000X-0.140000X-0.170000X0.140000X-0.170000X0.140000X0.170000X-0.140000X0.170000X0*%
%ADD15C,0.650000*%
%ADD16R,0.600000X1.450000*%
%ADD17R,0.300000X1.450000*%
%ADD18O,1.000000X2.100000*%
%ADD19O,1.000000X1.600000*%
%ADD20R,1.700000X1.700000*%
%ADD21C,1.700000*%
%ADD22RoundRect,0.135000X0.185000X-0.135000X0.185000X0.135000X-0.185000X0.135000X-0.185000X-0.135000X0*%
%ADD23RoundRect,0.135000X-0.185000X0.135000X-0.185000X-0.135000X0.185000X-0.135000X0.185000X0.135000X0*%
%ADD24R,1.600000X0.850000*%
%ADD25RoundRect,0.250000X0.350000X-0.450000X0.350000X0.450000X-0.350000X0.450000X-0.350000X-0.450000X0*%
%ADD26RoundRect,0.135000X0.135000X0.185000X-0.135000X0.185000X-0.135000X-0.185000X0.135000X-0.185000X0*%
%ADD27RoundRect,0.375000X0.375000X-0.625000X0.375000X0.625000X-0.375000X0.625000X-0.375000X-0.625000X0*%
%ADD28RoundRect,0.500000X1.400000X-0.500000X1.400000X0.500000X-1.400000X0.500000X-1.400000X-0.500000X0*%
%ADD29RoundRect,0.200000X-0.800000X0.200000X-0.800000X-0.200000X0.800000X-0.200000X0.800000X0.200000X0*%
%ADD30RoundRect,0.050000X-0.387500X-0.050000X0.387500X-0.050000X0.387500X0.050000X-0.387500X0.050000X0*%
%ADD31RoundRect,0.050000X-0.050000X-0.387500X0.050000X-0.387500X0.050000X0.387500X-0.050000X0.387500X0*%
%ADD32R,3.200000X3.200000*%
%ADD33RoundRect,0.135000X-0.135000X-0.185000X0.135000X-0.185000X0.135000X0.185000X-0.135000X0.185000X0*%
G04 APERTURE END LIST*
D10*
%TO.C,C17*%
X215898000Y-73882000D03*
X215898000Y-74842000D03*
%TD*%
D11*
%TO.C,C11*%
X209800000Y-84009000D03*
X208840000Y-84009000D03*
%TD*%
%TO.C,C8*%
X208224000Y-77460000D03*
X207264000Y-77460000D03*
%TD*%
D12*
%TO.C,C16*%
X211090000Y-105956000D03*
X211090000Y-104996000D03*
%TD*%
D13*
%TO.C,U3*%
X208011500Y-78682000D03*
X208011500Y-79952000D03*
X208011500Y-81222000D03*
X208011500Y-82492000D03*
X215186500Y-82492000D03*
X215186500Y-81222000D03*
X215186500Y-79952000D03*
X215186500Y-78682000D03*
%TD*%
D14*
%TO.C,C3*%
X216670000Y-90350000D03*
X217630000Y-90350000D03*
%TD*%
D15*
%TO.C,J1*%
X213853000Y-65169000D03*
X208073000Y-65169000D03*
D16*
X214213000Y-66614000D03*
X213413000Y-66614000D03*
D17*
X212213000Y-66614000D03*
X211213000Y-66614000D03*
X210713000Y-66614000D03*
X209713000Y-66614000D03*
D16*
X208513000Y-66614000D03*
X207713000Y-66614000D03*
X207713000Y-66614000D03*
X208513000Y-66614000D03*
D17*
X209213000Y-66614000D03*
X210213000Y-66614000D03*
X211713000Y-66614000D03*
X212713000Y-66614000D03*
D16*
X213413000Y-66614000D03*
X214213000Y-66614000D03*
D18*
X215283000Y-65699000D03*
D19*
X215283000Y-61519000D03*
D18*
X206643000Y-65699000D03*
D19*
X206643000Y-61519000D03*
%TD*%
D10*
%TO.C,C9*%
X215650000Y-94970000D03*
X215650000Y-95930000D03*
%TD*%
D20*
%TO.C,J3*%
X220164000Y-61958000D03*
D21*
X220164000Y-64498000D03*
X220164000Y-67038000D03*
X220164000Y-69578000D03*
X220164000Y-72118000D03*
X220164000Y-74658000D03*
X220164000Y-77198000D03*
X220164000Y-79738000D03*
X220164000Y-82278000D03*
X220164000Y-84818000D03*
X220164000Y-87358000D03*
X220164000Y-89898000D03*
X220164000Y-92438000D03*
X220164000Y-94978000D03*
X220164000Y-97518000D03*
X220164000Y-100058000D03*
X220164000Y-102598000D03*
X220164000Y-105138000D03*
X220164000Y-107678000D03*
X220164000Y-110218000D03*
%TD*%
D11*
%TO.C,C4*%
X206779000Y-70688000D03*
X205819000Y-70688000D03*
%TD*%
D10*
%TO.C,C10*%
X207000000Y-83520000D03*
X207000000Y-84480000D03*
%TD*%
D12*
%TO.C,C1*%
X206709000Y-75646000D03*
X206709000Y-74686000D03*
%TD*%
D22*
%TO.C,R2*%
X211250000Y-101510000D03*
X211250000Y-100490000D03*
%TD*%
D23*
%TO.C,R7*%
X206400000Y-78505000D03*
X206400000Y-79525000D03*
%TD*%
D12*
%TO.C,C15*%
X213469000Y-95754000D03*
X213469000Y-94794000D03*
%TD*%
D20*
%TO.C,J2*%
X201641000Y-62011000D03*
D21*
X201641000Y-64551000D03*
X201641000Y-67091000D03*
X201641000Y-69631000D03*
X201641000Y-72171000D03*
X201641000Y-74711000D03*
X201641000Y-77251000D03*
X201641000Y-79791000D03*
X201641000Y-82331000D03*
X201641000Y-84871000D03*
X201641000Y-87411000D03*
X201641000Y-89951000D03*
X201641000Y-92491000D03*
X201641000Y-95031000D03*
X201641000Y-97571000D03*
X201641000Y-100111000D03*
X201641000Y-102651000D03*
X201641000Y-105191000D03*
X201641000Y-107731000D03*
X201641000Y-110271000D03*
%TD*%
D14*
%TO.C,C14*%
X204061000Y-67468000D03*
X205021000Y-67468000D03*
%TD*%
D24*
%TO.C,D1*%
X217264000Y-110648000D03*
X217264000Y-108898000D03*
X213764000Y-108898000D03*
X213764000Y-110648000D03*
%TD*%
D23*
%TO.C,R5*%
X216867000Y-78535000D03*
X216867000Y-79555000D03*
%TD*%
D12*
%TO.C,C7*%
X206750000Y-90230000D03*
X206750000Y-89270000D03*
%TD*%
D20*
%TO.C,J4*%
X205282000Y-110104000D03*
D21*
X207822000Y-110104000D03*
X210362000Y-110104000D03*
%TD*%
D25*
%TO.C,Y1*%
X217362000Y-71211000D03*
X217362000Y-69011000D03*
X215662000Y-69011000D03*
X215662000Y-71211000D03*
%TD*%
D24*
%TO.C,D2*%
X206088000Y-104574000D03*
X206088000Y-106324000D03*
X209588000Y-106324000D03*
X209588000Y-104574000D03*
%TD*%
D11*
%TO.C,C6*%
X206779000Y-68454000D03*
X205819000Y-68454000D03*
%TD*%
D22*
%TO.C,R3*%
X205153000Y-65121000D03*
X205153000Y-64101000D03*
%TD*%
D10*
%TO.C,C2*%
X214600000Y-95920000D03*
X214600000Y-96880000D03*
%TD*%
D26*
%TO.C,R4*%
X214510000Y-84000000D03*
X213490000Y-84000000D03*
%TD*%
D14*
%TO.C,C12*%
X211232000Y-84701000D03*
X212192000Y-84701000D03*
%TD*%
D27*
%TO.C,U2*%
X208631500Y-75628000D03*
X210931500Y-75628000D03*
D28*
X210931500Y-69328000D03*
D27*
X213231500Y-75628000D03*
%TD*%
D14*
%TO.C,C13*%
X216899000Y-73990000D03*
X217859000Y-73990000D03*
%TD*%
D29*
%TO.C,SW1*%
X215235000Y-98234000D03*
X215235000Y-102434000D03*
%TD*%
D24*
%TO.C,D3*%
X216912000Y-106096000D03*
X216912000Y-104346000D03*
X213412000Y-104346000D03*
X213412000Y-106096000D03*
%TD*%
D11*
%TO.C,C5*%
X206788000Y-69582000D03*
X205828000Y-69582000D03*
%TD*%
D30*
%TO.C,U1*%
X208010000Y-86706000D03*
X208010000Y-87106000D03*
X208010000Y-87506000D03*
X208010000Y-87906000D03*
X208010000Y-88306000D03*
X208010000Y-88706000D03*
X208010000Y-89106000D03*
X208010000Y-89506000D03*
X208010000Y-89906000D03*
X208010000Y-90306000D03*
X208010000Y-90706000D03*
X208010000Y-91106000D03*
X208010000Y-91506000D03*
X208010000Y-91906000D03*
D31*
X208847500Y-92743500D03*
X209247500Y-92743500D03*
X209647500Y-92743500D03*
X210047500Y-92743500D03*
X210447500Y-92743500D03*
X210847500Y-92743500D03*
X211247500Y-92743500D03*
X211647500Y-92743500D03*
X212047500Y-92743500D03*
X212447500Y-92743500D03*
X212847500Y-92743500D03*
X213247500Y-92743500D03*
X213647500Y-92743500D03*
X214047500Y-92743500D03*
D30*
X214885000Y-91906000D03*
X214885000Y-91506000D03*
X214885000Y-91106000D03*
X214885000Y-90706000D03*
X214885000Y-90306000D03*
X214885000Y-89906000D03*
X214885000Y-89506000D03*
X214885000Y-89106000D03*
X214885000Y-88706000D03*
X214885000Y-88306000D03*
X214885000Y-87906000D03*
X214885000Y-87506000D03*
X214885000Y-87106000D03*
X214885000Y-86706000D03*
D31*
X214047500Y-85868500D03*
X213647500Y-85868500D03*
X213247500Y-85868500D03*
X212847500Y-85868500D03*
X212447500Y-85868500D03*
X212047500Y-85868500D03*
X211647500Y-85868500D03*
X211247500Y-85868500D03*
X210847500Y-85868500D03*
X210447500Y-85868500D03*
X210047500Y-85868500D03*
X209647500Y-85868500D03*
X209247500Y-85868500D03*
X208847500Y-85868500D03*
D32*
X211447500Y-89306000D03*
%TD*%
D33*
%TO.C,R1*%
X216883000Y-66229000D03*
X217903000Y-66229000D03*
%TD*%
%TO.C,R6*%
X206217000Y-85865000D03*
X207237000Y-85865000D03*
%TD*%
M02*
