M48
; DRILL file {KiCad 9.0.6} date 2025-12-07T15:32:35-0600
; FORMAT={-:-/ absolute / metric / decimal}
; #@! TF.CreationDate,2025-12-07T15:32:35-06:00
; #@! TF.GenerationSoftware,Kicad,Pcbnew,9.0.6
; #@! TF.FileFunction,Plated,1,2,PTH
FMAT,2
METRIC
; #@! TA.AperFunction,Plated,PTH,ViaDrill
T1C0.300
; #@! TA.AperFunction,Plated,PTH,ComponentDrill
T2C0.600
; #@! TA.AperFunction,Plated,PTH,ComponentDrill
T3C1.000
%
G90
G05
T1
X203.65Y-89.15
X203.7Y-91.8
X204.019Y-104.519
X204.2Y-85.35
X204.25Y-84.35
X204.3Y-68.6
X204.75Y-72.1
X205.109Y-89.441
X205.153Y-65.121
X205.8Y-92.55
X206.3Y-108.5
X206.5Y-105.225
X206.7Y-87.15
X207.117Y-72.057
X207.525Y-73.5
X208.04Y-85.896
X208.115Y-84.208
X208.35Y-71.2
X208.45Y-98.8
X208.9Y-74.975
X208.95Y-111.15
X208.952Y-86.803
X209.327Y-88.127
X209.348Y-89.124
X209.348Y-89.956
X209.45Y-81.4
X209.75Y-103.0
X209.752Y-86.804
X209.95Y-98.3
X209.95Y-105.3
X210.05Y-73.05
X210.25Y-91.35
X210.346Y-64.988
X211.0Y-71.4
X211.717Y-86.944
X211.776Y-91.406
X211.847Y-86.155
X211.85Y-103.373
X211.948Y-94.099
X211.951Y-96.318
X212.45Y-101.261
X212.469Y-91.806
X212.927Y-84.518
X213.2Y-95.07
X213.211Y-96.085
X213.4Y-81.15
X213.545Y-90.955
X213.548Y-88.243
X213.548Y-89.57
X213.771Y-86.661
X213.832Y-91.822
X213.947Y-90.263
X214.8Y-84.66
X214.9Y-85.65
X215.0Y-109.75
X215.075Y-111.3
X215.4Y-81.3
X215.991Y-91.639
X216.0Y-88.066
X216.02Y-86.35
X216.25Y-97.75
X216.35Y-105.1
X216.6Y-106.925
X216.65Y-87.35
X216.75Y-82.55
X217.15Y-88.5
X218.15Y-90.75
T3
X201.641Y-62.011
X201.641Y-64.551
X201.641Y-67.091
X201.641Y-69.631
X201.641Y-72.171
X201.641Y-74.711
X201.641Y-77.251
X201.641Y-79.791
X201.641Y-82.331
X201.641Y-84.871
X201.641Y-87.411
X201.641Y-89.951
X201.641Y-92.491
X201.641Y-95.031
X201.641Y-97.571
X201.641Y-100.111
X201.641Y-102.651
X201.641Y-105.191
X201.641Y-107.731
X201.641Y-110.271
X205.2Y-110.25
X207.74Y-110.25
X210.28Y-110.25
X220.164Y-61.958
X220.164Y-64.498
X220.164Y-67.038
X220.164Y-69.578
X220.164Y-72.118
X220.164Y-74.658
X220.164Y-77.198
X220.164Y-79.738
X220.164Y-82.278
X220.164Y-84.818
X220.164Y-87.358
X220.164Y-89.898
X220.164Y-92.438
X220.164Y-94.978
X220.164Y-97.518
X220.164Y-100.058
X220.164Y-102.598
X220.164Y-105.138
X220.164Y-107.678
X220.164Y-110.218
T2
G00X206.643Y-61.819
M15
G01X206.643Y-61.219
M16
G05
G00X206.643Y-66.249
M15
G01X206.643Y-65.149
M16
G05
G00X215.283Y-61.819
M15
G01X215.283Y-61.219
M16
G05
G00X215.283Y-66.249
M15
G01X215.283Y-65.149
M16
G05
M30
