%TF.GenerationSoftware,KiCad,Pcbnew,9.0.6*%
%TF.CreationDate,2025-12-07T15:32:32-06:00*%
%TF.ProjectId,Devboard,44657662-6f61-4726-942e-6b696361645f,rev?*%
%TF.SameCoordinates,Original*%
%TF.FileFunction,Paste,Top*%
%TF.FilePolarity,Positive*%
%FSLAX46Y46*%
G04 Gerber Fmt 4.6, Leading zero omitted, Abs format (unit mm)*
G04 Created by KiCad (PCBNEW 9.0.6) date 2025-12-07 15:32:32*
%MOMM*%
%LPD*%
G01*
G04 APERTURE LIST*
G04 Aperture macros list*
%AMRoundRect*
0 Rectangle with rounded corners*
0 $1 Rounding radius*
0 $2 $3 $4 $5 $6 $7 $8 $9 X,Y pos of 4 corners*
0 Add a 4 corners polygon primitive as box body*
4,1,4,$2,$3,$4,$5,$6,$7,$8,$9,$2,$3,0*
0 Add four circle primitives for the rounded corners*
1,1,$1+$1,$2,$3*
1,1,$1+$1,$4,$5*
1,1,$1+$1,$6,$7*
1,1,$1+$1,$8,$9*
0 Add four rect primitives between the rounded corners*
20,1,$1+$1,$2,$3,$4,$5,0*
20,1,$1+$1,$4,$5,$6,$7,0*
20,1,$1+$1,$6,$7,$8,$9,0*
20,1,$1+$1,$8,$9,$2,$3,0*%
G04 Aperture macros list end*
%ADD10RoundRect,0.140000X-0.140000X-0.170000X0.140000X-0.170000X0.140000X0.170000X-0.140000X0.170000X0*%
%ADD11RoundRect,0.140000X-0.170000X0.140000X-0.170000X-0.140000X0.170000X-0.140000X0.170000X0.140000X0*%
%ADD12RoundRect,0.062500X-0.387500X-0.062500X0.387500X-0.062500X0.387500X0.062500X-0.387500X0.062500X0*%
%ADD13RoundRect,0.040000X-0.040000X-0.605000X0.040000X-0.605000X0.040000X0.605000X-0.040000X0.605000X0*%
%ADD14RoundRect,0.150000X0.150000X-0.587500X0.150000X0.587500X-0.150000X0.587500X-0.150000X-0.587500X0*%
%ADD15RoundRect,0.140000X0.140000X0.170000X-0.140000X0.170000X-0.140000X-0.170000X0.140000X-0.170000X0*%
%ADD16RoundRect,0.140000X0.170000X-0.140000X0.170000X0.140000X-0.170000X0.140000X-0.170000X-0.140000X0*%
%ADD17R,0.600000X1.450000*%
%ADD18R,0.300000X1.450000*%
%ADD19RoundRect,0.135000X-0.185000X0.135000X-0.185000X-0.135000X0.185000X-0.135000X0.185000X0.135000X0*%
%ADD20RoundRect,0.135000X0.135000X0.185000X-0.135000X0.185000X-0.135000X-0.185000X0.135000X-0.185000X0*%
%ADD21R,1.600000X0.850000*%
%ADD22RoundRect,0.250000X0.350000X-0.450000X0.350000X0.450000X-0.350000X0.450000X-0.350000X-0.450000X0*%
%ADD23RoundRect,0.135000X0.185000X-0.135000X0.185000X0.135000X-0.185000X0.135000X-0.185000X-0.135000X0*%
%ADD24RoundRect,0.200000X-0.800000X0.200000X-0.800000X-0.200000X0.800000X-0.200000X0.800000X0.200000X0*%
%ADD25RoundRect,0.249999X-0.395001X-0.395001X0.395001X-0.395001X0.395001X0.395001X-0.395001X0.395001X0*%
%ADD26RoundRect,0.050000X-0.387500X-0.050000X0.387500X-0.050000X0.387500X0.050000X-0.387500X0.050000X0*%
%ADD27RoundRect,0.050000X-0.050000X-0.387500X0.050000X-0.387500X0.050000X0.387500X-0.050000X0.387500X0*%
%ADD28RoundRect,0.135000X-0.135000X-0.185000X0.135000X-0.185000X0.135000X0.185000X-0.135000X0.185000X0*%
G04 APERTURE END LIST*
D10*
%TO.C,C11*%
X215870000Y-84200000D03*
X216830000Y-84200000D03*
%TD*%
%TO.C,C12*%
X215820000Y-85300000D03*
X216780000Y-85300000D03*
%TD*%
D11*
%TO.C,C2*%
X216150000Y-91480000D03*
X216150000Y-90520000D03*
%TD*%
D12*
%TO.C,U3*%
X210850000Y-82300000D03*
X210850000Y-82800000D03*
X210850000Y-83300000D03*
X210850000Y-83800000D03*
X208000000Y-83800000D03*
X208000000Y-83300000D03*
X208000000Y-82800000D03*
X208000000Y-82300000D03*
D13*
X209425000Y-83050000D03*
%TD*%
D14*
%TO.C,U2*%
X208250000Y-71050000D03*
X210150000Y-71050000D03*
X209200000Y-69175000D03*
%TD*%
D11*
%TO.C,C17*%
X208769000Y-77292000D03*
X208769000Y-78252000D03*
%TD*%
D15*
%TO.C,C8*%
X211080000Y-80700000D03*
X210120000Y-80700000D03*
%TD*%
D16*
%TO.C,C16*%
X212450000Y-101280000D03*
X212450000Y-100320000D03*
%TD*%
D10*
%TO.C,C3*%
X216020000Y-86350000D03*
X216980000Y-86350000D03*
%TD*%
D17*
%TO.C,J1*%
X214213000Y-66614000D03*
X213413000Y-66614000D03*
D18*
X212213000Y-66614000D03*
X211213000Y-66614000D03*
X210713000Y-66614000D03*
X209713000Y-66614000D03*
D17*
X208513000Y-66614000D03*
X207713000Y-66614000D03*
X207713000Y-66614000D03*
X208513000Y-66614000D03*
D18*
X209213000Y-66614000D03*
X210213000Y-66614000D03*
X211713000Y-66614000D03*
X212713000Y-66614000D03*
D17*
X213413000Y-66614000D03*
X214213000Y-66614000D03*
%TD*%
D11*
%TO.C,C9*%
X213200000Y-95070000D03*
X213200000Y-96030000D03*
%TD*%
D15*
%TO.C,C4*%
X206779000Y-70688000D03*
X205819000Y-70688000D03*
%TD*%
D11*
%TO.C,C10*%
X205200000Y-85870000D03*
X205200000Y-86830000D03*
%TD*%
D16*
%TO.C,C1*%
X210850000Y-79580000D03*
X210850000Y-78620000D03*
%TD*%
D19*
%TO.C,R2*%
X211400000Y-100300000D03*
X211400000Y-101320000D03*
%TD*%
D20*
%TO.C,R7*%
X208820000Y-81200000D03*
X207800000Y-81200000D03*
%TD*%
D16*
%TO.C,C15*%
X208500000Y-96980000D03*
X208500000Y-96020000D03*
%TD*%
D15*
%TO.C,C14*%
X205021000Y-67468000D03*
X204061000Y-67468000D03*
%TD*%
D21*
%TO.C,D1*%
X210000000Y-106975000D03*
X210000000Y-105225000D03*
X206500000Y-105225000D03*
X206500000Y-106975000D03*
%TD*%
D19*
%TO.C,R5*%
X213750000Y-83640000D03*
X213750000Y-84660000D03*
%TD*%
D16*
%TO.C,C7*%
X206750000Y-90230000D03*
X206750000Y-89270000D03*
%TD*%
D22*
%TO.C,Y1*%
X211650000Y-98300000D03*
X211650000Y-96100000D03*
X209950000Y-96100000D03*
X209950000Y-98300000D03*
%TD*%
D21*
%TO.C,D2*%
X216600000Y-106625000D03*
X216600000Y-104875000D03*
X213100000Y-104875000D03*
X213100000Y-106625000D03*
%TD*%
D15*
%TO.C,C6*%
X206779000Y-68454000D03*
X205819000Y-68454000D03*
%TD*%
D23*
%TO.C,R3*%
X205153000Y-65121000D03*
X205153000Y-64101000D03*
%TD*%
D19*
%TO.C,R4*%
X214800000Y-83640000D03*
X214800000Y-84660000D03*
%TD*%
D10*
%TO.C,C13*%
X209770000Y-77400000D03*
X210730000Y-77400000D03*
%TD*%
D24*
%TO.C,SW1*%
X213400000Y-76950000D03*
X213400000Y-81150000D03*
%TD*%
D21*
%TO.C,D3*%
X213200000Y-109075000D03*
X213200000Y-110825000D03*
X216700000Y-110825000D03*
X216700000Y-109075000D03*
%TD*%
D15*
%TO.C,C5*%
X206788000Y-69582000D03*
X205828000Y-69582000D03*
%TD*%
D25*
%TO.C,U1*%
X210647500Y-88506000D03*
X210647500Y-90106000D03*
X212247500Y-88506000D03*
X212247500Y-90106000D03*
D26*
X208010000Y-86706000D03*
X208010000Y-87106000D03*
X208010000Y-87506000D03*
X208010000Y-87906000D03*
X208010000Y-88306000D03*
X208010000Y-88706000D03*
X208010000Y-89106000D03*
X208010000Y-89506000D03*
X208010000Y-89906000D03*
X208010000Y-90306000D03*
X208010000Y-90706000D03*
X208010000Y-91106000D03*
X208010000Y-91506000D03*
X208010000Y-91906000D03*
D27*
X208847500Y-92743500D03*
X209247500Y-92743500D03*
X209647500Y-92743500D03*
X210047500Y-92743500D03*
X210447500Y-92743500D03*
X210847500Y-92743500D03*
X211247500Y-92743500D03*
X211647500Y-92743500D03*
X212047500Y-92743500D03*
X212447500Y-92743500D03*
X212847500Y-92743500D03*
X213247500Y-92743500D03*
X213647500Y-92743500D03*
X214047500Y-92743500D03*
D26*
X214885000Y-91906000D03*
X214885000Y-91506000D03*
X214885000Y-91106000D03*
X214885000Y-90706000D03*
X214885000Y-90306000D03*
X214885000Y-89906000D03*
X214885000Y-89506000D03*
X214885000Y-89106000D03*
X214885000Y-88706000D03*
X214885000Y-88306000D03*
X214885000Y-87906000D03*
X214885000Y-87506000D03*
X214885000Y-87106000D03*
X214885000Y-86706000D03*
D27*
X214047500Y-85868500D03*
X213647500Y-85868500D03*
X213247500Y-85868500D03*
X212847500Y-85868500D03*
X212447500Y-85868500D03*
X212047500Y-85868500D03*
X211647500Y-85868500D03*
X211247500Y-85868500D03*
X210847500Y-85868500D03*
X210447500Y-85868500D03*
X210047500Y-85868500D03*
X209647500Y-85868500D03*
X209247500Y-85868500D03*
X208847500Y-85868500D03*
%TD*%
D28*
%TO.C,R1*%
X216883000Y-66229000D03*
X217903000Y-66229000D03*
%TD*%
%TO.C,R6*%
X206217000Y-85865000D03*
X207237000Y-85865000D03*
%TD*%
M02*
