M48
; DRILL file {KiCad 9.0.6} date 2025-12-03T22:27:44-0600
; FORMAT={-:-/ absolute / metric / decimal}
; #@! TF.CreationDate,2025-12-03T22:27:44-06:00
; #@! TF.GenerationSoftware,Kicad,Pcbnew,9.0.6
; #@! TF.FileFunction,Plated,1,2,PTH
FMAT,2
METRIC
; #@! TA.AperFunction,Plated,PTH,ViaDrill
T1C0.300
; #@! TA.AperFunction,Plated,PTH,ComponentDrill
T2C0.600
; #@! TA.AperFunction,Plated,PTH,ComponentDrill
T3C1.000
%
G90
G05
T1
X203.372Y-68.0
X205.15Y-64.13
X205.181Y-88.654
X205.4Y-67.0
X205.797Y-89.73
X205.818Y-90.611
X205.9Y-95.299
X205.95Y-97.65
X206.088Y-106.324
X206.4Y-78.505
X206.541Y-76.648
X206.626Y-88.499
X206.662Y-89.364
X207.0Y-83.52
X207.379Y-104.873
X207.406Y-109.195
X207.713Y-66.614
X207.955Y-81.184
X208.006Y-79.96
X208.288Y-106.734
X208.631Y-75.628
X208.908Y-87.637
X208.96Y-86.839
X209.116Y-82.916
X209.221Y-84.819
X209.347Y-88.32
X209.347Y-89.42
X209.357Y-91.47
X209.615Y-105.399
X209.7Y-81.1
X209.834Y-86.782
X209.954Y-83.14
X210.3Y-77.6
X210.3Y-88.9
X210.371Y-107.124
X210.4Y-85.0
X210.453Y-84.202
X210.461Y-91.461
X210.578Y-81.886
X210.6Y-80.2
X210.612Y-82.685
X210.924Y-107.915
X211.113Y-90.997
X211.16Y-80.771
X211.2Y-86.806
X211.237Y-67.766
X211.415Y-84.939
X211.723Y-93.862
X211.783Y-64.855
X211.79Y-83.099
X211.8Y-91.406
X212.151Y-84.571
X212.3Y-88.005
X212.35Y-95.65
X212.398Y-81.498
X212.525Y-104.799
X212.8Y-80.1
X213.237Y-86.806
X213.337Y-79.451
X213.359Y-73.48
X213.422Y-105.271
X213.528Y-102.407
X213.576Y-63.998
X213.647Y-61.991
X213.831Y-96.507
X213.841Y-91.723
X213.96Y-88.539
X213.96Y-89.339
X213.978Y-87.739
X214.185Y-93.674
X214.223Y-95.076
X214.587Y-85.201
X214.895Y-103.799
X215.163Y-94.19
X215.185Y-100.054
X215.245Y-84.555
X215.4Y-110.2
X215.675Y-95.799
X215.728Y-82.077
X215.8Y-97.0
X215.823Y-88.31
X215.9Y-109.5
X216.05Y-65.75
X216.062Y-84.543
X216.1Y-74.9
X216.101Y-76.206
X216.787Y-89.043
X216.861Y-77.856
X216.866Y-86.066
X216.943Y-80.327
X216.95Y-104.35
X217.109Y-99.241
X217.2Y-91.165
X217.218Y-67.697
X217.264Y-110.648
X217.593Y-91.559
X217.669Y-76.966
X217.669Y-80.792
X217.859Y-73.99
X217.979Y-90.237
X218.1Y-75.366
X218.103Y-96.362
X218.536Y-85.598
X218.927Y-89.358
X219.062Y-77.977
X220.715Y-75.966
X220.715Y-101.366
X221.192Y-80.91
T3
X201.641Y-62.011
X201.641Y-64.551
X201.641Y-67.091
X201.641Y-69.631
X201.641Y-72.171
X201.641Y-74.711
X201.641Y-77.251
X201.641Y-79.791
X201.641Y-82.331
X201.641Y-84.871
X201.641Y-87.411
X201.641Y-89.951
X201.641Y-92.491
X201.641Y-95.031
X201.641Y-97.571
X201.641Y-100.111
X201.641Y-102.651
X201.641Y-105.191
X201.641Y-107.731
X201.641Y-110.271
X205.282Y-110.104
X207.822Y-110.104
X210.362Y-110.104
X220.164Y-61.958
X220.164Y-64.498
X220.164Y-67.038
X220.164Y-69.578
X220.164Y-72.118
X220.164Y-74.658
X220.164Y-77.198
X220.164Y-79.738
X220.164Y-82.278
X220.164Y-84.818
X220.164Y-87.358
X220.164Y-89.898
X220.164Y-92.438
X220.164Y-94.978
X220.164Y-97.518
X220.164Y-100.058
X220.164Y-102.598
X220.164Y-105.138
X220.164Y-107.678
X220.164Y-110.218
T2
G00X206.643Y-61.819
M15
G01X206.643Y-61.219
M16
G05
G00X206.643Y-66.249
M15
G01X206.643Y-65.149
M16
G05
G00X215.283Y-61.819
M15
G01X215.283Y-61.219
M16
G05
G00X215.283Y-66.249
M15
G01X215.283Y-65.149
M16
G05
M30
