%TF.GenerationSoftware,KiCad,Pcbnew,9.0.6*%
%TF.CreationDate,2025-12-07T15:32:32-06:00*%
%TF.ProjectId,Devboard,44657662-6f61-4726-942e-6b696361645f,rev?*%
%TF.SameCoordinates,Original*%
%TF.FileFunction,Legend,Top*%
%TF.FilePolarity,Positive*%
%FSLAX46Y46*%
G04 Gerber Fmt 4.6, Leading zero omitted, Abs format (unit mm)*
G04 Created by KiCad (PCBNEW 9.0.6) date 2025-12-07 15:32:32*
%MOMM*%
%LPD*%
G01*
G04 APERTURE LIST*
%ADD10C,0.250000*%
%ADD11C,0.150000*%
%ADD12C,0.120000*%
G04 APERTURE END LIST*
D10*
X203981139Y-99064619D02*
X203981139Y-98540809D01*
X203981139Y-98540809D02*
X203933520Y-98445571D01*
X203933520Y-98445571D02*
X203838282Y-98397952D01*
X203838282Y-98397952D02*
X203647806Y-98397952D01*
X203647806Y-98397952D02*
X203552568Y-98445571D01*
X203981139Y-99017000D02*
X203885901Y-99064619D01*
X203885901Y-99064619D02*
X203647806Y-99064619D01*
X203647806Y-99064619D02*
X203552568Y-99017000D01*
X203552568Y-99017000D02*
X203504949Y-98921761D01*
X203504949Y-98921761D02*
X203504949Y-98826523D01*
X203504949Y-98826523D02*
X203552568Y-98731285D01*
X203552568Y-98731285D02*
X203647806Y-98683666D01*
X203647806Y-98683666D02*
X203885901Y-98683666D01*
X203885901Y-98683666D02*
X203981139Y-98636047D01*
X204885901Y-99064619D02*
X204885901Y-98540809D01*
X204885901Y-98540809D02*
X204838282Y-98445571D01*
X204838282Y-98445571D02*
X204743044Y-98397952D01*
X204743044Y-98397952D02*
X204552568Y-98397952D01*
X204552568Y-98397952D02*
X204457330Y-98445571D01*
X204885901Y-99017000D02*
X204790663Y-99064619D01*
X204790663Y-99064619D02*
X204552568Y-99064619D01*
X204552568Y-99064619D02*
X204457330Y-99017000D01*
X204457330Y-99017000D02*
X204409711Y-98921761D01*
X204409711Y-98921761D02*
X204409711Y-98826523D01*
X204409711Y-98826523D02*
X204457330Y-98731285D01*
X204457330Y-98731285D02*
X204552568Y-98683666D01*
X204552568Y-98683666D02*
X204790663Y-98683666D01*
X204790663Y-98683666D02*
X204885901Y-98636047D01*
X205362092Y-99064619D02*
X205362092Y-98397952D01*
X205362092Y-98588428D02*
X205409711Y-98493190D01*
X205409711Y-98493190D02*
X205457330Y-98445571D01*
X205457330Y-98445571D02*
X205552568Y-98397952D01*
X205552568Y-98397952D02*
X205647806Y-98397952D01*
X206409711Y-98397952D02*
X206409711Y-99064619D01*
X205981140Y-98397952D02*
X205981140Y-98921761D01*
X205981140Y-98921761D02*
X206028759Y-99017000D01*
X206028759Y-99017000D02*
X206123997Y-99064619D01*
X206123997Y-99064619D02*
X206266854Y-99064619D01*
X206266854Y-99064619D02*
X206362092Y-99017000D01*
X206362092Y-99017000D02*
X206409711Y-98969380D01*
X206838283Y-99017000D02*
X206933521Y-99064619D01*
X206933521Y-99064619D02*
X207123997Y-99064619D01*
X207123997Y-99064619D02*
X207219235Y-99017000D01*
X207219235Y-99017000D02*
X207266854Y-98921761D01*
X207266854Y-98921761D02*
X207266854Y-98874142D01*
X207266854Y-98874142D02*
X207219235Y-98778904D01*
X207219235Y-98778904D02*
X207123997Y-98731285D01*
X207123997Y-98731285D02*
X206981140Y-98731285D01*
X206981140Y-98731285D02*
X206885902Y-98683666D01*
X206885902Y-98683666D02*
X206838283Y-98588428D01*
X206838283Y-98588428D02*
X206838283Y-98540809D01*
X206838283Y-98540809D02*
X206885902Y-98445571D01*
X206885902Y-98445571D02*
X206981140Y-98397952D01*
X206981140Y-98397952D02*
X207123997Y-98397952D01*
X207123997Y-98397952D02*
X207219235Y-98445571D01*
X207695426Y-99064619D02*
X207695426Y-98064619D01*
X208123997Y-99064619D02*
X208123997Y-98540809D01*
X208123997Y-98540809D02*
X208076378Y-98445571D01*
X208076378Y-98445571D02*
X207981140Y-98397952D01*
X207981140Y-98397952D02*
X207838283Y-98397952D01*
X207838283Y-98397952D02*
X207743045Y-98445571D01*
X207743045Y-98445571D02*
X207695426Y-98493190D01*
X209028759Y-98397952D02*
X209028759Y-99064619D01*
X208790664Y-98017000D02*
X208552569Y-98731285D01*
X208552569Y-98731285D02*
X209171616Y-98731285D01*
X209981140Y-99017000D02*
X209885902Y-99064619D01*
X209885902Y-99064619D02*
X209695426Y-99064619D01*
X209695426Y-99064619D02*
X209600188Y-99017000D01*
X209600188Y-99017000D02*
X209552569Y-98969380D01*
X209552569Y-98969380D02*
X209504950Y-98874142D01*
X209504950Y-98874142D02*
X209504950Y-98588428D01*
X209504950Y-98588428D02*
X209552569Y-98493190D01*
X209552569Y-98493190D02*
X209600188Y-98445571D01*
X209600188Y-98445571D02*
X209695426Y-98397952D01*
X209695426Y-98397952D02*
X209885902Y-98397952D01*
X209885902Y-98397952D02*
X209981140Y-98445571D01*
X210552569Y-99064619D02*
X210457331Y-99017000D01*
X210457331Y-99017000D02*
X210409712Y-98969380D01*
X210409712Y-98969380D02*
X210362093Y-98874142D01*
X210362093Y-98874142D02*
X210362093Y-98588428D01*
X210362093Y-98588428D02*
X210409712Y-98493190D01*
X210409712Y-98493190D02*
X210457331Y-98445571D01*
X210457331Y-98445571D02*
X210552569Y-98397952D01*
X210552569Y-98397952D02*
X210695426Y-98397952D01*
X210695426Y-98397952D02*
X210790664Y-98445571D01*
X210790664Y-98445571D02*
X210838283Y-98493190D01*
X210838283Y-98493190D02*
X210885902Y-98588428D01*
X210885902Y-98588428D02*
X210885902Y-98874142D01*
X210885902Y-98874142D02*
X210838283Y-98969380D01*
X210838283Y-98969380D02*
X210790664Y-99017000D01*
X210790664Y-99017000D02*
X210695426Y-99064619D01*
X210695426Y-99064619D02*
X210552569Y-99064619D01*
X211743045Y-99064619D02*
X211743045Y-98064619D01*
X211743045Y-99017000D02*
X211647807Y-99064619D01*
X211647807Y-99064619D02*
X211457331Y-99064619D01*
X211457331Y-99064619D02*
X211362093Y-99017000D01*
X211362093Y-99017000D02*
X211314474Y-98969380D01*
X211314474Y-98969380D02*
X211266855Y-98874142D01*
X211266855Y-98874142D02*
X211266855Y-98588428D01*
X211266855Y-98588428D02*
X211314474Y-98493190D01*
X211314474Y-98493190D02*
X211362093Y-98445571D01*
X211362093Y-98445571D02*
X211457331Y-98397952D01*
X211457331Y-98397952D02*
X211647807Y-98397952D01*
X211647807Y-98397952D02*
X211743045Y-98445571D01*
X212600188Y-99017000D02*
X212504950Y-99064619D01*
X212504950Y-99064619D02*
X212314474Y-99064619D01*
X212314474Y-99064619D02*
X212219236Y-99017000D01*
X212219236Y-99017000D02*
X212171617Y-98921761D01*
X212171617Y-98921761D02*
X212171617Y-98540809D01*
X212171617Y-98540809D02*
X212219236Y-98445571D01*
X212219236Y-98445571D02*
X212314474Y-98397952D01*
X212314474Y-98397952D02*
X212504950Y-98397952D01*
X212504950Y-98397952D02*
X212600188Y-98445571D01*
X212600188Y-98445571D02*
X212647807Y-98540809D01*
X212647807Y-98540809D02*
X212647807Y-98636047D01*
X212647807Y-98636047D02*
X212171617Y-98731285D01*
D11*
X208663095Y-80554819D02*
X208663095Y-81364342D01*
X208663095Y-81364342D02*
X208710714Y-81459580D01*
X208710714Y-81459580D02*
X208758333Y-81507200D01*
X208758333Y-81507200D02*
X208853571Y-81554819D01*
X208853571Y-81554819D02*
X209044047Y-81554819D01*
X209044047Y-81554819D02*
X209139285Y-81507200D01*
X209139285Y-81507200D02*
X209186904Y-81459580D01*
X209186904Y-81459580D02*
X209234523Y-81364342D01*
X209234523Y-81364342D02*
X209234523Y-80554819D01*
X209615476Y-80554819D02*
X210234523Y-80554819D01*
X210234523Y-80554819D02*
X209901190Y-80935771D01*
X209901190Y-80935771D02*
X210044047Y-80935771D01*
X210044047Y-80935771D02*
X210139285Y-80983390D01*
X210139285Y-80983390D02*
X210186904Y-81031009D01*
X210186904Y-81031009D02*
X210234523Y-81126247D01*
X210234523Y-81126247D02*
X210234523Y-81364342D01*
X210234523Y-81364342D02*
X210186904Y-81459580D01*
X210186904Y-81459580D02*
X210139285Y-81507200D01*
X210139285Y-81507200D02*
X210044047Y-81554819D01*
X210044047Y-81554819D02*
X209758333Y-81554819D01*
X209758333Y-81554819D02*
X209663095Y-81507200D01*
X209663095Y-81507200D02*
X209615476Y-81459580D01*
X206254819Y-70874404D02*
X207064342Y-70874404D01*
X207064342Y-70874404D02*
X207159580Y-70826785D01*
X207159580Y-70826785D02*
X207207200Y-70779166D01*
X207207200Y-70779166D02*
X207254819Y-70683928D01*
X207254819Y-70683928D02*
X207254819Y-70493452D01*
X207254819Y-70493452D02*
X207207200Y-70398214D01*
X207207200Y-70398214D02*
X207159580Y-70350595D01*
X207159580Y-70350595D02*
X207064342Y-70302976D01*
X207064342Y-70302976D02*
X206254819Y-70302976D01*
X206350057Y-69874404D02*
X206302438Y-69826785D01*
X206302438Y-69826785D02*
X206254819Y-69731547D01*
X206254819Y-69731547D02*
X206254819Y-69493452D01*
X206254819Y-69493452D02*
X206302438Y-69398214D01*
X206302438Y-69398214D02*
X206350057Y-69350595D01*
X206350057Y-69350595D02*
X206445295Y-69302976D01*
X206445295Y-69302976D02*
X206540533Y-69302976D01*
X206540533Y-69302976D02*
X206683390Y-69350595D01*
X206683390Y-69350595D02*
X207254819Y-69922023D01*
X207254819Y-69922023D02*
X207254819Y-69302976D01*
X211221428Y-106612704D02*
X211678571Y-106612704D01*
X211449999Y-106612704D02*
X211449999Y-107412704D01*
X211449999Y-107412704D02*
X211526190Y-107298419D01*
X211526190Y-107298419D02*
X211602380Y-107222228D01*
X211602380Y-107222228D02*
X211678571Y-107184133D01*
X206132333Y-69973580D02*
X206084714Y-70021200D01*
X206084714Y-70021200D02*
X205941857Y-70068819D01*
X205941857Y-70068819D02*
X205846619Y-70068819D01*
X205846619Y-70068819D02*
X205703762Y-70021200D01*
X205703762Y-70021200D02*
X205608524Y-69925961D01*
X205608524Y-69925961D02*
X205560905Y-69830723D01*
X205560905Y-69830723D02*
X205513286Y-69640247D01*
X205513286Y-69640247D02*
X205513286Y-69497390D01*
X205513286Y-69497390D02*
X205560905Y-69306914D01*
X205560905Y-69306914D02*
X205608524Y-69211676D01*
X205608524Y-69211676D02*
X205703762Y-69116438D01*
X205703762Y-69116438D02*
X205846619Y-69068819D01*
X205846619Y-69068819D02*
X205941857Y-69068819D01*
X205941857Y-69068819D02*
X206084714Y-69116438D01*
X206084714Y-69116438D02*
X206132333Y-69164057D01*
X206989476Y-69068819D02*
X206799000Y-69068819D01*
X206799000Y-69068819D02*
X206703762Y-69116438D01*
X206703762Y-69116438D02*
X206656143Y-69164057D01*
X206656143Y-69164057D02*
X206560905Y-69306914D01*
X206560905Y-69306914D02*
X206513286Y-69497390D01*
X206513286Y-69497390D02*
X206513286Y-69878342D01*
X206513286Y-69878342D02*
X206560905Y-69973580D01*
X206560905Y-69973580D02*
X206608524Y-70021200D01*
X206608524Y-70021200D02*
X206703762Y-70068819D01*
X206703762Y-70068819D02*
X206894238Y-70068819D01*
X206894238Y-70068819D02*
X206989476Y-70021200D01*
X206989476Y-70021200D02*
X207037095Y-69973580D01*
X207037095Y-69973580D02*
X207084714Y-69878342D01*
X207084714Y-69878342D02*
X207084714Y-69640247D01*
X207084714Y-69640247D02*
X207037095Y-69545009D01*
X207037095Y-69545009D02*
X206989476Y-69497390D01*
X206989476Y-69497390D02*
X206894238Y-69449771D01*
X206894238Y-69449771D02*
X206703762Y-69449771D01*
X206703762Y-69449771D02*
X206608524Y-69497390D01*
X206608524Y-69497390D02*
X206560905Y-69545009D01*
X206560905Y-69545009D02*
X206513286Y-69640247D01*
X206141333Y-71101580D02*
X206093714Y-71149200D01*
X206093714Y-71149200D02*
X205950857Y-71196819D01*
X205950857Y-71196819D02*
X205855619Y-71196819D01*
X205855619Y-71196819D02*
X205712762Y-71149200D01*
X205712762Y-71149200D02*
X205617524Y-71053961D01*
X205617524Y-71053961D02*
X205569905Y-70958723D01*
X205569905Y-70958723D02*
X205522286Y-70768247D01*
X205522286Y-70768247D02*
X205522286Y-70625390D01*
X205522286Y-70625390D02*
X205569905Y-70434914D01*
X205569905Y-70434914D02*
X205617524Y-70339676D01*
X205617524Y-70339676D02*
X205712762Y-70244438D01*
X205712762Y-70244438D02*
X205855619Y-70196819D01*
X205855619Y-70196819D02*
X205950857Y-70196819D01*
X205950857Y-70196819D02*
X206093714Y-70244438D01*
X206093714Y-70244438D02*
X206141333Y-70292057D01*
X207046095Y-70196819D02*
X206569905Y-70196819D01*
X206569905Y-70196819D02*
X206522286Y-70673009D01*
X206522286Y-70673009D02*
X206569905Y-70625390D01*
X206569905Y-70625390D02*
X206665143Y-70577771D01*
X206665143Y-70577771D02*
X206903238Y-70577771D01*
X206903238Y-70577771D02*
X206998476Y-70625390D01*
X206998476Y-70625390D02*
X207046095Y-70673009D01*
X207046095Y-70673009D02*
X207093714Y-70768247D01*
X207093714Y-70768247D02*
X207093714Y-71006342D01*
X207093714Y-71006342D02*
X207046095Y-71101580D01*
X207046095Y-71101580D02*
X206998476Y-71149200D01*
X206998476Y-71149200D02*
X206903238Y-71196819D01*
X206903238Y-71196819D02*
X206665143Y-71196819D01*
X206665143Y-71196819D02*
X206569905Y-71149200D01*
X206569905Y-71149200D02*
X206522286Y-71101580D01*
D12*
%TO.C,C11*%
X216242164Y-84560000D02*
X216457836Y-84560000D01*
X216242164Y-83840000D02*
X216457836Y-83840000D01*
%TO.C,C12*%
X216192164Y-84940000D02*
X216407836Y-84940000D01*
X216192164Y-85660000D02*
X216407836Y-85660000D01*
%TO.C,C2*%
X216510000Y-90892164D02*
X216510000Y-91107836D01*
X215790000Y-90892164D02*
X215790000Y-91107836D01*
%TO.C,U3*%
X207945000Y-81910000D02*
X207805000Y-81720000D01*
X208085000Y-81720000D01*
X207945000Y-81910000D01*
G36*
X207945000Y-81910000D02*
G01*
X207805000Y-81720000D01*
X208085000Y-81720000D01*
X207945000Y-81910000D01*
G37*
X211035000Y-84185000D02*
X207815000Y-84185000D01*
X208239432Y-81915000D02*
X211035000Y-81915000D01*
%TO.C,U2*%
X207640000Y-70872500D02*
X207640000Y-69352500D01*
X207690000Y-70872500D02*
X207640000Y-70872500D01*
X209590000Y-70872500D02*
X208810000Y-70872500D01*
X210760000Y-70872500D02*
X210710000Y-70872500D01*
X207640000Y-69352500D02*
X208640000Y-69352500D01*
X209760000Y-69352500D02*
X210760000Y-69352500D01*
X210760000Y-69352500D02*
X210760000Y-70872500D01*
X209150000Y-71652500D02*
X208820000Y-71412500D01*
X209150000Y-71172500D01*
X209150000Y-71652500D01*
G36*
X209150000Y-71652500D02*
G01*
X208820000Y-71412500D01*
X209150000Y-71172500D01*
X209150000Y-71652500D01*
G37*
%TO.C,C17*%
X208409000Y-77664164D02*
X208409000Y-77879836D01*
X209129000Y-77664164D02*
X209129000Y-77879836D01*
%TO.C,C8*%
X210707836Y-80340000D02*
X210492164Y-80340000D01*
X210707836Y-81060000D02*
X210492164Y-81060000D01*
%TO.C,C16*%
X212090000Y-100907836D02*
X212090000Y-100692164D01*
X212810000Y-100907836D02*
X212810000Y-100692164D01*
%TO.C,C3*%
X216392164Y-85990000D02*
X216607836Y-85990000D01*
X216392164Y-86710000D02*
X216607836Y-86710000D01*
%TO.C,J1*%
X206263000Y-60569000D02*
X206263000Y-58669000D01*
X206263000Y-64469000D02*
X206263000Y-62469000D01*
X215663000Y-58669000D02*
X206263000Y-58669000D01*
X215663000Y-60569000D02*
X215663000Y-58669000D01*
X215663000Y-64469000D02*
X215663000Y-62469000D01*
%TO.C,C9*%
X212840000Y-95442164D02*
X212840000Y-95657836D01*
X213560000Y-95442164D02*
X213560000Y-95657836D01*
%TO.C,J3*%
X218784000Y-60578000D02*
X220164000Y-60578000D01*
X218784000Y-61958000D02*
X218784000Y-60578000D01*
X218784000Y-63228000D02*
X218784000Y-111598000D01*
X218784000Y-63228000D02*
X221544000Y-63228000D01*
X218784000Y-111598000D02*
X221544000Y-111598000D01*
X221544000Y-63228000D02*
X221544000Y-111598000D01*
%TO.C,C4*%
X206406836Y-70328000D02*
X206191164Y-70328000D01*
X206406836Y-71048000D02*
X206191164Y-71048000D01*
%TO.C,C10*%
X204840000Y-86242164D02*
X204840000Y-86457836D01*
X205560000Y-86242164D02*
X205560000Y-86457836D01*
%TO.C,C1*%
X210490000Y-79207836D02*
X210490000Y-78992164D01*
X211210000Y-79207836D02*
X211210000Y-78992164D01*
%TO.C,R2*%
X211780000Y-100656359D02*
X211780000Y-100963641D01*
X211020000Y-100656359D02*
X211020000Y-100963641D01*
%TO.C,R7*%
X208463641Y-80820000D02*
X208156359Y-80820000D01*
X208463641Y-81580000D02*
X208156359Y-81580000D01*
%TO.C,C15*%
X208140000Y-96607836D02*
X208140000Y-96392164D01*
X208860000Y-96607836D02*
X208860000Y-96392164D01*
%TO.C,J2*%
X200261000Y-60631000D02*
X201641000Y-60631000D01*
X200261000Y-62011000D02*
X200261000Y-60631000D01*
X200261000Y-63281000D02*
X200261000Y-111651000D01*
X200261000Y-63281000D02*
X203021000Y-63281000D01*
X200261000Y-111651000D02*
X203021000Y-111651000D01*
X203021000Y-63281000D02*
X203021000Y-111651000D01*
%TO.C,C14*%
X204648836Y-67828000D02*
X204433164Y-67828000D01*
X204648836Y-67108000D02*
X204433164Y-67108000D01*
%TO.C,D1*%
X205450000Y-104700000D02*
X205450000Y-108100000D01*
X205450000Y-104700000D02*
X206050000Y-104100000D01*
X211050000Y-104100000D02*
X206050000Y-104100000D01*
X211050000Y-108100000D02*
X205450000Y-108100000D01*
X211050000Y-108100000D02*
X211050000Y-104100000D01*
%TO.C,R5*%
X213370000Y-83996359D02*
X213370000Y-84303641D01*
X214130000Y-83996359D02*
X214130000Y-84303641D01*
%TO.C,C7*%
X206390000Y-89857836D02*
X206390000Y-89642164D01*
X207110000Y-89857836D02*
X207110000Y-89642164D01*
%TO.C,J4*%
X203820000Y-111630000D02*
X203820000Y-110250000D01*
X205200000Y-111630000D02*
X203820000Y-111630000D01*
X206470000Y-108870000D02*
X211660000Y-108870000D01*
X206470000Y-111630000D02*
X206470000Y-108870000D01*
X206470000Y-111630000D02*
X211660000Y-111630000D01*
X211660000Y-111630000D02*
X211660000Y-108870000D01*
%TO.C,Y1*%
X209090000Y-99260000D02*
X212510000Y-99260000D01*
X212510000Y-99260000D02*
X212510000Y-95140000D01*
%TO.C,D2*%
X217650000Y-107750000D02*
X217650000Y-103750000D01*
X217650000Y-107750000D02*
X212050000Y-107750000D01*
X217650000Y-103750000D02*
X212650000Y-103750000D01*
X212050000Y-104350000D02*
X212650000Y-103750000D01*
X212050000Y-104350000D02*
X212050000Y-107750000D01*
%TO.C,C6*%
X206406836Y-68094000D02*
X206191164Y-68094000D01*
X206406836Y-68814000D02*
X206191164Y-68814000D01*
%TO.C,R3*%
X204773000Y-64764641D02*
X204773000Y-64457359D01*
X205533000Y-64764641D02*
X205533000Y-64457359D01*
%TO.C,R4*%
X214420000Y-83996359D02*
X214420000Y-84303641D01*
X215180000Y-83996359D02*
X215180000Y-84303641D01*
%TO.C,C13*%
X210142164Y-77040000D02*
X210357836Y-77040000D01*
X210142164Y-77760000D02*
X210357836Y-77760000D01*
%TO.C,SW1*%
X211830000Y-76980000D02*
X212130000Y-76980000D01*
X211830000Y-81120000D02*
X211830000Y-76980000D01*
X212130000Y-81120000D02*
X211830000Y-81120000D01*
X214670000Y-76980000D02*
X214970000Y-76980000D01*
X214970000Y-76980000D02*
X214970000Y-81120000D01*
X214970000Y-81120000D02*
X214670000Y-81120000D01*
%TO.C,D3*%
X217750000Y-111350000D02*
X217750000Y-107950000D01*
X217750000Y-111350000D02*
X217150000Y-111950000D01*
X212150000Y-111950000D02*
X217150000Y-111950000D01*
X212150000Y-107950000D02*
X217750000Y-107950000D01*
X212150000Y-107950000D02*
X212150000Y-111950000D01*
%TO.C,C5*%
X206415836Y-69222000D02*
X206200164Y-69222000D01*
X206415836Y-69942000D02*
X206200164Y-69942000D01*
%TO.C,U1*%
X207837500Y-85696000D02*
X208487500Y-85696000D01*
X207837500Y-86346000D02*
X207837500Y-85696000D01*
X207837500Y-92916000D02*
X207837500Y-92266000D01*
X208487500Y-92916000D02*
X207837500Y-92916000D01*
X214407500Y-85696000D02*
X215057500Y-85696000D01*
X215057500Y-85696000D02*
X215057500Y-86346000D01*
X215057500Y-92266000D02*
X215057500Y-92916000D01*
X215057500Y-92916000D02*
X214407500Y-92916000D01*
X207307500Y-86706000D02*
X206977500Y-86946000D01*
X206977500Y-86466000D01*
X207307500Y-86706000D01*
G36*
X207307500Y-86706000D02*
G01*
X206977500Y-86946000D01*
X206977500Y-86466000D01*
X207307500Y-86706000D01*
G37*
%TO.C,R1*%
X217239359Y-65849000D02*
X217546641Y-65849000D01*
X217239359Y-66609000D02*
X217546641Y-66609000D01*
%TO.C,R6*%
X206573359Y-85485000D02*
X206880641Y-85485000D01*
X206573359Y-86245000D02*
X206880641Y-86245000D01*
%TD*%
M02*
