%TF.GenerationSoftware,KiCad,Pcbnew,9.0.6*%
%TF.CreationDate,2025-12-07T15:32:32-06:00*%
%TF.ProjectId,Devboard,44657662-6f61-4726-942e-6b696361645f,rev?*%
%TF.SameCoordinates,Original*%
%TF.FileFunction,Copper,L2,Bot*%
%TF.FilePolarity,Positive*%
%FSLAX46Y46*%
G04 Gerber Fmt 4.6, Leading zero omitted, Abs format (unit mm)*
G04 Created by KiCad (PCBNEW 9.0.6) date 2025-12-07 15:32:32*
%MOMM*%
%LPD*%
G01*
G04 APERTURE LIST*
%TA.AperFunction,HeatsinkPad*%
%ADD10O,1.000000X2.100000*%
%TD*%
%TA.AperFunction,HeatsinkPad*%
%ADD11O,1.000000X1.600000*%
%TD*%
%TA.AperFunction,ComponentPad*%
%ADD12R,1.700000X1.700000*%
%TD*%
%TA.AperFunction,ComponentPad*%
%ADD13C,1.700000*%
%TD*%
%TA.AperFunction,ViaPad*%
%ADD14C,0.600000*%
%TD*%
%TA.AperFunction,Conductor*%
%ADD15C,0.180000*%
%TD*%
%TA.AperFunction,Conductor*%
%ADD16C,0.200000*%
%TD*%
G04 APERTURE END LIST*
D10*
%TO.P,J1,S1,SHIELD*%
%TO.N,GND*%
X215283000Y-65699000D03*
D11*
X215283000Y-61519000D03*
D10*
X206643000Y-65699000D03*
D11*
X206643000Y-61519000D03*
%TD*%
D12*
%TO.P,J3,1,Pin_1*%
%TO.N,VBUS*%
X220164000Y-61958000D03*
D13*
%TO.P,J3,2,Pin_2*%
%TO.N,GPIO29_ADC3*%
X220164000Y-64498000D03*
%TO.P,J3,3,Pin_3*%
%TO.N,GND*%
X220164000Y-67038000D03*
%TO.P,J3,4,Pin_4*%
%TO.N,GPIO28_ADC2*%
X220164000Y-69578000D03*
%TO.P,J3,5,Pin_5*%
%TO.N,+3V3*%
X220164000Y-72118000D03*
%TO.P,J3,6,Pin_6*%
%TO.N,GPIO27_ADC1*%
X220164000Y-74658000D03*
%TO.P,J3,7,Pin_7*%
%TO.N,GPIO26_ADC0*%
X220164000Y-77198000D03*
%TO.P,J3,8,Pin_8*%
%TO.N,GND*%
X220164000Y-79738000D03*
%TO.P,J3,9,Pin_9*%
%TO.N,GPIO24*%
X220164000Y-82278000D03*
%TO.P,J3,10,Pin_10*%
%TO.N,GPIO23*%
X220164000Y-84818000D03*
%TO.P,J3,11,Pin_11*%
%TO.N,RUN*%
X220164000Y-87358000D03*
%TO.P,J3,12,Pin_12*%
%TO.N,GPIO22*%
X220164000Y-89898000D03*
%TO.P,J3,13,Pin_13*%
%TO.N,GND*%
X220164000Y-92438000D03*
%TO.P,J3,14,Pin_14*%
%TO.N,GPIO21*%
X220164000Y-94978000D03*
%TO.P,J3,15,Pin_15*%
%TO.N,GPIO20*%
X220164000Y-97518000D03*
%TO.P,J3,16,Pin_16*%
%TO.N,GPIO19*%
X220164000Y-100058000D03*
%TO.P,J3,17,Pin_17*%
%TO.N,GPIO18*%
X220164000Y-102598000D03*
%TO.P,J3,18,Pin_18*%
%TO.N,GND*%
X220164000Y-105138000D03*
%TO.P,J3,19,Pin_19*%
%TO.N,GPIO17*%
X220164000Y-107678000D03*
%TO.P,J3,20,Pin_20*%
%TO.N,GPIO16*%
X220164000Y-110218000D03*
%TD*%
D12*
%TO.P,J2,1,Pin_1*%
%TO.N,GPIO0*%
X201641000Y-62011000D03*
D13*
%TO.P,J2,2,Pin_2*%
%TO.N,GPIO1*%
X201641000Y-64551000D03*
%TO.P,J2,3,Pin_3*%
%TO.N,GND*%
X201641000Y-67091000D03*
%TO.P,J2,4,Pin_4*%
%TO.N,GPIO2*%
X201641000Y-69631000D03*
%TO.P,J2,5,Pin_5*%
%TO.N,GPIO3*%
X201641000Y-72171000D03*
%TO.P,J2,6,Pin_6*%
%TO.N,GPIO4*%
X201641000Y-74711000D03*
%TO.P,J2,7,Pin_7*%
%TO.N,GPIO5*%
X201641000Y-77251000D03*
%TO.P,J2,8,Pin_8*%
%TO.N,GND*%
X201641000Y-79791000D03*
%TO.P,J2,9,Pin_9*%
%TO.N,GPIO6*%
X201641000Y-82331000D03*
%TO.P,J2,10,Pin_10*%
%TO.N,GPIO7*%
X201641000Y-84871000D03*
%TO.P,J2,11,Pin_11*%
%TO.N,GPIO8*%
X201641000Y-87411000D03*
%TO.P,J2,12,Pin_12*%
%TO.N,GPIO9*%
X201641000Y-89951000D03*
%TO.P,J2,13,Pin_13*%
%TO.N,GND*%
X201641000Y-92491000D03*
%TO.P,J2,14,Pin_14*%
%TO.N,GPIO10*%
X201641000Y-95031000D03*
%TO.P,J2,15,Pin_15*%
%TO.N,GPIO11*%
X201641000Y-97571000D03*
%TO.P,J2,16,Pin_16*%
%TO.N,GPIO12*%
X201641000Y-100111000D03*
%TO.P,J2,17,Pin_17*%
%TO.N,GPIO13*%
X201641000Y-102651000D03*
%TO.P,J2,18,Pin_18*%
%TO.N,GND*%
X201641000Y-105191000D03*
%TO.P,J2,19,Pin_19*%
%TO.N,GPIO14*%
X201641000Y-107731000D03*
%TO.P,J2,20,Pin_20*%
%TO.N,GPIO15*%
X201641000Y-110271000D03*
%TD*%
D12*
%TO.P,J4,1,Pin_1*%
%TO.N,SWCLK*%
X205200000Y-110250000D03*
D13*
%TO.P,J4,2,Pin_2*%
%TO.N,GND*%
X207740000Y-110250000D03*
%TO.P,J4,3,Pin_3*%
%TO.N,SWD*%
X210280000Y-110250000D03*
%TD*%
D14*
%TO.N,GND*%
X208900000Y-74975000D03*
X207525000Y-73500000D03*
X215075000Y-111300000D03*
X204018806Y-104518806D03*
X208950000Y-111150000D03*
%TO.N,+3V3*%
X216020000Y-86350000D03*
X218150000Y-90750000D03*
%TO.N,GND*%
X203700000Y-91800000D03*
X205800000Y-92550000D03*
%TO.N,SWD*%
X206300000Y-108500000D03*
%TO.N,GND*%
X204200000Y-85350000D03*
%TO.N,+3V3*%
X204250000Y-84350000D03*
X203650000Y-89150000D03*
%TO.N,GND*%
X208114881Y-84207999D03*
X205108991Y-89441009D03*
X216350000Y-105100000D03*
X211951000Y-96317584D03*
X213211000Y-96084510D03*
X215990806Y-91639194D03*
X215400000Y-81300000D03*
X204750000Y-72100000D03*
X207116891Y-72057174D03*
X204300000Y-68600000D03*
X208350000Y-71200000D03*
X210050000Y-73050000D03*
%TO.N,+1V1*%
X211947970Y-94099457D03*
%TO.N,GND*%
X209950000Y-105300000D03*
X212450000Y-101261000D03*
X209950000Y-98300000D03*
X208450000Y-98800000D03*
X210250000Y-91350000D03*
%TO.N,GPIO29_ADC3*%
X216750000Y-82550000D03*
X216650000Y-87350000D03*
%TO.N,GPIO28_ADC2*%
X216000249Y-88065731D03*
%TO.N,+3V3*%
X216250000Y-97750000D03*
X213200000Y-95070000D03*
%TO.N,GPIO25*%
X209750000Y-103000000D03*
X206500000Y-105225000D03*
X211850000Y-103373265D03*
X213547502Y-89570252D03*
%TO.N,GPIO27_ADC1*%
X213547502Y-88243065D03*
%TO.N,GPIO28_ADC2*%
X217150000Y-88500000D03*
%TO.N,RUN*%
X211776002Y-91405999D03*
%TO.N,GPIO19*%
X213831570Y-91822202D03*
%TO.N,GPIO21*%
X213947500Y-90263073D03*
%TO.N,GPIO20*%
X213545139Y-90954526D03*
%TO.N,GPIO7*%
X209347501Y-89955656D03*
%TO.N,GPIO6*%
X209347501Y-89124018D03*
%TO.N,GPIO5*%
X209327220Y-88127220D03*
%TO.N,GPIO1*%
X209752480Y-86803507D03*
%TO.N,GPIO0*%
X208952478Y-86803489D03*
%TO.N,+3V3*%
X211000000Y-71400000D03*
%TO.N,+1V1*%
X206700000Y-87150000D03*
X211716771Y-86944496D03*
X214900000Y-85650000D03*
%TO.N,SWD*%
X212468825Y-91806000D03*
%TO.N,+3V3*%
X208040500Y-85895888D03*
%TO.N,Net-(D2-DOUT)*%
X216600000Y-106925000D03*
X215000000Y-109750000D03*
%TO.N,Net-(U1-USB_DP)*%
X212927324Y-84518073D03*
%TO.N,+3V3*%
X211847500Y-86155246D03*
X213771356Y-86661065D03*
%TO.N,Net-(J1-CC2)*%
X205153000Y-65121000D03*
X210346386Y-64988000D03*
%TO.N,Net-(U1-USB_DP)*%
X214800000Y-84660000D03*
%TO.N,Net-(R7-Pad1)*%
X209450000Y-81400000D03*
X213400000Y-81150000D03*
%TD*%
D15*
%TO.N,GND*%
X208900000Y-74875000D02*
X208900000Y-74975000D01*
X207525000Y-73500000D02*
X208900000Y-74875000D01*
X208950000Y-110911618D02*
X209139000Y-110722618D01*
X208950000Y-111150000D02*
X208950000Y-110911618D01*
D16*
%TO.N,+3V3*%
X216020000Y-86368280D02*
X216020000Y-86350000D01*
X215399249Y-86989031D02*
X216020000Y-86368280D01*
X215399249Y-88314674D02*
X215399249Y-86989031D01*
X217834575Y-90750000D02*
X215399249Y-88314674D01*
X218150000Y-90750000D02*
X217834575Y-90750000D01*
D15*
%TO.N,GPIO27_ADC1*%
X219847000Y-91297000D02*
X218250000Y-89700000D01*
X219691382Y-91297000D02*
X219847000Y-91297000D01*
X219023000Y-91965382D02*
X219691382Y-91297000D01*
X219691382Y-93579000D02*
X219023000Y-92910618D01*
X220636618Y-93579000D02*
X219691382Y-93579000D01*
X220701401Y-93514217D02*
X220636618Y-93579000D01*
X220924000Y-94124382D02*
X220924000Y-93736816D01*
X219023000Y-92910618D02*
X219023000Y-91965382D01*
X220636618Y-93837000D02*
X220924000Y-94124382D01*
X220924000Y-93736816D02*
X220701401Y-93514217D01*
X219691382Y-93837000D02*
X220636618Y-93837000D01*
X214200000Y-89679772D02*
X214538500Y-90018272D01*
X214200000Y-88950000D02*
X214200000Y-89679772D01*
X215868816Y-90144000D02*
X219626599Y-93901783D01*
X219626599Y-93901783D02*
X219691382Y-93837000D01*
X213547502Y-88297502D02*
X214200000Y-88950000D01*
X214538500Y-90144000D02*
X215868816Y-90144000D01*
X213547502Y-88243065D02*
X213547502Y-88297502D01*
X214538500Y-90018272D02*
X214538500Y-90144000D01*
X219023000Y-89700000D02*
X218250000Y-89700000D01*
X220636618Y-88757000D02*
X219691382Y-88757000D01*
X220636618Y-88499000D02*
X220636618Y-88757000D01*
X221305000Y-86885382D02*
X221305000Y-87830618D01*
X220636618Y-86217000D02*
X221305000Y-86885382D01*
X220545000Y-85959000D02*
X220545000Y-86217000D01*
X220636618Y-85959000D02*
X220545000Y-85959000D01*
X221305000Y-85290618D02*
X220636618Y-85959000D01*
X221305000Y-84345382D02*
X221305000Y-85290618D01*
X220636618Y-83677000D02*
X221305000Y-84345382D01*
X220545000Y-83677000D02*
X220636618Y-83677000D01*
X220545000Y-83419000D02*
X220545000Y-83677000D01*
X220636618Y-83419000D02*
X220545000Y-83419000D01*
X221305000Y-82750618D02*
X220636618Y-83419000D01*
X221305000Y-81805382D02*
X221305000Y-82750618D01*
X220636618Y-81137000D02*
X221305000Y-81805382D01*
X220164000Y-80879000D02*
X220164000Y-81137000D01*
X220545000Y-86217000D02*
X220636618Y-86217000D01*
X220636618Y-80879000D02*
X220164000Y-80879000D01*
X221305000Y-80210618D02*
X220636618Y-80879000D01*
X221305000Y-79265382D02*
X221305000Y-80210618D01*
X220636618Y-78597000D02*
X221305000Y-79265382D01*
X220545000Y-78597000D02*
X220636618Y-78597000D01*
X220545000Y-78378104D02*
X220545000Y-78597000D01*
X220164000Y-81137000D02*
X220636618Y-81137000D01*
X219023000Y-89425382D02*
X219023000Y-89700000D01*
X220636618Y-78339000D02*
X220505897Y-78339000D01*
X220636618Y-76057000D02*
X221305000Y-76725382D01*
X221305000Y-87830618D02*
X220636618Y-88499000D01*
X219691382Y-88757000D02*
X219023000Y-89425382D01*
X220505897Y-78339000D02*
X220545000Y-78378104D01*
X220164000Y-76057000D02*
X220636618Y-76057000D01*
X221305000Y-76725382D02*
X221305000Y-77670618D01*
X221305000Y-77670618D02*
X220636618Y-78339000D01*
X220164000Y-74658000D02*
X220164000Y-76057000D01*
X218250000Y-89700000D02*
X218250000Y-89850000D01*
D16*
%TO.N,+1V1*%
X212024945Y-90804999D02*
X211716771Y-90804999D01*
X212053006Y-90833060D02*
X212024945Y-90804999D01*
X212062066Y-90824000D02*
X212053006Y-90833060D01*
X212182139Y-90824000D02*
X212062066Y-90824000D01*
X212182138Y-89843842D02*
X212182139Y-90824000D01*
X212565502Y-89460478D02*
X212182138Y-89843842D01*
X212565501Y-89163494D02*
X212565502Y-89460478D01*
X212565502Y-88649824D02*
X212822337Y-88906659D01*
X212822337Y-88906659D02*
X212565501Y-89163494D01*
X212565501Y-87836307D02*
X212565502Y-88649824D01*
X213954260Y-87261064D02*
X213140743Y-87261065D01*
X213140743Y-87261065D02*
X212565501Y-87836307D01*
X211716771Y-90804999D02*
X211716771Y-86944496D01*
X214900000Y-86382364D02*
X213987780Y-87294584D01*
X213987780Y-87294584D02*
X213954260Y-87261064D01*
X214900000Y-85650000D02*
X214900000Y-86382364D01*
D15*
%TO.N,RUN*%
X220164000Y-85959000D02*
X220164000Y-87358000D01*
X219023000Y-85290618D02*
X219691382Y-85959000D01*
X219023000Y-84345382D02*
X219023000Y-85290618D01*
X219691382Y-83677000D02*
X219023000Y-84345382D01*
X220164000Y-83677000D02*
X219691382Y-83677000D01*
X220164000Y-83419000D02*
X220164000Y-83677000D01*
X219691382Y-83419000D02*
X220164000Y-83419000D01*
X219023000Y-82750618D02*
X219691382Y-83419000D01*
X219023000Y-78827000D02*
X219023000Y-82750618D01*
X215291001Y-82558999D02*
X219023000Y-78827000D01*
X215291001Y-84315200D02*
X215291001Y-82558999D01*
X215391000Y-84415199D02*
X215291001Y-84315200D01*
X215391000Y-84904801D02*
X215391000Y-84415199D01*
X215291001Y-85205200D02*
X215291001Y-85004800D01*
X215491000Y-85405199D02*
X215291001Y-85205200D01*
X215491000Y-85894801D02*
X215491000Y-85405199D01*
X215291001Y-86544321D02*
X215291001Y-86094800D01*
X215291001Y-85004800D02*
X215391000Y-84904801D01*
X213987780Y-87847542D02*
X215291001Y-86544321D01*
X219691382Y-85959000D02*
X220164000Y-85959000D01*
X213302701Y-87652065D02*
X213792303Y-87652065D01*
X212956502Y-87998264D02*
X213302701Y-87652065D01*
X215291001Y-86094800D02*
X215491000Y-85894801D01*
X212956502Y-88487866D02*
X212956502Y-87998264D01*
X213447888Y-88979252D02*
X212956502Y-88487866D01*
X213302701Y-88979252D02*
X213447888Y-88979252D01*
X212956502Y-89325451D02*
X213302701Y-88979252D01*
X212573139Y-90005799D02*
X212956502Y-89622436D01*
X212956502Y-89622436D02*
X212956502Y-89325451D01*
X213792303Y-87652065D02*
X213987780Y-87847542D01*
X212573139Y-91215000D02*
X212573139Y-90005799D01*
X212224024Y-91215000D02*
X212573139Y-91215000D01*
X212033025Y-91405999D02*
X212224024Y-91215000D01*
X211776002Y-91405999D02*
X212033025Y-91405999D01*
%TO.N,GND*%
X203700000Y-91800000D02*
X203200000Y-91300000D01*
X203200000Y-91050000D02*
X204250000Y-91050000D01*
X203200000Y-91300000D02*
X203200000Y-91050000D01*
X205800000Y-92500000D02*
X205800000Y-92550000D01*
X205750000Y-92450000D02*
X205800000Y-92500000D01*
X209617584Y-96317584D02*
X205750000Y-92450000D01*
X211951000Y-96317584D02*
X209617584Y-96317584D01*
X221350000Y-96100000D02*
X221350000Y-103952000D01*
X221002809Y-95752809D02*
X221350000Y-96100000D01*
X221002809Y-95752809D02*
X220636618Y-96119000D01*
X221350000Y-103952000D02*
X220164000Y-105138000D01*
X216388000Y-105138000D02*
X220164000Y-105138000D01*
X216350000Y-105100000D02*
X216388000Y-105138000D01*
X211951000Y-96317584D02*
X211882416Y-96317584D01*
X211882416Y-96317584D02*
X209950000Y-98250000D01*
X209950000Y-98250000D02*
X209950000Y-98300000D01*
D16*
%TO.N,SWD*%
X202792000Y-98942000D02*
X202344880Y-98494880D01*
X202792000Y-104992000D02*
X202792000Y-98942000D01*
X206300000Y-108500000D02*
X202792000Y-104992000D01*
X202344880Y-98494880D02*
X202117760Y-98722000D01*
X212098668Y-92459000D02*
X212610246Y-91947421D01*
X211938042Y-92459000D02*
X212098668Y-92459000D01*
X211709000Y-92688042D02*
X211938042Y-92459000D01*
X211709000Y-93011958D02*
X211709000Y-92688042D01*
X212196913Y-93498457D02*
X212195499Y-93498457D01*
X212548970Y-93850514D02*
X212196913Y-93498457D01*
X212548970Y-94348400D02*
X212548970Y-93850514D01*
X212951057Y-94469000D02*
X212428370Y-94469000D01*
X212599000Y-95318943D02*
X212599000Y-94821057D01*
X212428370Y-94469000D02*
X212548970Y-94348400D01*
X212200651Y-95717292D02*
X212599000Y-95318943D01*
X209833359Y-93350000D02*
X212200651Y-95717292D01*
X208133473Y-93350000D02*
X209833359Y-93350000D01*
X201164240Y-96182000D02*
X202117760Y-96182000D01*
X201016120Y-96033879D02*
X201164240Y-96182000D01*
X212610246Y-91947421D02*
X212468825Y-91806000D01*
X200351000Y-96698999D02*
X201016120Y-96033879D01*
X200351000Y-97451001D02*
X200351000Y-96698999D01*
X200490000Y-98047760D02*
X200490000Y-97590001D01*
X201164240Y-98722000D02*
X200490000Y-98047760D01*
X202117760Y-98722000D02*
X201164240Y-98722000D01*
X202491718Y-98348042D02*
X202344880Y-98494880D01*
X202643880Y-94406119D02*
X205916736Y-91133263D01*
X212195499Y-93498457D02*
X211709000Y-93011958D01*
X202792000Y-94554240D02*
X202643880Y-94406119D01*
X200490000Y-97590001D02*
X200351000Y-97451001D01*
X212599000Y-94821057D02*
X212951057Y-94469000D01*
X205916736Y-91133263D02*
X208133473Y-93350000D01*
X202792000Y-95507760D02*
X202792000Y-94554240D01*
X202117760Y-96182000D02*
X202792000Y-95507760D01*
D15*
%TO.N,GND*%
X208300000Y-99950000D02*
X209950000Y-98300000D01*
X208300000Y-102409000D02*
X208300000Y-99950000D01*
X210841000Y-102409000D02*
X208300000Y-102409000D01*
X212450000Y-100800000D02*
X210841000Y-102409000D01*
X212450000Y-101261000D02*
X212450000Y-100800000D01*
X213976801Y-111609000D02*
X220164000Y-105421801D01*
X210025382Y-111609000D02*
X213976801Y-111609000D01*
X209139000Y-110722618D02*
X210025382Y-111609000D01*
X209139000Y-109777382D02*
X209139000Y-110722618D01*
X210341000Y-108575382D02*
X209139000Y-109777382D01*
X210341000Y-104191000D02*
X210341000Y-108575382D01*
X209994801Y-103591000D02*
X209741000Y-103591000D01*
X209741000Y-103591000D02*
X210341000Y-104191000D01*
X210341000Y-103244801D02*
X209994801Y-103591000D01*
X210341000Y-102755199D02*
X210341000Y-103244801D01*
X209505199Y-102409000D02*
X209994801Y-102409000D01*
X208769000Y-102619000D02*
X209295199Y-102619000D01*
X209994801Y-102409000D02*
X210341000Y-102755199D01*
X206450000Y-100300000D02*
X208769000Y-102619000D01*
X207950000Y-100300000D02*
X206450000Y-100300000D01*
X209295199Y-102619000D02*
X209505199Y-102409000D01*
X209950000Y-98300000D02*
X207950000Y-100300000D01*
X220164000Y-105421801D02*
X220164000Y-105138000D01*
D16*
%TO.N,+3V3*%
X205200000Y-85200000D02*
X204812946Y-84812946D01*
X204475433Y-85924567D02*
X205200000Y-85200000D01*
X204812946Y-84812946D02*
X204469000Y-84812946D01*
X204459000Y-85924567D02*
X204475433Y-85924567D01*
D15*
%TO.N,GND*%
X204200000Y-85350000D02*
X203796667Y-85350000D01*
X203796667Y-85350000D02*
X201918667Y-83472000D01*
%TO.N,GPIO6*%
X204331000Y-82331000D02*
X201641000Y-82331000D01*
X204750000Y-82750000D02*
X204331000Y-82331000D01*
X205619000Y-82750000D02*
X204750000Y-82750000D01*
X204926000Y-86415183D02*
X205619000Y-85722183D01*
X205965183Y-88924000D02*
X204925999Y-87884815D01*
X205619000Y-85722183D02*
X205619000Y-82750000D01*
X206150000Y-88924000D02*
X205965183Y-88924000D01*
X206150000Y-89108816D02*
X206150000Y-88924000D01*
X204925999Y-87884815D02*
X204926000Y-86415183D01*
X209347501Y-89124018D02*
X206165202Y-89124018D01*
X206165202Y-89124018D02*
X206150000Y-89108816D01*
%TO.N,GPIO5*%
X206000000Y-81610000D02*
X201641000Y-77251000D01*
X205307000Y-86572999D02*
X206000000Y-85879999D01*
X206000000Y-85879999D02*
X206000000Y-81610000D01*
X206122999Y-88543000D02*
X205306999Y-87727000D01*
X208911440Y-88543000D02*
X206122999Y-88543000D01*
X205306999Y-87727000D02*
X205307000Y-86572999D01*
X209327220Y-88127220D02*
X208911440Y-88543000D01*
%TO.N,+3V3*%
X204250000Y-84593946D02*
X204469000Y-84812946D01*
X204250000Y-84350000D02*
X204250000Y-84593946D01*
D16*
X204350000Y-86033567D02*
X204459000Y-85924567D01*
X204350000Y-86400000D02*
X204350000Y-86033567D01*
X203200000Y-87550000D02*
X204350000Y-86400000D01*
X203200000Y-88700000D02*
X203200000Y-87550000D01*
X203650000Y-89150000D02*
X203200000Y-88700000D01*
D15*
%TO.N,GPIO7*%
X205699991Y-89197621D02*
X206458025Y-89955656D01*
X205353792Y-88850009D02*
X205699991Y-89196208D01*
X204742185Y-88819000D02*
X205321368Y-88819000D01*
X204519000Y-89042185D02*
X204742185Y-88819000D01*
X204517991Y-89196208D02*
X204519000Y-89195199D01*
X204517991Y-89685810D02*
X204517991Y-89196208D01*
X204666091Y-89833909D02*
X204517991Y-89685810D01*
X205352377Y-88850009D02*
X205353792Y-88850009D01*
X204614908Y-89885092D02*
X204666091Y-89833909D01*
X204697000Y-89967184D02*
X204614908Y-89885092D01*
X204133184Y-90531000D02*
X204448816Y-90531000D01*
X204051092Y-90448908D02*
X204133184Y-90531000D01*
X203831000Y-90669000D02*
X204051092Y-90448908D01*
X202924186Y-90669000D02*
X203831000Y-90669000D01*
X205321368Y-88819000D02*
X205352377Y-88850009D01*
X205699991Y-89196208D02*
X205699991Y-89197621D01*
X202178401Y-91414783D02*
X202924186Y-90669000D01*
X202113617Y-91350000D02*
X202178401Y-91414783D01*
X202022000Y-91350000D02*
X202113617Y-91350000D01*
X202113618Y-91092000D02*
X202022000Y-91092000D01*
X202782000Y-90423618D02*
X202113618Y-91092000D01*
X202113618Y-88810000D02*
X202782000Y-89478382D01*
X202782000Y-89478382D02*
X202782000Y-90423618D01*
X201641000Y-88810000D02*
X202113618Y-88810000D01*
X201641000Y-88552000D02*
X201641000Y-88810000D01*
X202022000Y-91092000D02*
X202022000Y-91350000D01*
X202782000Y-87883618D02*
X202113618Y-88552000D01*
X202782000Y-86938382D02*
X202782000Y-87883618D01*
X204697000Y-90282816D02*
X204697000Y-89967184D01*
X201641000Y-86270000D02*
X202113618Y-86270000D01*
X206458025Y-89955656D02*
X209347501Y-89955656D01*
X202113618Y-86270000D02*
X202782000Y-86938382D01*
X201641000Y-84871000D02*
X201641000Y-86270000D01*
X202113618Y-88552000D02*
X201641000Y-88552000D01*
X204448816Y-90531000D02*
X204697000Y-90282816D01*
X204519000Y-89195199D02*
X204519000Y-89042185D01*
%TO.N,GND*%
X205000000Y-90950000D02*
X205350000Y-90600000D01*
X204482000Y-91200000D02*
X205000000Y-91200000D01*
X205000000Y-91200000D02*
X205000000Y-90950000D01*
X204291000Y-91009000D02*
X204482000Y-91200000D01*
X204900000Y-89200000D02*
X204900000Y-89491000D01*
X205163553Y-89200000D02*
X204900000Y-89200000D01*
X204900000Y-89491000D02*
X205350000Y-89941000D01*
X205350000Y-89941000D02*
X205350000Y-90600000D01*
X205331777Y-89368223D02*
X205163553Y-89200000D01*
X204250000Y-91050000D02*
X204291000Y-91009000D01*
X202336217Y-91795783D02*
X203082001Y-91050000D01*
X203082001Y-91050000D02*
X203200000Y-91050000D01*
X202020585Y-91795783D02*
X202336217Y-91795783D01*
X201955802Y-91731000D02*
X202020585Y-91795783D01*
X201641000Y-91507815D02*
X201864185Y-91731000D01*
X201864185Y-91731000D02*
X201955802Y-91731000D01*
X201641000Y-92491000D02*
X201641000Y-91507815D01*
X201918667Y-83472000D02*
X201168382Y-83472000D01*
X201168382Y-83472000D02*
X200500000Y-82803618D01*
X200500000Y-85343618D02*
X200500000Y-82803618D01*
X201168382Y-86012000D02*
X200500000Y-85343618D01*
X201168382Y-86270000D02*
X201168382Y-86012000D01*
X200500000Y-86938382D02*
X201168382Y-86270000D01*
X200500000Y-87883618D02*
X200500000Y-86938382D01*
X201168382Y-88552000D02*
X200500000Y-87883618D01*
X201168382Y-88810000D02*
X201168382Y-88552000D01*
X200500000Y-89478382D02*
X201168382Y-88810000D01*
X200500000Y-90423618D02*
X200500000Y-89478382D01*
X201168382Y-91092000D02*
X200500000Y-90423618D01*
X201641000Y-91092000D02*
X201168382Y-91092000D01*
X201641000Y-92491000D02*
X201641000Y-91092000D01*
X200500000Y-78650000D02*
X201641000Y-79791000D01*
X200500000Y-76778382D02*
X200500000Y-78650000D01*
X201168382Y-76110000D02*
X200500000Y-76778382D01*
X202113618Y-76110000D02*
X201168382Y-76110000D01*
X208114881Y-84207999D02*
X208114881Y-82111263D01*
X208114881Y-82111263D02*
X202113618Y-76110000D01*
D16*
%TO.N,GPIO1*%
X206284957Y-88152000D02*
X208453910Y-88152000D01*
X208453910Y-88152000D02*
X209752480Y-86853430D01*
X205698000Y-87565043D02*
X206284957Y-88152000D01*
X205698000Y-86734957D02*
X205698000Y-87565043D01*
X207482957Y-84950000D02*
X205698000Y-86734957D01*
X207569345Y-84950000D02*
X207482957Y-84950000D01*
X208008331Y-84807999D02*
X207922442Y-84893888D01*
X209199000Y-82402000D02*
X209199000Y-84808000D01*
X209034957Y-82402000D02*
X209199000Y-82402000D01*
X209034957Y-80398000D02*
X208448000Y-80984957D01*
X208448000Y-81815043D02*
X209034957Y-82402000D01*
X209199000Y-84808000D02*
X208008331Y-84807999D01*
X209199000Y-76849000D02*
X209199000Y-80398000D01*
X208448000Y-80984957D02*
X208448000Y-81815043D01*
X206300000Y-73950000D02*
X209199000Y-76849000D01*
X206300000Y-69210000D02*
X206300000Y-73950000D01*
X207625457Y-84893888D02*
X207569345Y-84950000D01*
X209752480Y-86853430D02*
X209752480Y-86803507D01*
X201641000Y-64551000D02*
X206300000Y-69210000D01*
X209199000Y-80398000D02*
X209034957Y-80398000D01*
X207922442Y-84893888D02*
X207625457Y-84893888D01*
D15*
%TO.N,GND*%
X205258991Y-89441009D02*
X205108991Y-89441009D01*
X205331777Y-89368223D02*
X205258991Y-89441009D01*
X206300209Y-90336656D02*
X205331777Y-89368223D01*
X206886656Y-90336656D02*
X206300209Y-90336656D01*
X207096656Y-90546656D02*
X206886656Y-90336656D01*
X209446656Y-90546656D02*
X207096656Y-90546656D01*
X210250000Y-91350000D02*
X209446656Y-90546656D01*
D16*
%TO.N,+3V3*%
X213570000Y-95070000D02*
X216250000Y-97750000D01*
X213200000Y-95070000D02*
X213570000Y-95070000D01*
D15*
%TO.N,GND*%
X211950000Y-96316584D02*
X211951000Y-96317584D01*
X213211000Y-96084510D02*
X213045510Y-96250000D01*
X213045510Y-96250000D02*
X211950000Y-96250000D01*
X211950000Y-96250000D02*
X211950000Y-96316584D01*
X220636618Y-96119000D02*
X219669000Y-96119000D01*
X215990806Y-92440806D02*
X215990806Y-91639194D01*
X221305000Y-95450618D02*
X221002809Y-95752809D01*
X221305000Y-93579000D02*
X221305000Y-95450618D01*
X220164000Y-92438000D02*
X221305000Y-93579000D01*
X219669000Y-96119000D02*
X215990806Y-92440806D01*
X218254000Y-78446000D02*
X215400000Y-81300000D01*
X220074081Y-78446000D02*
X218254000Y-78446000D01*
X220164000Y-78535919D02*
X220074081Y-78446000D01*
X220164000Y-79738000D02*
X220164000Y-78535919D01*
X207400000Y-72300000D02*
X207157174Y-72057174D01*
X207157174Y-72057174D02*
X207116891Y-72057174D01*
X208350000Y-71200000D02*
X208350000Y-71350000D01*
X208350000Y-71350000D02*
X207400000Y-72300000D01*
D16*
%TO.N,GPIO0*%
X204552000Y-65369943D02*
X204552000Y-64922000D01*
X204904057Y-65722000D02*
X204552000Y-65369943D01*
X205352000Y-65722000D02*
X204904057Y-65722000D01*
X205842000Y-66212000D02*
X205352000Y-65722000D01*
X205842000Y-66580785D02*
X205842000Y-66212000D01*
X204552000Y-64922000D02*
X201641000Y-62011000D01*
X206680000Y-67050000D02*
X206311215Y-67050000D01*
X209600000Y-69970000D02*
X206680000Y-67050000D01*
X209449000Y-72801057D02*
X209600000Y-72650057D01*
X209600000Y-73449943D02*
X209449000Y-73298943D01*
X209600000Y-80799000D02*
X209600000Y-73449943D01*
X209201057Y-80799000D02*
X209600000Y-80799000D01*
X208849000Y-81648943D02*
X208849000Y-81151057D01*
X209201057Y-82001000D02*
X208849000Y-81648943D01*
X209600000Y-82001000D02*
X209201057Y-82001000D01*
X209600000Y-72650057D02*
X209600000Y-69970000D01*
X209600000Y-85209000D02*
X209600000Y-82001000D01*
X208174431Y-85208999D02*
X209600000Y-85209000D01*
X208849000Y-81151057D02*
X209201057Y-80799000D01*
X208088542Y-85294888D02*
X208174431Y-85208999D01*
X207791557Y-85294888D02*
X208088542Y-85294888D01*
X206311215Y-67050000D02*
X205842000Y-66580785D01*
X207439500Y-85646945D02*
X207791557Y-85294888D01*
X207439500Y-85876665D02*
X207439500Y-85646945D01*
X209449000Y-73298943D02*
X209449000Y-72801057D01*
X207406237Y-85876665D02*
X207439500Y-85876665D01*
X206099000Y-87398943D02*
X206099000Y-86901057D01*
X206099000Y-86901057D02*
X206451057Y-86549000D01*
X206451057Y-87751000D02*
X206099000Y-87398943D01*
X208004967Y-87751000D02*
X206451057Y-87751000D01*
X206733900Y-86549000D02*
X207406237Y-85876665D01*
X208952478Y-86803489D02*
X208004967Y-87751000D01*
X206451057Y-86549000D02*
X206733900Y-86549000D01*
D15*
%TO.N,GND*%
X210050000Y-73050000D02*
X210050000Y-69106000D01*
X210050000Y-69106000D02*
X206643000Y-65699000D01*
%TO.N,+1V1*%
X210969000Y-87692267D02*
X211716771Y-86944496D01*
X210969000Y-93120487D02*
X210969000Y-87692267D01*
X211947970Y-94099457D02*
X210969000Y-93120487D01*
%TO.N,GND*%
X209950000Y-103761000D02*
X212450000Y-101261000D01*
X209950000Y-105300000D02*
X209950000Y-103761000D01*
%TO.N,GPIO25*%
X214850000Y-100373265D02*
X211850000Y-103373265D01*
X215659000Y-97711958D02*
X214850000Y-96902958D01*
X216005199Y-98341000D02*
X215659000Y-97994801D01*
X216494801Y-98341000D02*
X216005199Y-98341000D01*
X216841000Y-97994801D02*
X216494801Y-98341000D01*
X216841000Y-97505199D02*
X216841000Y-97994801D01*
X216494801Y-97159000D02*
X216841000Y-97505199D01*
X216211958Y-97159000D02*
X216494801Y-97159000D01*
X214850000Y-95797042D02*
X216211958Y-97159000D01*
X212100000Y-92850000D02*
X214850000Y-95600000D01*
X214850000Y-96902958D02*
X214850000Y-100373265D01*
X212260626Y-92850000D02*
X212100000Y-92850000D01*
X213059825Y-92050801D02*
X212260626Y-92850000D01*
X213059825Y-91561199D02*
X213059825Y-92050801D01*
X214850000Y-95600000D02*
X214850000Y-95797042D01*
X212954139Y-90163615D02*
X212954139Y-91455513D01*
X215659000Y-97994801D02*
X215659000Y-97711958D01*
X212954139Y-91455513D02*
X213059825Y-91561199D01*
X213547502Y-89570252D02*
X212954139Y-90163615D01*
%TO.N,GND*%
X209450000Y-98800000D02*
X209950000Y-98300000D01*
X208450000Y-98800000D02*
X209450000Y-98800000D01*
X200500000Y-82803618D02*
X200500000Y-80932000D01*
X200500000Y-80932000D02*
X201641000Y-79791000D01*
%TO.N,GPIO29_ADC3*%
X218025000Y-86775000D02*
X218025000Y-83825000D01*
X218025000Y-86775000D02*
X218150000Y-86650000D01*
X218025000Y-83825000D02*
X216750000Y-82550000D01*
X217450000Y-87350000D02*
X218025000Y-86775000D01*
X216650000Y-87350000D02*
X217450000Y-87350000D01*
%TO.N,GPIO28_ADC2*%
X216715731Y-88065731D02*
X217150000Y-88500000D01*
X216000249Y-88065731D02*
X216715731Y-88065731D01*
%TO.N,GPIO25*%
X209750000Y-103000000D02*
X208725000Y-103000000D01*
X208725000Y-103000000D02*
X206500000Y-105225000D01*
%TO.N,GPIO21*%
X214222502Y-90525000D02*
X215711000Y-90525000D01*
X213960575Y-90263073D02*
X214222502Y-90525000D01*
X215711000Y-90525000D02*
X220164000Y-94978000D01*
X213947500Y-90263073D02*
X213960575Y-90263073D01*
%TO.N,GPIO20*%
X220164000Y-97318831D02*
X220164000Y-97518000D01*
X214076371Y-91231202D02*
X220164000Y-97318831D01*
X213821815Y-91231202D02*
X214076371Y-91231202D01*
X213545139Y-90954526D02*
X213821815Y-91231202D01*
D16*
%TO.N,+1V1*%
X208289443Y-86496888D02*
X208641500Y-86144831D01*
X207572335Y-86277665D02*
X207791557Y-86496888D01*
X207791557Y-86496888D02*
X208289443Y-86496888D01*
X208641500Y-86144831D02*
X208641500Y-85991000D01*
X210763275Y-85991000D02*
X211716771Y-86944496D01*
X206700000Y-87150000D02*
X207572335Y-86277665D01*
X208641500Y-85991000D02*
X210763275Y-85991000D01*
D15*
%TO.N,+3V3*%
X208336388Y-85600000D02*
X208040500Y-85895888D01*
X211605246Y-86155246D02*
X211050000Y-85600000D01*
X211050000Y-85600000D02*
X208336388Y-85600000D01*
X211847500Y-86155246D02*
X211605246Y-86155246D01*
D16*
X211000000Y-71400000D02*
X211718000Y-72118000D01*
X211718000Y-72118000D02*
X220164000Y-72118000D01*
%TO.N,Net-(D2-DOUT)*%
X216225000Y-107300000D02*
X216600000Y-106925000D01*
X214900000Y-107300000D02*
X216225000Y-107300000D01*
X214900000Y-109650000D02*
X214900000Y-107300000D01*
X215000000Y-109750000D02*
X214900000Y-109650000D01*
D15*
%TO.N,Net-(U1-USB_DP)*%
X212927324Y-84643164D02*
X212944160Y-84660000D01*
X212927324Y-84518073D02*
X212927324Y-84643164D01*
X212994160Y-84660000D02*
X214800000Y-84660000D01*
%TO.N,+3V3*%
X213265537Y-86155246D02*
X213771356Y-86661065D01*
X211847500Y-86155246D02*
X213265537Y-86155246D01*
%TO.N,Net-(U1-USB_DP)*%
X212770058Y-84505555D02*
X212874503Y-84610000D01*
%TO.N,Net-(J1-CC2)*%
X205916000Y-64358000D02*
X205153000Y-65121000D01*
X209716386Y-64358000D02*
X205916000Y-64358000D01*
X210346386Y-64988000D02*
X209716386Y-64358000D01*
%TO.N,Net-(U1-USB_DP)*%
X214790000Y-84650000D02*
X214800000Y-84660000D01*
%TO.N,Net-(R7-Pad1)*%
X213150000Y-81400000D02*
X213400000Y-81150000D01*
X209450000Y-81400000D02*
X213150000Y-81400000D01*
%TO.N,GPIO19*%
X220164000Y-100058000D02*
X213831570Y-93725570D01*
X213831570Y-93725570D02*
X213831570Y-91822202D01*
%TD*%
%TA.AperFunction,Conductor*%
%TO.N,GND*%
G36*
X202756270Y-105952717D02*
G01*
X202776711Y-105951108D01*
X202788201Y-105942247D01*
X202857814Y-105936263D01*
X202919612Y-105968864D01*
X202920879Y-105970114D01*
X205465425Y-108514660D01*
X205474285Y-108530887D01*
X205487216Y-108544102D01*
X205497982Y-108574284D01*
X205498910Y-108575983D01*
X205499190Y-108577303D01*
X205499500Y-108578806D01*
X205499500Y-108578842D01*
X205530263Y-108733497D01*
X205532511Y-108738925D01*
X205534890Y-108750462D01*
X205532930Y-108774225D01*
X205535396Y-108797944D01*
X205530110Y-108808410D01*
X205529147Y-108820095D01*
X205514650Y-108839027D01*
X205503902Y-108860313D01*
X205493798Y-108866259D01*
X205486670Y-108875570D01*
X205464237Y-108883659D01*
X205443689Y-108895755D01*
X205423906Y-108898204D01*
X205420944Y-108899273D01*
X205418955Y-108898817D01*
X205413444Y-108899500D01*
X204302129Y-108899500D01*
X204302123Y-108899501D01*
X204242516Y-108905908D01*
X204107671Y-108956202D01*
X204107664Y-108956206D01*
X203992455Y-109042452D01*
X203992452Y-109042455D01*
X203906206Y-109157664D01*
X203906202Y-109157671D01*
X203855908Y-109292517D01*
X203849501Y-109352116D01*
X203849500Y-109352135D01*
X203849500Y-111147870D01*
X203849501Y-111147876D01*
X203855908Y-111207483D01*
X203906202Y-111342328D01*
X203906206Y-111342335D01*
X203992452Y-111457544D01*
X203992453Y-111457544D01*
X203992454Y-111457546D01*
X204008499Y-111469557D01*
X204017418Y-111476234D01*
X204059288Y-111532168D01*
X204064272Y-111601860D01*
X204030786Y-111663182D01*
X203969462Y-111696667D01*
X203943106Y-111699500D01*
X202328640Y-111699500D01*
X202261601Y-111679815D01*
X202215846Y-111627011D01*
X202205902Y-111557853D01*
X202234927Y-111494297D01*
X202272345Y-111465015D01*
X202287007Y-111457544D01*
X202348816Y-111426051D01*
X202464052Y-111342328D01*
X202520786Y-111301109D01*
X202520788Y-111301106D01*
X202520792Y-111301104D01*
X202671104Y-111150792D01*
X202671106Y-111150788D01*
X202671109Y-111150786D01*
X202796048Y-110978820D01*
X202796047Y-110978820D01*
X202796051Y-110978816D01*
X202892557Y-110789412D01*
X202958246Y-110587243D01*
X202991500Y-110377287D01*
X202991500Y-110164713D01*
X202958246Y-109954757D01*
X202892557Y-109752588D01*
X202796051Y-109563184D01*
X202796049Y-109563181D01*
X202796048Y-109563179D01*
X202671109Y-109391213D01*
X202520786Y-109240890D01*
X202348820Y-109115951D01*
X202348115Y-109115591D01*
X202340054Y-109111485D01*
X202289259Y-109063512D01*
X202272463Y-108995692D01*
X202294999Y-108929556D01*
X202340054Y-108890515D01*
X202348816Y-108886051D01*
X202388021Y-108857567D01*
X202520786Y-108761109D01*
X202520788Y-108761106D01*
X202520792Y-108761104D01*
X202671104Y-108610792D01*
X202671106Y-108610788D01*
X202671109Y-108610786D01*
X202796048Y-108438820D01*
X202796047Y-108438820D01*
X202796051Y-108438816D01*
X202892557Y-108249412D01*
X202958246Y-108047243D01*
X202991500Y-107837287D01*
X202991500Y-107624713D01*
X202958246Y-107414757D01*
X202892557Y-107212588D01*
X202796051Y-107023184D01*
X202796049Y-107023181D01*
X202796048Y-107023179D01*
X202671109Y-106851213D01*
X202520786Y-106700890D01*
X202348817Y-106575949D01*
X202339504Y-106571204D01*
X202288707Y-106523230D01*
X202271912Y-106455409D01*
X202294449Y-106389274D01*
X202339507Y-106350232D01*
X202348555Y-106345622D01*
X202402716Y-106306270D01*
X202402717Y-106306270D01*
X201770408Y-105673962D01*
X201833993Y-105656925D01*
X201948007Y-105591099D01*
X202041099Y-105498007D01*
X202106925Y-105383993D01*
X202123962Y-105320408D01*
X202756270Y-105952717D01*
G37*
%TD.AperFunction*%
%TA.AperFunction,Conductor*%
G36*
X207274075Y-110442993D02*
G01*
X207339901Y-110557007D01*
X207432993Y-110650099D01*
X207547007Y-110715925D01*
X207610590Y-110732962D01*
X206978282Y-111365269D01*
X206978282Y-111365270D01*
X207032450Y-111404624D01*
X207150971Y-111465015D01*
X207201767Y-111512990D01*
X207218562Y-111580811D01*
X207196024Y-111646946D01*
X207141309Y-111690397D01*
X207094676Y-111699500D01*
X206456894Y-111699500D01*
X206389855Y-111679815D01*
X206344100Y-111627011D01*
X206334156Y-111557853D01*
X206363181Y-111494297D01*
X206382582Y-111476234D01*
X206391501Y-111469557D01*
X206407546Y-111457546D01*
X206493796Y-111342331D01*
X206544091Y-111207483D01*
X206550500Y-111147873D01*
X206550499Y-111137312D01*
X206570179Y-111070275D01*
X206586818Y-111049626D01*
X207257037Y-110379408D01*
X207274075Y-110442993D01*
G37*
%TD.AperFunction*%
%TA.AperFunction,Conductor*%
G36*
X208855270Y-111011717D02*
G01*
X208855270Y-111011716D01*
X208894622Y-110957555D01*
X208899232Y-110948507D01*
X208947205Y-110897709D01*
X209015025Y-110880912D01*
X209081161Y-110903447D01*
X209120204Y-110948504D01*
X209124949Y-110957817D01*
X209249890Y-111129786D01*
X209400213Y-111280109D01*
X209528135Y-111373048D01*
X209572184Y-111405051D01*
X209675211Y-111457546D01*
X209689870Y-111465015D01*
X209740666Y-111512990D01*
X209757461Y-111580811D01*
X209734924Y-111646946D01*
X209680208Y-111690397D01*
X209633575Y-111699500D01*
X208385324Y-111699500D01*
X208318285Y-111679815D01*
X208272530Y-111627011D01*
X208262586Y-111557853D01*
X208291611Y-111494297D01*
X208329029Y-111465015D01*
X208447554Y-111404622D01*
X208501716Y-111365270D01*
X208501717Y-111365270D01*
X207869408Y-110732962D01*
X207932993Y-110715925D01*
X208047007Y-110650099D01*
X208140099Y-110557007D01*
X208205925Y-110442993D01*
X208222962Y-110379408D01*
X208855270Y-111011717D01*
G37*
%TD.AperFunction*%
%TA.AperFunction,Conductor*%
G36*
X205960069Y-92041678D02*
G01*
X206004416Y-92070179D01*
X207764757Y-93830520D01*
X207764759Y-93830521D01*
X207764763Y-93830524D01*
X207843443Y-93875949D01*
X207901689Y-93909577D01*
X208054416Y-93950501D01*
X208054418Y-93950501D01*
X208220127Y-93950501D01*
X208220143Y-93950500D01*
X209533262Y-93950500D01*
X209600301Y-93970185D01*
X209620943Y-93986819D01*
X211720132Y-96086008D01*
X211831935Y-96197811D01*
X211968866Y-96276869D01*
X212121594Y-96317793D01*
X212121597Y-96317793D01*
X212279705Y-96317793D01*
X212279708Y-96317793D01*
X212432436Y-96276869D01*
X212569367Y-96197811D01*
X212887056Y-95880121D01*
X212948377Y-95846638D01*
X212998926Y-95846187D01*
X213121153Y-95870499D01*
X213121156Y-95870500D01*
X213121158Y-95870500D01*
X213278844Y-95870500D01*
X213416038Y-95843210D01*
X213485630Y-95849437D01*
X213527911Y-95877146D01*
X214254625Y-96603860D01*
X214288110Y-96665183D01*
X214286719Y-96723634D01*
X214259500Y-96825217D01*
X214259500Y-100077310D01*
X214239815Y-100144349D01*
X214223181Y-100164991D01*
X211851614Y-102536557D01*
X211790291Y-102570042D01*
X211776091Y-102572278D01*
X211771160Y-102572763D01*
X211616510Y-102603526D01*
X211616498Y-102603529D01*
X211470827Y-102663867D01*
X211470814Y-102663874D01*
X211339711Y-102751475D01*
X211339707Y-102751478D01*
X211228213Y-102862972D01*
X211228210Y-102862976D01*
X211140609Y-102994079D01*
X211140602Y-102994092D01*
X211080264Y-103139763D01*
X211080261Y-103139775D01*
X211049500Y-103294418D01*
X211049500Y-103452111D01*
X211080261Y-103606754D01*
X211080264Y-103606766D01*
X211140602Y-103752437D01*
X211140609Y-103752450D01*
X211228210Y-103883553D01*
X211228213Y-103883557D01*
X211339707Y-103995051D01*
X211339711Y-103995054D01*
X211470814Y-104082655D01*
X211470827Y-104082662D01*
X211616498Y-104143000D01*
X211616503Y-104143002D01*
X211771153Y-104173764D01*
X211771156Y-104173765D01*
X211771158Y-104173765D01*
X211928844Y-104173765D01*
X211928845Y-104173764D01*
X212083497Y-104143002D01*
X212229179Y-104082659D01*
X212360289Y-103995054D01*
X212471789Y-103883554D01*
X212559394Y-103752444D01*
X212619737Y-103606762D01*
X212650500Y-103452107D01*
X212650500Y-103452097D01*
X212650984Y-103447185D01*
X212677141Y-103382396D01*
X212686698Y-103371659D01*
X215322518Y-100735840D01*
X215400258Y-100601189D01*
X215418820Y-100531914D01*
X215440500Y-100451006D01*
X215440500Y-98909870D01*
X215460185Y-98842831D01*
X215512989Y-98797076D01*
X215582147Y-98787132D01*
X215635496Y-98809605D01*
X215635584Y-98809454D01*
X215636789Y-98810149D01*
X215639992Y-98811499D01*
X215642621Y-98813516D01*
X215642623Y-98813518D01*
X215777274Y-98891258D01*
X215793142Y-98895510D01*
X215809009Y-98899762D01*
X215809010Y-98899762D01*
X215820912Y-98902951D01*
X215927458Y-98931500D01*
X215927460Y-98931500D01*
X216572540Y-98931500D01*
X216572542Y-98931500D01*
X216690988Y-98899762D01*
X216722726Y-98891258D01*
X216857376Y-98813518D01*
X217313518Y-98357377D01*
X217347930Y-98297773D01*
X217398495Y-98249557D01*
X217467102Y-98236333D01*
X217531967Y-98262300D01*
X217542998Y-98272091D01*
X218833709Y-99562802D01*
X218867194Y-99624125D01*
X218863960Y-99688799D01*
X218846753Y-99741757D01*
X218828500Y-99857007D01*
X218813500Y-99951713D01*
X218813500Y-100164287D01*
X218846754Y-100374243D01*
X218871695Y-100451004D01*
X218912444Y-100576414D01*
X219008951Y-100765820D01*
X219133890Y-100937786D01*
X219284213Y-101088109D01*
X219456182Y-101213050D01*
X219464946Y-101217516D01*
X219515742Y-101265491D01*
X219532536Y-101333312D01*
X219509998Y-101399447D01*
X219464946Y-101438484D01*
X219456182Y-101442949D01*
X219284213Y-101567890D01*
X219133890Y-101718213D01*
X219008951Y-101890179D01*
X218912444Y-102079585D01*
X218846753Y-102281760D01*
X218813818Y-102489707D01*
X218813500Y-102491713D01*
X218813500Y-102704287D01*
X218846754Y-102914243D01*
X218900236Y-103078844D01*
X218912444Y-103116414D01*
X219008951Y-103305820D01*
X219133890Y-103477786D01*
X219284213Y-103628109D01*
X219456179Y-103753048D01*
X219456181Y-103753049D01*
X219456184Y-103753051D01*
X219465493Y-103757794D01*
X219516290Y-103805766D01*
X219533087Y-103873587D01*
X219510552Y-103939722D01*
X219465505Y-103978760D01*
X219456446Y-103983376D01*
X219456440Y-103983380D01*
X219402282Y-104022727D01*
X219402282Y-104022728D01*
X220034591Y-104655037D01*
X219971007Y-104672075D01*
X219856993Y-104737901D01*
X219763901Y-104830993D01*
X219698075Y-104945007D01*
X219681037Y-105008591D01*
X219048728Y-104376282D01*
X219048727Y-104376282D01*
X219009380Y-104430439D01*
X218912904Y-104619782D01*
X218847242Y-104821869D01*
X218847242Y-104821872D01*
X218814000Y-105031753D01*
X218814000Y-105244246D01*
X218847242Y-105454127D01*
X218847242Y-105454130D01*
X218912904Y-105656217D01*
X219009375Y-105845550D01*
X219048728Y-105899716D01*
X219681037Y-105267408D01*
X219698075Y-105330993D01*
X219763901Y-105445007D01*
X219856993Y-105538099D01*
X219971007Y-105603925D01*
X220034590Y-105620962D01*
X219402282Y-106253269D01*
X219402282Y-106253270D01*
X219456452Y-106292626D01*
X219456451Y-106292626D01*
X219465495Y-106297234D01*
X219516292Y-106345208D01*
X219533087Y-106413029D01*
X219510550Y-106479164D01*
X219465499Y-106518202D01*
X219456182Y-106522949D01*
X219284213Y-106647890D01*
X219133890Y-106798213D01*
X219008951Y-106970179D01*
X218912444Y-107159585D01*
X218846753Y-107361760D01*
X218813500Y-107571713D01*
X218813500Y-107784286D01*
X218846753Y-107994239D01*
X218912444Y-108196414D01*
X219008951Y-108385820D01*
X219133890Y-108557786D01*
X219284213Y-108708109D01*
X219456182Y-108833050D01*
X219464946Y-108837516D01*
X219515742Y-108885491D01*
X219532536Y-108953312D01*
X219509998Y-109019447D01*
X219464946Y-109058484D01*
X219456182Y-109062949D01*
X219284213Y-109187890D01*
X219133890Y-109338213D01*
X219008951Y-109510179D01*
X218912444Y-109699585D01*
X218912443Y-109699587D01*
X218912443Y-109699588D01*
X218905368Y-109721362D01*
X218846753Y-109901760D01*
X218813500Y-110111713D01*
X218813500Y-110324286D01*
X218844456Y-110519738D01*
X218846754Y-110534243D01*
X218905786Y-110715925D01*
X218912444Y-110736414D01*
X219008951Y-110925820D01*
X219133890Y-111097786D01*
X219284213Y-111248109D01*
X219456179Y-111373048D01*
X219456181Y-111373049D01*
X219456184Y-111373051D01*
X219518146Y-111404622D01*
X219636674Y-111465015D01*
X219687470Y-111512989D01*
X219704265Y-111580810D01*
X219681728Y-111646945D01*
X219627013Y-111690397D01*
X219580379Y-111699500D01*
X210926425Y-111699500D01*
X210859386Y-111679815D01*
X210813631Y-111627011D01*
X210803687Y-111557853D01*
X210832712Y-111494297D01*
X210870130Y-111465015D01*
X210876648Y-111461693D01*
X210987816Y-111405051D01*
X211130888Y-111301104D01*
X211159786Y-111280109D01*
X211159788Y-111280106D01*
X211159792Y-111280104D01*
X211310104Y-111129792D01*
X211310106Y-111129788D01*
X211310109Y-111129786D01*
X211435048Y-110957820D01*
X211435050Y-110957817D01*
X211435051Y-110957816D01*
X211531557Y-110768412D01*
X211597246Y-110566243D01*
X211630500Y-110356287D01*
X211630500Y-110143713D01*
X211597246Y-109933757D01*
X211531557Y-109731588D01*
X211531555Y-109731585D01*
X211531555Y-109731583D01*
X211526347Y-109721362D01*
X211526346Y-109721361D01*
X211500764Y-109671153D01*
X214199500Y-109671153D01*
X214199500Y-109828846D01*
X214230261Y-109983489D01*
X214230264Y-109983501D01*
X214290602Y-110129172D01*
X214290609Y-110129185D01*
X214378210Y-110260288D01*
X214378213Y-110260292D01*
X214489707Y-110371786D01*
X214489711Y-110371789D01*
X214620814Y-110459390D01*
X214620827Y-110459397D01*
X214766498Y-110519735D01*
X214766503Y-110519737D01*
X214921153Y-110550499D01*
X214921156Y-110550500D01*
X214921158Y-110550500D01*
X215078844Y-110550500D01*
X215078845Y-110550499D01*
X215233497Y-110519737D01*
X215379179Y-110459394D01*
X215510289Y-110371789D01*
X215621789Y-110260289D01*
X215709394Y-110129179D01*
X215769737Y-109983497D01*
X215800500Y-109828842D01*
X215800500Y-109671158D01*
X215800500Y-109671155D01*
X215800499Y-109671153D01*
X215779848Y-109567336D01*
X215769737Y-109516503D01*
X215767118Y-109510179D01*
X215709397Y-109370827D01*
X215709390Y-109370814D01*
X215621789Y-109239711D01*
X215621786Y-109239707D01*
X215536819Y-109154740D01*
X215503334Y-109093417D01*
X215500500Y-109067059D01*
X215500500Y-108024500D01*
X215520185Y-107957461D01*
X215572989Y-107911706D01*
X215624500Y-107900500D01*
X216138331Y-107900500D01*
X216138347Y-107900501D01*
X216145943Y-107900501D01*
X216304054Y-107900501D01*
X216304057Y-107900501D01*
X216456785Y-107859577D01*
X216508808Y-107829541D01*
X216593716Y-107780520D01*
X216622889Y-107751346D01*
X216632495Y-107744798D01*
X216655114Y-107737483D01*
X216675983Y-107726088D01*
X216678152Y-107725637D01*
X216678841Y-107725500D01*
X216678842Y-107725500D01*
X216833497Y-107694737D01*
X216979179Y-107634394D01*
X217110289Y-107546789D01*
X217221789Y-107435289D01*
X217309394Y-107304179D01*
X217369737Y-107158497D01*
X217400500Y-107003842D01*
X217400500Y-106846158D01*
X217400500Y-106846155D01*
X217400499Y-106846153D01*
X217371604Y-106700890D01*
X217369737Y-106691503D01*
X217351672Y-106647890D01*
X217309397Y-106545827D01*
X217309390Y-106545814D01*
X217221789Y-106414711D01*
X217221786Y-106414707D01*
X217110292Y-106303213D01*
X217110288Y-106303210D01*
X216979185Y-106215609D01*
X216979172Y-106215602D01*
X216833501Y-106155264D01*
X216833489Y-106155261D01*
X216678845Y-106124500D01*
X216678842Y-106124500D01*
X216521158Y-106124500D01*
X216521155Y-106124500D01*
X216366510Y-106155261D01*
X216366498Y-106155264D01*
X216220827Y-106215602D01*
X216220814Y-106215609D01*
X216089711Y-106303210D01*
X216089707Y-106303213D01*
X215978213Y-106414707D01*
X215978210Y-106414711D01*
X215890609Y-106545814D01*
X215890602Y-106545827D01*
X215858657Y-106622952D01*
X215814816Y-106677356D01*
X215748522Y-106699421D01*
X215744096Y-106699500D01*
X214820943Y-106699500D01*
X214668216Y-106740423D01*
X214668209Y-106740426D01*
X214531290Y-106819475D01*
X214531282Y-106819481D01*
X214419481Y-106931282D01*
X214419475Y-106931290D01*
X214340426Y-107068209D01*
X214340423Y-107068216D01*
X214299500Y-107220943D01*
X214299500Y-109324684D01*
X214290061Y-109372136D01*
X214230264Y-109516498D01*
X214230261Y-109516510D01*
X214199500Y-109671153D01*
X211500764Y-109671153D01*
X211465678Y-109602293D01*
X211435051Y-109542184D01*
X211435049Y-109542181D01*
X211435048Y-109542179D01*
X211310109Y-109370213D01*
X211159786Y-109219890D01*
X210987820Y-109094951D01*
X210798414Y-108998444D01*
X210798413Y-108998443D01*
X210798412Y-108998443D01*
X210596243Y-108932754D01*
X210596241Y-108932753D01*
X210596240Y-108932753D01*
X210434957Y-108907208D01*
X210386287Y-108899500D01*
X210173713Y-108899500D01*
X210125042Y-108907208D01*
X209963760Y-108932753D01*
X209761585Y-108998444D01*
X209572179Y-109094951D01*
X209400213Y-109219890D01*
X209249890Y-109370213D01*
X209124949Y-109542182D01*
X209120202Y-109551499D01*
X209072227Y-109602293D01*
X209004405Y-109619087D01*
X208938271Y-109596548D01*
X208899234Y-109551495D01*
X208894626Y-109542452D01*
X208855270Y-109488282D01*
X208855269Y-109488282D01*
X208222962Y-110120590D01*
X208205925Y-110057007D01*
X208140099Y-109942993D01*
X208047007Y-109849901D01*
X207932993Y-109784075D01*
X207869408Y-109767037D01*
X208501716Y-109134728D01*
X208447550Y-109095375D01*
X208258217Y-108998904D01*
X208056129Y-108933242D01*
X207846246Y-108900000D01*
X207633754Y-108900000D01*
X207423872Y-108933242D01*
X207423869Y-108933242D01*
X207221782Y-108998904D01*
X207189199Y-109015506D01*
X207120530Y-109028401D01*
X207055790Y-109002123D01*
X207015534Y-108945016D01*
X207012542Y-108875211D01*
X207018341Y-108857577D01*
X207069737Y-108733497D01*
X207100500Y-108578842D01*
X207100500Y-108421158D01*
X207100500Y-108421155D01*
X207100499Y-108421153D01*
X207069738Y-108266510D01*
X207069737Y-108266503D01*
X207062658Y-108249412D01*
X207009397Y-108120827D01*
X207009390Y-108120814D01*
X206921789Y-107989711D01*
X206921786Y-107989707D01*
X206810292Y-107878213D01*
X206810288Y-107878210D01*
X206679185Y-107790609D01*
X206679172Y-107790602D01*
X206533501Y-107730264D01*
X206533491Y-107730261D01*
X206378149Y-107699361D01*
X206316238Y-107666976D01*
X206314660Y-107665425D01*
X203795388Y-105146153D01*
X205699500Y-105146153D01*
X205699500Y-105303846D01*
X205730261Y-105458489D01*
X205730264Y-105458501D01*
X205790602Y-105604172D01*
X205790609Y-105604185D01*
X205878210Y-105735288D01*
X205878213Y-105735292D01*
X205989707Y-105846786D01*
X205989711Y-105846789D01*
X206120814Y-105934390D01*
X206120827Y-105934397D01*
X206207057Y-105970114D01*
X206266503Y-105994737D01*
X206421153Y-106025499D01*
X206421156Y-106025500D01*
X206421158Y-106025500D01*
X206578844Y-106025500D01*
X206578845Y-106025499D01*
X206733497Y-105994737D01*
X206879179Y-105934394D01*
X207010289Y-105846789D01*
X207121789Y-105735289D01*
X207209394Y-105604179D01*
X207269737Y-105458497D01*
X207300500Y-105303842D01*
X207300500Y-105303832D01*
X207300984Y-105298920D01*
X207327141Y-105234131D01*
X207336698Y-105223394D01*
X208933274Y-103626819D01*
X208960201Y-103612115D01*
X208986020Y-103595523D01*
X208992220Y-103594631D01*
X208994597Y-103593334D01*
X209020955Y-103590500D01*
X209157217Y-103590500D01*
X209224256Y-103610185D01*
X209235882Y-103618647D01*
X209239710Y-103621789D01*
X209370814Y-103709390D01*
X209370827Y-103709397D01*
X209476214Y-103753049D01*
X209516503Y-103769737D01*
X209652718Y-103796832D01*
X209671153Y-103800499D01*
X209671156Y-103800500D01*
X209671158Y-103800500D01*
X209828844Y-103800500D01*
X209828845Y-103800499D01*
X209983497Y-103769737D01*
X210129179Y-103709394D01*
X210260289Y-103621789D01*
X210371789Y-103510289D01*
X210459394Y-103379179D01*
X210519737Y-103233497D01*
X210550500Y-103078842D01*
X210550500Y-102921158D01*
X210550500Y-102921155D01*
X210550499Y-102921153D01*
X210519737Y-102766503D01*
X210515920Y-102757287D01*
X210459397Y-102620827D01*
X210459390Y-102620814D01*
X210371789Y-102489711D01*
X210371786Y-102489707D01*
X210260292Y-102378213D01*
X210260288Y-102378210D01*
X210129185Y-102290609D01*
X210129172Y-102290602D01*
X209983501Y-102230264D01*
X209983489Y-102230261D01*
X209828845Y-102199500D01*
X209828842Y-102199500D01*
X209671158Y-102199500D01*
X209671155Y-102199500D01*
X209516510Y-102230261D01*
X209516498Y-102230264D01*
X209370827Y-102290602D01*
X209370814Y-102290609D01*
X209239710Y-102378210D01*
X209235882Y-102381353D01*
X209171572Y-102408666D01*
X209157217Y-102409500D01*
X208647259Y-102409500D01*
X208528813Y-102441236D01*
X208528812Y-102441237D01*
X208512943Y-102445489D01*
X208497073Y-102449742D01*
X208362431Y-102527477D01*
X208362423Y-102527483D01*
X206501614Y-104388292D01*
X206440291Y-104421777D01*
X206426091Y-104424013D01*
X206421160Y-104424498D01*
X206266510Y-104455261D01*
X206266498Y-104455264D01*
X206120827Y-104515602D01*
X206120814Y-104515609D01*
X205989711Y-104603210D01*
X205989707Y-104603213D01*
X205878213Y-104714707D01*
X205878210Y-104714711D01*
X205790609Y-104845814D01*
X205790602Y-104845827D01*
X205730264Y-104991498D01*
X205730261Y-104991510D01*
X205699500Y-105146153D01*
X203795388Y-105146153D01*
X203428819Y-104779584D01*
X203395334Y-104718261D01*
X203392500Y-104691903D01*
X203392500Y-98862945D01*
X203392500Y-98862943D01*
X203373961Y-98793754D01*
X203351577Y-98710215D01*
X203312737Y-98642943D01*
X203312737Y-98642942D01*
X203272522Y-98573287D01*
X203272521Y-98573286D01*
X203272520Y-98573284D01*
X203160716Y-98461480D01*
X203160715Y-98461479D01*
X203156385Y-98457149D01*
X203156374Y-98457139D01*
X203128537Y-98429302D01*
X203095052Y-98367979D01*
X203092218Y-98341621D01*
X203092218Y-98268987D01*
X203092218Y-98268985D01*
X203051295Y-98116258D01*
X202972237Y-97979326D01*
X202972235Y-97979324D01*
X202971476Y-97978009D01*
X202955003Y-97910108D01*
X202957575Y-97892070D01*
X202957484Y-97892056D01*
X202979990Y-97749952D01*
X202991500Y-97677287D01*
X202991500Y-97464713D01*
X202958246Y-97254757D01*
X202892557Y-97052588D01*
X202796051Y-96863184D01*
X202796049Y-96863181D01*
X202796048Y-96863179D01*
X202671109Y-96691213D01*
X202652126Y-96672230D01*
X202618641Y-96610907D01*
X202623625Y-96541215D01*
X202652126Y-96496868D01*
X202900994Y-96248000D01*
X203150506Y-95998488D01*
X203150511Y-95998484D01*
X203160714Y-95988280D01*
X203160716Y-95988280D01*
X203272520Y-95876476D01*
X203351577Y-95739544D01*
X203392500Y-95586817D01*
X203392500Y-94558095D01*
X203412185Y-94491056D01*
X203428819Y-94470414D01*
X205829054Y-92070179D01*
X205890377Y-92036694D01*
X205960069Y-92041678D01*
G37*
%TD.AperFunction*%
%TA.AperFunction,Conductor*%
G36*
X201175075Y-105383993D02*
G01*
X201240901Y-105498007D01*
X201333993Y-105591099D01*
X201448007Y-105656925D01*
X201511590Y-105673962D01*
X200879282Y-106306269D01*
X200879282Y-106306270D01*
X200933452Y-106345626D01*
X200933451Y-106345626D01*
X200942495Y-106350234D01*
X200993292Y-106398208D01*
X201010087Y-106466029D01*
X200987550Y-106532164D01*
X200942499Y-106571202D01*
X200933182Y-106575949D01*
X200761213Y-106700890D01*
X200610890Y-106851213D01*
X200485950Y-107023180D01*
X200484984Y-107025078D01*
X200484424Y-107025669D01*
X200483404Y-107027336D01*
X200483053Y-107027121D01*
X200437009Y-107075873D01*
X200369187Y-107092667D01*
X200303053Y-107070128D01*
X200259602Y-107015413D01*
X200250500Y-106968781D01*
X200250500Y-105952116D01*
X200270185Y-105885077D01*
X200322989Y-105839322D01*
X200392147Y-105829378D01*
X200455703Y-105858403D01*
X200484987Y-105895826D01*
X200486374Y-105898548D01*
X200525728Y-105952716D01*
X201158037Y-105320408D01*
X201175075Y-105383993D01*
G37*
%TD.AperFunction*%
%TA.AperFunction,Conductor*%
G36*
X221279270Y-105899717D02*
G01*
X221282845Y-105899435D01*
X221330512Y-105862679D01*
X221400125Y-105856700D01*
X221461920Y-105889305D01*
X221496277Y-105950144D01*
X221499500Y-105978230D01*
X221499500Y-106836916D01*
X221479815Y-106903955D01*
X221427011Y-106949710D01*
X221357853Y-106959654D01*
X221294297Y-106930629D01*
X221275182Y-106909801D01*
X221194109Y-106798214D01*
X221194105Y-106798209D01*
X221043786Y-106647890D01*
X220871817Y-106522949D01*
X220862504Y-106518204D01*
X220811707Y-106470230D01*
X220794912Y-106402409D01*
X220817449Y-106336274D01*
X220862507Y-106297232D01*
X220871555Y-106292622D01*
X220925716Y-106253270D01*
X220925717Y-106253270D01*
X220293408Y-105620962D01*
X220356993Y-105603925D01*
X220471007Y-105538099D01*
X220564099Y-105445007D01*
X220629925Y-105330993D01*
X220646962Y-105267408D01*
X221279270Y-105899717D01*
G37*
%TD.AperFunction*%
%TA.AperFunction,Conductor*%
G36*
X200455703Y-103319505D02*
G01*
X200483276Y-103354742D01*
X200483404Y-103354664D01*
X200484084Y-103355773D01*
X200484988Y-103356929D01*
X200485951Y-103358820D01*
X200610890Y-103530786D01*
X200761213Y-103681109D01*
X200933179Y-103806048D01*
X200933181Y-103806049D01*
X200933184Y-103806051D01*
X200942493Y-103810794D01*
X200993290Y-103858766D01*
X201010087Y-103926587D01*
X200987552Y-103992722D01*
X200942505Y-104031760D01*
X200933446Y-104036376D01*
X200933440Y-104036380D01*
X200879282Y-104075727D01*
X200879282Y-104075728D01*
X201511591Y-104708037D01*
X201448007Y-104725075D01*
X201333993Y-104790901D01*
X201240901Y-104883993D01*
X201175075Y-104998007D01*
X201158037Y-105061591D01*
X200525728Y-104429282D01*
X200525727Y-104429282D01*
X200486380Y-104483440D01*
X200486378Y-104483443D01*
X200484984Y-104486180D01*
X200484180Y-104487030D01*
X200483838Y-104487590D01*
X200483720Y-104487517D01*
X200437009Y-104536976D01*
X200369188Y-104553770D01*
X200303053Y-104531232D01*
X200259602Y-104476516D01*
X200250500Y-104429884D01*
X200250500Y-103413218D01*
X200270185Y-103346179D01*
X200322989Y-103300424D01*
X200392147Y-103290480D01*
X200455703Y-103319505D01*
G37*
%TD.AperFunction*%
%TA.AperFunction,Conductor*%
G36*
X221461920Y-103350158D02*
G01*
X221496277Y-103410997D01*
X221499500Y-103439083D01*
X221499500Y-104297768D01*
X221479815Y-104364807D01*
X221427011Y-104410562D01*
X221357853Y-104420506D01*
X221294297Y-104391481D01*
X221280431Y-104376373D01*
X221279269Y-104376282D01*
X220646962Y-105008590D01*
X220629925Y-104945007D01*
X220564099Y-104830993D01*
X220471007Y-104737901D01*
X220356993Y-104672075D01*
X220293409Y-104655037D01*
X220925716Y-104022728D01*
X220871547Y-103983373D01*
X220871547Y-103983372D01*
X220862500Y-103978763D01*
X220811706Y-103930788D01*
X220794912Y-103862966D01*
X220817451Y-103796832D01*
X220862508Y-103757793D01*
X220871816Y-103753051D01*
X220951007Y-103695515D01*
X221043786Y-103628109D01*
X221043788Y-103628106D01*
X221043792Y-103628104D01*
X221194104Y-103477792D01*
X221194106Y-103477788D01*
X221194109Y-103477786D01*
X221275182Y-103366198D01*
X221330511Y-103323532D01*
X221400125Y-103317553D01*
X221461920Y-103350158D01*
G37*
%TD.AperFunction*%
%TA.AperFunction,Conductor*%
G36*
X221461920Y-100810158D02*
G01*
X221496277Y-100870997D01*
X221499500Y-100899083D01*
X221499500Y-101756916D01*
X221479815Y-101823955D01*
X221427011Y-101869710D01*
X221357853Y-101879654D01*
X221294297Y-101850629D01*
X221275182Y-101829801D01*
X221194109Y-101718214D01*
X221194105Y-101718209D01*
X221043786Y-101567890D01*
X220871820Y-101442951D01*
X220871115Y-101442591D01*
X220863054Y-101438485D01*
X220812259Y-101390512D01*
X220795463Y-101322692D01*
X220817999Y-101256556D01*
X220863054Y-101217515D01*
X220871816Y-101213051D01*
X220893789Y-101197086D01*
X221043786Y-101088109D01*
X221043788Y-101088106D01*
X221043792Y-101088104D01*
X221194104Y-100937792D01*
X221194106Y-100937788D01*
X221194109Y-100937786D01*
X221275182Y-100826198D01*
X221330511Y-100783532D01*
X221400125Y-100777553D01*
X221461920Y-100810158D01*
G37*
%TD.AperFunction*%
%TA.AperFunction,Conductor*%
G36*
X221461920Y-98270158D02*
G01*
X221496277Y-98330997D01*
X221499500Y-98359083D01*
X221499500Y-99216916D01*
X221479815Y-99283955D01*
X221427011Y-99329710D01*
X221357853Y-99339654D01*
X221294297Y-99310629D01*
X221275182Y-99289801D01*
X221194109Y-99178214D01*
X221194105Y-99178209D01*
X221043786Y-99027890D01*
X220871820Y-98902951D01*
X220865559Y-98899761D01*
X220863054Y-98898485D01*
X220812259Y-98850512D01*
X220795463Y-98782692D01*
X220817999Y-98716556D01*
X220863054Y-98677515D01*
X220871816Y-98673051D01*
X220893789Y-98657086D01*
X221043786Y-98548109D01*
X221043788Y-98548106D01*
X221043792Y-98548104D01*
X221194104Y-98397792D01*
X221194106Y-98397788D01*
X221194109Y-98397786D01*
X221275182Y-98286198D01*
X221330511Y-98243532D01*
X221400125Y-98237553D01*
X221461920Y-98270158D01*
G37*
%TD.AperFunction*%
%TA.AperFunction,Conductor*%
G36*
X221461920Y-95730158D02*
G01*
X221496277Y-95790997D01*
X221499500Y-95819083D01*
X221499500Y-96676916D01*
X221479815Y-96743955D01*
X221427011Y-96789710D01*
X221357853Y-96799654D01*
X221294297Y-96770629D01*
X221275182Y-96749801D01*
X221194109Y-96638214D01*
X221194105Y-96638209D01*
X221043786Y-96487890D01*
X220871820Y-96362951D01*
X220871115Y-96362591D01*
X220863054Y-96358485D01*
X220812259Y-96310512D01*
X220795463Y-96242692D01*
X220817999Y-96176556D01*
X220863054Y-96137515D01*
X220871816Y-96133051D01*
X220936566Y-96086008D01*
X221043786Y-96008109D01*
X221043788Y-96008106D01*
X221043792Y-96008104D01*
X221194104Y-95857792D01*
X221194106Y-95857788D01*
X221194109Y-95857786D01*
X221275182Y-95746198D01*
X221330511Y-95703532D01*
X221400125Y-95697553D01*
X221461920Y-95730158D01*
G37*
%TD.AperFunction*%
%TA.AperFunction,Conductor*%
G36*
X215482084Y-91135185D02*
G01*
X215502726Y-91151819D01*
X218833709Y-94482802D01*
X218867194Y-94544125D01*
X218863960Y-94608799D01*
X218846753Y-94661757D01*
X218815812Y-94857113D01*
X218785883Y-94920248D01*
X218726571Y-94957179D01*
X218656709Y-94956181D01*
X218605658Y-94925396D01*
X215007443Y-91327181D01*
X214973958Y-91265858D01*
X214978942Y-91196166D01*
X215020814Y-91140233D01*
X215086278Y-91115816D01*
X215095124Y-91115500D01*
X215415045Y-91115500D01*
X215482084Y-91135185D01*
G37*
%TD.AperFunction*%
%TA.AperFunction,Conductor*%
G36*
X201175075Y-92683993D02*
G01*
X201240901Y-92798007D01*
X201333993Y-92891099D01*
X201448007Y-92956925D01*
X201511589Y-92973962D01*
X200879282Y-93606269D01*
X200879282Y-93606270D01*
X200933452Y-93645626D01*
X200933451Y-93645626D01*
X200942495Y-93650234D01*
X200993292Y-93698208D01*
X201010087Y-93766029D01*
X200987550Y-93832164D01*
X200942499Y-93871202D01*
X200933182Y-93875949D01*
X200761213Y-94000890D01*
X200610890Y-94151213D01*
X200485950Y-94323180D01*
X200484984Y-94325078D01*
X200484424Y-94325669D01*
X200483404Y-94327336D01*
X200483053Y-94327121D01*
X200437009Y-94375873D01*
X200369187Y-94392667D01*
X200303053Y-94370128D01*
X200259602Y-94315413D01*
X200250500Y-94268781D01*
X200250500Y-93252116D01*
X200270185Y-93185077D01*
X200322989Y-93139322D01*
X200392147Y-93129378D01*
X200455703Y-93158403D01*
X200484987Y-93195826D01*
X200486374Y-93198548D01*
X200525728Y-93252716D01*
X201158037Y-92620408D01*
X201175075Y-92683993D01*
G37*
%TD.AperFunction*%
%TA.AperFunction,Conductor*%
G36*
X205492703Y-89825873D02*
G01*
X205499181Y-89831905D01*
X205988357Y-90321081D01*
X206021842Y-90382404D01*
X206016858Y-90452096D01*
X205974986Y-90508029D01*
X205909522Y-90532446D01*
X205900676Y-90532762D01*
X205837679Y-90532762D01*
X205723133Y-90563455D01*
X205684950Y-90573686D01*
X205560758Y-90645390D01*
X205560757Y-90645390D01*
X205548023Y-90652741D01*
X205548018Y-90652745D01*
X203113186Y-93087576D01*
X203051863Y-93121061D01*
X202982171Y-93116077D01*
X202926238Y-93074205D01*
X202901821Y-93008741D01*
X202907574Y-92961577D01*
X202957757Y-92807130D01*
X202957757Y-92807127D01*
X202991000Y-92597246D01*
X202991000Y-92384753D01*
X202957757Y-92174872D01*
X202957757Y-92174869D01*
X202892095Y-91972782D01*
X202795623Y-91783446D01*
X202794421Y-91781792D01*
X202794157Y-91781052D01*
X202793077Y-91779290D01*
X202793447Y-91779063D01*
X202770939Y-91715986D01*
X202786761Y-91647932D01*
X202807049Y-91621226D01*
X203132460Y-91295818D01*
X203193783Y-91262334D01*
X203220141Y-91259500D01*
X203908739Y-91259500D01*
X203908741Y-91259500D01*
X204027836Y-91227588D01*
X204058925Y-91219258D01*
X204193575Y-91141518D01*
X204194868Y-91140224D01*
X204205540Y-91134831D01*
X204225366Y-91131174D01*
X204261473Y-91121500D01*
X204526555Y-91121500D01*
X204526557Y-91121500D01*
X204649034Y-91088682D01*
X204676741Y-91081258D01*
X204811391Y-91003518D01*
X205169518Y-90645391D01*
X205247258Y-90510741D01*
X205260604Y-90460932D01*
X205287500Y-90360557D01*
X205287500Y-89919586D01*
X205307185Y-89852547D01*
X205359989Y-89806792D01*
X205429147Y-89796848D01*
X205492703Y-89825873D01*
G37*
%TD.AperFunction*%
%TA.AperFunction,Conductor*%
G36*
X210295753Y-90017757D02*
G01*
X210352425Y-90058624D01*
X210378006Y-90123642D01*
X210378500Y-90134694D01*
X210378500Y-92756564D01*
X210376789Y-92762387D01*
X210377939Y-92768349D01*
X210367059Y-92795526D01*
X210358815Y-92823603D01*
X210354228Y-92827577D01*
X210351972Y-92833214D01*
X210328125Y-92850195D01*
X210306011Y-92869358D01*
X210300003Y-92870221D01*
X210295059Y-92873743D01*
X210265825Y-92875136D01*
X210236853Y-92879302D01*
X210229779Y-92876853D01*
X210225268Y-92877069D01*
X210192501Y-92863952D01*
X210115263Y-92819360D01*
X210115261Y-92819358D01*
X210115260Y-92819358D01*
X210065144Y-92790423D01*
X209912416Y-92749499D01*
X209754302Y-92749499D01*
X209746706Y-92749499D01*
X209746690Y-92749500D01*
X208433571Y-92749500D01*
X208366532Y-92729815D01*
X208345890Y-92713181D01*
X207370166Y-91737457D01*
X206390544Y-90757836D01*
X206357060Y-90696514D01*
X206362044Y-90626822D01*
X206403916Y-90570889D01*
X206469380Y-90546472D01*
X206478226Y-90546156D01*
X206535766Y-90546156D01*
X208754718Y-90546156D01*
X208821757Y-90565841D01*
X208833383Y-90574303D01*
X208837211Y-90577445D01*
X208968315Y-90665046D01*
X208968328Y-90665053D01*
X209113999Y-90725391D01*
X209114004Y-90725393D01*
X209268654Y-90756155D01*
X209268657Y-90756156D01*
X209268659Y-90756156D01*
X209426345Y-90756156D01*
X209426346Y-90756155D01*
X209580998Y-90725393D01*
X209693667Y-90678723D01*
X209726673Y-90665053D01*
X209726673Y-90665052D01*
X209726680Y-90665050D01*
X209857790Y-90577445D01*
X209969290Y-90465945D01*
X210056895Y-90334835D01*
X210117238Y-90189153D01*
X210132883Y-90110503D01*
X210165268Y-90048592D01*
X210225983Y-90014018D01*
X210295753Y-90017757D01*
G37*
%TD.AperFunction*%
%TA.AperFunction,Conductor*%
G36*
X200455703Y-90619505D02*
G01*
X200483276Y-90654742D01*
X200483404Y-90654664D01*
X200484084Y-90655773D01*
X200484988Y-90656929D01*
X200485951Y-90658820D01*
X200610890Y-90830786D01*
X200761213Y-90981109D01*
X200933179Y-91106048D01*
X200933181Y-91106049D01*
X200933184Y-91106051D01*
X200942493Y-91110794D01*
X200993290Y-91158766D01*
X201010087Y-91226587D01*
X200987552Y-91292722D01*
X200942505Y-91331760D01*
X200933446Y-91336376D01*
X200933440Y-91336380D01*
X200879282Y-91375727D01*
X200879282Y-91375728D01*
X201511591Y-92008037D01*
X201448007Y-92025075D01*
X201333993Y-92090901D01*
X201240901Y-92183993D01*
X201175075Y-92298007D01*
X201158037Y-92361591D01*
X200525728Y-91729282D01*
X200525727Y-91729282D01*
X200486380Y-91783440D01*
X200486378Y-91783443D01*
X200484984Y-91786180D01*
X200484180Y-91787030D01*
X200483838Y-91787590D01*
X200483720Y-91787517D01*
X200437009Y-91836976D01*
X200369188Y-91853770D01*
X200303053Y-91831232D01*
X200259602Y-91776516D01*
X200250500Y-91729884D01*
X200250500Y-90713218D01*
X200270185Y-90646179D01*
X200322989Y-90600424D01*
X200392147Y-90590480D01*
X200455703Y-90619505D01*
G37*
%TD.AperFunction*%
%TA.AperFunction,Conductor*%
G36*
X221461920Y-90650158D02*
G01*
X221496277Y-90710997D01*
X221499500Y-90739083D01*
X221499500Y-91597768D01*
X221479815Y-91664807D01*
X221427011Y-91710562D01*
X221357853Y-91720506D01*
X221294297Y-91691481D01*
X221280431Y-91676373D01*
X221279269Y-91676282D01*
X220646962Y-92308589D01*
X220629925Y-92245007D01*
X220564099Y-92130993D01*
X220471007Y-92037901D01*
X220356993Y-91972075D01*
X220293407Y-91955036D01*
X220925716Y-91322728D01*
X220871547Y-91283373D01*
X220871547Y-91283372D01*
X220862500Y-91278763D01*
X220811706Y-91230788D01*
X220794912Y-91162966D01*
X220817451Y-91096832D01*
X220862508Y-91057793D01*
X220871816Y-91053051D01*
X220951007Y-90995515D01*
X221043786Y-90928109D01*
X221043788Y-90928106D01*
X221043792Y-90928104D01*
X221194104Y-90777792D01*
X221194106Y-90777788D01*
X221194109Y-90777786D01*
X221275182Y-90666198D01*
X221330511Y-90623532D01*
X221400125Y-90617553D01*
X221461920Y-90650158D01*
G37*
%TD.AperFunction*%
%TA.AperFunction,Conductor*%
G36*
X204102084Y-82941185D02*
G01*
X204122726Y-82957819D01*
X204387424Y-83222517D01*
X204387425Y-83222518D01*
X204387427Y-83222519D01*
X204465162Y-83267398D01*
X204465164Y-83267400D01*
X204465165Y-83267400D01*
X204522076Y-83300258D01*
X204672259Y-83340500D01*
X204904500Y-83340500D01*
X204971539Y-83360185D01*
X205017294Y-83412989D01*
X205028500Y-83464500D01*
X205028500Y-83697059D01*
X205008815Y-83764098D01*
X204956011Y-83809853D01*
X204886853Y-83819797D01*
X204823297Y-83790772D01*
X204816819Y-83784740D01*
X204760292Y-83728213D01*
X204760288Y-83728210D01*
X204629185Y-83640609D01*
X204629172Y-83640602D01*
X204483501Y-83580264D01*
X204483489Y-83580261D01*
X204328845Y-83549500D01*
X204328842Y-83549500D01*
X204171158Y-83549500D01*
X204171155Y-83549500D01*
X204016510Y-83580261D01*
X204016498Y-83580264D01*
X203870827Y-83640602D01*
X203870814Y-83640609D01*
X203739711Y-83728210D01*
X203739707Y-83728213D01*
X203628213Y-83839707D01*
X203628210Y-83839711D01*
X203540609Y-83970814D01*
X203540602Y-83970827D01*
X203480264Y-84116498D01*
X203480261Y-84116510D01*
X203449500Y-84271153D01*
X203449500Y-84428846D01*
X203480261Y-84583489D01*
X203480264Y-84583501D01*
X203540602Y-84729172D01*
X203540609Y-84729185D01*
X203628210Y-84860288D01*
X203628213Y-84860292D01*
X203739710Y-84971789D01*
X203796149Y-85009500D01*
X203870821Y-85059394D01*
X203870824Y-85059395D01*
X203875083Y-85061672D01*
X203875682Y-85062116D01*
X203876056Y-85062198D01*
X203904310Y-85083349D01*
X203957616Y-85136655D01*
X203977322Y-85162336D01*
X203988477Y-85181658D01*
X203988482Y-85181664D01*
X204082893Y-85276075D01*
X204087230Y-85284019D01*
X204094479Y-85289445D01*
X204103715Y-85314207D01*
X204116378Y-85337398D01*
X204115732Y-85346426D01*
X204118896Y-85354909D01*
X204113279Y-85380728D01*
X204111394Y-85407090D01*
X204105574Y-85416144D01*
X204104044Y-85423182D01*
X204082894Y-85451437D01*
X203981284Y-85553047D01*
X203981283Y-85553047D01*
X203981282Y-85553048D01*
X203869481Y-85664849D01*
X203869477Y-85664854D01*
X203823505Y-85744482D01*
X203823505Y-85744483D01*
X203790423Y-85801781D01*
X203776781Y-85852691D01*
X203749499Y-85954510D01*
X203749499Y-85954512D01*
X203749499Y-86099903D01*
X203729814Y-86166942D01*
X203713180Y-86187584D01*
X203377418Y-86523345D01*
X203316095Y-86556830D01*
X203246403Y-86551846D01*
X203202056Y-86523345D01*
X202637984Y-85959273D01*
X202604499Y-85897950D01*
X202609483Y-85828258D01*
X202637983Y-85783912D01*
X202671104Y-85750792D01*
X202671106Y-85750788D01*
X202671109Y-85750786D01*
X202796048Y-85578820D01*
X202796047Y-85578820D01*
X202796051Y-85578816D01*
X202892557Y-85389412D01*
X202958246Y-85187243D01*
X202991500Y-84977287D01*
X202991500Y-84764713D01*
X202958246Y-84554757D01*
X202892557Y-84352588D01*
X202796051Y-84163184D01*
X202796049Y-84163181D01*
X202796048Y-84163179D01*
X202671109Y-83991213D01*
X202520786Y-83840890D01*
X202348820Y-83715951D01*
X202348115Y-83715591D01*
X202340054Y-83711485D01*
X202289259Y-83663512D01*
X202272463Y-83595692D01*
X202294999Y-83529556D01*
X202340054Y-83490515D01*
X202348816Y-83486051D01*
X202449378Y-83412989D01*
X202520786Y-83361109D01*
X202520788Y-83361106D01*
X202520792Y-83361104D01*
X202671104Y-83210792D01*
X202671106Y-83210788D01*
X202671109Y-83210786D01*
X202729313Y-83130672D01*
X202796051Y-83038816D01*
X202821328Y-82989205D01*
X202869302Y-82938410D01*
X202931813Y-82921500D01*
X204035045Y-82921500D01*
X204102084Y-82941185D01*
G37*
%TD.AperFunction*%
%TA.AperFunction,Conductor*%
G36*
X210405703Y-71938228D02*
G01*
X210412181Y-71944260D01*
X210489707Y-72021786D01*
X210489711Y-72021789D01*
X210620814Y-72109390D01*
X210620827Y-72109397D01*
X210766498Y-72169735D01*
X210766503Y-72169737D01*
X210831147Y-72182595D01*
X210921849Y-72200638D01*
X210983760Y-72233023D01*
X210985339Y-72234574D01*
X211233139Y-72482374D01*
X211233149Y-72482385D01*
X211237479Y-72486715D01*
X211237480Y-72486716D01*
X211349284Y-72598520D01*
X211349286Y-72598521D01*
X211349290Y-72598524D01*
X211414915Y-72636412D01*
X211486216Y-72677577D01*
X211598019Y-72707534D01*
X211638942Y-72718500D01*
X211638943Y-72718500D01*
X218878281Y-72718500D01*
X218945320Y-72738185D01*
X218988765Y-72786205D01*
X219008947Y-72825814D01*
X219008948Y-72825815D01*
X219133890Y-72997786D01*
X219284213Y-73148109D01*
X219456182Y-73273050D01*
X219464946Y-73277516D01*
X219515742Y-73325491D01*
X219532536Y-73393312D01*
X219509998Y-73459447D01*
X219464946Y-73498484D01*
X219456182Y-73502949D01*
X219284213Y-73627890D01*
X219133890Y-73778213D01*
X219008951Y-73950179D01*
X218912444Y-74139585D01*
X218846753Y-74341760D01*
X218813500Y-74551713D01*
X218813500Y-74764286D01*
X218846753Y-74974239D01*
X218912444Y-75176414D01*
X219008951Y-75365820D01*
X219133890Y-75537786D01*
X219284213Y-75688109D01*
X219438585Y-75800265D01*
X219456184Y-75813051D01*
X219464945Y-75817514D01*
X219515740Y-75865487D01*
X219532536Y-75933307D01*
X219510000Y-75999443D01*
X219464953Y-76038480D01*
X219456181Y-76042950D01*
X219284213Y-76167890D01*
X219133890Y-76318213D01*
X219008951Y-76490179D01*
X218912444Y-76679585D01*
X218846753Y-76881760D01*
X218838359Y-76934760D01*
X218813500Y-77091713D01*
X218813500Y-77304287D01*
X218846754Y-77514243D01*
X218902195Y-77684873D01*
X218912444Y-77716414D01*
X219008951Y-77905820D01*
X219106158Y-78039615D01*
X219129638Y-78105422D01*
X219113812Y-78173475D01*
X219063706Y-78222170D01*
X219005840Y-78236500D01*
X218945259Y-78236500D01*
X218852885Y-78261252D01*
X218795075Y-78276742D01*
X218660426Y-78354481D01*
X218660423Y-78354483D01*
X214818484Y-82196422D01*
X214818480Y-82196427D01*
X214740742Y-82331073D01*
X214740743Y-82331073D01*
X214740743Y-82331074D01*
X214740743Y-82331075D01*
X214700501Y-82481258D01*
X214700501Y-82481260D01*
X214700501Y-83761844D01*
X214680816Y-83828883D01*
X214628012Y-83874638D01*
X214600694Y-83883461D01*
X214566507Y-83890261D01*
X214566500Y-83890263D01*
X214420827Y-83950602D01*
X214420814Y-83950609D01*
X214289710Y-84038210D01*
X214285882Y-84041353D01*
X214221572Y-84068666D01*
X214207217Y-84069500D01*
X213656630Y-84069500D01*
X213589591Y-84049815D01*
X213553528Y-84014391D01*
X213549113Y-84007784D01*
X213549110Y-84007780D01*
X213437616Y-83896286D01*
X213437612Y-83896283D01*
X213306509Y-83808682D01*
X213306496Y-83808675D01*
X213160825Y-83748337D01*
X213160813Y-83748334D01*
X213006169Y-83717573D01*
X213006166Y-83717573D01*
X212848482Y-83717573D01*
X212848479Y-83717573D01*
X212693834Y-83748334D01*
X212693822Y-83748337D01*
X212548151Y-83808675D01*
X212548138Y-83808682D01*
X212417035Y-83896283D01*
X212417031Y-83896286D01*
X212305537Y-84007780D01*
X212305534Y-84007784D01*
X212217933Y-84138887D01*
X212217926Y-84138900D01*
X212157588Y-84284571D01*
X212157585Y-84284583D01*
X212126824Y-84439226D01*
X212126824Y-84596919D01*
X212157585Y-84751562D01*
X212157588Y-84751574D01*
X212217926Y-84897245D01*
X212217933Y-84897258D01*
X212305534Y-85028361D01*
X212305537Y-85028365D01*
X212417031Y-85139859D01*
X212417035Y-85139862D01*
X212548138Y-85227463D01*
X212548151Y-85227470D01*
X212693822Y-85287808D01*
X212693827Y-85287810D01*
X212750258Y-85299035D01*
X212839294Y-85316746D01*
X212839297Y-85316746D01*
X212848482Y-85318573D01*
X213006166Y-85318573D01*
X213015351Y-85316746D01*
X213015354Y-85316746D01*
X213089757Y-85301945D01*
X213160821Y-85287810D01*
X213228109Y-85259938D01*
X213275560Y-85250500D01*
X214013445Y-85250500D01*
X214044985Y-85259761D01*
X214076856Y-85267940D01*
X214078362Y-85269561D01*
X214080484Y-85270185D01*
X214102008Y-85295025D01*
X214124401Y-85319139D01*
X214124791Y-85321318D01*
X214126239Y-85322989D01*
X214130919Y-85355537D01*
X214136717Y-85387915D01*
X214135984Y-85390768D01*
X214136183Y-85392147D01*
X214131159Y-85410411D01*
X214132031Y-85410676D01*
X214130261Y-85416510D01*
X214099500Y-85571153D01*
X214099500Y-85728848D01*
X214100846Y-85735615D01*
X214097966Y-85767775D01*
X214096520Y-85800031D01*
X214094870Y-85802360D01*
X214094616Y-85805206D01*
X214074803Y-85830709D01*
X214056151Y-85857058D01*
X214053503Y-85858126D01*
X214051751Y-85860382D01*
X214021288Y-85871127D01*
X213991358Y-85883206D01*
X213987573Y-85883019D01*
X213985860Y-85883624D01*
X213956100Y-85881625D01*
X213955508Y-85881512D01*
X213850198Y-85860565D01*
X213845171Y-85860565D01*
X213834294Y-85858500D01*
X213807935Y-85845004D01*
X213780478Y-85833916D01*
X213772625Y-85826925D01*
X213772102Y-85826657D01*
X213771863Y-85826246D01*
X213769741Y-85824357D01*
X213628113Y-85682729D01*
X213628108Y-85682725D01*
X213493464Y-85604989D01*
X213493463Y-85604988D01*
X213475382Y-85600143D01*
X213457302Y-85595299D01*
X213457299Y-85595298D01*
X213401191Y-85580264D01*
X213343278Y-85564746D01*
X213343277Y-85564746D01*
X212440283Y-85564746D01*
X212373244Y-85545061D01*
X212361618Y-85536599D01*
X212357789Y-85533456D01*
X212226685Y-85445855D01*
X212226672Y-85445848D01*
X212081001Y-85385510D01*
X212080989Y-85385507D01*
X211926345Y-85354746D01*
X211926342Y-85354746D01*
X211768658Y-85354746D01*
X211726214Y-85363188D01*
X211656623Y-85356959D01*
X211614344Y-85329251D01*
X211412576Y-85127483D01*
X211412571Y-85127479D01*
X211277927Y-85049743D01*
X211277926Y-85049742D01*
X211258214Y-85044460D01*
X211238503Y-85039179D01*
X211238500Y-85039178D01*
X211191689Y-85026635D01*
X211127741Y-85009500D01*
X211127740Y-85009500D01*
X210324500Y-85009500D01*
X210257461Y-84989815D01*
X210211706Y-84937011D01*
X210200500Y-84885500D01*
X210200500Y-82114500D01*
X210220185Y-82047461D01*
X210272989Y-82001706D01*
X210324500Y-81990500D01*
X213227739Y-81990500D01*
X213227741Y-81990500D01*
X213325523Y-81964298D01*
X213346188Y-81958762D01*
X213346189Y-81958761D01*
X213358074Y-81955576D01*
X213361262Y-81954723D01*
X213393347Y-81950500D01*
X213478844Y-81950500D01*
X213478845Y-81950499D01*
X213633497Y-81919737D01*
X213779179Y-81859394D01*
X213910289Y-81771789D01*
X214021789Y-81660289D01*
X214109394Y-81529179D01*
X214169737Y-81383497D01*
X214200500Y-81228842D01*
X214200500Y-81071158D01*
X214200500Y-81071155D01*
X214200499Y-81071153D01*
X214197367Y-81055409D01*
X214169737Y-80916503D01*
X214165345Y-80905900D01*
X214109397Y-80770827D01*
X214109390Y-80770814D01*
X214021789Y-80639711D01*
X214021786Y-80639707D01*
X213910292Y-80528213D01*
X213910288Y-80528210D01*
X213779185Y-80440609D01*
X213779172Y-80440602D01*
X213633501Y-80380264D01*
X213633489Y-80380261D01*
X213478845Y-80349500D01*
X213478842Y-80349500D01*
X213321158Y-80349500D01*
X213321155Y-80349500D01*
X213166510Y-80380261D01*
X213166498Y-80380264D01*
X213020827Y-80440602D01*
X213020814Y-80440609D01*
X212889711Y-80528210D01*
X212889707Y-80528213D01*
X212778213Y-80639707D01*
X212778210Y-80639711D01*
X212701584Y-80754391D01*
X212647972Y-80799196D01*
X212598482Y-80809500D01*
X210324500Y-80809500D01*
X210257461Y-80789815D01*
X210211706Y-80737011D01*
X210200500Y-80685500D01*
X210200500Y-73370887D01*
X210200499Y-73370881D01*
X210197296Y-73358929D01*
X210194770Y-73349499D01*
X210159577Y-73218158D01*
X210102039Y-73118500D01*
X210098282Y-73111993D01*
X210081814Y-73044094D01*
X210098285Y-72988002D01*
X210131642Y-72930227D01*
X210159577Y-72881842D01*
X210200500Y-72729115D01*
X210200500Y-72571000D01*
X210200500Y-72031941D01*
X210220185Y-71964902D01*
X210272989Y-71919147D01*
X210342147Y-71909203D01*
X210405703Y-71938228D01*
G37*
%TD.AperFunction*%
%TA.AperFunction,Conductor*%
G36*
X203196203Y-66955884D02*
G01*
X203202681Y-66961916D01*
X205663181Y-69422416D01*
X205696666Y-69483739D01*
X205699500Y-69510097D01*
X205699500Y-73863330D01*
X205699499Y-73863348D01*
X205699499Y-74029054D01*
X205699498Y-74029054D01*
X205740423Y-74181785D01*
X205769358Y-74231900D01*
X205769359Y-74231904D01*
X205769360Y-74231904D01*
X205819479Y-74318714D01*
X205819481Y-74318717D01*
X205938349Y-74437585D01*
X205938355Y-74437590D01*
X208562181Y-77061416D01*
X208595666Y-77122739D01*
X208598500Y-77149097D01*
X208598500Y-79933858D01*
X208578815Y-80000897D01*
X208562181Y-80021539D01*
X208072214Y-80511505D01*
X208072215Y-80511506D01*
X207967478Y-80616243D01*
X207947368Y-80651076D01*
X207928859Y-80683135D01*
X207888423Y-80753172D01*
X207847499Y-80905900D01*
X207847499Y-80905902D01*
X207847499Y-81074003D01*
X207847500Y-81074016D01*
X207847500Y-81728373D01*
X207847499Y-81728391D01*
X207847499Y-81894097D01*
X207847498Y-81894097D01*
X207888423Y-82046828D01*
X207917358Y-82096943D01*
X207917359Y-82096947D01*
X207917360Y-82096947D01*
X207967480Y-82183759D01*
X208079284Y-82295563D01*
X208079285Y-82295564D01*
X208335334Y-82551613D01*
X208562181Y-82778459D01*
X208595666Y-82839782D01*
X208598500Y-82866140D01*
X208598500Y-84083499D01*
X208578815Y-84150538D01*
X208526011Y-84196293D01*
X208474500Y-84207499D01*
X207929271Y-84207499D01*
X207864723Y-84224794D01*
X207864723Y-84224795D01*
X207776547Y-84248422D01*
X207776546Y-84248422D01*
X207776544Y-84248423D01*
X207727438Y-84276775D01*
X207665438Y-84293388D01*
X207546398Y-84293388D01*
X207523260Y-84299587D01*
X207523261Y-84299588D01*
X207393668Y-84334312D01*
X207349857Y-84359606D01*
X207319956Y-84371991D01*
X207251177Y-84390421D01*
X207251166Y-84390426D01*
X207114247Y-84469475D01*
X207114239Y-84469481D01*
X206802181Y-84781540D01*
X206740858Y-84815025D01*
X206671166Y-84810041D01*
X206615233Y-84768169D01*
X206590816Y-84702705D01*
X206590500Y-84693859D01*
X206590500Y-81532261D01*
X206590500Y-81532259D01*
X206550258Y-81382076D01*
X206536691Y-81358577D01*
X206472518Y-81247425D01*
X202971289Y-77746196D01*
X202937804Y-77684873D01*
X202941040Y-77620195D01*
X202958246Y-77567243D01*
X202991500Y-77357287D01*
X202991500Y-77144713D01*
X202958246Y-76934757D01*
X202892557Y-76732588D01*
X202796051Y-76543184D01*
X202796049Y-76543181D01*
X202796048Y-76543179D01*
X202671109Y-76371213D01*
X202520786Y-76220890D01*
X202348820Y-76095951D01*
X202348115Y-76095591D01*
X202340054Y-76091485D01*
X202289259Y-76043512D01*
X202272463Y-75975692D01*
X202294999Y-75909556D01*
X202340054Y-75870515D01*
X202348816Y-75866051D01*
X202370789Y-75850086D01*
X202520786Y-75741109D01*
X202520788Y-75741106D01*
X202520792Y-75741104D01*
X202671104Y-75590792D01*
X202671106Y-75590788D01*
X202671109Y-75590786D01*
X202780086Y-75440789D01*
X202796051Y-75418816D01*
X202892557Y-75229412D01*
X202958246Y-75027243D01*
X202991500Y-74817287D01*
X202991500Y-74604713D01*
X202958246Y-74394757D01*
X202892557Y-74192588D01*
X202796051Y-74003184D01*
X202796049Y-74003181D01*
X202796048Y-74003179D01*
X202671109Y-73831213D01*
X202520786Y-73680890D01*
X202348820Y-73555951D01*
X202347148Y-73555099D01*
X202340054Y-73551485D01*
X202289259Y-73503512D01*
X202272463Y-73435692D01*
X202294999Y-73369556D01*
X202340054Y-73330515D01*
X202348816Y-73326051D01*
X202494941Y-73219886D01*
X202520786Y-73201109D01*
X202520788Y-73201106D01*
X202520792Y-73201104D01*
X202671104Y-73050792D01*
X202671106Y-73050788D01*
X202671109Y-73050786D01*
X202796048Y-72878820D01*
X202796047Y-72878820D01*
X202796051Y-72878816D01*
X202892557Y-72689412D01*
X202958246Y-72487243D01*
X202991500Y-72277287D01*
X202991500Y-72064713D01*
X202958246Y-71854757D01*
X202892557Y-71652588D01*
X202796051Y-71463184D01*
X202796049Y-71463181D01*
X202796048Y-71463179D01*
X202671109Y-71291213D01*
X202520786Y-71140890D01*
X202348820Y-71015951D01*
X202348115Y-71015591D01*
X202340054Y-71011485D01*
X202289259Y-70963512D01*
X202272463Y-70895692D01*
X202294999Y-70829556D01*
X202340054Y-70790515D01*
X202348816Y-70786051D01*
X202480186Y-70690606D01*
X202520786Y-70661109D01*
X202520788Y-70661106D01*
X202520792Y-70661104D01*
X202671104Y-70510792D01*
X202671106Y-70510788D01*
X202671109Y-70510786D01*
X202796048Y-70338820D01*
X202796047Y-70338820D01*
X202796051Y-70338816D01*
X202892557Y-70149412D01*
X202958246Y-69947243D01*
X202991500Y-69737287D01*
X202991500Y-69524713D01*
X202958246Y-69314757D01*
X202892557Y-69112588D01*
X202796051Y-68923184D01*
X202796049Y-68923181D01*
X202796048Y-68923179D01*
X202671109Y-68751213D01*
X202520786Y-68600890D01*
X202348817Y-68475949D01*
X202339504Y-68471204D01*
X202288707Y-68423230D01*
X202271912Y-68355409D01*
X202294449Y-68289274D01*
X202339507Y-68250232D01*
X202348555Y-68245622D01*
X202402716Y-68206270D01*
X202402717Y-68206270D01*
X201770408Y-67573962D01*
X201833993Y-67556925D01*
X201948007Y-67491099D01*
X202041099Y-67398007D01*
X202106925Y-67283993D01*
X202123962Y-67220408D01*
X202756270Y-67852717D01*
X202756270Y-67852716D01*
X202795622Y-67798554D01*
X202892095Y-67609217D01*
X202957757Y-67407130D01*
X202957757Y-67407127D01*
X202991000Y-67197246D01*
X202991000Y-67049597D01*
X203010685Y-66982558D01*
X203063489Y-66936803D01*
X203132647Y-66926859D01*
X203196203Y-66955884D01*
G37*
%TD.AperFunction*%
%TA.AperFunction,Conductor*%
G36*
X200455703Y-82999505D02*
G01*
X200483276Y-83034742D01*
X200483404Y-83034664D01*
X200484084Y-83035773D01*
X200484988Y-83036929D01*
X200485951Y-83038820D01*
X200610890Y-83210786D01*
X200761213Y-83361109D01*
X200933182Y-83486050D01*
X200941946Y-83490516D01*
X200992742Y-83538491D01*
X201009536Y-83606312D01*
X200986998Y-83672447D01*
X200941946Y-83711484D01*
X200933182Y-83715949D01*
X200761213Y-83840890D01*
X200610890Y-83991213D01*
X200485950Y-84163180D01*
X200484984Y-84165078D01*
X200484424Y-84165669D01*
X200483404Y-84167336D01*
X200483053Y-84167121D01*
X200437009Y-84215873D01*
X200369187Y-84232667D01*
X200303053Y-84210128D01*
X200259602Y-84155413D01*
X200250500Y-84108781D01*
X200250500Y-83093218D01*
X200270185Y-83026179D01*
X200322989Y-82980424D01*
X200392147Y-82970480D01*
X200455703Y-82999505D01*
G37*
%TD.AperFunction*%
%TA.AperFunction,Conductor*%
G36*
X203196203Y-79641742D02*
G01*
X203202681Y-79647774D01*
X205373181Y-81818274D01*
X205387884Y-81845201D01*
X205404477Y-81871020D01*
X205405368Y-81877220D01*
X205406666Y-81879597D01*
X205409500Y-81905955D01*
X205409500Y-82035500D01*
X205389815Y-82102539D01*
X205337011Y-82148294D01*
X205285500Y-82159500D01*
X205045955Y-82159500D01*
X204978916Y-82139815D01*
X204958274Y-82123181D01*
X204693576Y-81858483D01*
X204693571Y-81858479D01*
X204558927Y-81780743D01*
X204558926Y-81780742D01*
X204525500Y-81771786D01*
X204515905Y-81769215D01*
X204515903Y-81769214D01*
X204466169Y-81755888D01*
X204408741Y-81740500D01*
X204408739Y-81740500D01*
X202931813Y-81740500D01*
X202864774Y-81720815D01*
X202821328Y-81672794D01*
X202814958Y-81660292D01*
X202796051Y-81623184D01*
X202790405Y-81615413D01*
X202671109Y-81451213D01*
X202520786Y-81300890D01*
X202348817Y-81175949D01*
X202339504Y-81171204D01*
X202288707Y-81123230D01*
X202271912Y-81055409D01*
X202294449Y-80989274D01*
X202339507Y-80950232D01*
X202348555Y-80945622D01*
X202402716Y-80906270D01*
X202402717Y-80906270D01*
X201770408Y-80273962D01*
X201833993Y-80256925D01*
X201948007Y-80191099D01*
X202041099Y-80098007D01*
X202106925Y-79983993D01*
X202123962Y-79920408D01*
X202756270Y-80552717D01*
X202756270Y-80552716D01*
X202795622Y-80498554D01*
X202892095Y-80309217D01*
X202957757Y-80107130D01*
X202957757Y-80107127D01*
X202991000Y-79897246D01*
X202991000Y-79735455D01*
X203010685Y-79668416D01*
X203063489Y-79622661D01*
X203132647Y-79612717D01*
X203196203Y-79641742D01*
G37*
%TD.AperFunction*%
%TA.AperFunction,Conductor*%
G36*
X201175075Y-79983993D02*
G01*
X201240901Y-80098007D01*
X201333993Y-80191099D01*
X201448007Y-80256925D01*
X201511590Y-80273962D01*
X200879282Y-80906269D01*
X200879282Y-80906270D01*
X200933452Y-80945626D01*
X200933451Y-80945626D01*
X200942495Y-80950234D01*
X200993292Y-80998208D01*
X201010087Y-81066029D01*
X200987550Y-81132164D01*
X200942499Y-81171202D01*
X200933182Y-81175949D01*
X200761213Y-81300890D01*
X200610890Y-81451213D01*
X200485950Y-81623180D01*
X200484984Y-81625078D01*
X200484424Y-81625669D01*
X200483404Y-81627336D01*
X200483053Y-81627121D01*
X200437009Y-81675873D01*
X200369187Y-81692667D01*
X200303053Y-81670128D01*
X200259602Y-81615413D01*
X200250500Y-81568781D01*
X200250500Y-80552116D01*
X200270185Y-80485077D01*
X200322989Y-80439322D01*
X200392147Y-80429378D01*
X200455703Y-80458403D01*
X200484987Y-80495826D01*
X200486374Y-80498548D01*
X200525728Y-80552716D01*
X201158037Y-79920408D01*
X201175075Y-79983993D01*
G37*
%TD.AperFunction*%
%TA.AperFunction,Conductor*%
G36*
X200455703Y-77919505D02*
G01*
X200483276Y-77954742D01*
X200483404Y-77954664D01*
X200484084Y-77955773D01*
X200484988Y-77956929D01*
X200485951Y-77958820D01*
X200610890Y-78130786D01*
X200761213Y-78281109D01*
X200933179Y-78406048D01*
X200933181Y-78406049D01*
X200933184Y-78406051D01*
X200942493Y-78410794D01*
X200993290Y-78458766D01*
X201010087Y-78526587D01*
X200987552Y-78592722D01*
X200942505Y-78631760D01*
X200933446Y-78636376D01*
X200933440Y-78636380D01*
X200879282Y-78675727D01*
X200879282Y-78675728D01*
X201511591Y-79308037D01*
X201448007Y-79325075D01*
X201333993Y-79390901D01*
X201240901Y-79483993D01*
X201175075Y-79598007D01*
X201158037Y-79661591D01*
X200525728Y-79029282D01*
X200525727Y-79029282D01*
X200486380Y-79083440D01*
X200486378Y-79083443D01*
X200484984Y-79086180D01*
X200484180Y-79087030D01*
X200483838Y-79087590D01*
X200483720Y-79087517D01*
X200437009Y-79136976D01*
X200369188Y-79153770D01*
X200303053Y-79131232D01*
X200259602Y-79076516D01*
X200250500Y-79029884D01*
X200250500Y-78013218D01*
X200270185Y-77946179D01*
X200322989Y-77900424D01*
X200392147Y-77890480D01*
X200455703Y-77919505D01*
G37*
%TD.AperFunction*%
%TA.AperFunction,Conductor*%
G36*
X203196703Y-64416384D02*
G01*
X203203170Y-64422406D01*
X203456080Y-64675315D01*
X203915181Y-65134416D01*
X203948666Y-65195739D01*
X203951500Y-65222097D01*
X203951500Y-65283273D01*
X203951499Y-65283291D01*
X203951499Y-65448997D01*
X203951498Y-65448997D01*
X203992423Y-65601728D01*
X204006596Y-65626276D01*
X204006595Y-65626276D01*
X204006596Y-65626277D01*
X204071475Y-65738652D01*
X204071479Y-65738657D01*
X204071480Y-65738659D01*
X204183284Y-65850463D01*
X204183285Y-65850464D01*
X204535341Y-66202520D01*
X204672272Y-66281577D01*
X204825000Y-66322501D01*
X204825003Y-66322501D01*
X204990711Y-66322501D01*
X204990727Y-66322500D01*
X205051903Y-66322500D01*
X205118942Y-66342185D01*
X205139584Y-66358819D01*
X205205180Y-66424415D01*
X205238665Y-66485738D01*
X205241499Y-66512096D01*
X205241499Y-66659839D01*
X205241498Y-66659839D01*
X205282423Y-66812569D01*
X205282424Y-66812572D01*
X205285684Y-66818218D01*
X205285685Y-66818220D01*
X205361477Y-66949497D01*
X205361481Y-66949502D01*
X205480349Y-67068370D01*
X205480355Y-67068375D01*
X205826354Y-67414374D01*
X205826364Y-67414385D01*
X205830694Y-67418715D01*
X205830695Y-67418716D01*
X205942499Y-67530520D01*
X206029310Y-67580639D01*
X206029312Y-67580641D01*
X206078806Y-67609217D01*
X206079430Y-67609577D01*
X206232157Y-67650500D01*
X206232158Y-67650500D01*
X206379903Y-67650500D01*
X206446942Y-67670185D01*
X206467584Y-67686819D01*
X208963181Y-70182416D01*
X208996666Y-70243739D01*
X208999500Y-70270097D01*
X208999500Y-72349959D01*
X208981234Y-72414737D01*
X208973562Y-72427258D01*
X208968480Y-72432341D01*
X208937087Y-72486716D01*
X208889423Y-72569272D01*
X208848499Y-72722000D01*
X208848499Y-72722002D01*
X208848499Y-72890103D01*
X208848500Y-72890116D01*
X208848500Y-73212273D01*
X208848499Y-73212291D01*
X208848499Y-73377997D01*
X208848498Y-73377997D01*
X208881980Y-73502951D01*
X208889423Y-73530728D01*
X208903985Y-73555949D01*
X208968480Y-73667659D01*
X208974064Y-73673243D01*
X208981955Y-73686453D01*
X208987001Y-73705983D01*
X208996666Y-73723683D01*
X208999500Y-73750041D01*
X208999500Y-75500903D01*
X208979815Y-75567942D01*
X208927011Y-75613697D01*
X208857853Y-75623641D01*
X208794297Y-75594616D01*
X208787819Y-75588584D01*
X206936819Y-73737584D01*
X206903334Y-73676261D01*
X206900500Y-73649903D01*
X206900500Y-69299059D01*
X206900501Y-69299046D01*
X206900501Y-69130945D01*
X206900501Y-69130943D01*
X206859577Y-68978215D01*
X206830639Y-68928095D01*
X206780520Y-68841284D01*
X206668716Y-68729480D01*
X206668715Y-68729479D01*
X206664385Y-68725149D01*
X206664374Y-68725139D01*
X202974757Y-65035522D01*
X202941272Y-64974199D01*
X202944507Y-64909523D01*
X202958246Y-64867243D01*
X202991500Y-64657287D01*
X202991500Y-64510097D01*
X203011185Y-64443058D01*
X203063989Y-64397303D01*
X203133147Y-64387359D01*
X203196703Y-64416384D01*
G37*
%TD.AperFunction*%
%TA.AperFunction,Conductor*%
G36*
X205698159Y-60503363D02*
G01*
X205708244Y-60502097D01*
X205731119Y-60513041D01*
X205755447Y-60520185D01*
X205762101Y-60527865D01*
X205771271Y-60532252D01*
X205784598Y-60553828D01*
X205801202Y-60572989D01*
X205802648Y-60583047D01*
X205807990Y-60591695D01*
X205807537Y-60617047D01*
X205811146Y-60642147D01*
X205806890Y-60653253D01*
X205806742Y-60661554D01*
X205791510Y-60693391D01*
X205756814Y-60745316D01*
X205756807Y-60745328D01*
X205681430Y-60927306D01*
X205681427Y-60927318D01*
X205643000Y-61120504D01*
X205643000Y-61269000D01*
X206343000Y-61269000D01*
X206343000Y-61769000D01*
X205643000Y-61769000D01*
X205643000Y-61917495D01*
X205681427Y-62110681D01*
X205681430Y-62110693D01*
X205756807Y-62292671D01*
X205756814Y-62292684D01*
X205866248Y-62456462D01*
X205866251Y-62456466D01*
X206005533Y-62595748D01*
X206005537Y-62595751D01*
X206169315Y-62705185D01*
X206169328Y-62705192D01*
X206351308Y-62780569D01*
X206393000Y-62788862D01*
X206393000Y-61985988D01*
X206402940Y-62003205D01*
X206458795Y-62059060D01*
X206527204Y-62098556D01*
X206603504Y-62119000D01*
X206682496Y-62119000D01*
X206758796Y-62098556D01*
X206827205Y-62059060D01*
X206883060Y-62003205D01*
X206893000Y-61985988D01*
X206893000Y-62788862D01*
X206934690Y-62780569D01*
X206934692Y-62780569D01*
X207116671Y-62705192D01*
X207116684Y-62705185D01*
X207280462Y-62595751D01*
X207280466Y-62595748D01*
X207419748Y-62456466D01*
X207419751Y-62456462D01*
X207529185Y-62292684D01*
X207529192Y-62292671D01*
X207604569Y-62110693D01*
X207604572Y-62110681D01*
X207642999Y-61917495D01*
X207643000Y-61917492D01*
X207643000Y-61769000D01*
X206943000Y-61769000D01*
X206943000Y-61269000D01*
X207643000Y-61269000D01*
X207643000Y-61120508D01*
X207642999Y-61120504D01*
X207604572Y-60927318D01*
X207604569Y-60927306D01*
X207529192Y-60745328D01*
X207529185Y-60745316D01*
X207494490Y-60693391D01*
X207473612Y-60626714D01*
X207492096Y-60559334D01*
X207544075Y-60512643D01*
X207597592Y-60500500D01*
X214328408Y-60500500D01*
X214395447Y-60520185D01*
X214441202Y-60572989D01*
X214451146Y-60642147D01*
X214431510Y-60693391D01*
X214396814Y-60745316D01*
X214396807Y-60745328D01*
X214321430Y-60927306D01*
X214321427Y-60927318D01*
X214283000Y-61120504D01*
X214283000Y-61269000D01*
X214983000Y-61269000D01*
X214983000Y-61769000D01*
X214283000Y-61769000D01*
X214283000Y-61917495D01*
X214321427Y-62110681D01*
X214321430Y-62110693D01*
X214396807Y-62292671D01*
X214396814Y-62292684D01*
X214506248Y-62456462D01*
X214506251Y-62456466D01*
X214645533Y-62595748D01*
X214645537Y-62595751D01*
X214809315Y-62705185D01*
X214809328Y-62705192D01*
X214991308Y-62780569D01*
X215033000Y-62788862D01*
X215033000Y-61985988D01*
X215042940Y-62003205D01*
X215098795Y-62059060D01*
X215167204Y-62098556D01*
X215243504Y-62119000D01*
X215322496Y-62119000D01*
X215398796Y-62098556D01*
X215467205Y-62059060D01*
X215523060Y-62003205D01*
X215533000Y-61985988D01*
X215533000Y-62788862D01*
X215574690Y-62780569D01*
X215574692Y-62780569D01*
X215756671Y-62705192D01*
X215756684Y-62705185D01*
X215920462Y-62595751D01*
X215920466Y-62595748D01*
X216059748Y-62456466D01*
X216059751Y-62456462D01*
X216169185Y-62292684D01*
X216169192Y-62292671D01*
X216244569Y-62110693D01*
X216244572Y-62110681D01*
X216282999Y-61917495D01*
X216283000Y-61917492D01*
X216283000Y-61769000D01*
X215583000Y-61769000D01*
X215583000Y-61269000D01*
X216283000Y-61269000D01*
X216283000Y-61120508D01*
X216282999Y-61120504D01*
X216244572Y-60927318D01*
X216244569Y-60927306D01*
X216169192Y-60745328D01*
X216169185Y-60745316D01*
X216134490Y-60693391D01*
X216113612Y-60626714D01*
X216132096Y-60559334D01*
X216184075Y-60512643D01*
X216237592Y-60500500D01*
X218917793Y-60500500D01*
X218984832Y-60520185D01*
X219030587Y-60572989D01*
X219040531Y-60642147D01*
X219011506Y-60705703D01*
X218992107Y-60723763D01*
X218956454Y-60750454D01*
X218956453Y-60750455D01*
X218956452Y-60750456D01*
X218870206Y-60865664D01*
X218870202Y-60865671D01*
X218819908Y-61000517D01*
X218813501Y-61060116D01*
X218813500Y-61060135D01*
X218813500Y-62855870D01*
X218813501Y-62855876D01*
X218819908Y-62915483D01*
X218870202Y-63050328D01*
X218870206Y-63050335D01*
X218956452Y-63165544D01*
X218956455Y-63165547D01*
X219071664Y-63251793D01*
X219071671Y-63251797D01*
X219203082Y-63300810D01*
X219259016Y-63342681D01*
X219283433Y-63408145D01*
X219268582Y-63476418D01*
X219247431Y-63504673D01*
X219133889Y-63618215D01*
X219008951Y-63790179D01*
X218912444Y-63979585D01*
X218846753Y-64181760D01*
X218813500Y-64391713D01*
X218813500Y-64604286D01*
X218836340Y-64748496D01*
X218846754Y-64814243D01*
X218896116Y-64966164D01*
X218912444Y-65016414D01*
X219008951Y-65205820D01*
X219133890Y-65377786D01*
X219284213Y-65528109D01*
X219456179Y-65653048D01*
X219456181Y-65653049D01*
X219456184Y-65653051D01*
X219465493Y-65657794D01*
X219516290Y-65705766D01*
X219533087Y-65773587D01*
X219510552Y-65839722D01*
X219465505Y-65878760D01*
X219456446Y-65883376D01*
X219456440Y-65883380D01*
X219402282Y-65922727D01*
X219402282Y-65922728D01*
X220034591Y-66555037D01*
X219971007Y-66572075D01*
X219856993Y-66637901D01*
X219763901Y-66730993D01*
X219698075Y-66845007D01*
X219681037Y-66908591D01*
X219048728Y-66276282D01*
X219048727Y-66276282D01*
X219009380Y-66330439D01*
X218912904Y-66519782D01*
X218847242Y-66721869D01*
X218847242Y-66721872D01*
X218814000Y-66931753D01*
X218814000Y-67144246D01*
X218847242Y-67354127D01*
X218847242Y-67354130D01*
X218912904Y-67556217D01*
X219009375Y-67745550D01*
X219048728Y-67799716D01*
X219681037Y-67167408D01*
X219698075Y-67230993D01*
X219763901Y-67345007D01*
X219856993Y-67438099D01*
X219971007Y-67503925D01*
X220034590Y-67520962D01*
X219402282Y-68153269D01*
X219402282Y-68153270D01*
X219456452Y-68192626D01*
X219456451Y-68192626D01*
X219465495Y-68197234D01*
X219516292Y-68245208D01*
X219533087Y-68313029D01*
X219510550Y-68379164D01*
X219465499Y-68418202D01*
X219456182Y-68422949D01*
X219284213Y-68547890D01*
X219133890Y-68698213D01*
X219008951Y-68870179D01*
X218912444Y-69059585D01*
X218846753Y-69261760D01*
X218813500Y-69471713D01*
X218813500Y-69684287D01*
X218846754Y-69894243D01*
X218900302Y-70059047D01*
X218912444Y-70096414D01*
X219008951Y-70285820D01*
X219133890Y-70457786D01*
X219284213Y-70608109D01*
X219456182Y-70733050D01*
X219464946Y-70737516D01*
X219515742Y-70785491D01*
X219532536Y-70853312D01*
X219509998Y-70919447D01*
X219464946Y-70958484D01*
X219456182Y-70962949D01*
X219284213Y-71087890D01*
X219133890Y-71238213D01*
X219008948Y-71410184D01*
X219008947Y-71410185D01*
X218988765Y-71449795D01*
X218940791Y-71500591D01*
X218878281Y-71517500D01*
X212018097Y-71517500D01*
X211988656Y-71508855D01*
X211958670Y-71502332D01*
X211953654Y-71498577D01*
X211951058Y-71497815D01*
X211930416Y-71481181D01*
X211834574Y-71385339D01*
X211801089Y-71324016D01*
X211800638Y-71321849D01*
X211769738Y-71166510D01*
X211769737Y-71166503D01*
X211737175Y-71087890D01*
X211709397Y-71020827D01*
X211709390Y-71020814D01*
X211621789Y-70889711D01*
X211621786Y-70889707D01*
X211510292Y-70778213D01*
X211510288Y-70778210D01*
X211379185Y-70690609D01*
X211379172Y-70690602D01*
X211233501Y-70630264D01*
X211233489Y-70630261D01*
X211078845Y-70599500D01*
X211078842Y-70599500D01*
X210921158Y-70599500D01*
X210921155Y-70599500D01*
X210766510Y-70630261D01*
X210766498Y-70630264D01*
X210620827Y-70690602D01*
X210620814Y-70690609D01*
X210489711Y-70778210D01*
X210489707Y-70778213D01*
X210412181Y-70855740D01*
X210350858Y-70889225D01*
X210281166Y-70884241D01*
X210225233Y-70842369D01*
X210200816Y-70776905D01*
X210200500Y-70768059D01*
X210200500Y-70059060D01*
X210200501Y-70059047D01*
X210200501Y-69890944D01*
X210159576Y-69738214D01*
X210159573Y-69738209D01*
X210080524Y-69601290D01*
X210080518Y-69601282D01*
X208777444Y-68298208D01*
X207470057Y-66990822D01*
X207436573Y-66929500D01*
X207441557Y-66859808D01*
X207454638Y-66834250D01*
X207529184Y-66722686D01*
X207529192Y-66722671D01*
X207604569Y-66540693D01*
X207604572Y-66540681D01*
X207642999Y-66347495D01*
X207643000Y-66347492D01*
X207643000Y-65949000D01*
X206943000Y-65949000D01*
X206943000Y-65449000D01*
X207558607Y-65449000D01*
X207625646Y-65468685D01*
X207645616Y-65487049D01*
X207646748Y-65485918D01*
X207652495Y-65491665D01*
X207750335Y-65589505D01*
X207870164Y-65658688D01*
X208003817Y-65694500D01*
X208003819Y-65694500D01*
X208142181Y-65694500D01*
X208142183Y-65694500D01*
X208275836Y-65658688D01*
X208395665Y-65589505D01*
X208493505Y-65491665D01*
X208562688Y-65371836D01*
X208598500Y-65238183D01*
X208598500Y-65099817D01*
X208598499Y-65099815D01*
X208597439Y-65091761D01*
X208600094Y-65091411D01*
X208601438Y-65034755D01*
X208640595Y-64976889D01*
X208704821Y-64949378D01*
X208719554Y-64948500D01*
X209420431Y-64948500D01*
X209449871Y-64957144D01*
X209479858Y-64963668D01*
X209484873Y-64967422D01*
X209487470Y-64968185D01*
X209508112Y-64984819D01*
X209509678Y-64986385D01*
X209543163Y-65047708D01*
X209545400Y-65061909D01*
X209545886Y-65066848D01*
X209576647Y-65221489D01*
X209576650Y-65221501D01*
X209636988Y-65367172D01*
X209636995Y-65367185D01*
X209724596Y-65498288D01*
X209724599Y-65498292D01*
X209836093Y-65609786D01*
X209836097Y-65609789D01*
X209967200Y-65697390D01*
X209967213Y-65697397D01*
X210112884Y-65757735D01*
X210112889Y-65757737D01*
X210267539Y-65788499D01*
X210267542Y-65788500D01*
X210267544Y-65788500D01*
X210425230Y-65788500D01*
X210425231Y-65788499D01*
X210444707Y-65784625D01*
X210487961Y-65776022D01*
X210487966Y-65776021D01*
X210553595Y-65762966D01*
X210579883Y-65757737D01*
X210725565Y-65697394D01*
X210856675Y-65609789D01*
X210968175Y-65498289D01*
X211055780Y-65367179D01*
X211116123Y-65221497D01*
X211138400Y-65109504D01*
X211140327Y-65099817D01*
X213327500Y-65099817D01*
X213327500Y-65238183D01*
X213362063Y-65367172D01*
X213363312Y-65371835D01*
X213363313Y-65371838D01*
X213432492Y-65491661D01*
X213432494Y-65491664D01*
X213432495Y-65491665D01*
X213530335Y-65589505D01*
X213650164Y-65658688D01*
X213783817Y-65694500D01*
X213783819Y-65694500D01*
X213922181Y-65694500D01*
X213922183Y-65694500D01*
X214055836Y-65658688D01*
X214175665Y-65589505D01*
X214273505Y-65491665D01*
X214273505Y-65491664D01*
X214279252Y-65485918D01*
X214281629Y-65488295D01*
X214325491Y-65456294D01*
X214367393Y-65449000D01*
X214983000Y-65449000D01*
X214983000Y-65949000D01*
X214283000Y-65949000D01*
X214283000Y-66347495D01*
X214321427Y-66540681D01*
X214321430Y-66540693D01*
X214396807Y-66722671D01*
X214396814Y-66722684D01*
X214506248Y-66886462D01*
X214506251Y-66886466D01*
X214645533Y-67025748D01*
X214645537Y-67025751D01*
X214809315Y-67135185D01*
X214809328Y-67135192D01*
X214991308Y-67210569D01*
X215033000Y-67218862D01*
X215033000Y-66415988D01*
X215042940Y-66433205D01*
X215098795Y-66489060D01*
X215167204Y-66528556D01*
X215243504Y-66549000D01*
X215322496Y-66549000D01*
X215398796Y-66528556D01*
X215467205Y-66489060D01*
X215523060Y-66433205D01*
X215533000Y-66415988D01*
X215533000Y-67218862D01*
X215574690Y-67210569D01*
X215574692Y-67210569D01*
X215756671Y-67135192D01*
X215756684Y-67135185D01*
X215920462Y-67025751D01*
X215920466Y-67025748D01*
X216059748Y-66886466D01*
X216059753Y-66886460D01*
X216078778Y-66857989D01*
X216169185Y-66722684D01*
X216169192Y-66722671D01*
X216244569Y-66540693D01*
X216244572Y-66540681D01*
X216282999Y-66347495D01*
X216283000Y-66347492D01*
X216283000Y-65949000D01*
X215583000Y-65949000D01*
X215583000Y-65449000D01*
X216283000Y-65449000D01*
X216283000Y-65050508D01*
X216282999Y-65050504D01*
X216244572Y-64857318D01*
X216244569Y-64857306D01*
X216169192Y-64675328D01*
X216169185Y-64675315D01*
X216059751Y-64511537D01*
X216059748Y-64511533D01*
X215920466Y-64372251D01*
X215920462Y-64372248D01*
X215756684Y-64262814D01*
X215756671Y-64262807D01*
X215574691Y-64187429D01*
X215574683Y-64187427D01*
X215533000Y-64179135D01*
X215533000Y-64982011D01*
X215523060Y-64964795D01*
X215467205Y-64908940D01*
X215398796Y-64869444D01*
X215322496Y-64849000D01*
X215243504Y-64849000D01*
X215167204Y-64869444D01*
X215098795Y-64908940D01*
X215042940Y-64964795D01*
X215033000Y-64982011D01*
X215033000Y-64179136D01*
X215032999Y-64179135D01*
X214991316Y-64187427D01*
X214991308Y-64187429D01*
X214809328Y-64262807D01*
X214809315Y-64262814D01*
X214645537Y-64372248D01*
X214645533Y-64372251D01*
X214506251Y-64511533D01*
X214506248Y-64511537D01*
X214396814Y-64675315D01*
X214396808Y-64675327D01*
X214381623Y-64711986D01*
X214337781Y-64766388D01*
X214271487Y-64788452D01*
X214203788Y-64771172D01*
X214179382Y-64752212D01*
X214175666Y-64748496D01*
X214175661Y-64748492D01*
X214055838Y-64679313D01*
X214055837Y-64679312D01*
X214055836Y-64679312D01*
X213922183Y-64643500D01*
X213783817Y-64643500D01*
X213650164Y-64679312D01*
X213650161Y-64679313D01*
X213530338Y-64748492D01*
X213530333Y-64748496D01*
X213432496Y-64846333D01*
X213432492Y-64846338D01*
X213363313Y-64966161D01*
X213363312Y-64966164D01*
X213327500Y-65099817D01*
X211140327Y-65099817D01*
X211146756Y-65067499D01*
X211146885Y-65066846D01*
X211146886Y-65066844D01*
X211146886Y-64909155D01*
X211146885Y-64909153D01*
X211138986Y-64869444D01*
X211116123Y-64754503D01*
X211113635Y-64748496D01*
X211055783Y-64608827D01*
X211055776Y-64608814D01*
X210968175Y-64477711D01*
X210968172Y-64477707D01*
X210856678Y-64366213D01*
X210856674Y-64366210D01*
X210725571Y-64278609D01*
X210725558Y-64278602D01*
X210579887Y-64218264D01*
X210579875Y-64218261D01*
X210425234Y-64187500D01*
X210420295Y-64187014D01*
X210355508Y-64160851D01*
X210344771Y-64151292D01*
X210078962Y-63885483D01*
X210078957Y-63885479D01*
X209944314Y-63807743D01*
X209944311Y-63807742D01*
X209912574Y-63799237D01*
X209839487Y-63779654D01*
X209794127Y-63767500D01*
X205838259Y-63767500D01*
X205719813Y-63799236D01*
X205719812Y-63799237D01*
X205703943Y-63803489D01*
X205688073Y-63807742D01*
X205553431Y-63885477D01*
X205553423Y-63885483D01*
X205154614Y-64284292D01*
X205137793Y-64293476D01*
X205123944Y-64306728D01*
X205101175Y-64313471D01*
X205093291Y-64317777D01*
X205090611Y-64318329D01*
X205079451Y-64320500D01*
X205074158Y-64320500D01*
X204919503Y-64351263D01*
X204917901Y-64351926D01*
X204910018Y-64353460D01*
X204881285Y-64350766D01*
X204852427Y-64351014D01*
X204846447Y-64347500D01*
X204840453Y-64346939D01*
X204825354Y-64335107D01*
X204798659Y-64319423D01*
X203027818Y-62548582D01*
X202994333Y-62487259D01*
X202991499Y-62460901D01*
X202991499Y-61113129D01*
X202991498Y-61113123D01*
X202985091Y-61053516D01*
X202934797Y-60918671D01*
X202934793Y-60918664D01*
X202848547Y-60803455D01*
X202848544Y-60803452D01*
X202742098Y-60723766D01*
X202700227Y-60667832D01*
X202695243Y-60598141D01*
X202728729Y-60536818D01*
X202790052Y-60503334D01*
X202816409Y-60500500D01*
X205688408Y-60500500D01*
X205698159Y-60503363D01*
G37*
%TD.AperFunction*%
%TA.AperFunction,Conductor*%
G36*
X201175075Y-67283993D02*
G01*
X201240901Y-67398007D01*
X201333993Y-67491099D01*
X201448007Y-67556925D01*
X201511590Y-67573962D01*
X200879282Y-68206269D01*
X200879282Y-68206270D01*
X200933452Y-68245626D01*
X200933451Y-68245626D01*
X200942495Y-68250234D01*
X200993292Y-68298208D01*
X201010087Y-68366029D01*
X200987550Y-68432164D01*
X200942499Y-68471202D01*
X200933182Y-68475949D01*
X200761213Y-68600890D01*
X200610890Y-68751213D01*
X200485950Y-68923180D01*
X200484984Y-68925078D01*
X200484424Y-68925669D01*
X200483404Y-68927336D01*
X200483053Y-68927121D01*
X200437009Y-68975873D01*
X200369187Y-68992667D01*
X200303053Y-68970128D01*
X200259602Y-68915413D01*
X200250500Y-68868781D01*
X200250500Y-67852116D01*
X200270185Y-67785077D01*
X200322989Y-67739322D01*
X200392147Y-67729378D01*
X200455703Y-67758403D01*
X200484987Y-67795826D01*
X200486374Y-67798548D01*
X200525728Y-67852716D01*
X201158037Y-67220408D01*
X201175075Y-67283993D01*
G37*
%TD.AperFunction*%
%TA.AperFunction,Conductor*%
G36*
X221279270Y-67799717D02*
G01*
X221282845Y-67799435D01*
X221330512Y-67762679D01*
X221400125Y-67756700D01*
X221461920Y-67789305D01*
X221496277Y-67850144D01*
X221499500Y-67878230D01*
X221499500Y-68736916D01*
X221479815Y-68803955D01*
X221427011Y-68849710D01*
X221357853Y-68859654D01*
X221294297Y-68830629D01*
X221275182Y-68809801D01*
X221194109Y-68698214D01*
X221194105Y-68698209D01*
X221043786Y-68547890D01*
X220871817Y-68422949D01*
X220862504Y-68418204D01*
X220811707Y-68370230D01*
X220794912Y-68302409D01*
X220817449Y-68236274D01*
X220862507Y-68197232D01*
X220871555Y-68192622D01*
X220925716Y-68153270D01*
X220925717Y-68153270D01*
X220293408Y-67520962D01*
X220356993Y-67503925D01*
X220471007Y-67438099D01*
X220564099Y-67345007D01*
X220629925Y-67230993D01*
X220646962Y-67167408D01*
X221279270Y-67799717D01*
G37*
%TD.AperFunction*%
%TA.AperFunction,Conductor*%
G36*
X200455703Y-65219505D02*
G01*
X200483276Y-65254742D01*
X200483404Y-65254664D01*
X200484084Y-65255773D01*
X200484988Y-65256929D01*
X200485951Y-65258820D01*
X200610890Y-65430786D01*
X200761213Y-65581109D01*
X200933179Y-65706048D01*
X200933181Y-65706049D01*
X200933184Y-65706051D01*
X200942493Y-65710794D01*
X200993290Y-65758766D01*
X201010087Y-65826587D01*
X200987552Y-65892722D01*
X200942505Y-65931760D01*
X200933446Y-65936376D01*
X200933440Y-65936380D01*
X200879282Y-65975727D01*
X200879282Y-65975728D01*
X201511591Y-66608037D01*
X201448007Y-66625075D01*
X201333993Y-66690901D01*
X201240901Y-66783993D01*
X201175075Y-66898007D01*
X201158037Y-66961590D01*
X200525728Y-66329282D01*
X200525727Y-66329282D01*
X200486380Y-66383440D01*
X200486378Y-66383443D01*
X200484984Y-66386180D01*
X200484180Y-66387030D01*
X200483838Y-66387590D01*
X200483720Y-66387517D01*
X200437009Y-66436976D01*
X200369188Y-66453770D01*
X200303053Y-66431232D01*
X200259602Y-66376516D01*
X200250500Y-66329884D01*
X200250500Y-65313218D01*
X200270185Y-65246179D01*
X200322989Y-65200424D01*
X200392147Y-65190480D01*
X200455703Y-65219505D01*
G37*
%TD.AperFunction*%
%TA.AperFunction,Conductor*%
G36*
X221461920Y-65250158D02*
G01*
X221496277Y-65310997D01*
X221499500Y-65339083D01*
X221499500Y-66197768D01*
X221479815Y-66264807D01*
X221427011Y-66310562D01*
X221357853Y-66320506D01*
X221294297Y-66291481D01*
X221280431Y-66276373D01*
X221279269Y-66276282D01*
X220646962Y-66908590D01*
X220629925Y-66845007D01*
X220564099Y-66730993D01*
X220471007Y-66637901D01*
X220356993Y-66572075D01*
X220293409Y-66555037D01*
X220925716Y-65922728D01*
X220871547Y-65883373D01*
X220871547Y-65883372D01*
X220862500Y-65878763D01*
X220811706Y-65830788D01*
X220794912Y-65762966D01*
X220817451Y-65696832D01*
X220862508Y-65657793D01*
X220871816Y-65653051D01*
X220951007Y-65595515D01*
X221043786Y-65528109D01*
X221043788Y-65528106D01*
X221043792Y-65528104D01*
X221194104Y-65377792D01*
X221194106Y-65377788D01*
X221194109Y-65377786D01*
X221275182Y-65266198D01*
X221330511Y-65223532D01*
X221400125Y-65217553D01*
X221461920Y-65250158D01*
G37*
%TD.AperFunction*%
%TD*%
M02*
