%TF.GenerationSoftware,KiCad,Pcbnew,9.0.6*%
%TF.CreationDate,2025-12-03T22:27:59-06:00*%
%TF.ProjectId,Devboard,44657662-6f61-4726-942e-6b696361645f,rev?*%
%TF.SameCoordinates,Original*%
%TF.FileFunction,Copper,L2,Bot*%
%TF.FilePolarity,Positive*%
%FSLAX46Y46*%
G04 Gerber Fmt 4.6, Leading zero omitted, Abs format (unit mm)*
G04 Created by KiCad (PCBNEW 9.0.6) date 2025-12-03 22:27:59*
%MOMM*%
%LPD*%
G01*
G04 APERTURE LIST*
%TA.AperFunction,HeatsinkPad*%
%ADD10O,1.000000X2.100000*%
%TD*%
%TA.AperFunction,HeatsinkPad*%
%ADD11O,1.000000X1.600000*%
%TD*%
%TA.AperFunction,ComponentPad*%
%ADD12R,1.700000X1.700000*%
%TD*%
%TA.AperFunction,ComponentPad*%
%ADD13C,1.700000*%
%TD*%
%TA.AperFunction,ViaPad*%
%ADD14C,0.600000*%
%TD*%
%TA.AperFunction,Conductor*%
%ADD15C,0.200000*%
%TD*%
%TA.AperFunction,Conductor*%
%ADD16C,0.180000*%
%TD*%
%TA.AperFunction,Conductor*%
%ADD17C,0.100000*%
%TD*%
%TA.AperFunction,Conductor*%
%ADD18C,0.080000*%
%TD*%
G04 APERTURE END LIST*
D10*
%TO.P,J1,S1,SHIELD*%
%TO.N,GND*%
X215283000Y-65699000D03*
D11*
X215283000Y-61519000D03*
D10*
X206643000Y-65699000D03*
D11*
X206643000Y-61519000D03*
%TD*%
D12*
%TO.P,J3,1,Pin_1*%
%TO.N,VBUS*%
X220164000Y-61958000D03*
D13*
%TO.P,J3,2,Pin_2*%
%TO.N,GPIO29_ADC3*%
X220164000Y-64498000D03*
%TO.P,J3,3,Pin_3*%
%TO.N,GND*%
X220164000Y-67038000D03*
%TO.P,J3,4,Pin_4*%
%TO.N,GPIO28_ADC2*%
X220164000Y-69578000D03*
%TO.P,J3,5,Pin_5*%
%TO.N,+3V3*%
X220164000Y-72118000D03*
%TO.P,J3,6,Pin_6*%
%TO.N,GPIO27_ADC1*%
X220164000Y-74658000D03*
%TO.P,J3,7,Pin_7*%
%TO.N,GPIO26_ADC0*%
X220164000Y-77198000D03*
%TO.P,J3,8,Pin_8*%
%TO.N,GND*%
X220164000Y-79738000D03*
%TO.P,J3,9,Pin_9*%
%TO.N,GPIO24*%
X220164000Y-82278000D03*
%TO.P,J3,10,Pin_10*%
%TO.N,GPIO23*%
X220164000Y-84818000D03*
%TO.P,J3,11,Pin_11*%
%TO.N,RUN*%
X220164000Y-87358000D03*
%TO.P,J3,12,Pin_12*%
%TO.N,GPIO22*%
X220164000Y-89898000D03*
%TO.P,J3,13,Pin_13*%
%TO.N,GND*%
X220164000Y-92438000D03*
%TO.P,J3,14,Pin_14*%
%TO.N,GPIO21*%
X220164000Y-94978000D03*
%TO.P,J3,15,Pin_15*%
%TO.N,GPIO20*%
X220164000Y-97518000D03*
%TO.P,J3,16,Pin_16*%
%TO.N,GPIO19*%
X220164000Y-100058000D03*
%TO.P,J3,17,Pin_17*%
%TO.N,GPIO18*%
X220164000Y-102598000D03*
%TO.P,J3,18,Pin_18*%
%TO.N,GND*%
X220164000Y-105138000D03*
%TO.P,J3,19,Pin_19*%
%TO.N,GPIO17*%
X220164000Y-107678000D03*
%TO.P,J3,20,Pin_20*%
%TO.N,GPIO16*%
X220164000Y-110218000D03*
%TD*%
D12*
%TO.P,J2,1,Pin_1*%
%TO.N,GPIO0*%
X201641000Y-62011000D03*
D13*
%TO.P,J2,2,Pin_2*%
%TO.N,GPIO1*%
X201641000Y-64551000D03*
%TO.P,J2,3,Pin_3*%
%TO.N,GND*%
X201641000Y-67091000D03*
%TO.P,J2,4,Pin_4*%
%TO.N,GPIO2*%
X201641000Y-69631000D03*
%TO.P,J2,5,Pin_5*%
%TO.N,GPIO3*%
X201641000Y-72171000D03*
%TO.P,J2,6,Pin_6*%
%TO.N,GPIO4*%
X201641000Y-74711000D03*
%TO.P,J2,7,Pin_7*%
%TO.N,GPIO5*%
X201641000Y-77251000D03*
%TO.P,J2,8,Pin_8*%
%TO.N,GND*%
X201641000Y-79791000D03*
%TO.P,J2,9,Pin_9*%
%TO.N,GPIO6*%
X201641000Y-82331000D03*
%TO.P,J2,10,Pin_10*%
%TO.N,GPIO7*%
X201641000Y-84871000D03*
%TO.P,J2,11,Pin_11*%
%TO.N,GPIO8*%
X201641000Y-87411000D03*
%TO.P,J2,12,Pin_12*%
%TO.N,GPIO9*%
X201641000Y-89951000D03*
%TO.P,J2,13,Pin_13*%
%TO.N,GND*%
X201641000Y-92491000D03*
%TO.P,J2,14,Pin_14*%
%TO.N,GPIO10*%
X201641000Y-95031000D03*
%TO.P,J2,15,Pin_15*%
%TO.N,GPIO11*%
X201641000Y-97571000D03*
%TO.P,J2,16,Pin_16*%
%TO.N,GPIO12*%
X201641000Y-100111000D03*
%TO.P,J2,17,Pin_17*%
%TO.N,GPIO13*%
X201641000Y-102651000D03*
%TO.P,J2,18,Pin_18*%
%TO.N,GND*%
X201641000Y-105191000D03*
%TO.P,J2,19,Pin_19*%
%TO.N,GPIO14*%
X201641000Y-107731000D03*
%TO.P,J2,20,Pin_20*%
%TO.N,GPIO15*%
X201641000Y-110271000D03*
%TD*%
D12*
%TO.P,J4,1,Pin_1*%
%TO.N,SWCLK*%
X205282000Y-110104000D03*
D13*
%TO.P,J4,2,Pin_2*%
%TO.N,GND*%
X207822000Y-110104000D03*
%TO.P,J4,3,Pin_3*%
%TO.N,SWD*%
X210362000Y-110104000D03*
%TD*%
D14*
%TO.N,+3V3*%
X213831183Y-96506583D03*
X215800000Y-97000000D03*
X216062067Y-84543000D03*
X213337000Y-79451000D03*
X210461470Y-91461470D03*
X213841000Y-91723000D03*
%TO.N,GND*%
X217979470Y-90236883D03*
X212300000Y-88005000D03*
X215900000Y-109500000D03*
X211112626Y-90996712D03*
X205150000Y-64130000D03*
X210300000Y-88900000D03*
X212800000Y-80100000D03*
X212397735Y-81497735D03*
X206088000Y-106324000D03*
X216100000Y-74900000D03*
X217109185Y-99240815D03*
X216050000Y-65750000D03*
X208631500Y-75628000D03*
X205400000Y-67000000D03*
X206662050Y-89363929D03*
X209115890Y-82915890D03*
X219061551Y-77977175D03*
X207713000Y-66614000D03*
X203372000Y-68000000D03*
X207406057Y-109194609D03*
X205950000Y-97650000D03*
X217859000Y-73990000D03*
X215674910Y-95799000D03*
X212151038Y-84571017D03*
X210924000Y-107915000D03*
X210300000Y-77600000D03*
X212350000Y-95650000D03*
X216950000Y-104350000D03*
X205900000Y-95299000D03*
X206541204Y-76648184D03*
X210612128Y-82685074D03*
X218100000Y-75365563D03*
%TO.N,+1V1*%
X214586664Y-85201000D03*
X207000000Y-83520000D03*
X215185000Y-100054000D03*
X211414900Y-84938555D03*
X211722815Y-93862185D03*
X210453215Y-84201769D03*
X214895208Y-103799208D03*
%TO.N,VBUS*%
X213359000Y-73480000D03*
X213647000Y-61991000D03*
X213576000Y-63998000D03*
%TO.N,XIN*%
X217669000Y-76965530D03*
X217669000Y-80791609D03*
X211800000Y-91406002D03*
X214223000Y-95076000D03*
X216101000Y-76206000D03*
%TO.N,Net-(C16-Pad2)*%
X218926722Y-89357954D03*
X217199527Y-91164998D03*
X221192000Y-80910000D03*
X208287998Y-106734000D03*
X217593144Y-91558614D03*
%TO.N,GPIO25*%
X215400000Y-110200000D03*
X215823500Y-88309973D03*
%TO.N,Net-(D1-DOUT)*%
X210371000Y-107123601D03*
X217264000Y-110648000D03*
%TO.N,+5V*%
X209615000Y-105398998D03*
X213422000Y-105271002D03*
%TO.N,Net-(D2-DOUT)*%
X212525000Y-104798998D03*
X207379000Y-104873000D03*
%TO.N,USB_D+*%
X216943265Y-80327265D03*
X211783000Y-64855000D03*
%TO.N,USB_D-*%
X216861015Y-77856015D03*
X211237000Y-67766000D03*
%TO.N,GPIO6*%
X205797000Y-89730000D03*
X209347500Y-89419801D03*
%TO.N,GPIO4*%
X209347500Y-88320094D03*
X205180999Y-88654375D03*
%TO.N,GPIO7*%
X205818369Y-90611221D03*
X209357000Y-91469968D03*
%TO.N,GPIO1*%
X208908042Y-87637325D03*
X209700000Y-81100000D03*
X210600000Y-80200000D03*
%TO.N,GPIO5*%
X206626448Y-88499001D03*
%TO.N,GPIO27_ADC1*%
X213977954Y-87739199D03*
%TO.N,GPIO29_ADC3*%
X216866440Y-86066444D03*
%TO.N,GPIO24*%
X216787265Y-89043265D03*
X213959997Y-89339002D03*
%TO.N,GPIO16*%
X220715000Y-101365563D03*
X214185221Y-93674265D03*
%TO.N,GPIO26_ADC0*%
X218535735Y-85597735D03*
X213959997Y-88539000D03*
%TO.N,GPIO28_ADC2*%
X217218000Y-67697000D03*
X220715000Y-75965563D03*
%TO.N,RUN*%
X218103000Y-96362000D03*
X215163000Y-94190000D03*
%TO.N,Net-(U1-USB_DP)*%
X215245134Y-84554866D03*
X213236638Y-86806000D03*
%TO.N,Net-(R7-Pad1)*%
X213528000Y-102407000D03*
X206400000Y-78505000D03*
%TO.N,QPSI_SD3*%
X211200000Y-86806000D03*
X209954359Y-83140424D03*
%TO.N,QPSI_SD0*%
X211160398Y-80770926D03*
X210578206Y-81885794D03*
X209221000Y-84819000D03*
X215728000Y-82077000D03*
%TO.N,QPSI_SD2*%
X207955000Y-81184000D03*
X209834028Y-86781926D03*
%TO.N,QPSI_SD1*%
X208960234Y-86839027D03*
X208006000Y-79960000D03*
%TO.N,QPSI_SCLK*%
X211790000Y-83099000D03*
X210400000Y-85000000D03*
%TD*%
D15*
%TO.N,+3V3*%
X210461470Y-90797925D02*
X210863683Y-90395712D01*
X214936057Y-100655000D02*
X215433943Y-100655000D01*
X210863683Y-90395712D02*
X212513712Y-90395712D01*
X215433943Y-100655000D02*
X215800000Y-100288943D01*
D16*
X215347000Y-81622199D02*
X215347000Y-81164015D01*
D15*
X214843000Y-80957000D02*
X213337000Y-79451000D01*
D16*
X215137000Y-82321801D02*
X215137000Y-81832199D01*
D15*
X211118155Y-96890000D02*
X209597000Y-95368845D01*
D16*
X215139985Y-80957000D02*
X214843000Y-80957000D01*
D15*
X209597000Y-95368845D02*
X209597000Y-93300000D01*
D16*
X215137000Y-81832199D02*
X215347000Y-81622199D01*
X215584531Y-82668000D02*
X215483199Y-82668000D01*
D15*
X214200000Y-96890000D02*
X214000000Y-96890000D01*
X214200000Y-96890000D02*
X214200000Y-99918943D01*
X212513712Y-90395712D02*
X213841000Y-91723000D01*
X214910416Y-81024416D02*
X214843000Y-80957000D01*
X214200000Y-99918943D02*
X214936057Y-100655000D01*
X209597000Y-93300000D02*
X209597000Y-92576298D01*
X214200000Y-96890000D02*
X211118155Y-96890000D01*
D16*
X215483199Y-82668000D02*
X215137000Y-82321801D01*
D17*
X210036649Y-92136649D02*
X210461470Y-91711828D01*
D16*
X216062067Y-84537411D02*
X215584531Y-84059875D01*
X215347000Y-81164015D02*
X215139985Y-80957000D01*
D15*
X214200000Y-96890000D02*
X214281000Y-96890000D01*
X210461470Y-91461470D02*
X210461470Y-90797925D01*
D16*
X215584531Y-84059875D02*
X215584531Y-82668000D01*
X216062067Y-84543000D02*
X216062067Y-84537411D01*
D17*
X210461470Y-91711828D02*
X210461470Y-91461470D01*
D15*
X215800000Y-100288943D02*
X215800000Y-97000000D01*
X213841000Y-91723000D02*
X213650000Y-91914000D01*
X209597000Y-92576298D02*
X210036649Y-92136649D01*
D16*
%TO.N,GND*%
X220164000Y-79738000D02*
X219061551Y-78635551D01*
D15*
X210612128Y-82685074D02*
X210466478Y-82539424D01*
X212397735Y-80502265D02*
X212800000Y-80100000D01*
D16*
X206088000Y-107876552D02*
X206088000Y-106324000D01*
D15*
X212192000Y-87897000D02*
X212192000Y-85000000D01*
X211112626Y-90996712D02*
X211112626Y-91687374D01*
D16*
X207713000Y-66614000D02*
X212927000Y-61400000D01*
X216001000Y-95799000D02*
X215674910Y-95799000D01*
X220164000Y-92438000D02*
X217979470Y-90253470D01*
D18*
X200550000Y-93582000D02*
X200550000Y-95840907D01*
D16*
X208697168Y-89201000D02*
X208707168Y-89191000D01*
D18*
X209098174Y-88850000D02*
X209118121Y-88869947D01*
D16*
X206662050Y-89363929D02*
X206437121Y-89139000D01*
D15*
X204627000Y-91109900D02*
X205900000Y-92382900D01*
D16*
X217738000Y-105138000D02*
X220164000Y-105138000D01*
D18*
X201189093Y-96480000D02*
X202330000Y-96480000D01*
D16*
X219061551Y-78635551D02*
X219061551Y-77977175D01*
D15*
X217465563Y-75365563D02*
X218100000Y-75365563D01*
X212192000Y-85000000D02*
X212200000Y-84992000D01*
D16*
X212927000Y-61400000D02*
X215164000Y-61400000D01*
X216100000Y-74900000D02*
X217000000Y-74900000D01*
D15*
X211500000Y-95650000D02*
X212350000Y-95650000D01*
D16*
X216950000Y-104350000D02*
X217738000Y-105138000D01*
X210300000Y-77600000D02*
X210300000Y-77296500D01*
D17*
X205798000Y-89141000D02*
X205563000Y-89141000D01*
D15*
X212200000Y-84992000D02*
X212200000Y-84709000D01*
D16*
X216220032Y-95579968D02*
X216001000Y-95799000D01*
D17*
X204627000Y-90077000D02*
X204500000Y-90204000D01*
X209606931Y-88900000D02*
X209576878Y-88869947D01*
D16*
X220164000Y-92438000D02*
X218694000Y-93908000D01*
D17*
X209048168Y-88850000D02*
X209098174Y-88850000D01*
D16*
X217000000Y-74900000D02*
X217859000Y-74041000D01*
D17*
X205563000Y-89141000D02*
X204627000Y-90077000D01*
X209098174Y-88850000D02*
X209118122Y-88869948D01*
X210300000Y-88900000D02*
X209606931Y-88900000D01*
X208697168Y-89201000D02*
X209048168Y-88850000D01*
D16*
X210300000Y-77296500D02*
X208631500Y-75628000D01*
X215164000Y-61400000D02*
X215283000Y-61519000D01*
D15*
X212200000Y-84709000D02*
X212192000Y-84701000D01*
X212192000Y-85000000D02*
X212192000Y-84812000D01*
D16*
X216400000Y-95700000D02*
X216340065Y-95700000D01*
D15*
X208579191Y-89363929D02*
X208697168Y-89245952D01*
X209492356Y-82539424D02*
X209115890Y-82915890D01*
D16*
X207406057Y-109194609D02*
X206088000Y-107876552D01*
X206437121Y-89139000D02*
X205800000Y-89139000D01*
D18*
X200550000Y-95840907D02*
X201189093Y-96480000D01*
D17*
X205800000Y-89139000D02*
X205798000Y-89141000D01*
D15*
X217000000Y-74900000D02*
X217465563Y-75365563D01*
D16*
X216220032Y-95579968D02*
X216145032Y-95504967D01*
X218568000Y-96953000D02*
X217653000Y-96953000D01*
D18*
X201641000Y-92491000D02*
X200550000Y-93582000D01*
D15*
X204627000Y-90077000D02*
X204627000Y-91109900D01*
X212397735Y-81497735D02*
X212397735Y-80502265D01*
D16*
X218694000Y-96827000D02*
X218568000Y-96953000D01*
D18*
X202330000Y-96480000D02*
X203250000Y-97400000D01*
D15*
X208697168Y-89245952D02*
X208697168Y-89201000D01*
X210150000Y-94300000D02*
X211500000Y-95650000D01*
D16*
X216500000Y-95800000D02*
X216400000Y-95700000D01*
X217859000Y-74041000D02*
X217859000Y-73990000D01*
D15*
X211112626Y-91687374D02*
X210150000Y-92650000D01*
D16*
X216340065Y-95700000D02*
X216220032Y-95579968D01*
D15*
X212300000Y-88005000D02*
X212192000Y-87897000D01*
D16*
X207327000Y-67000000D02*
X207713000Y-66614000D01*
D15*
X206662050Y-89363929D02*
X208579191Y-89363929D01*
D16*
X214315000Y-107915000D02*
X215900000Y-109500000D01*
D15*
X210466478Y-82539424D02*
X209492356Y-82539424D01*
D18*
X209118121Y-88869947D02*
X209576878Y-88869947D01*
D16*
X205400000Y-67000000D02*
X207327000Y-67000000D01*
D15*
X210150000Y-92650000D02*
X210150000Y-94300000D01*
D16*
X210924000Y-107915000D02*
X214315000Y-107915000D01*
D18*
X208697168Y-89245952D02*
X208697168Y-89223020D01*
D16*
X217653000Y-96953000D02*
X216500000Y-95800000D01*
X217979470Y-90253470D02*
X217979470Y-90236883D01*
D15*
X205900000Y-92382900D02*
X205900000Y-95299000D01*
D16*
X218694000Y-93908000D02*
X218694000Y-96827000D01*
D15*
%TO.N,+1V1*%
X210653215Y-83786726D02*
X211189000Y-83250941D01*
X212586266Y-83176204D02*
X212586266Y-83884323D01*
X203526900Y-96300000D02*
X202876900Y-95650000D01*
X204649000Y-92365040D02*
X202792000Y-90508040D01*
X202792000Y-89474240D02*
X202117760Y-88800000D01*
X214129000Y-102158057D02*
X214129000Y-102655943D01*
X211189000Y-82850057D02*
X211541057Y-82498000D01*
X212038942Y-82498000D02*
X211595471Y-82054529D01*
X211790000Y-83948943D02*
X212220443Y-83518500D01*
X213929000Y-101429000D02*
X213929000Y-101958057D01*
X209099000Y-80889943D02*
X209099000Y-80251000D01*
X205799000Y-78538900D02*
X205799000Y-78256057D01*
X201950000Y-93880000D02*
X201950000Y-93642000D01*
X202117760Y-83720000D02*
X201650000Y-83720000D01*
X207444943Y-77904000D02*
X209445471Y-79904529D01*
X207000000Y-82988943D02*
X209099000Y-80889943D01*
X211189000Y-83250941D02*
X211189000Y-82850057D01*
X214895208Y-103799208D02*
X214895208Y-102395208D01*
X211790000Y-84082112D02*
X211790000Y-83948943D01*
X207000000Y-83520000D02*
X207000000Y-82988943D01*
X212927000Y-102655943D02*
X212927000Y-102158057D01*
X211409000Y-84963324D02*
X211363324Y-84963324D01*
X202876900Y-95650000D02*
X202649760Y-95650000D01*
X211595471Y-82054529D02*
X209445471Y-79904529D01*
X202649760Y-95650000D02*
X202792000Y-95507760D01*
X202117760Y-88800000D02*
X201650000Y-88800000D01*
X211873630Y-94013000D02*
X211722815Y-93862185D01*
X202792000Y-82807760D02*
X202792000Y-81854240D01*
X212586266Y-83884323D02*
X213279428Y-84577485D01*
X202117760Y-86260000D02*
X201650000Y-86260000D01*
X211595471Y-82054529D02*
X212391000Y-82850057D01*
X208732900Y-96300000D02*
X203526900Y-96300000D01*
X206151057Y-77904000D02*
X207444943Y-77904000D01*
X202792000Y-84394240D02*
X202117760Y-83720000D01*
X213929000Y-101958057D02*
X214129000Y-102158057D01*
X211363324Y-84963324D02*
X211236013Y-84836013D01*
X202117760Y-93880000D02*
X201950000Y-93880000D01*
X210453215Y-84201769D02*
X210653215Y-84201769D01*
X211236013Y-84836013D02*
X211455215Y-84616812D01*
X202792000Y-85347760D02*
X202792000Y-84394240D01*
X212220443Y-83518500D02*
X213279428Y-84577485D01*
X214129000Y-102655943D02*
X213776943Y-103008000D01*
X214895208Y-102395208D02*
X213929000Y-101429000D01*
X202792000Y-94554240D02*
X202117760Y-93880000D01*
X213127000Y-101958057D02*
X213127000Y-100694100D01*
D16*
X213279428Y-84577485D02*
X213279428Y-84591627D01*
D15*
X212927000Y-102158057D02*
X213127000Y-101958057D01*
X212391000Y-82980938D02*
X212586266Y-83176204D01*
X202792000Y-86934240D02*
X202117760Y-86260000D01*
X213776943Y-103008000D02*
X213279057Y-103008000D01*
X203372040Y-93642000D02*
X204649000Y-92365040D01*
X209099000Y-80251000D02*
X209445471Y-79904529D01*
X202792000Y-95507760D02*
X202792000Y-94554240D01*
X202792000Y-90508040D02*
X202792000Y-89474240D01*
X211995000Y-94013000D02*
X211873630Y-94013000D01*
X202792000Y-87887760D02*
X202792000Y-86934240D01*
X211455215Y-84616812D02*
X211455215Y-84416897D01*
X212391000Y-82850057D02*
X212391000Y-82980938D01*
X202792000Y-81854240D02*
X202637830Y-81700070D01*
X213127000Y-100694100D02*
X208732900Y-96300000D01*
X201650000Y-83482000D02*
X202117760Y-83482000D01*
X205799000Y-78256057D02*
X206151057Y-77904000D01*
X201650000Y-88800000D02*
X201650000Y-88562000D01*
X213279057Y-103008000D02*
X212927000Y-102655943D01*
X215185000Y-100054000D02*
X215185000Y-96887943D01*
X201650000Y-83720000D02*
X201650000Y-83482000D01*
X201950000Y-93642000D02*
X203372040Y-93642000D01*
X201650000Y-86260000D02*
X201650000Y-86022000D01*
X212310057Y-94013000D02*
X211995000Y-94013000D01*
X211455215Y-84416897D02*
X211790000Y-84082112D01*
X211541057Y-82498000D02*
X212038942Y-82498000D01*
X201650000Y-88562000D02*
X202117760Y-88562000D01*
X213279428Y-84577485D02*
X213963149Y-84577485D01*
X202117760Y-88562000D02*
X202792000Y-87887760D01*
X202117760Y-86022000D02*
X202792000Y-85347760D01*
X202117760Y-83482000D02*
X202792000Y-82807760D01*
X202637830Y-81700070D02*
X205799000Y-78538900D01*
X213963149Y-84577485D02*
X214586664Y-85201000D01*
X210653215Y-84201769D02*
X210653215Y-83786726D01*
X215185000Y-96887943D02*
X212310057Y-94013000D01*
X201650000Y-86022000D02*
X202117760Y-86022000D01*
%TO.N,VBUS*%
X219502000Y-62620000D02*
X220164000Y-61958000D01*
X213227000Y-64347000D02*
X213227000Y-73348000D01*
X213227000Y-73348000D02*
X213359000Y-73480000D01*
X214276000Y-62620000D02*
X219502000Y-62620000D01*
X213576000Y-63998000D02*
X213227000Y-64347000D01*
X213647000Y-61991000D02*
X214276000Y-62620000D01*
D16*
%TO.N,XIN*%
X216909470Y-76206000D02*
X217669000Y-76965530D01*
D15*
X212848000Y-92454002D02*
X211800000Y-91406002D01*
X213692000Y-93317543D02*
X213584221Y-93425322D01*
D16*
X216954726Y-91755998D02*
X217002144Y-91755998D01*
X213524197Y-88939001D02*
X213368997Y-88783801D01*
X216248541Y-85848541D02*
X216048541Y-86048541D01*
X213368997Y-88783801D02*
X213368997Y-88294199D01*
D15*
X214441000Y-92323000D02*
X213082900Y-92323000D01*
D16*
X215268999Y-86864043D02*
X215269000Y-86662042D01*
X217669000Y-80791609D02*
X216650000Y-81810609D01*
X217348343Y-92149614D02*
X217837945Y-92149614D01*
X216621639Y-85475444D02*
X216248541Y-85848541D01*
D15*
X213082900Y-93125000D02*
X213692000Y-93125000D01*
D16*
X216833728Y-91635000D02*
X216954726Y-91755998D01*
D15*
X213692000Y-93125000D02*
X213692000Y-93317543D01*
D16*
X215351615Y-86308907D02*
X215585460Y-86308907D01*
D15*
X214750000Y-92014000D02*
X214441000Y-92323000D01*
D16*
X216838201Y-89930002D02*
X213715196Y-89930002D01*
X213368997Y-89094201D02*
X213524197Y-88939001D01*
X214669000Y-91635000D02*
X214750000Y-91635000D01*
X215269000Y-86662042D02*
X215486875Y-86444167D01*
X215236099Y-86927373D02*
X215236100Y-86896942D01*
X218184144Y-91803415D02*
X218184144Y-91275945D01*
D15*
X213584221Y-93701000D02*
X212848000Y-93701000D01*
D16*
X214363556Y-87289000D02*
X214874472Y-87289000D01*
D15*
X215788175Y-86308907D02*
X216248541Y-85848541D01*
X213082900Y-92323000D02*
X212848000Y-92557900D01*
X213584221Y-93425322D02*
X213584221Y-93701000D01*
D16*
X216650000Y-84295132D02*
X216653067Y-84298199D01*
X213386954Y-87984000D02*
X213386954Y-87494398D01*
X213368997Y-88294199D02*
X213533075Y-88130121D01*
X217111241Y-85475444D02*
X216621639Y-85475444D01*
D15*
X212848000Y-92557900D02*
X212848000Y-92890100D01*
D16*
X216650000Y-81810609D02*
X216650000Y-84295132D01*
X216653067Y-84298199D02*
X216653067Y-84531068D01*
X217837945Y-92149614D02*
X218184144Y-91803415D01*
X217142735Y-85506938D02*
X217111241Y-85475444D01*
X213368997Y-89583803D02*
X213368997Y-89094201D01*
X214874472Y-87289000D02*
X215236099Y-86927373D01*
X213386954Y-87494398D02*
X213733153Y-87148199D01*
X216653067Y-84531068D02*
X217142734Y-85020735D01*
D15*
X215585460Y-86308907D02*
X215788175Y-86308907D01*
D16*
X218184144Y-91275945D02*
X216838201Y-89930002D01*
X213733153Y-87148199D02*
X214222755Y-87148199D01*
X215236100Y-86896942D02*
X215268999Y-86864043D01*
D15*
X212848000Y-93701000D02*
X214223000Y-95076000D01*
D16*
X217142734Y-85020735D02*
X217142735Y-85506938D01*
X217002144Y-91755998D02*
X217002144Y-91803415D01*
X217002144Y-91803415D02*
X217348343Y-92149614D01*
X213715196Y-89930002D02*
X213368997Y-89583803D01*
X213533075Y-88130121D02*
X213386954Y-87984000D01*
X214222755Y-87148199D02*
X214363556Y-87289000D01*
X216101000Y-76206000D02*
X216909470Y-76206000D01*
X214750000Y-91635000D02*
X216833728Y-91635000D01*
D15*
X214750000Y-91635000D02*
X214750000Y-92014000D01*
X212848000Y-92557900D02*
X212848000Y-92454002D01*
X212848000Y-92890100D02*
X213082900Y-93125000D01*
D16*
X215486875Y-86444167D02*
X215351615Y-86308907D01*
D15*
%TO.N,Net-(C16-Pad2)*%
X220402760Y-88747000D02*
X219537676Y-88747000D01*
X221192000Y-80910000D02*
X221315000Y-81033000D01*
X212900000Y-89900000D02*
X212900000Y-89350000D01*
X209933622Y-89683622D02*
X209958000Y-89708000D01*
D16*
X209148000Y-90697738D02*
X209148001Y-90878968D01*
D15*
X210772656Y-105872002D02*
X209910658Y-106734000D01*
X219537676Y-88747000D02*
X218926722Y-89357954D01*
X209910658Y-106734000D02*
X208287998Y-106734000D01*
X214842000Y-90704900D02*
X214607100Y-90470000D01*
X213670943Y-105872002D02*
X210772656Y-105872002D01*
X217393144Y-91594040D02*
X217164102Y-91364998D01*
X214023900Y-90721000D02*
X213721000Y-90721000D01*
D16*
X209137500Y-90528500D02*
X209137500Y-90687238D01*
D15*
X216602000Y-102940945D02*
X213670943Y-105872002D01*
X209948500Y-89668744D02*
X209933622Y-89683622D01*
X212655093Y-88499850D02*
X212548943Y-88606000D01*
X217593144Y-91454144D02*
X217399487Y-91647801D01*
X211747500Y-88302443D02*
X210548943Y-89501000D01*
X212548943Y-88606000D02*
X212051057Y-88606000D01*
D16*
X209148001Y-90878968D02*
X209601801Y-90878968D01*
D15*
X209196000Y-95534945D02*
X216602000Y-102940945D01*
X210548943Y-89501000D02*
X210051057Y-89501000D01*
X217393144Y-91641457D02*
X217393144Y-91594040D01*
X214842000Y-91244000D02*
X214842000Y-90704900D01*
X212655093Y-89105093D02*
X212655093Y-88499850D01*
X221315000Y-87834760D02*
X220402760Y-88747000D01*
X209948500Y-89398443D02*
X209948500Y-89668744D01*
X210051057Y-89501000D02*
X209948500Y-89398443D01*
X214607100Y-90470000D02*
X214274900Y-90470000D01*
D17*
X209908000Y-91698200D02*
X209219200Y-92387000D01*
D15*
X212051057Y-88606000D02*
X211747500Y-88302443D01*
D16*
X209958000Y-89708000D02*
X209137500Y-90528500D01*
D15*
X217164102Y-91364998D02*
X217116684Y-91364998D01*
D17*
X209601801Y-90878968D02*
X209908000Y-91185167D01*
D15*
X212900000Y-89350000D02*
X212655093Y-89105093D01*
X221315000Y-81033000D02*
X221315000Y-87834760D01*
X209196000Y-92387000D02*
X209196000Y-95534945D01*
X217116684Y-91364998D02*
X216995685Y-91243999D01*
X213721000Y-90721000D02*
X212900000Y-89900000D01*
D16*
X209137500Y-90687238D02*
X209148000Y-90697738D01*
D17*
X209219200Y-92387000D02*
X209206943Y-92387000D01*
D15*
X217399487Y-91647801D02*
X217393144Y-91641457D01*
D17*
X209908000Y-91185167D02*
X209908000Y-91698200D01*
D15*
X209206943Y-92387000D02*
X209196000Y-92387000D01*
X214274900Y-90470000D02*
X214023900Y-90721000D01*
X217593144Y-91558614D02*
X217593144Y-91454144D01*
X216995685Y-91243999D02*
X214842000Y-91244000D01*
%TO.N,GPIO25*%
X216200000Y-111000000D02*
X215400000Y-110200000D01*
X215823500Y-88309973D02*
X216948213Y-88309973D01*
X220640760Y-111369000D02*
X216200000Y-111369000D01*
X220857380Y-111152380D02*
X220640760Y-111369000D01*
X221315000Y-110694760D02*
X220857380Y-111152380D01*
X216948213Y-88309973D02*
X219925240Y-91287000D01*
X216200000Y-111369000D02*
X216200000Y-111000000D01*
X221315000Y-91961240D02*
X221315000Y-110694760D01*
X219925240Y-91287000D02*
X220640760Y-91287000D01*
X216200000Y-111369000D02*
X216097000Y-111369000D01*
X220640760Y-91287000D02*
X221315000Y-91961240D01*
%TO.N,Net-(D1-DOUT)*%
X215017544Y-107123601D02*
X217344000Y-109450057D01*
X210371000Y-107123601D02*
X215017544Y-107123601D01*
X217344000Y-109450057D02*
X217344000Y-110717000D01*
%TO.N,+5V*%
X209615000Y-105398998D02*
X213294004Y-105398998D01*
X213294004Y-105398998D02*
X213422000Y-105271002D01*
D16*
%TO.N,Net-(D2-DOUT)*%
X207453002Y-104798998D02*
X207379000Y-104873000D01*
X212525000Y-104798998D02*
X207453002Y-104798998D01*
D15*
%TO.N,USB_D+*%
X215349943Y-78561000D02*
X215480100Y-78561000D01*
X214589950Y-77427950D02*
X214250000Y-77767900D01*
X215478950Y-77284950D02*
X215478950Y-77427950D01*
X211839393Y-73995607D02*
X211839393Y-64911393D01*
X216827115Y-77255015D02*
X216741522Y-77169421D01*
X215263472Y-78647471D02*
X215349943Y-78561000D01*
X212348000Y-75865900D02*
X212348000Y-74626900D01*
X217109958Y-77255015D02*
X216827115Y-77255015D01*
X215480100Y-78561000D02*
X216211100Y-77830000D01*
X216211100Y-77830000D02*
X216260015Y-77830000D01*
X215478950Y-77427950D02*
X214589950Y-77427950D01*
X211778050Y-74056950D02*
X211839393Y-73995607D01*
X217462015Y-78104958D02*
X217462015Y-77607072D01*
X216260015Y-77830000D02*
X216260015Y-78104958D01*
X217462015Y-77607072D02*
X217109958Y-77255015D01*
X212348000Y-74626900D02*
X211778050Y-74056950D01*
X215735900Y-77028000D02*
X215478950Y-77284950D01*
X216882943Y-77028000D02*
X215735900Y-77028000D01*
X211839393Y-64911393D02*
X211783000Y-64855000D01*
X216260015Y-78104958D02*
X216612072Y-78457015D01*
X217109958Y-78457015D02*
X217462015Y-78104958D01*
X216943265Y-80327265D02*
X215263472Y-78647471D01*
X214250000Y-77767900D02*
X212348000Y-75865900D01*
X216741522Y-77169421D02*
X216882943Y-77028000D01*
X216612072Y-78457015D02*
X217109958Y-78457015D01*
%TO.N,USB_D-*%
X214425000Y-78160000D02*
X214250000Y-78335000D01*
X216434000Y-77429000D02*
X215902000Y-77429000D01*
X212137000Y-76222000D02*
X211947000Y-76222000D01*
X211343000Y-67872000D02*
X211237000Y-67766000D01*
X211947000Y-74793000D02*
X211343000Y-74189000D01*
X211947000Y-76222000D02*
X211947000Y-74793000D01*
X214250000Y-78335000D02*
X212137000Y-76222000D01*
X215902000Y-77572000D02*
X215314000Y-78160000D01*
X215314000Y-78160000D02*
X214425000Y-78160000D01*
X211343000Y-74189000D02*
X211343000Y-67872000D01*
X216861015Y-77856015D02*
X216434000Y-77429000D01*
X215902000Y-77429000D02*
X215902000Y-77572000D01*
%TO.N,GPIO6*%
X209347500Y-89419801D02*
X209347499Y-89419804D01*
X209298168Y-89469135D02*
X209298168Y-89657696D01*
X209347499Y-89419804D02*
X209298168Y-89469135D01*
X209098557Y-89657696D02*
X208746500Y-90009753D01*
X207716000Y-91649000D02*
X205797000Y-89730000D01*
X208746500Y-90009753D02*
X208746500Y-90849196D01*
X208746500Y-90849196D02*
X208757000Y-90859696D01*
X208757000Y-91649000D02*
X207716000Y-91649000D01*
X208757000Y-90859696D02*
X208757000Y-91649000D01*
X209298168Y-89657696D02*
X209098557Y-89657696D01*
D16*
%TO.N,GPIO4*%
X206035448Y-88364552D02*
X205600000Y-88800000D01*
X206381647Y-87908001D02*
X206035448Y-88254200D01*
D18*
X209347500Y-88320094D02*
X209347500Y-88451544D01*
X208763131Y-88457131D02*
X208206000Y-87900000D01*
X209341913Y-88457131D02*
X208763131Y-88457131D01*
D16*
X205326624Y-88800000D02*
X205180999Y-88654375D01*
X206035448Y-88254200D02*
X206035448Y-88364552D01*
X206491999Y-87908001D02*
X206381647Y-87908001D01*
X208206000Y-87900000D02*
X206500000Y-87900000D01*
X206500000Y-87900000D02*
X206491999Y-87908001D01*
X205600000Y-88800000D02*
X205326624Y-88800000D01*
D18*
X209347500Y-88451544D02*
X209341913Y-88457131D01*
D15*
%TO.N,GPIO7*%
X209274032Y-91469968D02*
X209158000Y-91586000D01*
X209029900Y-91986000D02*
X208965900Y-92050000D01*
X208965900Y-92050000D02*
X207257148Y-92050000D01*
X209357000Y-91469968D02*
X209274032Y-91469968D01*
X209040843Y-91986000D02*
X209029900Y-91986000D01*
X209158000Y-91868843D02*
X209040843Y-91986000D01*
X207257148Y-92050000D02*
X205818369Y-90611221D01*
X209158000Y-91586000D02*
X209158000Y-91868843D01*
D16*
%TO.N,GPIO1*%
X207244801Y-84111000D02*
X206755199Y-84111000D01*
X209483151Y-87266849D02*
X209477547Y-87261246D01*
X207606901Y-77513000D02*
X206556078Y-77513000D01*
X205515000Y-77987099D02*
X205989100Y-77512999D01*
X209589227Y-87372926D02*
X209483151Y-87266849D01*
X207591000Y-83275199D02*
X207591000Y-83764801D01*
X210425028Y-87026727D02*
X210078829Y-87372926D01*
X206050000Y-84750000D02*
X205194000Y-84750000D01*
X205194000Y-85444000D02*
X205598026Y-85848026D01*
X207591000Y-83764801D02*
X207244801Y-84111000D01*
X210293900Y-80200000D02*
X207606901Y-77513000D01*
D18*
X208908042Y-87637325D02*
X208909560Y-87638843D01*
D16*
X205194000Y-84750000D02*
X205194000Y-85444000D01*
D18*
X209111157Y-87638843D02*
X209483151Y-87266849D01*
D16*
X210225029Y-86316658D02*
X210225028Y-86337125D01*
X206722099Y-84077901D02*
X206050000Y-84750000D01*
X209756398Y-85848027D02*
X210225029Y-86316658D01*
D15*
X206006198Y-77443802D02*
X206246539Y-77203461D01*
D18*
X208909560Y-87638843D02*
X209111157Y-87638843D01*
D16*
X210225028Y-86337125D02*
X210425028Y-86537125D01*
X201641000Y-64551000D02*
X205515000Y-68425000D01*
X210425028Y-86537125D02*
X210425028Y-87026727D01*
X205598026Y-85848026D02*
X209756398Y-85848027D01*
X205515000Y-68425000D02*
X205515000Y-77987099D01*
X210600000Y-80200000D02*
X210293900Y-80200000D01*
X207557900Y-83242100D02*
X207591000Y-83275199D01*
X209700000Y-81100000D02*
X207557900Y-83242100D01*
D15*
X206006198Y-77512999D02*
X206006198Y-77443802D01*
D16*
X210078829Y-87372926D02*
X209589227Y-87372926D01*
X206556078Y-77513000D02*
X206246539Y-77203461D01*
X206755199Y-84111000D02*
X206722099Y-84077901D01*
X205989100Y-77512999D02*
X206006198Y-77512999D01*
D15*
%TO.N,GPIO27_ADC1*%
X218264015Y-78437158D02*
X218264015Y-77787558D01*
X218671000Y-80376566D02*
X218366717Y-80072283D01*
X218670000Y-79769000D02*
X217801086Y-78900086D01*
X215627100Y-87307973D02*
X215627100Y-87058900D01*
X216272000Y-86668000D02*
X216604200Y-86668000D01*
X217551000Y-84194735D02*
X217551000Y-82029667D01*
X218366717Y-80072283D02*
X218670000Y-79769000D01*
X217787058Y-81793609D02*
X218084043Y-81793609D01*
X213987836Y-87749081D02*
X214094919Y-87749081D01*
X218521692Y-84761835D02*
X218521692Y-84429635D01*
X213977954Y-87739199D02*
X213987836Y-87749081D01*
X218511679Y-88355954D02*
X218612000Y-88355954D01*
X218451267Y-88416367D02*
X218511679Y-88355954D01*
X215408457Y-87307973D02*
X215627100Y-87307973D01*
X218671000Y-81206652D02*
X218671000Y-80376566D01*
X216262000Y-86658000D02*
X216272000Y-86668000D01*
X216020894Y-86665106D02*
X216191558Y-86665106D01*
X218286792Y-84194735D02*
X217551000Y-84194735D01*
X218612000Y-86820900D02*
X218612000Y-86198735D01*
X215627100Y-87058900D02*
X215761000Y-86925000D01*
X218612000Y-87179100D02*
X218599000Y-87166100D01*
X218671000Y-77380573D02*
X218671000Y-76550487D01*
X215036430Y-87680000D02*
X215408457Y-87307973D01*
X216604200Y-86668000D02*
X217135200Y-87199000D01*
X217551000Y-82029667D02*
X217787058Y-81793609D01*
X217934735Y-85846678D02*
X217934735Y-85348792D01*
X218670000Y-79769000D02*
X218670000Y-79586900D01*
X218612000Y-88355954D02*
X218612000Y-87179100D01*
X218471257Y-76350743D02*
X220164000Y-74658000D01*
X218084043Y-81793609D02*
X218671000Y-81206652D01*
X217934735Y-85348792D02*
X218521692Y-84761835D01*
X214094919Y-87749081D02*
X214164000Y-87680000D01*
X215761000Y-86925000D02*
X215660000Y-86824000D01*
X217801086Y-78900086D02*
X218264015Y-78437158D01*
X218286792Y-86198735D02*
X217934735Y-85846678D01*
X218599000Y-87166100D02*
X218599000Y-86833900D01*
X217135200Y-87199000D02*
X217233900Y-87199000D01*
X218671000Y-76550487D02*
X218471257Y-76350743D01*
X218264015Y-77787558D02*
X218671000Y-77380573D01*
X215660000Y-86824000D02*
X215862000Y-86824000D01*
X216198664Y-86658000D02*
X216262000Y-86658000D01*
X214164000Y-87680000D02*
X215036430Y-87680000D01*
X218521692Y-84429635D02*
X218286792Y-84194735D01*
X217233900Y-87199000D02*
X218451267Y-88416367D01*
X215862000Y-86824000D02*
X216020894Y-86665106D01*
X218599000Y-86833900D02*
X218612000Y-86820900D01*
X218612000Y-86198735D02*
X218286792Y-86198735D01*
X216191558Y-86665106D02*
X216198664Y-86658000D01*
%TO.N,GPIO29_ADC3*%
X217192208Y-79726265D02*
X216909365Y-79726265D01*
X217544265Y-80078322D02*
X217192208Y-79726265D01*
X218198000Y-86613000D02*
X218211000Y-86600000D01*
X217071427Y-75814999D02*
X216559943Y-75815000D01*
X217863015Y-78271058D02*
X217863015Y-77566530D01*
X219454000Y-65208000D02*
X220164000Y-64498000D01*
X218120692Y-86599735D02*
X217533735Y-86012778D01*
X217620958Y-81392609D02*
X217917943Y-81392609D01*
X217533735Y-85182692D02*
X218120692Y-84595735D01*
X218107943Y-73389000D02*
X218452000Y-73733057D01*
X216445972Y-78858015D02*
X217276058Y-78858015D01*
X218207000Y-73063000D02*
X217634000Y-72490000D01*
X217620958Y-76364530D02*
X217071427Y-75814999D01*
X217150000Y-81863567D02*
X217620958Y-81392609D01*
X215499000Y-75051000D02*
X215499000Y-74651057D01*
X218270000Y-81040552D02*
X218270000Y-80542666D01*
X216604000Y-67461057D02*
X216969057Y-67096000D01*
X215499000Y-74651057D02*
X215851057Y-74299000D01*
X218120692Y-84595735D02*
X217270692Y-84595735D01*
X216909365Y-79726265D02*
X215895650Y-78712550D01*
X217774000Y-70059000D02*
X216604000Y-68889000D01*
X217634000Y-72490000D02*
X217634000Y-70199000D01*
X217910000Y-67111000D02*
X219454000Y-65567000D01*
X217399996Y-86797996D02*
X218198000Y-87596000D01*
X215500000Y-76364530D02*
X215314530Y-76364530D01*
X217917943Y-81392609D02*
X218270000Y-81040552D01*
X218270000Y-77214473D02*
X218270000Y-76716587D01*
X217917943Y-77566530D02*
X218270000Y-77214473D01*
X218452000Y-73733057D02*
X218452000Y-73063000D01*
X217634000Y-70199000D02*
X217774000Y-70059000D01*
X214750000Y-75800000D02*
X215499000Y-75051000D01*
X218452000Y-73063000D02*
X218207000Y-73063000D01*
X217533735Y-86012778D02*
X217533735Y-85182692D01*
X217102992Y-74244050D02*
X217258000Y-74089042D01*
X219454000Y-65567000D02*
X219454000Y-65208000D01*
X218270000Y-80542666D02*
X217917943Y-80190609D01*
X216305950Y-74244050D02*
X217102992Y-74244050D01*
X217270692Y-84595735D02*
X217150000Y-84475043D01*
X216098079Y-78510122D02*
X216445972Y-78858015D01*
X217895000Y-67096000D02*
X217910000Y-67111000D01*
X217258000Y-74089042D02*
X217258000Y-73741057D01*
X215852057Y-75605000D02*
X215500000Y-75957057D01*
X217863015Y-77566530D02*
X217917943Y-77566530D01*
X216349943Y-75605000D02*
X215852057Y-75605000D01*
X217150000Y-84475043D02*
X217150000Y-81863567D01*
X215500000Y-75957057D02*
X215500000Y-76364530D01*
X217276058Y-78858015D02*
X217863015Y-78271058D01*
X215895650Y-78712550D02*
X216098079Y-78510122D01*
X218270000Y-76716587D02*
X217917943Y-76364530D01*
X217258000Y-73741057D02*
X217610057Y-73389000D01*
X217917943Y-80190609D02*
X217647021Y-80190609D01*
X217917943Y-76364530D02*
X217620958Y-76364530D01*
X218211000Y-86600000D02*
X218211000Y-86599735D01*
X216866440Y-86066444D02*
X217399996Y-86600000D01*
X217544265Y-80087853D02*
X217544265Y-80078322D01*
X216969057Y-67096000D02*
X217895000Y-67096000D01*
X217647021Y-80190609D02*
X217544265Y-80087853D01*
X218211000Y-86599735D02*
X218120692Y-86599735D01*
X216604000Y-68889000D02*
X216604000Y-67461057D01*
X215314530Y-76364530D02*
X214750000Y-75800000D01*
X216559943Y-75815000D02*
X216349943Y-75605000D01*
X218198000Y-87596000D02*
X218198000Y-86613000D01*
X217610057Y-73389000D02*
X218107943Y-73389000D01*
X217399996Y-86600000D02*
X217399996Y-86797996D01*
X216251000Y-74299000D02*
X216305950Y-74244050D01*
X215851057Y-74299000D02*
X216251000Y-74299000D01*
%TO.N,GPIO24*%
X214434500Y-88940002D02*
X215388600Y-88940002D01*
X215447000Y-89097000D02*
X215316000Y-89097000D01*
X214035499Y-89339003D02*
X214434500Y-88940002D01*
X213959997Y-89339002D02*
X213959998Y-89339003D01*
X213959998Y-89339003D02*
X214035499Y-89339003D01*
X215772000Y-89097000D02*
X215447000Y-89097000D01*
X215501801Y-88826801D02*
X215772000Y-89097000D01*
X216315527Y-89097000D02*
X215772000Y-89097000D01*
X215388600Y-88940002D02*
X215501801Y-88826801D01*
X216733530Y-89097000D02*
X216787265Y-89043265D01*
X216315527Y-89097000D02*
X216733530Y-89097000D01*
%TO.N,GPIO16*%
X220715000Y-101365563D02*
X219843803Y-101365563D01*
X215407107Y-96542950D02*
X215050000Y-96185843D01*
X216887107Y-96800000D02*
X216401000Y-96800000D01*
X217651107Y-97564000D02*
X216887107Y-96800000D01*
X216401000Y-96800000D02*
X216401000Y-96751057D01*
X219843803Y-101365563D02*
X219013000Y-100534760D01*
X214185221Y-94098114D02*
X214185221Y-93674265D01*
X216048943Y-96399000D02*
X215551057Y-96399000D01*
X215050000Y-94962893D02*
X214185221Y-94098114D01*
X215551057Y-96399000D02*
X215407107Y-96542950D01*
X219013000Y-97564000D02*
X217651107Y-97564000D01*
X216401000Y-96751057D02*
X216048943Y-96399000D01*
X215050000Y-96185843D02*
X215050000Y-94962893D01*
X219013000Y-100534760D02*
X219013000Y-97564000D01*
%TO.N,GPIO26_ADC0*%
X216028100Y-87225000D02*
X216184100Y-87069000D01*
X220804880Y-85804880D02*
X220640760Y-85969000D01*
X213959998Y-88539002D02*
X215222500Y-88539002D01*
X216438100Y-87069000D02*
X218369100Y-89000000D01*
X219687240Y-86207000D02*
X220640760Y-86207000D01*
X216028100Y-87708973D02*
X216028100Y-87225000D01*
X220914000Y-86480240D02*
X220914000Y-85914000D01*
X215222500Y-88061030D02*
X215574557Y-87708973D01*
X219013000Y-86881240D02*
X219687240Y-86207000D01*
X218677779Y-88756954D02*
X218960622Y-88756954D01*
X216184100Y-87069000D02*
X216438100Y-87069000D01*
X218369100Y-89000000D02*
X218434733Y-89000000D01*
X219687240Y-85969000D02*
X219315975Y-85597735D01*
X219013000Y-87000000D02*
X219013000Y-86881240D01*
X215222500Y-88539002D02*
X215222500Y-88061030D01*
X218434733Y-89000000D02*
X218677779Y-88756954D01*
X213959997Y-88539000D02*
X213959998Y-88539002D01*
X219013000Y-88704576D02*
X219013000Y-87013000D01*
X215574557Y-87708973D02*
X216028100Y-87708973D01*
X220640760Y-86207000D02*
X220914000Y-86480240D01*
X219315975Y-85597735D02*
X218535735Y-85597735D01*
X220914000Y-85914000D02*
X220804880Y-85804880D01*
X219013000Y-87013000D02*
X219000000Y-87000000D01*
X218960622Y-88756954D02*
X219013000Y-88704576D01*
X220640760Y-85969000D02*
X219687240Y-85969000D01*
%TO.N,GPIO28_ADC2*%
X221366000Y-73357000D02*
X221266000Y-73257000D01*
X221315000Y-76565563D02*
X221315000Y-77674760D01*
X218315000Y-70967000D02*
X218091000Y-71191000D01*
X221315000Y-73208000D02*
X221315000Y-71493000D01*
X220715000Y-75965563D02*
X221315000Y-76565563D01*
X218091000Y-71191000D02*
X218091000Y-70687000D01*
X218091000Y-70687000D02*
X218730000Y-70048000D01*
X221399000Y-78498000D02*
X221399000Y-75709000D01*
X221266000Y-73257000D02*
X221315000Y-73208000D01*
X221315000Y-71493000D02*
X220789000Y-70967000D01*
X218730000Y-68873000D02*
X217554000Y-67697000D01*
X220789000Y-70967000D02*
X218315000Y-70967000D01*
X221399000Y-75709000D02*
X221366000Y-75676000D01*
X218730000Y-70048000D02*
X218730000Y-68873000D01*
X217554000Y-67697000D02*
X217218000Y-67697000D01*
X221366000Y-75676000D02*
X221366000Y-73357000D01*
D16*
%TO.N,RUN*%
X215342000Y-94011000D02*
X215752000Y-94011000D01*
D15*
X218103000Y-96362000D02*
X215752000Y-94011000D01*
X215752000Y-94011000D02*
X214465000Y-92724000D01*
D16*
X215163000Y-94190000D02*
X215342000Y-94011000D01*
D15*
X214465000Y-92724000D02*
X213249000Y-92724000D01*
%TO.N,Net-(U1-USB_DP)*%
X215461067Y-84554866D02*
X215461067Y-84791943D01*
X215461067Y-84791943D02*
X215813124Y-85144000D01*
X214845105Y-86734979D02*
X214845105Y-86734971D01*
X214428221Y-86800707D02*
X214600000Y-86800707D01*
X214384712Y-86757198D02*
X214428221Y-86800707D01*
X214809807Y-86800707D02*
X214845099Y-86765415D01*
X215813124Y-85144000D02*
X216311010Y-85144000D01*
X216144125Y-85399875D02*
X216144125Y-85400000D01*
X216082441Y-85447541D02*
X215729982Y-85800000D01*
X213236638Y-86806000D02*
X213236638Y-86648778D01*
X215729982Y-85800000D02*
X214960614Y-85800000D01*
X214960615Y-86146949D02*
X215134089Y-85973475D01*
X216311010Y-85144000D02*
X216400000Y-85055010D01*
X213685416Y-86200000D02*
X213999293Y-86200000D01*
X214877999Y-86500085D02*
X214960614Y-86417470D01*
X214845105Y-86734971D02*
X214877999Y-86702080D01*
X214845099Y-86765415D02*
X214845099Y-86734985D01*
X214600000Y-86800707D02*
X214809807Y-86800707D01*
X215245134Y-84554866D02*
X215461067Y-84554866D01*
X214877999Y-86702080D02*
X214877999Y-86500085D01*
X215134089Y-85973475D02*
X214960614Y-85800000D01*
X214960614Y-86000000D02*
X215060614Y-85900000D01*
X215060614Y-85900000D02*
X214960614Y-85800000D01*
X216400000Y-85144000D02*
X216144125Y-85399875D01*
X213236638Y-86648778D02*
X213685416Y-86200000D01*
X216144125Y-85400000D02*
X216096584Y-85447541D01*
X216096584Y-85447541D02*
X216082441Y-85447541D01*
X216400000Y-85055010D02*
X216400000Y-85144000D01*
X214960614Y-86417470D02*
X214960615Y-86146949D01*
X214845099Y-86734985D02*
X214845105Y-86734979D01*
X213999293Y-86200000D02*
X214600000Y-86800707D01*
%TO.N,Net-(R7-Pad1)*%
X205050000Y-92450860D02*
X205050000Y-92100000D01*
X203193000Y-86768140D02*
X202565860Y-86141000D01*
X202565860Y-83601000D02*
X203193000Y-82973860D01*
X205090140Y-92491000D02*
X205050000Y-92450860D01*
X203193000Y-84228140D02*
X202565860Y-83601000D01*
X203193000Y-90243000D02*
X203193000Y-89308140D01*
X203693000Y-95899000D02*
X208899000Y-95899000D01*
X202565860Y-88681000D02*
X203193000Y-88053860D01*
X203193000Y-88053860D02*
X203193000Y-86768140D01*
X202565860Y-86141000D02*
X203193000Y-85513860D01*
X203193000Y-94388140D02*
X205090140Y-92491000D01*
X203193000Y-82973860D02*
X203193000Y-81712000D01*
X205050000Y-92100000D02*
X203193000Y-90243000D01*
X213528000Y-100528000D02*
X208899000Y-95899000D01*
X203193000Y-95399000D02*
X203693000Y-95899000D01*
X203193000Y-95399000D02*
X203193000Y-94388140D01*
X203193000Y-89308140D02*
X202565860Y-88681000D01*
X203193000Y-81712000D02*
X206400000Y-78505000D01*
X203193000Y-85513860D02*
X203193000Y-84228140D01*
X213528000Y-102407000D02*
X213528000Y-100528000D01*
D17*
%TO.N,QPSI_SD3*%
X211000000Y-86800000D02*
X211000000Y-86609383D01*
D15*
X209954359Y-83140424D02*
X209954359Y-83405567D01*
D17*
X211000000Y-86800000D02*
X211194000Y-86800000D01*
X209822000Y-85431383D02*
X211000000Y-86609383D01*
D15*
X209822000Y-83537926D02*
X209822000Y-84728057D01*
X209954359Y-83405567D02*
X209822000Y-83537926D01*
D17*
X209822000Y-84728057D02*
X209822000Y-85431383D01*
X211194000Y-86800000D02*
X211200000Y-86806000D01*
D16*
%TO.N,QPSI_SD0*%
X213581801Y-78860000D02*
X215728000Y-81006199D01*
D18*
X209627104Y-81641000D02*
X207922001Y-83346103D01*
X209924090Y-81641000D02*
X209627104Y-81641000D01*
D16*
X213092199Y-78860000D02*
X213581801Y-78860000D01*
D18*
X207922000Y-83520000D02*
X209221000Y-84819000D01*
X207922001Y-83346103D02*
X207922000Y-83520000D01*
D16*
X212222000Y-79730199D02*
X213092199Y-78860000D01*
X211160398Y-80770926D02*
X212201125Y-79730199D01*
D18*
X210128751Y-81436339D02*
X209924090Y-81641000D01*
X210578206Y-81885794D02*
X210128751Y-81436339D01*
D16*
X215728000Y-81006199D02*
X215728000Y-82077000D01*
X212201125Y-79730199D02*
X212222000Y-79730199D01*
D15*
%TO.N,QPSI_SD2*%
X207349100Y-81184000D02*
X207955000Y-81184000D01*
X209085027Y-86239027D02*
X204803000Y-86239027D01*
X204803000Y-86239027D02*
X204803000Y-83730100D01*
X209594440Y-86239027D02*
X209096554Y-86239027D01*
X209834028Y-86478615D02*
X209594440Y-86239027D01*
X209096554Y-86239027D02*
X209090790Y-86244790D01*
X209090790Y-86244790D02*
X209085027Y-86239027D01*
X204803000Y-83730100D02*
X207349100Y-81184000D01*
X209834028Y-86781926D02*
X209834028Y-86478615D01*
%TO.N,QPSI_SD1*%
X204402000Y-87361000D02*
X204402000Y-83564000D01*
X208827783Y-86851317D02*
X207781683Y-86851317D01*
X207272000Y-87361000D02*
X204402000Y-87361000D01*
X208960234Y-86839027D02*
X208840073Y-86839027D01*
X204402000Y-83564000D02*
X208006000Y-79960000D01*
X207781683Y-86851317D02*
X207272000Y-87361000D01*
X208840073Y-86839027D02*
X208827783Y-86851317D01*
%TO.N,QPSI_SCLK*%
X211790000Y-83217041D02*
X211790000Y-83099000D01*
X210702158Y-84802769D02*
X211054215Y-84450712D01*
X211054215Y-84450712D02*
X211054215Y-83952826D01*
X210400000Y-84802769D02*
X210702158Y-84802769D01*
X210400000Y-85000000D02*
X210400000Y-84802769D01*
X211054215Y-83952826D02*
X211790000Y-83217041D01*
%TD*%
%TA.AperFunction,Conductor*%
%TO.N,GND*%
G36*
X202504642Y-96232799D02*
G01*
X202570703Y-96250501D01*
X202581136Y-96250501D01*
X202585454Y-96250803D01*
X202614316Y-96261515D01*
X202643843Y-96270186D01*
X202649110Y-96274430D01*
X202650957Y-96275116D01*
X202652484Y-96277149D01*
X202664485Y-96286820D01*
X203042039Y-96664374D01*
X203042049Y-96664385D01*
X203046379Y-96668715D01*
X203046380Y-96668716D01*
X203158184Y-96780520D01*
X203244086Y-96830115D01*
X203295115Y-96859577D01*
X203447843Y-96900501D01*
X203447846Y-96900501D01*
X203613553Y-96900501D01*
X203613569Y-96900500D01*
X208432803Y-96900500D01*
X208499842Y-96920185D01*
X208520484Y-96936819D01*
X212490181Y-100906516D01*
X212523666Y-100967839D01*
X212526500Y-100994197D01*
X212526500Y-101657959D01*
X212506815Y-101724998D01*
X212502553Y-101731208D01*
X212496923Y-101738897D01*
X212446480Y-101789341D01*
X212399428Y-101870839D01*
X212396069Y-101876655D01*
X212396065Y-101876662D01*
X212367423Y-101926272D01*
X212326499Y-102079000D01*
X212326499Y-102079002D01*
X212326499Y-102247103D01*
X212326500Y-102247116D01*
X212326500Y-102569273D01*
X212326499Y-102569291D01*
X212326499Y-102734997D01*
X212326498Y-102734997D01*
X212367423Y-102887728D01*
X212381596Y-102912276D01*
X212381595Y-102912276D01*
X212381596Y-102912277D01*
X212446475Y-103024652D01*
X212446479Y-103024657D01*
X212446480Y-103024659D01*
X212558284Y-103136463D01*
X212558285Y-103136464D01*
X212910341Y-103488520D01*
X213047272Y-103567577D01*
X213200000Y-103608501D01*
X213200003Y-103608501D01*
X213365711Y-103608501D01*
X213365727Y-103608500D01*
X213690274Y-103608500D01*
X213690290Y-103608501D01*
X213697886Y-103608501D01*
X213855997Y-103608501D01*
X213856000Y-103608501D01*
X213939439Y-103586143D01*
X214009285Y-103587806D01*
X214067148Y-103626968D01*
X214094653Y-103691196D01*
X214094934Y-103718058D01*
X214094708Y-103720355D01*
X214094708Y-103878054D01*
X214125469Y-104032697D01*
X214125472Y-104032709D01*
X214185810Y-104178380D01*
X214185817Y-104178393D01*
X214261258Y-104291298D01*
X214270744Y-104321595D01*
X214281840Y-104351343D01*
X214281109Y-104354699D01*
X214282136Y-104357976D01*
X214273737Y-104388590D01*
X214266988Y-104419616D01*
X214264206Y-104423331D01*
X214263651Y-104425356D01*
X214245837Y-104447870D01*
X214071509Y-104622198D01*
X214010186Y-104655683D01*
X213940494Y-104650699D01*
X213914937Y-104637619D01*
X213801184Y-104561611D01*
X213801172Y-104561604D01*
X213655501Y-104501266D01*
X213655489Y-104501263D01*
X213500845Y-104470502D01*
X213500842Y-104470502D01*
X213343158Y-104470502D01*
X213337067Y-104470502D01*
X213337067Y-104468289D01*
X213278174Y-104457104D01*
X213231593Y-104415626D01*
X213146789Y-104288709D01*
X213146786Y-104288705D01*
X213035292Y-104177211D01*
X213035288Y-104177208D01*
X212904185Y-104089607D01*
X212904172Y-104089600D01*
X212758501Y-104029262D01*
X212758489Y-104029259D01*
X212603845Y-103998498D01*
X212603842Y-103998498D01*
X212446158Y-103998498D01*
X212446155Y-103998498D01*
X212291510Y-104029259D01*
X212291498Y-104029262D01*
X212145827Y-104089600D01*
X212145814Y-104089607D01*
X212014710Y-104177208D01*
X212010882Y-104180351D01*
X211946572Y-104207664D01*
X211932217Y-104208498D01*
X207862979Y-104208498D01*
X207795940Y-104188813D01*
X207794126Y-104187625D01*
X207758179Y-104163606D01*
X207758175Y-104163604D01*
X207758171Y-104163602D01*
X207612501Y-104103264D01*
X207612489Y-104103261D01*
X207457845Y-104072500D01*
X207457842Y-104072500D01*
X207300158Y-104072500D01*
X207300155Y-104072500D01*
X207145510Y-104103261D01*
X207145498Y-104103264D01*
X206999827Y-104163602D01*
X206999814Y-104163609D01*
X206868711Y-104251210D01*
X206868707Y-104251213D01*
X206757213Y-104362707D01*
X206757210Y-104362711D01*
X206669609Y-104493814D01*
X206669602Y-104493827D01*
X206609264Y-104639498D01*
X206609261Y-104639510D01*
X206578500Y-104794153D01*
X206578500Y-104951846D01*
X206609261Y-105106489D01*
X206609264Y-105106501D01*
X206669602Y-105252172D01*
X206669609Y-105252185D01*
X206757210Y-105383288D01*
X206757213Y-105383292D01*
X206868707Y-105494786D01*
X206868711Y-105494789D01*
X206999814Y-105582390D01*
X206999827Y-105582397D01*
X207120762Y-105632489D01*
X207145503Y-105642737D01*
X207300153Y-105673499D01*
X207300156Y-105673500D01*
X207300158Y-105673500D01*
X207457844Y-105673500D01*
X207457845Y-105673499D01*
X207612497Y-105642737D01*
X207758179Y-105582394D01*
X207889289Y-105494789D01*
X207958262Y-105425815D01*
X208019583Y-105392332D01*
X208045942Y-105389498D01*
X208695163Y-105389498D01*
X208762202Y-105409183D01*
X208807957Y-105461987D01*
X208816780Y-105489306D01*
X208845261Y-105632489D01*
X208845264Y-105632499D01*
X208905602Y-105778170D01*
X208905609Y-105778183D01*
X208993210Y-105909286D01*
X208993213Y-105909290D01*
X209005742Y-105921819D01*
X209016354Y-105941255D01*
X209030855Y-105957989D01*
X209032771Y-105971320D01*
X209039227Y-105983142D01*
X209037647Y-106005228D01*
X209040799Y-106027147D01*
X209035203Y-106039398D01*
X209034243Y-106052834D01*
X209020972Y-106070560D01*
X209011774Y-106090703D01*
X209000442Y-106097985D01*
X208992371Y-106108767D01*
X208971625Y-106116504D01*
X208952996Y-106128477D01*
X208931077Y-106131628D01*
X208926907Y-106133184D01*
X208918061Y-106133500D01*
X208867764Y-106133500D01*
X208800725Y-106113815D01*
X208798873Y-106112602D01*
X208667183Y-106024609D01*
X208667170Y-106024602D01*
X208521499Y-105964264D01*
X208521487Y-105964261D01*
X208366843Y-105933500D01*
X208366840Y-105933500D01*
X208209156Y-105933500D01*
X208209153Y-105933500D01*
X208054508Y-105964261D01*
X208054496Y-105964264D01*
X207908825Y-106024602D01*
X207908812Y-106024609D01*
X207777709Y-106112210D01*
X207777705Y-106112213D01*
X207666211Y-106223707D01*
X207666208Y-106223711D01*
X207578607Y-106354814D01*
X207578600Y-106354827D01*
X207518262Y-106500498D01*
X207518259Y-106500510D01*
X207487498Y-106655153D01*
X207487498Y-106812846D01*
X207518259Y-106967489D01*
X207518262Y-106967501D01*
X207578600Y-107113172D01*
X207578607Y-107113185D01*
X207666208Y-107244288D01*
X207666211Y-107244292D01*
X207777705Y-107355786D01*
X207777709Y-107355789D01*
X207908812Y-107443390D01*
X207908825Y-107443397D01*
X208052205Y-107502786D01*
X208054501Y-107503737D01*
X208209151Y-107534499D01*
X208209154Y-107534500D01*
X208209156Y-107534500D01*
X208366842Y-107534500D01*
X208366843Y-107534499D01*
X208521495Y-107503737D01*
X208667177Y-107443394D01*
X208710031Y-107414760D01*
X208798873Y-107355398D01*
X208865551Y-107334520D01*
X208867764Y-107334500D01*
X209509049Y-107334500D01*
X209576088Y-107354185D01*
X209621843Y-107406989D01*
X209623591Y-107411005D01*
X209637006Y-107443390D01*
X209661605Y-107502779D01*
X209661609Y-107502786D01*
X209749210Y-107633889D01*
X209749213Y-107633893D01*
X209860707Y-107745387D01*
X209860711Y-107745390D01*
X209991814Y-107832991D01*
X209991827Y-107832998D01*
X210137498Y-107893336D01*
X210137503Y-107893338D01*
X210292153Y-107924100D01*
X210292156Y-107924101D01*
X210292158Y-107924101D01*
X210449844Y-107924101D01*
X210449845Y-107924100D01*
X210604497Y-107893338D01*
X210750179Y-107832995D01*
X210823076Y-107784287D01*
X210881875Y-107744999D01*
X210948553Y-107724121D01*
X210950766Y-107724101D01*
X214717447Y-107724101D01*
X214784486Y-107743786D01*
X214805128Y-107760420D01*
X216707181Y-109662473D01*
X216721884Y-109689400D01*
X216738477Y-109715219D01*
X216739368Y-109721419D01*
X216740666Y-109723796D01*
X216743500Y-109750154D01*
X216743500Y-109985059D01*
X216723815Y-110052098D01*
X216707181Y-110072740D01*
X216642213Y-110137707D01*
X216642210Y-110137711D01*
X216554609Y-110268814D01*
X216551736Y-110274191D01*
X216549585Y-110273041D01*
X216535719Y-110290223D01*
X216516088Y-110316448D01*
X216513899Y-110317264D01*
X216512431Y-110319084D01*
X216481320Y-110329415D01*
X216450624Y-110340865D01*
X216448340Y-110340368D01*
X216446122Y-110341105D01*
X216414368Y-110332978D01*
X216382351Y-110326013D01*
X216379855Y-110324144D01*
X216378434Y-110323781D01*
X216354097Y-110304862D01*
X216234574Y-110185339D01*
X216201089Y-110124016D01*
X216200638Y-110121849D01*
X216169738Y-109966510D01*
X216169737Y-109966503D01*
X216142919Y-109901757D01*
X216109397Y-109820827D01*
X216109390Y-109820814D01*
X216021789Y-109689711D01*
X216021786Y-109689707D01*
X215910292Y-109578213D01*
X215910288Y-109578210D01*
X215779185Y-109490609D01*
X215779172Y-109490602D01*
X215633501Y-109430264D01*
X215633489Y-109430261D01*
X215478845Y-109399500D01*
X215478842Y-109399500D01*
X215321158Y-109399500D01*
X215321155Y-109399500D01*
X215166510Y-109430261D01*
X215166498Y-109430264D01*
X215020827Y-109490602D01*
X215020814Y-109490609D01*
X214889711Y-109578210D01*
X214889707Y-109578213D01*
X214778213Y-109689707D01*
X214778210Y-109689711D01*
X214690609Y-109820814D01*
X214690602Y-109820827D01*
X214630264Y-109966498D01*
X214630261Y-109966510D01*
X214599500Y-110121153D01*
X214599500Y-110278846D01*
X214630261Y-110433489D01*
X214630264Y-110433501D01*
X214690602Y-110579172D01*
X214690609Y-110579185D01*
X214778210Y-110710288D01*
X214778213Y-110710292D01*
X214889707Y-110821786D01*
X214889711Y-110821789D01*
X215020814Y-110909390D01*
X215020827Y-110909397D01*
X215157913Y-110966179D01*
X215166503Y-110969737D01*
X215231147Y-110982595D01*
X215321849Y-111000638D01*
X215338605Y-111009402D01*
X215357085Y-111013423D01*
X215382123Y-111032167D01*
X215383760Y-111033023D01*
X215385339Y-111034574D01*
X215476351Y-111125586D01*
X215509836Y-111186909D01*
X215508446Y-111245357D01*
X215504778Y-111259048D01*
X215496500Y-111289943D01*
X215496500Y-111448057D01*
X215505851Y-111482956D01*
X215522049Y-111543407D01*
X215520386Y-111613257D01*
X215481223Y-111671119D01*
X215416995Y-111698623D01*
X215402274Y-111699500D01*
X210496984Y-111699500D01*
X210429945Y-111679815D01*
X210384190Y-111627011D01*
X210374246Y-111557853D01*
X210403271Y-111494297D01*
X210462049Y-111456523D01*
X210477583Y-111453027D01*
X210678243Y-111421246D01*
X210880412Y-111355557D01*
X211069816Y-111259051D01*
X211156138Y-111196335D01*
X211241786Y-111134109D01*
X211241788Y-111134106D01*
X211241792Y-111134104D01*
X211392104Y-110983792D01*
X211392106Y-110983788D01*
X211392109Y-110983786D01*
X211517048Y-110811820D01*
X211517050Y-110811817D01*
X211517051Y-110811816D01*
X211613557Y-110622412D01*
X211679246Y-110420243D01*
X211712500Y-110210287D01*
X211712500Y-109997713D01*
X211679246Y-109787757D01*
X211613557Y-109585588D01*
X211517051Y-109396184D01*
X211517049Y-109396181D01*
X211517048Y-109396179D01*
X211392109Y-109224213D01*
X211241786Y-109073890D01*
X211069820Y-108948951D01*
X210880414Y-108852444D01*
X210880413Y-108852443D01*
X210880412Y-108852443D01*
X210678243Y-108786754D01*
X210678241Y-108786753D01*
X210678240Y-108786753D01*
X210516296Y-108761104D01*
X210468287Y-108753500D01*
X210255713Y-108753500D01*
X210207704Y-108761104D01*
X210045760Y-108786753D01*
X209843585Y-108852444D01*
X209654179Y-108948951D01*
X209482213Y-109073890D01*
X209331890Y-109224213D01*
X209206949Y-109396182D01*
X209202202Y-109405499D01*
X209154227Y-109456293D01*
X209086405Y-109473087D01*
X209020271Y-109450548D01*
X208981234Y-109405495D01*
X208976626Y-109396452D01*
X208937270Y-109342282D01*
X208937269Y-109342282D01*
X208304962Y-109974590D01*
X208287925Y-109911007D01*
X208222099Y-109796993D01*
X208129007Y-109703901D01*
X208014993Y-109638075D01*
X207951409Y-109621037D01*
X208583716Y-108988728D01*
X208529550Y-108949375D01*
X208340217Y-108852904D01*
X208138129Y-108787242D01*
X207928246Y-108754000D01*
X207715754Y-108754000D01*
X207505872Y-108787242D01*
X207505869Y-108787242D01*
X207303782Y-108852904D01*
X207114439Y-108949380D01*
X207060282Y-108988727D01*
X207060282Y-108988728D01*
X207692591Y-109621037D01*
X207629007Y-109638075D01*
X207514993Y-109703901D01*
X207421901Y-109796993D01*
X207356075Y-109911007D01*
X207339037Y-109974591D01*
X206668818Y-109304372D01*
X206635333Y-109243049D01*
X206635330Y-109243036D01*
X206632499Y-109230015D01*
X206632499Y-109206128D01*
X206626091Y-109146517D01*
X206578696Y-109019443D01*
X206575798Y-109011673D01*
X206575793Y-109011664D01*
X206489547Y-108896455D01*
X206489544Y-108896452D01*
X206374335Y-108810206D01*
X206374328Y-108810202D01*
X206239482Y-108759908D01*
X206239483Y-108759908D01*
X206179883Y-108753501D01*
X206179881Y-108753500D01*
X206179873Y-108753500D01*
X206179864Y-108753500D01*
X204384129Y-108753500D01*
X204384123Y-108753501D01*
X204324516Y-108759908D01*
X204189671Y-108810202D01*
X204189664Y-108810206D01*
X204074455Y-108896452D01*
X204074452Y-108896455D01*
X203988206Y-109011664D01*
X203988202Y-109011671D01*
X203937908Y-109146517D01*
X203931501Y-109206116D01*
X203931500Y-109206135D01*
X203931500Y-111001870D01*
X203931501Y-111001876D01*
X203937908Y-111061483D01*
X203988202Y-111196328D01*
X203988206Y-111196335D01*
X204074452Y-111311544D01*
X204074455Y-111311547D01*
X204189664Y-111397793D01*
X204189671Y-111397797D01*
X204234618Y-111414561D01*
X204324517Y-111448091D01*
X204362838Y-111452211D01*
X204427387Y-111478949D01*
X204467235Y-111536341D01*
X204469729Y-111606166D01*
X204434077Y-111666255D01*
X204371597Y-111697530D01*
X204349581Y-111699500D01*
X202328640Y-111699500D01*
X202261601Y-111679815D01*
X202215846Y-111627011D01*
X202205902Y-111557853D01*
X202234927Y-111494297D01*
X202272345Y-111465015D01*
X202289011Y-111456523D01*
X202348816Y-111426051D01*
X202446479Y-111355095D01*
X202520786Y-111301109D01*
X202520788Y-111301106D01*
X202520792Y-111301104D01*
X202671104Y-111150792D01*
X202671106Y-111150788D01*
X202671109Y-111150786D01*
X202780086Y-111000789D01*
X202796051Y-110978816D01*
X202892557Y-110789412D01*
X202958246Y-110587243D01*
X202991500Y-110377287D01*
X202991500Y-110164713D01*
X202958246Y-109954757D01*
X202892557Y-109752588D01*
X202796051Y-109563184D01*
X202796049Y-109563181D01*
X202796048Y-109563179D01*
X202671109Y-109391213D01*
X202520786Y-109240890D01*
X202348820Y-109115951D01*
X202348115Y-109115591D01*
X202340054Y-109111485D01*
X202289259Y-109063512D01*
X202272463Y-108995692D01*
X202294999Y-108929556D01*
X202340054Y-108890515D01*
X202348816Y-108886051D01*
X202394439Y-108852904D01*
X202520786Y-108761109D01*
X202520788Y-108761106D01*
X202520792Y-108761104D01*
X202671104Y-108610792D01*
X202671106Y-108610788D01*
X202671109Y-108610786D01*
X202796048Y-108438820D01*
X202796047Y-108438820D01*
X202796051Y-108438816D01*
X202892557Y-108249412D01*
X202958246Y-108047243D01*
X202991500Y-107837287D01*
X202991500Y-107624713D01*
X202958246Y-107414757D01*
X202892557Y-107212588D01*
X202796051Y-107023184D01*
X202796049Y-107023181D01*
X202796048Y-107023179D01*
X202671109Y-106851213D01*
X202520786Y-106700890D01*
X202348817Y-106575949D01*
X202339504Y-106571204D01*
X202288707Y-106523230D01*
X202271912Y-106455409D01*
X202294449Y-106389274D01*
X202339507Y-106350232D01*
X202348555Y-106345622D01*
X202402716Y-106306270D01*
X202402717Y-106306270D01*
X201770408Y-105673962D01*
X201833993Y-105656925D01*
X201948007Y-105591099D01*
X202041099Y-105498007D01*
X202106925Y-105383993D01*
X202123962Y-105320408D01*
X202756270Y-105952717D01*
X202756270Y-105952716D01*
X202795622Y-105898554D01*
X202892095Y-105709217D01*
X202957757Y-105507130D01*
X202957757Y-105507127D01*
X202991000Y-105297246D01*
X202991000Y-105084753D01*
X202957757Y-104874872D01*
X202957757Y-104874869D01*
X202892095Y-104672782D01*
X202795624Y-104483449D01*
X202756270Y-104429282D01*
X202756269Y-104429282D01*
X202123962Y-105061590D01*
X202106925Y-104998007D01*
X202041099Y-104883993D01*
X201948007Y-104790901D01*
X201833993Y-104725075D01*
X201770409Y-104708037D01*
X202402716Y-104075728D01*
X202348547Y-104036373D01*
X202348547Y-104036372D01*
X202339500Y-104031763D01*
X202288706Y-103983788D01*
X202271912Y-103915966D01*
X202294451Y-103849832D01*
X202339508Y-103810793D01*
X202348816Y-103806051D01*
X202466752Y-103720366D01*
X202520786Y-103681109D01*
X202520788Y-103681106D01*
X202520792Y-103681104D01*
X202671104Y-103530792D01*
X202671106Y-103530788D01*
X202671109Y-103530786D01*
X202796048Y-103358820D01*
X202796047Y-103358820D01*
X202796051Y-103358816D01*
X202892557Y-103169412D01*
X202958246Y-102967243D01*
X202991500Y-102757287D01*
X202991500Y-102544713D01*
X202958246Y-102334757D01*
X202892557Y-102132588D01*
X202796051Y-101943184D01*
X202796049Y-101943181D01*
X202796048Y-101943179D01*
X202671109Y-101771213D01*
X202520786Y-101620890D01*
X202348820Y-101495951D01*
X202348115Y-101495591D01*
X202340054Y-101491485D01*
X202289259Y-101443512D01*
X202272463Y-101375692D01*
X202294999Y-101309556D01*
X202340054Y-101270515D01*
X202348816Y-101266051D01*
X202408359Y-101222791D01*
X202520786Y-101141109D01*
X202520788Y-101141106D01*
X202520792Y-101141104D01*
X202671104Y-100990792D01*
X202671106Y-100990788D01*
X202671109Y-100990786D01*
X202796048Y-100818820D01*
X202796047Y-100818820D01*
X202796051Y-100818816D01*
X202892557Y-100629412D01*
X202958246Y-100427243D01*
X202991500Y-100217287D01*
X202991500Y-100004713D01*
X202958246Y-99794757D01*
X202892557Y-99592588D01*
X202796051Y-99403184D01*
X202796049Y-99403181D01*
X202796048Y-99403179D01*
X202671109Y-99231213D01*
X202520786Y-99080890D01*
X202348820Y-98955951D01*
X202348115Y-98955591D01*
X202340054Y-98951485D01*
X202289259Y-98903512D01*
X202272463Y-98835692D01*
X202294999Y-98769556D01*
X202340054Y-98730515D01*
X202348816Y-98726051D01*
X202370789Y-98710086D01*
X202520786Y-98601109D01*
X202520788Y-98601106D01*
X202520792Y-98601104D01*
X202671104Y-98450792D01*
X202671106Y-98450788D01*
X202671109Y-98450786D01*
X202796048Y-98278820D01*
X202796047Y-98278820D01*
X202796051Y-98278816D01*
X202892557Y-98089412D01*
X202958246Y-97887243D01*
X202991500Y-97677287D01*
X202991500Y-97464713D01*
X202958246Y-97254757D01*
X202892557Y-97052588D01*
X202796051Y-96863184D01*
X202796049Y-96863181D01*
X202796048Y-96863179D01*
X202671109Y-96691213D01*
X202520792Y-96540896D01*
X202447835Y-96487890D01*
X202399664Y-96452892D01*
X202357000Y-96397564D01*
X202351021Y-96327951D01*
X202383626Y-96266155D01*
X202444465Y-96231798D01*
X202504642Y-96232799D01*
G37*
%TD.AperFunction*%
%TA.AperFunction,Conductor*%
G36*
X207356075Y-110296993D02*
G01*
X207421901Y-110411007D01*
X207514993Y-110504099D01*
X207629007Y-110569925D01*
X207692590Y-110586962D01*
X207060282Y-111219269D01*
X207060282Y-111219270D01*
X207114449Y-111258624D01*
X207303782Y-111355095D01*
X207505870Y-111420757D01*
X207709611Y-111453027D01*
X207772746Y-111482956D01*
X207809677Y-111542268D01*
X207808679Y-111612130D01*
X207770069Y-111670363D01*
X207706106Y-111698477D01*
X207690213Y-111699500D01*
X206214420Y-111699500D01*
X206147381Y-111679815D01*
X206101626Y-111627011D01*
X206091682Y-111557853D01*
X206120707Y-111494297D01*
X206179485Y-111456523D01*
X206201167Y-111452210D01*
X206239483Y-111448091D01*
X206374328Y-111397797D01*
X206374327Y-111397797D01*
X206374331Y-111397796D01*
X206489546Y-111311546D01*
X206575796Y-111196331D01*
X206626091Y-111061483D01*
X206632500Y-111001873D01*
X206632499Y-110991312D01*
X206652179Y-110924275D01*
X206668818Y-110903626D01*
X207339037Y-110233408D01*
X207356075Y-110296993D01*
G37*
%TD.AperFunction*%
%TA.AperFunction,Conductor*%
G36*
X208937270Y-110865717D02*
G01*
X208937270Y-110865716D01*
X208976622Y-110811555D01*
X208981232Y-110802507D01*
X209029205Y-110751709D01*
X209097025Y-110734912D01*
X209163161Y-110757447D01*
X209202204Y-110802504D01*
X209206949Y-110811817D01*
X209331890Y-110983786D01*
X209482213Y-111134109D01*
X209654179Y-111259048D01*
X209654181Y-111259049D01*
X209654184Y-111259051D01*
X209843588Y-111355557D01*
X210045757Y-111421246D01*
X210246414Y-111453027D01*
X210309549Y-111482956D01*
X210346480Y-111542268D01*
X210345482Y-111612130D01*
X210306872Y-111670363D01*
X210242909Y-111698477D01*
X210227016Y-111699500D01*
X207953787Y-111699500D01*
X207886748Y-111679815D01*
X207840993Y-111627011D01*
X207831049Y-111557853D01*
X207860074Y-111494297D01*
X207918852Y-111456523D01*
X207934389Y-111453027D01*
X208138127Y-111420757D01*
X208138130Y-111420757D01*
X208340217Y-111355095D01*
X208529554Y-111258622D01*
X208583716Y-111219270D01*
X208583717Y-111219270D01*
X207951408Y-110586962D01*
X208014993Y-110569925D01*
X208129007Y-110504099D01*
X208222099Y-110411007D01*
X208287925Y-110296993D01*
X208304962Y-110233408D01*
X208937270Y-110865717D01*
G37*
%TD.AperFunction*%
%TA.AperFunction,Conductor*%
G36*
X216654049Y-97420185D02*
G01*
X216674691Y-97436819D01*
X217166246Y-97928374D01*
X217166256Y-97928385D01*
X217170586Y-97932715D01*
X217170587Y-97932716D01*
X217282391Y-98044520D01*
X217360147Y-98089412D01*
X217419322Y-98123577D01*
X217572050Y-98164500D01*
X218288500Y-98164500D01*
X218355539Y-98184185D01*
X218401294Y-98236989D01*
X218412500Y-98288500D01*
X218412500Y-100448090D01*
X218412499Y-100448108D01*
X218412499Y-100613814D01*
X218412498Y-100613814D01*
X218412499Y-100613817D01*
X218449118Y-100750480D01*
X218453424Y-100766547D01*
X218466443Y-100789096D01*
X218466444Y-100789098D01*
X218532477Y-100903472D01*
X218532481Y-100903477D01*
X218651349Y-101022345D01*
X218651355Y-101022350D01*
X219152872Y-101523867D01*
X219186357Y-101585190D01*
X219181373Y-101654882D01*
X219152876Y-101699225D01*
X219133899Y-101718202D01*
X219133892Y-101718211D01*
X219008951Y-101890179D01*
X218912444Y-102079585D01*
X218846753Y-102281760D01*
X218813500Y-102491713D01*
X218813500Y-102704287D01*
X218821894Y-102757286D01*
X218846442Y-102912277D01*
X218846754Y-102914243D01*
X218882628Y-103024652D01*
X218912444Y-103116414D01*
X219008951Y-103305820D01*
X219133890Y-103477786D01*
X219284213Y-103628109D01*
X219456179Y-103753048D01*
X219456181Y-103753049D01*
X219456184Y-103753051D01*
X219465493Y-103757794D01*
X219516290Y-103805766D01*
X219533087Y-103873587D01*
X219510552Y-103939722D01*
X219465505Y-103978760D01*
X219456446Y-103983376D01*
X219456440Y-103983380D01*
X219402282Y-104022727D01*
X219402282Y-104022728D01*
X220034591Y-104655037D01*
X219971007Y-104672075D01*
X219856993Y-104737901D01*
X219763901Y-104830993D01*
X219698075Y-104945007D01*
X219681037Y-105008591D01*
X219048728Y-104376282D01*
X219048727Y-104376282D01*
X219009380Y-104430439D01*
X218912904Y-104619782D01*
X218847242Y-104821869D01*
X218847242Y-104821872D01*
X218814000Y-105031753D01*
X218814000Y-105244246D01*
X218847242Y-105454127D01*
X218847242Y-105454130D01*
X218912904Y-105656217D01*
X219009375Y-105845550D01*
X219048728Y-105899716D01*
X219681037Y-105267408D01*
X219698075Y-105330993D01*
X219763901Y-105445007D01*
X219856993Y-105538099D01*
X219971007Y-105603925D01*
X220034589Y-105620962D01*
X219402282Y-106253269D01*
X219402282Y-106253270D01*
X219456452Y-106292626D01*
X219456451Y-106292626D01*
X219465495Y-106297234D01*
X219516292Y-106345208D01*
X219533087Y-106413029D01*
X219510550Y-106479164D01*
X219465499Y-106518202D01*
X219456182Y-106522949D01*
X219284213Y-106647890D01*
X219133890Y-106798213D01*
X219008951Y-106970179D01*
X218912444Y-107159585D01*
X218846753Y-107361760D01*
X218813500Y-107571713D01*
X218813500Y-107784286D01*
X218846753Y-107994239D01*
X218912444Y-108196414D01*
X219008951Y-108385820D01*
X219133890Y-108557786D01*
X219284213Y-108708109D01*
X219456182Y-108833050D01*
X219464946Y-108837516D01*
X219515742Y-108885491D01*
X219532536Y-108953312D01*
X219509998Y-109019447D01*
X219464946Y-109058484D01*
X219456182Y-109062949D01*
X219284213Y-109187890D01*
X219133890Y-109338213D01*
X219008951Y-109510179D01*
X218912444Y-109699585D01*
X218846753Y-109901760D01*
X218822942Y-110052098D01*
X218813500Y-110111713D01*
X218813500Y-110324287D01*
X218814312Y-110329415D01*
X218841979Y-110504099D01*
X218846754Y-110534243D01*
X218861352Y-110579172D01*
X218870129Y-110606182D01*
X218872124Y-110676023D01*
X218836044Y-110735856D01*
X218773343Y-110766684D01*
X218752198Y-110768500D01*
X218188500Y-110768500D01*
X218121461Y-110748815D01*
X218075706Y-110696011D01*
X218064500Y-110644500D01*
X218064500Y-110569155D01*
X218064499Y-110569153D01*
X218037515Y-110433497D01*
X218033737Y-110414503D01*
X218018322Y-110377287D01*
X217973395Y-110268822D01*
X217973393Y-110268818D01*
X217965398Y-110256853D01*
X217944520Y-110190176D01*
X217944500Y-110187963D01*
X217944500Y-109539117D01*
X217944501Y-109539104D01*
X217944501Y-109371001D01*
X217936806Y-109342282D01*
X217903577Y-109218273D01*
X217841923Y-109111484D01*
X217824524Y-109081347D01*
X217824518Y-109081339D01*
X215505134Y-106761956D01*
X215505132Y-106761953D01*
X215386261Y-106643082D01*
X215386260Y-106643081D01*
X215269983Y-106575949D01*
X215249329Y-106564024D01*
X215096601Y-106523100D01*
X214938487Y-106523100D01*
X214930891Y-106523100D01*
X214930875Y-106523101D01*
X214168443Y-106523101D01*
X214147199Y-106516863D01*
X214125112Y-106515284D01*
X214114326Y-106507210D01*
X214101404Y-106503416D01*
X214086906Y-106486684D01*
X214069178Y-106473414D01*
X214064469Y-106460791D01*
X214055649Y-106450612D01*
X214052497Y-106428696D01*
X214044759Y-106407950D01*
X214047622Y-106394786D01*
X214045705Y-106381454D01*
X214054902Y-106361313D01*
X214059609Y-106339677D01*
X214072880Y-106321947D01*
X214074730Y-106317898D01*
X214080760Y-106311422D01*
X214080761Y-106311420D01*
X214085912Y-106306269D01*
X214151463Y-106240718D01*
X214151464Y-106240715D01*
X217082520Y-103309661D01*
X217093594Y-103290480D01*
X217136872Y-103215521D01*
X217136873Y-103215519D01*
X217161574Y-103172735D01*
X217161576Y-103172732D01*
X217161577Y-103172730D01*
X217202501Y-103020003D01*
X217202501Y-102861888D01*
X217193085Y-102826749D01*
X217182215Y-102786177D01*
X217182215Y-102786176D01*
X217161577Y-102709161D01*
X217161577Y-102709160D01*
X217082520Y-102572229D01*
X216970716Y-102460425D01*
X216970715Y-102460424D01*
X215811914Y-101301624D01*
X215807577Y-101293680D01*
X215800329Y-101288255D01*
X215791092Y-101263492D01*
X215778430Y-101240302D01*
X215779075Y-101231273D01*
X215775912Y-101222791D01*
X215781528Y-101196971D01*
X215783414Y-101170610D01*
X215789233Y-101161555D01*
X215790764Y-101154518D01*
X215811909Y-101126269D01*
X215914463Y-101023716D01*
X215914464Y-101023714D01*
X216280520Y-100657659D01*
X216359577Y-100520727D01*
X216400501Y-100368000D01*
X216400501Y-100209885D01*
X216400501Y-100202290D01*
X216400500Y-100202272D01*
X216400500Y-97579765D01*
X216405827Y-97561621D01*
X216406165Y-97542712D01*
X216419665Y-97514494D01*
X216420185Y-97512726D01*
X216421398Y-97510874D01*
X216421858Y-97510185D01*
X216458325Y-97455608D01*
X216511937Y-97410804D01*
X216561427Y-97400500D01*
X216587010Y-97400500D01*
X216654049Y-97420185D01*
G37*
%TD.AperFunction*%
%TA.AperFunction,Conductor*%
G36*
X201175075Y-105383993D02*
G01*
X201240901Y-105498007D01*
X201333993Y-105591099D01*
X201448007Y-105656925D01*
X201511590Y-105673962D01*
X200879282Y-106306269D01*
X200879282Y-106306270D01*
X200933452Y-106345626D01*
X200933451Y-106345626D01*
X200942495Y-106350234D01*
X200993292Y-106398208D01*
X201010087Y-106466029D01*
X200987550Y-106532164D01*
X200942499Y-106571202D01*
X200933182Y-106575949D01*
X200761213Y-106700890D01*
X200610890Y-106851213D01*
X200485950Y-107023180D01*
X200484984Y-107025078D01*
X200484424Y-107025669D01*
X200483404Y-107027336D01*
X200483053Y-107027121D01*
X200437009Y-107075873D01*
X200369187Y-107092667D01*
X200303053Y-107070128D01*
X200259602Y-107015413D01*
X200250500Y-106968781D01*
X200250500Y-105952116D01*
X200270185Y-105885077D01*
X200322989Y-105839322D01*
X200392147Y-105829378D01*
X200455703Y-105858403D01*
X200484987Y-105895826D01*
X200486374Y-105898548D01*
X200525728Y-105952716D01*
X201158037Y-105320408D01*
X201175075Y-105383993D01*
G37*
%TD.AperFunction*%
%TA.AperFunction,Conductor*%
G36*
X200455703Y-103319505D02*
G01*
X200483276Y-103354742D01*
X200483404Y-103354664D01*
X200484084Y-103355773D01*
X200484988Y-103356929D01*
X200485951Y-103358820D01*
X200610890Y-103530786D01*
X200761213Y-103681109D01*
X200933179Y-103806048D01*
X200933181Y-103806049D01*
X200933184Y-103806051D01*
X200942493Y-103810794D01*
X200993290Y-103858766D01*
X201010087Y-103926587D01*
X200987552Y-103992722D01*
X200942505Y-104031760D01*
X200933446Y-104036376D01*
X200933440Y-104036380D01*
X200879282Y-104075727D01*
X200879282Y-104075728D01*
X201511591Y-104708037D01*
X201448007Y-104725075D01*
X201333993Y-104790901D01*
X201240901Y-104883993D01*
X201175075Y-104998007D01*
X201158037Y-105061591D01*
X200525728Y-104429282D01*
X200525727Y-104429282D01*
X200486380Y-104483440D01*
X200486378Y-104483443D01*
X200484984Y-104486180D01*
X200484180Y-104487030D01*
X200483838Y-104487590D01*
X200483720Y-104487517D01*
X200437009Y-104536976D01*
X200369188Y-104553770D01*
X200303053Y-104531232D01*
X200259602Y-104476516D01*
X200250500Y-104429884D01*
X200250500Y-103413218D01*
X200270185Y-103346179D01*
X200322989Y-103300424D01*
X200392147Y-103290480D01*
X200455703Y-103319505D01*
G37*
%TD.AperFunction*%
%TA.AperFunction,Conductor*%
G36*
X200455703Y-95699505D02*
G01*
X200483276Y-95734742D01*
X200483404Y-95734664D01*
X200484084Y-95735773D01*
X200484988Y-95736929D01*
X200485951Y-95738820D01*
X200610890Y-95910786D01*
X200761213Y-96061109D01*
X200933182Y-96186050D01*
X200941946Y-96190516D01*
X200992742Y-96238491D01*
X201009536Y-96306312D01*
X200986998Y-96372447D01*
X200941946Y-96411484D01*
X200933182Y-96415949D01*
X200761213Y-96540890D01*
X200610890Y-96691213D01*
X200485950Y-96863180D01*
X200484984Y-96865078D01*
X200484424Y-96865669D01*
X200483404Y-96867336D01*
X200483053Y-96867121D01*
X200437009Y-96915873D01*
X200369187Y-96932667D01*
X200303053Y-96910128D01*
X200259602Y-96855413D01*
X200250500Y-96808781D01*
X200250500Y-95793218D01*
X200270185Y-95726179D01*
X200322989Y-95680424D01*
X200392147Y-95670480D01*
X200455703Y-95699505D01*
G37*
%TD.AperFunction*%
%TA.AperFunction,Conductor*%
G36*
X218735965Y-92189201D02*
G01*
X218791898Y-92231073D01*
X218816315Y-92296537D01*
X218815105Y-92324777D01*
X218814000Y-92331755D01*
X218814000Y-92544246D01*
X218847242Y-92754127D01*
X218847242Y-92754130D01*
X218912904Y-92956217D01*
X219009375Y-93145550D01*
X219048728Y-93199716D01*
X219681037Y-92567408D01*
X219698075Y-92630993D01*
X219763901Y-92745007D01*
X219856993Y-92838099D01*
X219971007Y-92903925D01*
X220034589Y-92920962D01*
X219402282Y-93553269D01*
X219402282Y-93553270D01*
X219456452Y-93592626D01*
X219456451Y-93592626D01*
X219465495Y-93597234D01*
X219516292Y-93645208D01*
X219533087Y-93713029D01*
X219510550Y-93779164D01*
X219465499Y-93818202D01*
X219456182Y-93822949D01*
X219284213Y-93947890D01*
X219133890Y-94098213D01*
X219008951Y-94270179D01*
X218912444Y-94459585D01*
X218846753Y-94661760D01*
X218813500Y-94871713D01*
X218813500Y-95084286D01*
X218846753Y-95294239D01*
X218912444Y-95496414D01*
X219008951Y-95685820D01*
X219133890Y-95857786D01*
X219284213Y-96008109D01*
X219456182Y-96133050D01*
X219464946Y-96137516D01*
X219515742Y-96185491D01*
X219532536Y-96253312D01*
X219509998Y-96319447D01*
X219464946Y-96358484D01*
X219456182Y-96362949D01*
X219284213Y-96487890D01*
X219133894Y-96638209D01*
X219094776Y-96692051D01*
X219039446Y-96734716D01*
X218969832Y-96740695D01*
X218908037Y-96708089D01*
X218873680Y-96647250D01*
X218872841Y-96594973D01*
X218903500Y-96440844D01*
X218903500Y-96283155D01*
X218903499Y-96283153D01*
X218896808Y-96249514D01*
X218872737Y-96128503D01*
X218832054Y-96030284D01*
X218812397Y-95982827D01*
X218812390Y-95982814D01*
X218724789Y-95851711D01*
X218724786Y-95851707D01*
X218613292Y-95740213D01*
X218613288Y-95740210D01*
X218482185Y-95652609D01*
X218482172Y-95652602D01*
X218336501Y-95592264D01*
X218336491Y-95592261D01*
X218181149Y-95561361D01*
X218119238Y-95528976D01*
X218117660Y-95527425D01*
X215189416Y-92599181D01*
X215155931Y-92537858D01*
X215160915Y-92468166D01*
X215176214Y-92439398D01*
X215182166Y-92431069D01*
X215230520Y-92382716D01*
X215286368Y-92285983D01*
X215288498Y-92282293D01*
X215291997Y-92277398D01*
X215314956Y-92259406D01*
X215336060Y-92239285D01*
X215342686Y-92237677D01*
X215346993Y-92234303D01*
X215362641Y-92232836D01*
X215392880Y-92225500D01*
X216537774Y-92225500D01*
X216604813Y-92245185D01*
X216625454Y-92261818D01*
X216985767Y-92622132D01*
X217120418Y-92699872D01*
X217136286Y-92704124D01*
X217152153Y-92708376D01*
X217152154Y-92708376D01*
X217177185Y-92715082D01*
X217270602Y-92740114D01*
X217270604Y-92740114D01*
X217915684Y-92740114D01*
X217915686Y-92740114D01*
X218034132Y-92708376D01*
X218065870Y-92699872D01*
X218200520Y-92622132D01*
X218604951Y-92217700D01*
X218666273Y-92184217D01*
X218735965Y-92189201D01*
G37*
%TD.AperFunction*%
%TA.AperFunction,Conductor*%
G36*
X211201803Y-91955730D02*
G01*
X211246150Y-91984231D01*
X211289707Y-92027788D01*
X211289711Y-92027791D01*
X211420814Y-92115392D01*
X211420827Y-92115399D01*
X211564410Y-92174872D01*
X211566503Y-92175739D01*
X211631147Y-92188597D01*
X211721849Y-92206640D01*
X211783760Y-92239025D01*
X211785339Y-92240576D01*
X212211181Y-92666418D01*
X212225884Y-92693345D01*
X212242477Y-92719164D01*
X212243368Y-92725364D01*
X212244666Y-92727741D01*
X212247500Y-92754099D01*
X212247500Y-92803430D01*
X212247499Y-92803448D01*
X212247499Y-92811043D01*
X212247499Y-92969157D01*
X212250869Y-92981732D01*
X212255933Y-93000632D01*
X212254270Y-93070482D01*
X212215107Y-93128344D01*
X212150879Y-93155848D01*
X212088706Y-93147286D01*
X211956316Y-93092449D01*
X211956304Y-93092446D01*
X211801660Y-93061685D01*
X211801657Y-93061685D01*
X211643973Y-93061685D01*
X211643970Y-93061685D01*
X211489325Y-93092446D01*
X211489313Y-93092449D01*
X211343642Y-93152787D01*
X211343629Y-93152794D01*
X211212526Y-93240395D01*
X211212522Y-93240398D01*
X211101028Y-93351892D01*
X211101025Y-93351896D01*
X211013424Y-93482999D01*
X211013417Y-93483012D01*
X210953079Y-93628683D01*
X210953076Y-93628695D01*
X210922315Y-93783338D01*
X210922315Y-93941031D01*
X210953076Y-94095674D01*
X210953079Y-94095686D01*
X211013417Y-94241357D01*
X211013424Y-94241370D01*
X211101025Y-94372473D01*
X211101028Y-94372477D01*
X211212522Y-94483971D01*
X211212526Y-94483974D01*
X211343629Y-94571575D01*
X211343642Y-94571582D01*
X211489313Y-94631920D01*
X211489318Y-94631922D01*
X211586637Y-94651280D01*
X211643968Y-94662684D01*
X211643971Y-94662685D01*
X211643973Y-94662685D01*
X211801659Y-94662685D01*
X211801660Y-94662684D01*
X211956312Y-94631922D01*
X211967044Y-94627476D01*
X212036511Y-94620007D01*
X212098991Y-94651280D01*
X212102178Y-94654356D01*
X213239073Y-95791251D01*
X213272558Y-95852574D01*
X213267574Y-95922266D01*
X213239075Y-95966612D01*
X213209393Y-95996294D01*
X213121792Y-96127397D01*
X213121785Y-96127410D01*
X213086354Y-96212952D01*
X213042514Y-96267356D01*
X212976220Y-96289421D01*
X212971793Y-96289500D01*
X211418252Y-96289500D01*
X211351213Y-96269815D01*
X211330571Y-96253181D01*
X210233819Y-95156429D01*
X210200334Y-95095106D01*
X210197500Y-95068748D01*
X210197500Y-92876395D01*
X210217185Y-92809356D01*
X210233819Y-92788714D01*
X210356115Y-92666418D01*
X210517169Y-92505365D01*
X210587980Y-92382716D01*
X210600291Y-92361393D01*
X210600663Y-92361608D01*
X210601594Y-92357331D01*
X210622745Y-92329077D01*
X210721311Y-92230511D01*
X210761536Y-92203633D01*
X210840649Y-92170864D01*
X210971759Y-92083259D01*
X211017117Y-92037901D01*
X211070788Y-91984231D01*
X211132111Y-91950746D01*
X211201803Y-91955730D01*
G37*
%TD.AperFunction*%
%TA.AperFunction,Conductor*%
G36*
X215855703Y-94964384D02*
G01*
X215862181Y-94970416D01*
X216879584Y-95987819D01*
X216890196Y-96007255D01*
X216904697Y-96023989D01*
X216906613Y-96037320D01*
X216913069Y-96049142D01*
X216911489Y-96071228D01*
X216914641Y-96093147D01*
X216909045Y-96105398D01*
X216908085Y-96118834D01*
X216894814Y-96136560D01*
X216885616Y-96156703D01*
X216874284Y-96163985D01*
X216866213Y-96174767D01*
X216845467Y-96182504D01*
X216826838Y-96194477D01*
X216804919Y-96197628D01*
X216800749Y-96199184D01*
X216791903Y-96199500D01*
X216750041Y-96199500D01*
X216683002Y-96179815D01*
X216662360Y-96163181D01*
X216417660Y-95918481D01*
X216417652Y-95918475D01*
X216324392Y-95864632D01*
X216324390Y-95864631D01*
X216280733Y-95839425D01*
X216280732Y-95839424D01*
X216268206Y-95836067D01*
X216128000Y-95798499D01*
X215969886Y-95798499D01*
X215962290Y-95798499D01*
X215962274Y-95798500D01*
X215774500Y-95798500D01*
X215707461Y-95778815D01*
X215661706Y-95726011D01*
X215650500Y-95674500D01*
X215650500Y-95058097D01*
X215670185Y-94991058D01*
X215722989Y-94945303D01*
X215792147Y-94935359D01*
X215855703Y-94964384D01*
G37*
%TD.AperFunction*%
%TA.AperFunction,Conductor*%
G36*
X205469980Y-91333369D02*
G01*
X205584867Y-91380956D01*
X205584872Y-91380958D01*
X205649516Y-91393816D01*
X205740218Y-91411859D01*
X205802129Y-91444244D01*
X205803706Y-91445793D01*
X206888432Y-92530520D01*
X206888434Y-92530521D01*
X206888438Y-92530524D01*
X206956914Y-92570058D01*
X207025364Y-92609577D01*
X207178091Y-92650501D01*
X207178093Y-92650501D01*
X207343802Y-92650501D01*
X207343818Y-92650500D01*
X208471500Y-92650500D01*
X208538539Y-92670185D01*
X208584294Y-92722989D01*
X208595500Y-92774500D01*
X208595500Y-95174500D01*
X208575815Y-95241539D01*
X208523011Y-95287294D01*
X208471500Y-95298500D01*
X203993098Y-95298500D01*
X203963657Y-95289855D01*
X203933671Y-95283332D01*
X203928655Y-95279577D01*
X203926059Y-95278815D01*
X203905417Y-95262181D01*
X203829819Y-95186583D01*
X203796334Y-95125260D01*
X203793500Y-95098902D01*
X203793500Y-94688236D01*
X203813185Y-94621197D01*
X203829814Y-94600560D01*
X205448646Y-92981727D01*
X205448651Y-92981724D01*
X205458854Y-92971520D01*
X205458856Y-92971520D01*
X205570660Y-92859716D01*
X205649717Y-92722785D01*
X205690641Y-92570058D01*
X205690641Y-92411943D01*
X205655977Y-92282577D01*
X205654723Y-92277900D01*
X205650500Y-92245810D01*
X205650500Y-92189060D01*
X205650501Y-92189047D01*
X205650501Y-92020944D01*
X205650501Y-92020943D01*
X205609577Y-91868216D01*
X205591541Y-91836976D01*
X205530524Y-91731290D01*
X205530518Y-91731282D01*
X205334847Y-91535611D01*
X205301362Y-91474288D01*
X205306346Y-91404596D01*
X205348218Y-91348663D01*
X205413682Y-91324246D01*
X205469980Y-91333369D01*
G37*
%TD.AperFunction*%
%TA.AperFunction,Conductor*%
G36*
X201175075Y-92683993D02*
G01*
X201240901Y-92798007D01*
X201333993Y-92891099D01*
X201448007Y-92956925D01*
X201511590Y-92973962D01*
X200879282Y-93606269D01*
X200879282Y-93606270D01*
X200933452Y-93645626D01*
X200933451Y-93645626D01*
X200942495Y-93650234D01*
X200993292Y-93698208D01*
X201010087Y-93766029D01*
X200987550Y-93832164D01*
X200942499Y-93871202D01*
X200933182Y-93875949D01*
X200761213Y-94000890D01*
X200610890Y-94151213D01*
X200485950Y-94323180D01*
X200484984Y-94325078D01*
X200484424Y-94325669D01*
X200483404Y-94327336D01*
X200483053Y-94327121D01*
X200437009Y-94375873D01*
X200369187Y-94392667D01*
X200303053Y-94370128D01*
X200259602Y-94315413D01*
X200250500Y-94268781D01*
X200250500Y-93252116D01*
X200270185Y-93185077D01*
X200322989Y-93139322D01*
X200392147Y-93129378D01*
X200455703Y-93158403D01*
X200484987Y-93195826D01*
X200486374Y-93198548D01*
X200525728Y-93252716D01*
X201158037Y-92620408D01*
X201175075Y-92683993D01*
G37*
%TD.AperFunction*%
%TA.AperFunction,Conductor*%
G36*
X202477133Y-91072648D02*
G01*
X202508175Y-91079866D01*
X202511797Y-91082618D01*
X202513663Y-91083155D01*
X202515971Y-91085789D01*
X202534884Y-91100159D01*
X203712083Y-92277359D01*
X203745568Y-92338682D01*
X203740584Y-92408374D01*
X203712083Y-92452721D01*
X203159624Y-93005181D01*
X203098301Y-93038666D01*
X203071943Y-93041500D01*
X203052277Y-93041500D01*
X202985238Y-93021815D01*
X202939483Y-92969011D01*
X202929539Y-92899853D01*
X202934346Y-92879182D01*
X202957757Y-92807130D01*
X202957757Y-92807127D01*
X202991000Y-92597246D01*
X202991000Y-92384753D01*
X202957757Y-92174872D01*
X202957757Y-92174869D01*
X202892095Y-91972782D01*
X202795624Y-91783449D01*
X202756270Y-91729282D01*
X202756269Y-91729282D01*
X202123962Y-92361590D01*
X202106925Y-92298007D01*
X202041099Y-92183993D01*
X201948007Y-92090901D01*
X201833993Y-92025075D01*
X201770409Y-92008037D01*
X202402716Y-91375728D01*
X202348547Y-91336373D01*
X202348547Y-91336372D01*
X202339500Y-91331763D01*
X202335122Y-91327628D01*
X202329338Y-91325965D01*
X202310019Y-91303918D01*
X202288706Y-91283788D01*
X202287258Y-91277944D01*
X202283291Y-91273416D01*
X202278957Y-91244419D01*
X202271912Y-91215966D01*
X202273853Y-91210267D01*
X202272964Y-91204313D01*
X202284995Y-91177577D01*
X202294451Y-91149832D01*
X202299799Y-91144679D01*
X202301636Y-91140598D01*
X202314745Y-91130280D01*
X202328181Y-91117338D01*
X202333663Y-91113771D01*
X202348816Y-91106051D01*
X202376920Y-91085631D01*
X202379586Y-91083898D01*
X202410099Y-91074754D01*
X202440120Y-91064042D01*
X202443345Y-91064792D01*
X202446516Y-91063842D01*
X202477133Y-91072648D01*
G37*
%TD.AperFunction*%
%TA.AperFunction,Conductor*%
G36*
X200455703Y-90619505D02*
G01*
X200483276Y-90654742D01*
X200483404Y-90654664D01*
X200484084Y-90655773D01*
X200484988Y-90656929D01*
X200485951Y-90658820D01*
X200610890Y-90830786D01*
X200761213Y-90981109D01*
X200933179Y-91106048D01*
X200933181Y-91106049D01*
X200933184Y-91106051D01*
X200942493Y-91110794D01*
X200993290Y-91158766D01*
X201010087Y-91226587D01*
X200987552Y-91292722D01*
X200942505Y-91331760D01*
X200933446Y-91336376D01*
X200933440Y-91336380D01*
X200879282Y-91375727D01*
X200879282Y-91375728D01*
X201511591Y-92008037D01*
X201448007Y-92025075D01*
X201333993Y-92090901D01*
X201240901Y-92183993D01*
X201175075Y-92298007D01*
X201158037Y-92361591D01*
X200525728Y-91729282D01*
X200525727Y-91729282D01*
X200486380Y-91783440D01*
X200486378Y-91783443D01*
X200484984Y-91786180D01*
X200484180Y-91787030D01*
X200483838Y-91787590D01*
X200483720Y-91787517D01*
X200437009Y-91836976D01*
X200369188Y-91853770D01*
X200303053Y-91831232D01*
X200259602Y-91776516D01*
X200250500Y-91729884D01*
X200250500Y-90713218D01*
X200270185Y-90646179D01*
X200322989Y-90600424D01*
X200392147Y-90590480D01*
X200455703Y-90619505D01*
G37*
%TD.AperFunction*%
%TA.AperFunction,Conductor*%
G36*
X218979847Y-91191288D02*
G01*
X218986325Y-91197320D01*
X219440379Y-91651374D01*
X219440389Y-91651385D01*
X219444719Y-91655715D01*
X219444720Y-91655716D01*
X219556524Y-91767520D01*
X219622244Y-91805463D01*
X219693455Y-91846577D01*
X219846183Y-91887501D01*
X219846186Y-91887501D01*
X219915693Y-91887501D01*
X219982732Y-91907186D01*
X220003374Y-91923820D01*
X220034591Y-91955037D01*
X219971007Y-91972075D01*
X219856993Y-92037901D01*
X219763901Y-92130993D01*
X219698075Y-92245007D01*
X219681037Y-92308591D01*
X219048728Y-91676282D01*
X219048727Y-91676282D01*
X219009380Y-91730440D01*
X219009376Y-91730446D01*
X219009124Y-91730942D01*
X219008978Y-91731095D01*
X219006838Y-91734590D01*
X219006103Y-91734139D01*
X218961145Y-91781734D01*
X218893323Y-91798524D01*
X218827190Y-91775981D01*
X218783743Y-91721262D01*
X218774644Y-91674638D01*
X218774644Y-91285001D01*
X218794329Y-91217962D01*
X218847133Y-91172207D01*
X218916291Y-91162263D01*
X218979847Y-91191288D01*
G37*
%TD.AperFunction*%
%TA.AperFunction,Conductor*%
G36*
X203998703Y-87807385D02*
G01*
X204005181Y-87813417D01*
X204033284Y-87841520D01*
X204033286Y-87841521D01*
X204033290Y-87841524D01*
X204136477Y-87901098D01*
X204170216Y-87920577D01*
X204322943Y-87961500D01*
X204449222Y-87961500D01*
X204516261Y-87981185D01*
X204562016Y-88033989D01*
X204571960Y-88103147D01*
X204552324Y-88154391D01*
X204471608Y-88275189D01*
X204471601Y-88275202D01*
X204411263Y-88420873D01*
X204411260Y-88420885D01*
X204380499Y-88575528D01*
X204380499Y-88733221D01*
X204411260Y-88887864D01*
X204411263Y-88887876D01*
X204471601Y-89033547D01*
X204471608Y-89033560D01*
X204559209Y-89164663D01*
X204559212Y-89164667D01*
X204670706Y-89276161D01*
X204670710Y-89276164D01*
X204801813Y-89363765D01*
X204801817Y-89363767D01*
X204801820Y-89363769D01*
X204940480Y-89421203D01*
X204994879Y-89465041D01*
X205016945Y-89531335D01*
X205014641Y-89559953D01*
X204996500Y-89651153D01*
X204996500Y-89808846D01*
X205027261Y-89963489D01*
X205027264Y-89963501D01*
X205087602Y-90109172D01*
X205087608Y-90109183D01*
X205095391Y-90120831D01*
X205116268Y-90187509D01*
X205106849Y-90237173D01*
X205048633Y-90377719D01*
X205048630Y-90377731D01*
X205017869Y-90532374D01*
X205017869Y-90690067D01*
X205048630Y-90844710D01*
X205048633Y-90844722D01*
X205096220Y-90959609D01*
X205103689Y-91029079D01*
X205072413Y-91091558D01*
X205012324Y-91127209D01*
X204942499Y-91124715D01*
X204893978Y-91094742D01*
X203829819Y-90030583D01*
X203796334Y-89969260D01*
X203793500Y-89942902D01*
X203793500Y-89397199D01*
X203793501Y-89397186D01*
X203793501Y-89229085D01*
X203793501Y-89229083D01*
X203752577Y-89076355D01*
X203719497Y-89019059D01*
X203673520Y-88939424D01*
X203561716Y-88827620D01*
X203561715Y-88827619D01*
X203557385Y-88823289D01*
X203557374Y-88823279D01*
X203502776Y-88768681D01*
X203469291Y-88707358D01*
X203474275Y-88637666D01*
X203502775Y-88593320D01*
X203551503Y-88544591D01*
X203551508Y-88544587D01*
X203561714Y-88534380D01*
X203561716Y-88534380D01*
X203673520Y-88422576D01*
X203726844Y-88330215D01*
X203752577Y-88285645D01*
X203793501Y-88132917D01*
X203793501Y-87974803D01*
X203793501Y-87967208D01*
X203793500Y-87967190D01*
X203793500Y-87901098D01*
X203813185Y-87834059D01*
X203865989Y-87788304D01*
X203935147Y-87778360D01*
X203998703Y-87807385D01*
G37*
%TD.AperFunction*%
%TA.AperFunction,Conductor*%
G36*
X208047794Y-88510185D02*
G01*
X208068436Y-88526819D01*
X208326282Y-88784664D01*
X208326292Y-88784675D01*
X208330622Y-88789005D01*
X208330623Y-88789006D01*
X208431256Y-88889639D01*
X208500298Y-88929500D01*
X208521958Y-88942006D01*
X208554479Y-88960782D01*
X208602695Y-89011349D01*
X208615918Y-89079956D01*
X208607040Y-89115621D01*
X208577764Y-89186299D01*
X208577761Y-89186309D01*
X208549605Y-89327858D01*
X208517220Y-89389769D01*
X208515669Y-89391347D01*
X208370714Y-89536301D01*
X208370715Y-89536302D01*
X208265978Y-89641039D01*
X208265975Y-89641043D01*
X208216540Y-89726669D01*
X208216540Y-89726670D01*
X208186923Y-89777968D01*
X208145999Y-89930696D01*
X208145999Y-89930698D01*
X208145999Y-90098799D01*
X208146000Y-90098812D01*
X208146000Y-90770135D01*
X208145999Y-90770139D01*
X208145999Y-90844710D01*
X208145999Y-90924501D01*
X208126314Y-90991540D01*
X208073510Y-91037295D01*
X208073496Y-91037296D01*
X208021999Y-91048500D01*
X208016097Y-91048500D01*
X208009351Y-91046519D01*
X208004351Y-91047238D01*
X207990939Y-91041112D01*
X207949058Y-91028815D01*
X207928416Y-91012181D01*
X206631574Y-89715339D01*
X206598089Y-89654016D01*
X206597638Y-89651849D01*
X206579358Y-89559953D01*
X206566737Y-89496503D01*
X206556153Y-89470952D01*
X206548685Y-89401485D01*
X206579960Y-89339005D01*
X206640049Y-89303353D01*
X206670715Y-89299501D01*
X206705292Y-89299501D01*
X206705293Y-89299500D01*
X206859945Y-89268738D01*
X207005627Y-89208395D01*
X207136737Y-89120790D01*
X207248237Y-89009290D01*
X207335842Y-88878180D01*
X207342624Y-88861808D01*
X207358578Y-88823289D01*
X207396185Y-88732498D01*
X207409705Y-88664528D01*
X207424469Y-88590309D01*
X207456854Y-88528398D01*
X207517570Y-88493823D01*
X207546086Y-88490500D01*
X207980755Y-88490500D01*
X208047794Y-88510185D01*
G37*
%TD.AperFunction*%
%TA.AperFunction,Conductor*%
G36*
X210858340Y-87531020D02*
G01*
X210862445Y-87532635D01*
X210966503Y-87575737D01*
X211118715Y-87606014D01*
X211121153Y-87606499D01*
X211121156Y-87606500D01*
X211121158Y-87606500D01*
X211278837Y-87606500D01*
X211278842Y-87606500D01*
X211278846Y-87606499D01*
X211283770Y-87606014D01*
X211352416Y-87619031D01*
X211403128Y-87667095D01*
X211419804Y-87734945D01*
X211397150Y-87801041D01*
X211383608Y-87817098D01*
X210362667Y-88838040D01*
X210344388Y-88848021D01*
X210328949Y-88862001D01*
X210314340Y-88864428D01*
X210301344Y-88871525D01*
X210280570Y-88870039D01*
X210260025Y-88873453D01*
X210241415Y-88867239D01*
X210231652Y-88866541D01*
X210225951Y-88864252D01*
X210219278Y-88861379D01*
X210180285Y-88838866D01*
X210145071Y-88829430D01*
X210136811Y-88825874D01*
X210116555Y-88809083D01*
X210094090Y-88795389D01*
X210090081Y-88787136D01*
X210083020Y-88781283D01*
X210075059Y-88756209D01*
X210063562Y-88732541D01*
X210064610Y-88723303D01*
X210061876Y-88714690D01*
X210068283Y-88690962D01*
X210071284Y-88664530D01*
X210117237Y-88553591D01*
X210148000Y-88398936D01*
X210148000Y-88241252D01*
X210148000Y-88241249D01*
X210126450Y-88132914D01*
X210118624Y-88093570D01*
X210119064Y-88088647D01*
X210117118Y-88084102D01*
X210122147Y-88054188D01*
X210124851Y-88023980D01*
X210127884Y-88020075D01*
X210128704Y-88015200D01*
X210149108Y-87992753D01*
X210167714Y-87968803D01*
X210173284Y-87966157D01*
X210175702Y-87963499D01*
X210208144Y-87949606D01*
X210283510Y-87929412D01*
X210283511Y-87929412D01*
X210283512Y-87929411D01*
X210306754Y-87923184D01*
X210441404Y-87845444D01*
X210727328Y-87559519D01*
X210788649Y-87526036D01*
X210858340Y-87531020D01*
G37*
%TD.AperFunction*%
%TA.AperFunction,Conductor*%
G36*
X212330372Y-84493504D02*
G01*
X212374709Y-84522001D01*
X212798906Y-84946198D01*
X212798908Y-84946201D01*
X212910712Y-85058005D01*
X212910716Y-85058007D01*
X212916853Y-85064144D01*
X212916855Y-85064145D01*
X212916856Y-85064146D01*
X213051500Y-85141883D01*
X213051501Y-85141883D01*
X213051504Y-85141885D01*
X213201687Y-85182127D01*
X213201690Y-85182127D01*
X213357167Y-85182127D01*
X213357169Y-85182127D01*
X213357170Y-85182126D01*
X213365225Y-85181066D01*
X213365230Y-85181107D01*
X213388952Y-85177985D01*
X213663052Y-85177985D01*
X213692492Y-85186629D01*
X213722479Y-85193153D01*
X213727494Y-85196907D01*
X213730091Y-85197670D01*
X213750733Y-85214304D01*
X213752089Y-85215660D01*
X213785574Y-85276983D01*
X213786025Y-85279149D01*
X213816925Y-85434492D01*
X213818446Y-85439504D01*
X213819069Y-85509371D01*
X213781820Y-85568484D01*
X213718526Y-85598075D01*
X213699785Y-85599499D01*
X213606359Y-85599499D01*
X213453631Y-85640423D01*
X213453630Y-85640423D01*
X213408591Y-85666427D01*
X213408590Y-85666427D01*
X213316706Y-85719475D01*
X213316698Y-85719481D01*
X213204894Y-85831286D01*
X213015080Y-86021099D01*
X212974853Y-86047979D01*
X212857458Y-86096606D01*
X212857452Y-86096609D01*
X212726349Y-86184210D01*
X212726345Y-86184213D01*
X212614851Y-86295707D01*
X212614848Y-86295711D01*
X212527247Y-86426814D01*
X212527240Y-86426827D01*
X212466902Y-86572498D01*
X212466899Y-86572510D01*
X212436138Y-86727153D01*
X212436138Y-86884846D01*
X212466899Y-87039489D01*
X212466902Y-87039501D01*
X212527240Y-87185172D01*
X212527247Y-87185185D01*
X212614848Y-87316288D01*
X212614851Y-87316292D01*
X212726345Y-87427786D01*
X212726348Y-87427788D01*
X212726349Y-87427789D01*
X212741343Y-87437807D01*
X212746433Y-87443898D01*
X212753657Y-87447197D01*
X212768519Y-87470322D01*
X212786149Y-87491417D01*
X212788101Y-87500793D01*
X212791431Y-87505975D01*
X212796454Y-87540910D01*
X212796454Y-87775349D01*
X212776769Y-87842388D01*
X212723965Y-87888143D01*
X212672454Y-87899349D01*
X212576036Y-87899349D01*
X212480124Y-87925048D01*
X212441240Y-87935468D01*
X212441238Y-87935468D01*
X212429918Y-87938502D01*
X212423309Y-87940273D01*
X212382126Y-87964049D01*
X212378024Y-87966033D01*
X212347856Y-87971048D01*
X212318147Y-87978255D01*
X212313722Y-87976723D01*
X212309101Y-87977492D01*
X212281015Y-87965403D01*
X212252120Y-87955402D01*
X212246257Y-87950442D01*
X212244923Y-87949868D01*
X212244053Y-87948577D01*
X212236369Y-87942077D01*
X212235090Y-87940798D01*
X212235088Y-87940795D01*
X212116218Y-87821925D01*
X212116216Y-87821923D01*
X211979285Y-87742866D01*
X211826558Y-87701942D01*
X211826557Y-87701942D01*
X211708764Y-87701942D01*
X211641725Y-87682257D01*
X211595970Y-87629453D01*
X211586026Y-87560295D01*
X211615051Y-87496739D01*
X211639873Y-87474840D01*
X211686180Y-87443898D01*
X211710289Y-87427789D01*
X211821789Y-87316289D01*
X211909394Y-87185179D01*
X211969737Y-87039497D01*
X212000500Y-86884842D01*
X212000500Y-86727158D01*
X212000500Y-86727155D01*
X212000499Y-86727153D01*
X211996514Y-86707121D01*
X211969737Y-86572503D01*
X211952632Y-86531208D01*
X211909397Y-86426827D01*
X211909390Y-86426814D01*
X211821789Y-86295711D01*
X211821786Y-86295707D01*
X211710292Y-86184213D01*
X211710288Y-86184210D01*
X211579185Y-86096609D01*
X211579172Y-86096602D01*
X211433501Y-86036264D01*
X211433489Y-86036261D01*
X211278845Y-86005500D01*
X211278842Y-86005500D01*
X211226003Y-86005500D01*
X211196562Y-85996855D01*
X211166576Y-85990332D01*
X211161560Y-85986577D01*
X211158964Y-85985815D01*
X211138322Y-85969181D01*
X211091002Y-85921861D01*
X211057517Y-85860538D01*
X211062501Y-85790846D01*
X211104373Y-85734913D01*
X211169837Y-85710496D01*
X211202875Y-85712563D01*
X211336055Y-85739055D01*
X211336058Y-85739055D01*
X211493744Y-85739055D01*
X211493745Y-85739054D01*
X211648397Y-85708292D01*
X211794079Y-85647949D01*
X211925189Y-85560344D01*
X212036689Y-85448844D01*
X212124294Y-85317734D01*
X212184637Y-85172052D01*
X212215400Y-85017397D01*
X212215400Y-84859713D01*
X212215400Y-84859710D01*
X212215399Y-84859708D01*
X212192893Y-84746563D01*
X212184637Y-84705058D01*
X212183163Y-84701499D01*
X212167036Y-84662564D01*
X212164898Y-84642683D01*
X212157912Y-84623947D01*
X212161239Y-84608655D01*
X212159567Y-84593095D01*
X212168517Y-84575214D01*
X212172770Y-84555675D01*
X212189450Y-84533397D01*
X212190843Y-84530616D01*
X212193896Y-84527451D01*
X212199355Y-84521993D01*
X212260681Y-84488513D01*
X212330372Y-84493504D01*
G37*
%TD.AperFunction*%
%TA.AperFunction,Conductor*%
G36*
X212780471Y-80068582D02*
G01*
X212812222Y-80069149D01*
X212816409Y-80071152D01*
X212818502Y-80071302D01*
X212844060Y-80084382D01*
X212957814Y-80160390D01*
X212957827Y-80160397D01*
X213103498Y-80220735D01*
X213103503Y-80220737D01*
X213156260Y-80231231D01*
X213258849Y-80251638D01*
X213320760Y-80284023D01*
X213322337Y-80285572D01*
X213943033Y-80906269D01*
X214452548Y-81415784D01*
X214547447Y-81510683D01*
X214544929Y-81513200D01*
X214576539Y-81556340D01*
X214580809Y-81626079D01*
X214579694Y-81630574D01*
X214563057Y-81692667D01*
X214546500Y-81754458D01*
X214546500Y-82399542D01*
X214552988Y-82423759D01*
X214570717Y-82489923D01*
X214586740Y-82549721D01*
X214586743Y-82549728D01*
X214664479Y-82684372D01*
X214664483Y-82684377D01*
X214957712Y-82977606D01*
X214991197Y-83038929D01*
X214994031Y-83065287D01*
X214994031Y-83709566D01*
X214974346Y-83776605D01*
X214921542Y-83822360D01*
X214917485Y-83824126D01*
X214865963Y-83845467D01*
X214865948Y-83845475D01*
X214734845Y-83933076D01*
X214734841Y-83933079D01*
X214623347Y-84044573D01*
X214569553Y-84125081D01*
X214515940Y-84169885D01*
X214446615Y-84178592D01*
X214393188Y-84156231D01*
X214385503Y-84150603D01*
X214331865Y-84096965D01*
X214245053Y-84046845D01*
X214194934Y-84017908D01*
X214042206Y-83976984D01*
X213884092Y-83976984D01*
X213876496Y-83976984D01*
X213876480Y-83976985D01*
X213579525Y-83976985D01*
X213512486Y-83957300D01*
X213491844Y-83940666D01*
X213223085Y-83671907D01*
X213189600Y-83610584D01*
X213186766Y-83584226D01*
X213186766Y-83265263D01*
X213186767Y-83265250D01*
X213186767Y-83097149D01*
X213186767Y-83097147D01*
X213145843Y-82944419D01*
X213107207Y-82877500D01*
X213066786Y-82807488D01*
X212995395Y-82736097D01*
X212990701Y-82730079D01*
X212983070Y-82710799D01*
X212968699Y-82685906D01*
X212950578Y-82618275D01*
X212950576Y-82618270D01*
X212871524Y-82481347D01*
X212871521Y-82481343D01*
X212871520Y-82481341D01*
X212759716Y-82369537D01*
X212759715Y-82369536D01*
X212755385Y-82365206D01*
X212755374Y-82365196D01*
X211959868Y-81569689D01*
X211959845Y-81569668D01*
X211809767Y-81419590D01*
X211776282Y-81358267D01*
X211781266Y-81288575D01*
X211794346Y-81263018D01*
X211869788Y-81150111D01*
X211869788Y-81150110D01*
X211869792Y-81150105D01*
X211930135Y-81004423D01*
X211960898Y-80849768D01*
X211960898Y-80849758D01*
X211961382Y-80844846D01*
X211987539Y-80780057D01*
X211997096Y-80769320D01*
X212523644Y-80242772D01*
X212549316Y-80223072D01*
X212584575Y-80202717D01*
X212687491Y-80099800D01*
X212715353Y-80084586D01*
X212742363Y-80067902D01*
X212745796Y-80067963D01*
X212748810Y-80066318D01*
X212780471Y-80068582D01*
G37*
%TD.AperFunction*%
%TA.AperFunction,Conductor*%
G36*
X209073193Y-83061807D02*
G01*
X209129126Y-83103679D01*
X209153543Y-83169143D01*
X209153859Y-83177989D01*
X209153859Y-83219270D01*
X209182304Y-83362268D01*
X209184622Y-83373921D01*
X209209114Y-83433051D01*
X209212060Y-83440162D01*
X209213686Y-83448338D01*
X209216476Y-83452679D01*
X209221498Y-83487611D01*
X209221499Y-83487614D01*
X209221499Y-83616983D01*
X209221499Y-83616985D01*
X209221500Y-83626979D01*
X209221500Y-83755756D01*
X209201815Y-83822795D01*
X209149011Y-83868550D01*
X209079853Y-83878494D01*
X209016297Y-83849469D01*
X209009819Y-83843437D01*
X208687115Y-83520733D01*
X208653630Y-83459410D01*
X208658614Y-83389718D01*
X208687115Y-83345371D01*
X208942178Y-83090308D01*
X209003501Y-83056823D01*
X209073193Y-83061807D01*
G37*
%TD.AperFunction*%
%TA.AperFunction,Conductor*%
G36*
X201175075Y-79983993D02*
G01*
X201240901Y-80098007D01*
X201333993Y-80191099D01*
X201448007Y-80256925D01*
X201511590Y-80273962D01*
X200879282Y-80906269D01*
X200879282Y-80906270D01*
X200933452Y-80945626D01*
X200933451Y-80945626D01*
X200942495Y-80950234D01*
X200993292Y-80998208D01*
X201010087Y-81066029D01*
X200987550Y-81132164D01*
X200942499Y-81171202D01*
X200933182Y-81175949D01*
X200761213Y-81300890D01*
X200610890Y-81451213D01*
X200485950Y-81623180D01*
X200484984Y-81625078D01*
X200484424Y-81625669D01*
X200483404Y-81627336D01*
X200483053Y-81627121D01*
X200437009Y-81675873D01*
X200369187Y-81692667D01*
X200303053Y-81670128D01*
X200259602Y-81615413D01*
X200250500Y-81568781D01*
X200250500Y-80552116D01*
X200270185Y-80485077D01*
X200322989Y-80439322D01*
X200392147Y-80429378D01*
X200455703Y-80458403D01*
X200484987Y-80495826D01*
X200486374Y-80498548D01*
X200525728Y-80552716D01*
X201158037Y-79920408D01*
X201175075Y-79983993D01*
G37*
%TD.AperFunction*%
%TA.AperFunction,Conductor*%
G36*
X203196203Y-66941742D02*
G01*
X203202681Y-66947774D01*
X204888181Y-68633274D01*
X204921666Y-68694597D01*
X204924500Y-68720955D01*
X204924500Y-78064840D01*
X204930881Y-78088653D01*
X204952726Y-78170183D01*
X204964740Y-78215019D01*
X204964743Y-78215026D01*
X205030232Y-78328456D01*
X205046705Y-78396356D01*
X205023852Y-78462383D01*
X205010526Y-78478137D01*
X203119009Y-80369654D01*
X203057686Y-80403139D01*
X202987994Y-80398155D01*
X202932061Y-80356283D01*
X202907644Y-80290819D01*
X202913397Y-80243654D01*
X202957758Y-80107126D01*
X202991000Y-79897246D01*
X202991000Y-79684753D01*
X202957757Y-79474872D01*
X202957757Y-79474869D01*
X202892095Y-79272782D01*
X202795624Y-79083449D01*
X202756270Y-79029282D01*
X202756269Y-79029282D01*
X202123962Y-79661590D01*
X202106925Y-79598007D01*
X202041099Y-79483993D01*
X201948007Y-79390901D01*
X201833993Y-79325075D01*
X201770409Y-79308037D01*
X202402716Y-78675728D01*
X202348547Y-78636373D01*
X202348547Y-78636372D01*
X202339500Y-78631763D01*
X202288706Y-78583788D01*
X202271912Y-78515966D01*
X202294451Y-78449832D01*
X202339508Y-78410793D01*
X202348816Y-78406051D01*
X202481375Y-78309742D01*
X202520786Y-78281109D01*
X202520788Y-78281106D01*
X202520792Y-78281104D01*
X202671104Y-78130792D01*
X202671106Y-78130788D01*
X202671109Y-78130786D01*
X202796048Y-77958820D01*
X202796047Y-77958820D01*
X202796051Y-77958816D01*
X202892557Y-77769412D01*
X202958246Y-77567243D01*
X202991500Y-77357287D01*
X202991500Y-77144713D01*
X202958246Y-76934757D01*
X202892557Y-76732588D01*
X202796051Y-76543184D01*
X202796049Y-76543181D01*
X202796048Y-76543179D01*
X202671109Y-76371213D01*
X202520786Y-76220890D01*
X202348820Y-76095951D01*
X202348115Y-76095591D01*
X202340054Y-76091485D01*
X202289259Y-76043512D01*
X202272463Y-75975692D01*
X202294999Y-75909556D01*
X202340054Y-75870515D01*
X202348816Y-75866051D01*
X202370789Y-75850086D01*
X202520786Y-75741109D01*
X202520788Y-75741106D01*
X202520792Y-75741104D01*
X202671104Y-75590792D01*
X202671106Y-75590788D01*
X202671109Y-75590786D01*
X202780086Y-75440789D01*
X202796051Y-75418816D01*
X202892557Y-75229412D01*
X202958246Y-75027243D01*
X202991500Y-74817287D01*
X202991500Y-74604713D01*
X202958246Y-74394757D01*
X202892557Y-74192588D01*
X202796051Y-74003184D01*
X202796049Y-74003181D01*
X202796048Y-74003179D01*
X202671109Y-73831213D01*
X202520786Y-73680890D01*
X202348820Y-73555951D01*
X202348115Y-73555591D01*
X202340054Y-73551485D01*
X202289259Y-73503512D01*
X202272463Y-73435692D01*
X202294999Y-73369556D01*
X202340054Y-73330515D01*
X202348816Y-73326051D01*
X202421766Y-73273050D01*
X202520786Y-73201109D01*
X202520788Y-73201106D01*
X202520792Y-73201104D01*
X202671104Y-73050792D01*
X202671106Y-73050788D01*
X202671109Y-73050786D01*
X202796048Y-72878820D01*
X202796047Y-72878820D01*
X202796051Y-72878816D01*
X202892557Y-72689412D01*
X202958246Y-72487243D01*
X202991500Y-72277287D01*
X202991500Y-72064713D01*
X202958246Y-71854757D01*
X202892557Y-71652588D01*
X202796051Y-71463184D01*
X202796049Y-71463181D01*
X202796048Y-71463179D01*
X202671109Y-71291213D01*
X202520786Y-71140890D01*
X202348820Y-71015951D01*
X202348115Y-71015591D01*
X202340054Y-71011485D01*
X202289259Y-70963512D01*
X202272463Y-70895692D01*
X202294999Y-70829556D01*
X202340054Y-70790515D01*
X202348816Y-70786051D01*
X202370789Y-70770086D01*
X202520786Y-70661109D01*
X202520788Y-70661106D01*
X202520792Y-70661104D01*
X202671104Y-70510792D01*
X202671106Y-70510788D01*
X202671109Y-70510786D01*
X202796048Y-70338820D01*
X202796047Y-70338820D01*
X202796051Y-70338816D01*
X202892557Y-70149412D01*
X202958246Y-69947243D01*
X202991500Y-69737287D01*
X202991500Y-69524713D01*
X202958246Y-69314757D01*
X202892557Y-69112588D01*
X202796051Y-68923184D01*
X202796049Y-68923181D01*
X202796048Y-68923179D01*
X202671109Y-68751213D01*
X202520786Y-68600890D01*
X202348817Y-68475949D01*
X202339504Y-68471204D01*
X202288707Y-68423230D01*
X202271912Y-68355409D01*
X202294449Y-68289274D01*
X202339507Y-68250232D01*
X202348555Y-68245622D01*
X202402716Y-68206270D01*
X202402717Y-68206270D01*
X201770408Y-67573962D01*
X201833993Y-67556925D01*
X201948007Y-67491099D01*
X202041099Y-67398007D01*
X202106925Y-67283993D01*
X202123962Y-67220408D01*
X202756270Y-67852717D01*
X202756270Y-67852716D01*
X202795622Y-67798554D01*
X202892095Y-67609217D01*
X202957757Y-67407130D01*
X202957757Y-67407127D01*
X202991000Y-67197246D01*
X202991000Y-67035455D01*
X203010685Y-66968416D01*
X203063489Y-66922661D01*
X203132647Y-66912717D01*
X203196203Y-66941742D01*
G37*
%TD.AperFunction*%
%TA.AperFunction,Conductor*%
G36*
X205755447Y-60520185D02*
G01*
X205801202Y-60572989D01*
X205811146Y-60642147D01*
X205791510Y-60693391D01*
X205756814Y-60745316D01*
X205756807Y-60745328D01*
X205681430Y-60927306D01*
X205681427Y-60927318D01*
X205643000Y-61120504D01*
X205643000Y-61269000D01*
X206343000Y-61269000D01*
X206343000Y-61769000D01*
X205643000Y-61769000D01*
X205643000Y-61917495D01*
X205681427Y-62110681D01*
X205681430Y-62110693D01*
X205756807Y-62292671D01*
X205756814Y-62292684D01*
X205866248Y-62456462D01*
X205866251Y-62456466D01*
X206005533Y-62595748D01*
X206005537Y-62595751D01*
X206169315Y-62705185D01*
X206169328Y-62705192D01*
X206351308Y-62780569D01*
X206393000Y-62788862D01*
X206393000Y-61985988D01*
X206402940Y-62003205D01*
X206458795Y-62059060D01*
X206527204Y-62098556D01*
X206603504Y-62119000D01*
X206682496Y-62119000D01*
X206758796Y-62098556D01*
X206827205Y-62059060D01*
X206883060Y-62003205D01*
X206893000Y-61985988D01*
X206893000Y-62788862D01*
X206934690Y-62780569D01*
X206934692Y-62780569D01*
X207116671Y-62705192D01*
X207116684Y-62705185D01*
X207280462Y-62595751D01*
X207280466Y-62595748D01*
X207419748Y-62456466D01*
X207419751Y-62456462D01*
X207529185Y-62292684D01*
X207529192Y-62292671D01*
X207604569Y-62110693D01*
X207604572Y-62110681D01*
X207642999Y-61917495D01*
X207643000Y-61917492D01*
X207643000Y-61769000D01*
X206943000Y-61769000D01*
X206943000Y-61269000D01*
X207643000Y-61269000D01*
X207643000Y-61120508D01*
X207642999Y-61120504D01*
X207604572Y-60927318D01*
X207604569Y-60927306D01*
X207529192Y-60745328D01*
X207529185Y-60745316D01*
X207494490Y-60693391D01*
X207473612Y-60626714D01*
X207492096Y-60559334D01*
X207544075Y-60512643D01*
X207597592Y-60500500D01*
X214328408Y-60500500D01*
X214395447Y-60520185D01*
X214441202Y-60572989D01*
X214451146Y-60642147D01*
X214431510Y-60693391D01*
X214396814Y-60745316D01*
X214396807Y-60745328D01*
X214321430Y-60927306D01*
X214321427Y-60927318D01*
X214283000Y-61120504D01*
X214283000Y-61221220D01*
X214263315Y-61288259D01*
X214210511Y-61334014D01*
X214141353Y-61343958D01*
X214090109Y-61324322D01*
X214026185Y-61281609D01*
X214026172Y-61281602D01*
X213880501Y-61221264D01*
X213880489Y-61221261D01*
X213725845Y-61190500D01*
X213725842Y-61190500D01*
X213568158Y-61190500D01*
X213568155Y-61190500D01*
X213413510Y-61221261D01*
X213413498Y-61221264D01*
X213267827Y-61281602D01*
X213267814Y-61281609D01*
X213136711Y-61369210D01*
X213136707Y-61369213D01*
X213025213Y-61480707D01*
X213025210Y-61480711D01*
X212937609Y-61611814D01*
X212937602Y-61611827D01*
X212877264Y-61757498D01*
X212877261Y-61757510D01*
X212846500Y-61912153D01*
X212846500Y-62069846D01*
X212877261Y-62224489D01*
X212877264Y-62224501D01*
X212937602Y-62370172D01*
X212937609Y-62370185D01*
X213025210Y-62501288D01*
X213025213Y-62501292D01*
X213136707Y-62612786D01*
X213136711Y-62612789D01*
X213267814Y-62700390D01*
X213267827Y-62700397D01*
X213413498Y-62760735D01*
X213413503Y-62760737D01*
X213478147Y-62773595D01*
X213568849Y-62791638D01*
X213585605Y-62800402D01*
X213604085Y-62804423D01*
X213629123Y-62823167D01*
X213630760Y-62824023D01*
X213632339Y-62825574D01*
X213791139Y-62984374D01*
X213791160Y-62984397D01*
X213801979Y-62995216D01*
X213835464Y-63056539D01*
X213830480Y-63126231D01*
X213788608Y-63182164D01*
X213723144Y-63206581D01*
X213690107Y-63204514D01*
X213654845Y-63197500D01*
X213654842Y-63197500D01*
X213497158Y-63197500D01*
X213497155Y-63197500D01*
X213342510Y-63228261D01*
X213342498Y-63228264D01*
X213196827Y-63288602D01*
X213196814Y-63288609D01*
X213065711Y-63376210D01*
X213065707Y-63376213D01*
X212954213Y-63487707D01*
X212954210Y-63487711D01*
X212866609Y-63618814D01*
X212866602Y-63618827D01*
X212806264Y-63764498D01*
X212806261Y-63764508D01*
X212775362Y-63919848D01*
X212759419Y-63960534D01*
X212751767Y-63972996D01*
X212746480Y-63978284D01*
X212715128Y-64032588D01*
X212714289Y-64034040D01*
X212714286Y-64034046D01*
X212689575Y-64076846D01*
X212667423Y-64115215D01*
X212626499Y-64267943D01*
X212626499Y-64267945D01*
X212626499Y-64268308D01*
X212626412Y-64268602D01*
X212625438Y-64276003D01*
X212624284Y-64275851D01*
X212606814Y-64335347D01*
X212554010Y-64381102D01*
X212484852Y-64391046D01*
X212421296Y-64362021D01*
X212406646Y-64346973D01*
X212404787Y-64344708D01*
X212293292Y-64233213D01*
X212293288Y-64233210D01*
X212162185Y-64145609D01*
X212162172Y-64145602D01*
X212016501Y-64085264D01*
X212016489Y-64085261D01*
X211861845Y-64054500D01*
X211861842Y-64054500D01*
X211704158Y-64054500D01*
X211704155Y-64054500D01*
X211549510Y-64085261D01*
X211549498Y-64085264D01*
X211403827Y-64145602D01*
X211403814Y-64145609D01*
X211272711Y-64233210D01*
X211272707Y-64233213D01*
X211161213Y-64344707D01*
X211161210Y-64344711D01*
X211073609Y-64475814D01*
X211073602Y-64475827D01*
X211013264Y-64621498D01*
X211013261Y-64621510D01*
X210982500Y-64776153D01*
X210982500Y-64933846D01*
X211013261Y-65088489D01*
X211013264Y-65088501D01*
X211073602Y-65234172D01*
X211073609Y-65234185D01*
X211161210Y-65365288D01*
X211161213Y-65365292D01*
X211202573Y-65406651D01*
X211236059Y-65467974D01*
X211238893Y-65494333D01*
X211238893Y-66847676D01*
X211219208Y-66914715D01*
X211166404Y-66960470D01*
X211139085Y-66969293D01*
X211003508Y-66996261D01*
X211003498Y-66996264D01*
X210857827Y-67056602D01*
X210857814Y-67056609D01*
X210726711Y-67144210D01*
X210726707Y-67144213D01*
X210615213Y-67255707D01*
X210615210Y-67255711D01*
X210527609Y-67386814D01*
X210527602Y-67386827D01*
X210467264Y-67532498D01*
X210467261Y-67532510D01*
X210436500Y-67687153D01*
X210436500Y-67844846D01*
X210467261Y-67999489D01*
X210467264Y-67999501D01*
X210527602Y-68145172D01*
X210527609Y-68145185D01*
X210615210Y-68276288D01*
X210615213Y-68276292D01*
X210706181Y-68367260D01*
X210739666Y-68428583D01*
X210742500Y-68454941D01*
X210742500Y-74102330D01*
X210742499Y-74102348D01*
X210742499Y-74268054D01*
X210742498Y-74268054D01*
X210742499Y-74268057D01*
X210783423Y-74420785D01*
X210783424Y-74420787D01*
X210783423Y-74420787D01*
X210800576Y-74450495D01*
X210800578Y-74450497D01*
X210800579Y-74450499D01*
X210804771Y-74457759D01*
X210862479Y-74557715D01*
X210981349Y-74676585D01*
X210981355Y-74676590D01*
X211310181Y-75005416D01*
X211343666Y-75066739D01*
X211346500Y-75093097D01*
X211346500Y-76301056D01*
X211387423Y-76453783D01*
X211387426Y-76453790D01*
X211466475Y-76590709D01*
X211466479Y-76590714D01*
X211466480Y-76590716D01*
X211578284Y-76702520D01*
X211578286Y-76702521D01*
X211578290Y-76702524D01*
X211631498Y-76733243D01*
X211715216Y-76781577D01*
X211863611Y-76821339D01*
X211919197Y-76853432D01*
X213123584Y-78057819D01*
X213157069Y-78119142D01*
X213152085Y-78188834D01*
X213110213Y-78244767D01*
X213044749Y-78269184D01*
X213035903Y-78269500D01*
X213014458Y-78269500D01*
X212902181Y-78299584D01*
X212902181Y-78299585D01*
X212864274Y-78309742D01*
X212864272Y-78309742D01*
X212864272Y-78309743D01*
X212729624Y-78387481D01*
X212729621Y-78387483D01*
X211899485Y-79217619D01*
X211873807Y-79237323D01*
X211838555Y-79257677D01*
X211838546Y-79257683D01*
X211401798Y-79694431D01*
X211340475Y-79727916D01*
X211270783Y-79722932D01*
X211227849Y-79692265D01*
X211226097Y-79694018D01*
X211110292Y-79578213D01*
X211110288Y-79578210D01*
X210979185Y-79490609D01*
X210979172Y-79490602D01*
X210833501Y-79430264D01*
X210833489Y-79430261D01*
X210678845Y-79399500D01*
X210678842Y-79399500D01*
X210521158Y-79399500D01*
X210521153Y-79399500D01*
X210425463Y-79418534D01*
X210355871Y-79412307D01*
X210313591Y-79384598D01*
X209157102Y-78228109D01*
X207969476Y-77040482D01*
X207969475Y-77040481D01*
X207969472Y-77040479D01*
X207834829Y-76962743D01*
X207834826Y-76962742D01*
X207803089Y-76954237D01*
X207743865Y-76938368D01*
X207684642Y-76922500D01*
X207684641Y-76922500D01*
X206852034Y-76922500D01*
X206822597Y-76913856D01*
X206792616Y-76907337D01*
X206787594Y-76903578D01*
X206784995Y-76902815D01*
X206764360Y-76886188D01*
X206762455Y-76884283D01*
X206757926Y-76879754D01*
X206738218Y-76854073D01*
X206727059Y-76834745D01*
X206615255Y-76722941D01*
X206478324Y-76643884D01*
X206325597Y-76602960D01*
X206229500Y-76602960D01*
X206162461Y-76583275D01*
X206116706Y-76530471D01*
X206105500Y-76478960D01*
X206105500Y-68347261D01*
X206105500Y-68347259D01*
X206067995Y-68207289D01*
X206065258Y-68197075D01*
X206062689Y-68192626D01*
X205987520Y-68062427D01*
X205987516Y-68062422D01*
X204950268Y-67025174D01*
X202975597Y-65050504D01*
X205643000Y-65050504D01*
X205643000Y-65449000D01*
X206343000Y-65449000D01*
X206343000Y-65949000D01*
X205643000Y-65949000D01*
X205643000Y-66347495D01*
X205681427Y-66540681D01*
X205681430Y-66540693D01*
X205756807Y-66722671D01*
X205756814Y-66722684D01*
X205866248Y-66886462D01*
X205866251Y-66886466D01*
X206005533Y-67025748D01*
X206005537Y-67025751D01*
X206169315Y-67135185D01*
X206169328Y-67135192D01*
X206351308Y-67210569D01*
X206393000Y-67218862D01*
X206393000Y-66415988D01*
X206402940Y-66433205D01*
X206458795Y-66489060D01*
X206527204Y-66528556D01*
X206603504Y-66549000D01*
X206682496Y-66549000D01*
X206758796Y-66528556D01*
X206827205Y-66489060D01*
X206883060Y-66433205D01*
X206893000Y-66415988D01*
X206893000Y-67218862D01*
X206934690Y-67210569D01*
X206934692Y-67210569D01*
X207116671Y-67135192D01*
X207116684Y-67135185D01*
X207280462Y-67025751D01*
X207280466Y-67025748D01*
X207419748Y-66886466D01*
X207419751Y-66886462D01*
X207529185Y-66722684D01*
X207529192Y-66722671D01*
X207604569Y-66540693D01*
X207604572Y-66540681D01*
X207642999Y-66347495D01*
X207643000Y-66347492D01*
X207643000Y-65949000D01*
X206943000Y-65949000D01*
X206943000Y-65449000D01*
X207558607Y-65449000D01*
X207625646Y-65468685D01*
X207645616Y-65487049D01*
X207646748Y-65485918D01*
X207652495Y-65491665D01*
X207750335Y-65589505D01*
X207870164Y-65658688D01*
X208003817Y-65694500D01*
X208003819Y-65694500D01*
X208142181Y-65694500D01*
X208142183Y-65694500D01*
X208275836Y-65658688D01*
X208395665Y-65589505D01*
X208493505Y-65491665D01*
X208562688Y-65371836D01*
X208598500Y-65238183D01*
X208598500Y-65099817D01*
X208562688Y-64966164D01*
X208505576Y-64867243D01*
X208493507Y-64846338D01*
X208493503Y-64846333D01*
X208395666Y-64748496D01*
X208395661Y-64748492D01*
X208275838Y-64679313D01*
X208275837Y-64679312D01*
X208275836Y-64679312D01*
X208142183Y-64643500D01*
X208003817Y-64643500D01*
X207870164Y-64679312D01*
X207870161Y-64679313D01*
X207750338Y-64748492D01*
X207746613Y-64752217D01*
X207685288Y-64785699D01*
X207615596Y-64780710D01*
X207559665Y-64738836D01*
X207544375Y-64711984D01*
X207529190Y-64675324D01*
X207529185Y-64675315D01*
X207419751Y-64511537D01*
X207419748Y-64511533D01*
X207280466Y-64372251D01*
X207280462Y-64372248D01*
X207116684Y-64262814D01*
X207116671Y-64262807D01*
X206934691Y-64187429D01*
X206934683Y-64187427D01*
X206893000Y-64179135D01*
X206893000Y-64982011D01*
X206883060Y-64964795D01*
X206827205Y-64908940D01*
X206758796Y-64869444D01*
X206682496Y-64849000D01*
X206603504Y-64849000D01*
X206527204Y-64869444D01*
X206458795Y-64908940D01*
X206402940Y-64964795D01*
X206393000Y-64982011D01*
X206393000Y-64179136D01*
X206392999Y-64179135D01*
X206351316Y-64187427D01*
X206351308Y-64187429D01*
X206169328Y-64262807D01*
X206169315Y-64262814D01*
X206005537Y-64372248D01*
X206005533Y-64372251D01*
X205866251Y-64511533D01*
X205866248Y-64511537D01*
X205756814Y-64675315D01*
X205756807Y-64675328D01*
X205681430Y-64857306D01*
X205681427Y-64857318D01*
X205643000Y-65050504D01*
X202975597Y-65050504D01*
X202971288Y-65046195D01*
X202937804Y-64984873D01*
X202941040Y-64920195D01*
X202958246Y-64867243D01*
X202991500Y-64657287D01*
X202991500Y-64444713D01*
X202958246Y-64234757D01*
X202892557Y-64032588D01*
X202796051Y-63843184D01*
X202796049Y-63843181D01*
X202796048Y-63843179D01*
X202671109Y-63671213D01*
X202557569Y-63557673D01*
X202524084Y-63496350D01*
X202529068Y-63426658D01*
X202570940Y-63370725D01*
X202601915Y-63353810D01*
X202733331Y-63304796D01*
X202848546Y-63218546D01*
X202934796Y-63103331D01*
X202985091Y-62968483D01*
X202991500Y-62908873D01*
X202991499Y-61113128D01*
X202985091Y-61053517D01*
X202978108Y-61034795D01*
X202934797Y-60918671D01*
X202934793Y-60918664D01*
X202848547Y-60803455D01*
X202848544Y-60803452D01*
X202742098Y-60723766D01*
X202700227Y-60667832D01*
X202695243Y-60598141D01*
X202728729Y-60536818D01*
X202790052Y-60503334D01*
X202816409Y-60500500D01*
X205688408Y-60500500D01*
X205755447Y-60520185D01*
G37*
%TD.AperFunction*%
%TA.AperFunction,Conductor*%
G36*
X200455703Y-77919505D02*
G01*
X200483276Y-77954742D01*
X200483404Y-77954664D01*
X200484084Y-77955773D01*
X200484988Y-77956929D01*
X200485951Y-77958820D01*
X200610890Y-78130786D01*
X200761213Y-78281109D01*
X200933179Y-78406048D01*
X200933181Y-78406049D01*
X200933184Y-78406051D01*
X200942493Y-78410794D01*
X200993290Y-78458766D01*
X201010087Y-78526587D01*
X200987552Y-78592722D01*
X200942505Y-78631760D01*
X200933446Y-78636376D01*
X200933440Y-78636380D01*
X200879282Y-78675727D01*
X200879282Y-78675728D01*
X201511591Y-79308037D01*
X201448007Y-79325075D01*
X201333993Y-79390901D01*
X201240901Y-79483993D01*
X201175075Y-79598007D01*
X201158037Y-79661591D01*
X200525728Y-79029282D01*
X200525727Y-79029282D01*
X200486380Y-79083440D01*
X200486378Y-79083443D01*
X200484984Y-79086180D01*
X200484180Y-79087030D01*
X200483838Y-79087590D01*
X200483720Y-79087517D01*
X200437009Y-79136976D01*
X200369188Y-79153770D01*
X200303053Y-79131232D01*
X200259602Y-79076516D01*
X200250500Y-79029884D01*
X200250500Y-78013218D01*
X200270185Y-77946179D01*
X200322989Y-77900424D01*
X200392147Y-77890480D01*
X200455703Y-77919505D01*
G37*
%TD.AperFunction*%
%TA.AperFunction,Conductor*%
G36*
X219069718Y-77994940D02*
G01*
X219088834Y-78015769D01*
X219133892Y-78077788D01*
X219284213Y-78228109D01*
X219456179Y-78353048D01*
X219456181Y-78353049D01*
X219456184Y-78353051D01*
X219465493Y-78357794D01*
X219516290Y-78405766D01*
X219533087Y-78473587D01*
X219510552Y-78539722D01*
X219465505Y-78578760D01*
X219456446Y-78583376D01*
X219456440Y-78583380D01*
X219402282Y-78622727D01*
X219402282Y-78622728D01*
X220034591Y-79255037D01*
X219971007Y-79272075D01*
X219856993Y-79337901D01*
X219763901Y-79430993D01*
X219698075Y-79545007D01*
X219681037Y-79608591D01*
X219048728Y-78976282D01*
X219048726Y-78976282D01*
X219043688Y-78983217D01*
X219026502Y-78996469D01*
X219012646Y-79013176D01*
X218999378Y-79017384D01*
X218988358Y-79025883D01*
X218966735Y-79027740D01*
X218946047Y-79034303D01*
X218928552Y-79031019D01*
X218918745Y-79031862D01*
X218911012Y-79030036D01*
X218902495Y-79027733D01*
X218901784Y-79027323D01*
X218809521Y-79002601D01*
X218809398Y-79002568D01*
X218779594Y-78984311D01*
X218750002Y-78966273D01*
X218749940Y-78966145D01*
X218749818Y-78966071D01*
X218734604Y-78934576D01*
X218719473Y-78903426D01*
X218719489Y-78903285D01*
X218719428Y-78903157D01*
X218723629Y-78868662D01*
X218727768Y-78834051D01*
X218727865Y-78833883D01*
X218727876Y-78833800D01*
X218728008Y-78833640D01*
X218743387Y-78807368D01*
X218744523Y-78805885D01*
X218744535Y-78805874D01*
X218802510Y-78705458D01*
X218823592Y-78668943D01*
X218864516Y-78516216D01*
X218864516Y-78358101D01*
X218864516Y-78350505D01*
X218864515Y-78350488D01*
X218864515Y-78088653D01*
X218884200Y-78021614D01*
X218937004Y-77975859D01*
X219006162Y-77965915D01*
X219069718Y-77994940D01*
G37*
%TD.AperFunction*%
%TA.AperFunction,Conductor*%
G36*
X214983000Y-65949000D02*
G01*
X214283000Y-65949000D01*
X214283000Y-66347495D01*
X214321427Y-66540681D01*
X214321430Y-66540693D01*
X214396807Y-66722671D01*
X214396814Y-66722684D01*
X214506248Y-66886462D01*
X214506251Y-66886466D01*
X214645533Y-67025748D01*
X214645537Y-67025751D01*
X214809315Y-67135185D01*
X214809328Y-67135192D01*
X214991308Y-67210569D01*
X215033000Y-67218862D01*
X215033000Y-66415988D01*
X215042940Y-66433205D01*
X215098795Y-66489060D01*
X215167204Y-66528556D01*
X215243504Y-66549000D01*
X215322496Y-66549000D01*
X215398796Y-66528556D01*
X215467205Y-66489060D01*
X215523060Y-66433205D01*
X215533000Y-66415988D01*
X215533000Y-67218862D01*
X215574690Y-67210569D01*
X215574692Y-67210569D01*
X215756671Y-67135192D01*
X215756683Y-67135185D01*
X215871398Y-67058535D01*
X215938075Y-67037657D01*
X216005455Y-67056141D01*
X216052146Y-67108120D01*
X216063322Y-67177090D01*
X216047679Y-67223632D01*
X216044423Y-67229272D01*
X216003499Y-67382000D01*
X216003499Y-67382002D01*
X216003499Y-67550103D01*
X216003500Y-67550116D01*
X216003500Y-68802330D01*
X216003499Y-68802348D01*
X216003499Y-68968054D01*
X216003498Y-68968054D01*
X216003499Y-68968057D01*
X216044423Y-69120785D01*
X216044971Y-69121735D01*
X216065380Y-69157082D01*
X216065381Y-69157086D01*
X216123475Y-69257709D01*
X216123481Y-69257717D01*
X216242349Y-69376585D01*
X216242355Y-69376590D01*
X216997180Y-70131415D01*
X217011882Y-70158340D01*
X217028476Y-70184159D01*
X217029367Y-70190362D01*
X217030665Y-70192738D01*
X217033499Y-70219094D01*
X217033499Y-70278057D01*
X217033499Y-70278059D01*
X217033500Y-70288053D01*
X217033500Y-72403330D01*
X217033499Y-72403348D01*
X217033499Y-72569054D01*
X217033498Y-72569054D01*
X217033499Y-72569057D01*
X217074423Y-72721785D01*
X217094466Y-72756500D01*
X217125631Y-72810480D01*
X217156280Y-72863566D01*
X217172752Y-72931466D01*
X217149899Y-72997493D01*
X217136573Y-73013246D01*
X216882217Y-73267603D01*
X216882214Y-73267605D01*
X216882215Y-73267606D01*
X216777478Y-73372342D01*
X216748488Y-73422557D01*
X216740694Y-73436057D01*
X216698423Y-73509272D01*
X216684428Y-73561498D01*
X216680216Y-73570784D01*
X216663794Y-73589830D01*
X216650705Y-73611304D01*
X216641368Y-73615839D01*
X216634591Y-73623700D01*
X216610478Y-73630844D01*
X216587858Y-73641833D01*
X216567719Y-73643514D01*
X216567600Y-73643550D01*
X216567531Y-73643530D01*
X216567295Y-73643550D01*
X216392619Y-73643550D01*
X216392603Y-73643549D01*
X216385007Y-73643549D01*
X216226893Y-73643549D01*
X216085604Y-73681408D01*
X216074165Y-73684473D01*
X216066661Y-73687582D01*
X216065734Y-73685345D01*
X216063158Y-73686035D01*
X216051580Y-73693477D01*
X216016645Y-73698500D01*
X215937727Y-73698500D01*
X215937711Y-73698499D01*
X215930115Y-73698499D01*
X215772000Y-73698499D01*
X215631793Y-73736067D01*
X215619268Y-73739424D01*
X215482344Y-73818477D01*
X215482339Y-73818481D01*
X215123217Y-74177603D01*
X215123214Y-74177605D01*
X215123215Y-74177606D01*
X215018478Y-74282343D01*
X214996261Y-74320826D01*
X214971148Y-74364323D01*
X214939423Y-74419272D01*
X214898499Y-74572000D01*
X214898499Y-74572002D01*
X214898499Y-74740103D01*
X214898500Y-74740116D01*
X214898500Y-74750903D01*
X214878815Y-74817942D01*
X214862181Y-74838584D01*
X214269483Y-75431281D01*
X214269481Y-75431284D01*
X214190423Y-75568214D01*
X214177307Y-75617165D01*
X214149499Y-75720943D01*
X214149499Y-75720945D01*
X214149499Y-75879054D01*
X214149498Y-75879054D01*
X214149499Y-75879057D01*
X214190423Y-76031785D01*
X214269481Y-76168716D01*
X214269483Y-76168718D01*
X214716533Y-76615768D01*
X214750018Y-76677091D01*
X214745034Y-76746783D01*
X214703162Y-76802716D01*
X214637698Y-76827133D01*
X214628852Y-76827449D01*
X214510893Y-76827449D01*
X214434529Y-76847911D01*
X214358162Y-76868373D01*
X214358157Y-76868376D01*
X214340103Y-76878799D01*
X214272202Y-76895269D01*
X214206176Y-76872415D01*
X214190426Y-76859091D01*
X212984819Y-75653484D01*
X212951334Y-75592161D01*
X212948500Y-75565803D01*
X212948500Y-74715959D01*
X212948501Y-74715946D01*
X212948501Y-74547845D01*
X212948501Y-74547843D01*
X212907577Y-74395115D01*
X212907575Y-74395112D01*
X212907575Y-74395110D01*
X212904465Y-74387601D01*
X212907663Y-74386276D01*
X212894936Y-74333905D01*
X212917762Y-74267869D01*
X212972665Y-74224656D01*
X213042216Y-74217986D01*
X213066250Y-74225194D01*
X213125498Y-74249735D01*
X213125503Y-74249737D01*
X213280153Y-74280499D01*
X213280156Y-74280500D01*
X213280158Y-74280500D01*
X213437844Y-74280500D01*
X213437845Y-74280499D01*
X213592497Y-74249737D01*
X213738179Y-74189394D01*
X213869289Y-74101789D01*
X213980789Y-73990289D01*
X214068394Y-73859179D01*
X214128737Y-73713497D01*
X214159500Y-73558842D01*
X214159500Y-73401158D01*
X214159500Y-73401155D01*
X214159499Y-73401153D01*
X214144560Y-73326050D01*
X214128737Y-73246503D01*
X214116002Y-73215758D01*
X214068397Y-73100827D01*
X214068390Y-73100814D01*
X213980789Y-72969711D01*
X213980786Y-72969707D01*
X213864982Y-72853903D01*
X213866724Y-72852160D01*
X213833490Y-72803341D01*
X213827500Y-72765267D01*
X213827500Y-65815018D01*
X213847185Y-65747979D01*
X213899989Y-65702224D01*
X213919407Y-65695243D01*
X213922180Y-65694500D01*
X213922183Y-65694500D01*
X214055836Y-65658688D01*
X214175665Y-65589505D01*
X214273505Y-65491665D01*
X214273505Y-65491664D01*
X214279252Y-65485918D01*
X214281629Y-65488295D01*
X214325491Y-65456294D01*
X214367393Y-65449000D01*
X214983000Y-65449000D01*
X214983000Y-65949000D01*
G37*
%TD.AperFunction*%
%TA.AperFunction,Conductor*%
G36*
X217980327Y-74148770D02*
G01*
X218009390Y-74152245D01*
X218015588Y-74156440D01*
X218020004Y-74157401D01*
X218048258Y-74178552D01*
X218069181Y-74199474D01*
X218083284Y-74213577D01*
X218145916Y-74249737D01*
X218177321Y-74267869D01*
X218220212Y-74292633D01*
X218220214Y-74292633D01*
X218220215Y-74292634D01*
X218372943Y-74333557D01*
X218372945Y-74333557D01*
X218531054Y-74333557D01*
X218531057Y-74333557D01*
X218677667Y-74294273D01*
X218747514Y-74295936D01*
X218805377Y-74335098D01*
X218832881Y-74399327D01*
X218832231Y-74433445D01*
X218813500Y-74551712D01*
X218813500Y-74551713D01*
X218813500Y-74764287D01*
X218821998Y-74817942D01*
X218846754Y-74974244D01*
X218846754Y-74974247D01*
X218860491Y-75016523D01*
X218862486Y-75086364D01*
X218830241Y-75142522D01*
X218214612Y-75758151D01*
X218210382Y-75760460D01*
X218207759Y-75764507D01*
X218180008Y-75777045D01*
X218153289Y-75791636D01*
X218147269Y-75791838D01*
X218144087Y-75793277D01*
X218130119Y-75792417D01*
X218108794Y-75793136D01*
X218101727Y-75792091D01*
X217997000Y-75764029D01*
X217911939Y-75764029D01*
X217902917Y-75762695D01*
X217879138Y-75751721D01*
X217854015Y-75744344D01*
X217841766Y-75734473D01*
X217839477Y-75733417D01*
X217838445Y-75731797D01*
X217833373Y-75727710D01*
X217559016Y-75453353D01*
X217559014Y-75453350D01*
X217440143Y-75334479D01*
X217440142Y-75334478D01*
X217364558Y-75290840D01*
X217303214Y-75255423D01*
X217303213Y-75255422D01*
X217265030Y-75245191D01*
X217150484Y-75214498D01*
X216992370Y-75214498D01*
X216986247Y-75214498D01*
X216986236Y-75214499D01*
X216860040Y-75214499D01*
X216793001Y-75194814D01*
X216772359Y-75178180D01*
X216718660Y-75124481D01*
X216718659Y-75124480D01*
X216634579Y-75075937D01*
X216586364Y-75025371D01*
X216573140Y-74956764D01*
X216599108Y-74891899D01*
X216656022Y-74851370D01*
X216696579Y-74844550D01*
X217016323Y-74844550D01*
X217016339Y-74844551D01*
X217023935Y-74844551D01*
X217182046Y-74844551D01*
X217182049Y-74844551D01*
X217334777Y-74803627D01*
X217384896Y-74774689D01*
X217471708Y-74724570D01*
X217583512Y-74612766D01*
X217583512Y-74612764D01*
X217593720Y-74602557D01*
X217593722Y-74602554D01*
X217616506Y-74579770D01*
X217616511Y-74579766D01*
X217626714Y-74569562D01*
X217626716Y-74569562D01*
X217738520Y-74457758D01*
X217817577Y-74320826D01*
X217840805Y-74234137D01*
X217843963Y-74228956D01*
X217844396Y-74222902D01*
X217861933Y-74199474D01*
X217877167Y-74174481D01*
X217882627Y-74171828D01*
X217886266Y-74166968D01*
X217913688Y-74156739D01*
X217940014Y-74143951D01*
X217946041Y-74144671D01*
X217951730Y-74142550D01*
X217980327Y-74148770D01*
G37*
%TD.AperFunction*%
%TA.AperFunction,Conductor*%
G36*
X201175075Y-67283993D02*
G01*
X201240901Y-67398007D01*
X201333993Y-67491099D01*
X201448007Y-67556925D01*
X201511590Y-67573962D01*
X200879282Y-68206269D01*
X200879282Y-68206270D01*
X200933452Y-68245626D01*
X200933451Y-68245626D01*
X200942495Y-68250234D01*
X200993292Y-68298208D01*
X201010087Y-68366029D01*
X200987550Y-68432164D01*
X200942499Y-68471202D01*
X200933182Y-68475949D01*
X200761213Y-68600890D01*
X200610890Y-68751213D01*
X200485950Y-68923180D01*
X200484984Y-68925078D01*
X200484424Y-68925669D01*
X200483404Y-68927336D01*
X200483053Y-68927121D01*
X200437009Y-68975873D01*
X200369187Y-68992667D01*
X200303053Y-68970128D01*
X200259602Y-68915413D01*
X200250500Y-68868781D01*
X200250500Y-67852116D01*
X200270185Y-67785077D01*
X200322989Y-67739322D01*
X200392147Y-67729378D01*
X200455703Y-67758403D01*
X200484987Y-67795826D01*
X200486374Y-67798548D01*
X200525728Y-67852716D01*
X201158037Y-67220408D01*
X201175075Y-67283993D01*
G37*
%TD.AperFunction*%
%TA.AperFunction,Conductor*%
G36*
X221279270Y-67799717D02*
G01*
X221282845Y-67799435D01*
X221330512Y-67762679D01*
X221400125Y-67756700D01*
X221461920Y-67789305D01*
X221496277Y-67850144D01*
X221499500Y-67878230D01*
X221499500Y-68736916D01*
X221479815Y-68803955D01*
X221427011Y-68849710D01*
X221357853Y-68859654D01*
X221294297Y-68830629D01*
X221275182Y-68809801D01*
X221194109Y-68698214D01*
X221194105Y-68698209D01*
X221043786Y-68547890D01*
X220871817Y-68422949D01*
X220862504Y-68418204D01*
X220811707Y-68370230D01*
X220794912Y-68302409D01*
X220817449Y-68236274D01*
X220862507Y-68197232D01*
X220871555Y-68192622D01*
X220925716Y-68153270D01*
X220925717Y-68153270D01*
X220293408Y-67520962D01*
X220356993Y-67503925D01*
X220471007Y-67438099D01*
X220564099Y-67345007D01*
X220629925Y-67230993D01*
X220646962Y-67167408D01*
X221279270Y-67799717D01*
G37*
%TD.AperFunction*%
%TA.AperFunction,Conductor*%
G36*
X219698075Y-67230993D02*
G01*
X219763901Y-67345007D01*
X219856993Y-67438099D01*
X219971007Y-67503925D01*
X220034590Y-67520962D01*
X219402282Y-68153269D01*
X219402282Y-68153270D01*
X219456452Y-68192626D01*
X219456451Y-68192626D01*
X219465495Y-68197234D01*
X219468422Y-68199998D01*
X219472325Y-68200989D01*
X219493611Y-68223787D01*
X219516292Y-68245208D01*
X219517259Y-68249116D01*
X219520007Y-68252059D01*
X219525588Y-68282747D01*
X219533087Y-68313029D01*
X219531788Y-68316839D01*
X219532509Y-68320802D01*
X219520611Y-68349638D01*
X219510550Y-68379164D01*
X219506955Y-68382738D01*
X219505861Y-68385390D01*
X219497235Y-68392401D01*
X219480063Y-68409476D01*
X219473073Y-68414343D01*
X219456184Y-68422949D01*
X219351507Y-68499000D01*
X219350444Y-68499741D01*
X219318456Y-68510437D01*
X219286660Y-68521782D01*
X219285404Y-68521489D01*
X219284181Y-68521899D01*
X219251468Y-68513598D01*
X219218606Y-68505956D01*
X219217228Y-68504909D01*
X219216458Y-68504714D01*
X219215204Y-68503371D01*
X219191904Y-68485668D01*
X219098716Y-68392480D01*
X219098715Y-68392479D01*
X219094385Y-68388149D01*
X219094374Y-68388139D01*
X218375916Y-67669681D01*
X218342431Y-67608358D01*
X218347415Y-67538666D01*
X218375916Y-67494319D01*
X218488235Y-67382000D01*
X218629884Y-67240350D01*
X218691205Y-67206867D01*
X218760896Y-67211851D01*
X218816830Y-67253722D01*
X218840036Y-67308633D01*
X218847242Y-67354130D01*
X218912904Y-67556217D01*
X219009375Y-67745550D01*
X219048728Y-67799716D01*
X219681037Y-67167408D01*
X219698075Y-67230993D01*
G37*
%TD.AperFunction*%
%TA.AperFunction,Conductor*%
G36*
X200397944Y-65193127D02*
G01*
X200404313Y-65192855D01*
X200429339Y-65207465D01*
X200455703Y-65219505D01*
X200460530Y-65225674D01*
X200464653Y-65228081D01*
X200483395Y-65254669D01*
X200483404Y-65254664D01*
X200483487Y-65254800D01*
X200484988Y-65256929D01*
X200485951Y-65258820D01*
X200610890Y-65430786D01*
X200761213Y-65581109D01*
X200933179Y-65706048D01*
X200933181Y-65706049D01*
X200933184Y-65706051D01*
X200942493Y-65710794D01*
X200993290Y-65758766D01*
X201010087Y-65826587D01*
X200987552Y-65892722D01*
X200942505Y-65931760D01*
X200933446Y-65936376D01*
X200933440Y-65936380D01*
X200879282Y-65975727D01*
X200879282Y-65975728D01*
X201511591Y-66608037D01*
X201448007Y-66625075D01*
X201333993Y-66690901D01*
X201240901Y-66783993D01*
X201175075Y-66898007D01*
X201158037Y-66961590D01*
X200525728Y-66329282D01*
X200525727Y-66329282D01*
X200486380Y-66383440D01*
X200486378Y-66383443D01*
X200484984Y-66386180D01*
X200484180Y-66387030D01*
X200483838Y-66387590D01*
X200483720Y-66387517D01*
X200437009Y-66436976D01*
X200369188Y-66453770D01*
X200303053Y-66431232D01*
X200259602Y-66376516D01*
X200250500Y-66329884D01*
X200250500Y-65313218D01*
X200252295Y-65307101D01*
X200251120Y-65300838D01*
X200262020Y-65273983D01*
X200270185Y-65246179D01*
X200275000Y-65242006D01*
X200277399Y-65236098D01*
X200301093Y-65219396D01*
X200322989Y-65200424D01*
X200329297Y-65199516D01*
X200334508Y-65195844D01*
X200363465Y-65194604D01*
X200392147Y-65190480D01*
X200397944Y-65193127D01*
G37*
%TD.AperFunction*%
%TA.AperFunction,Conductor*%
G36*
X221461920Y-65250158D02*
G01*
X221496277Y-65310997D01*
X221499500Y-65339083D01*
X221499500Y-66197768D01*
X221479815Y-66264807D01*
X221427011Y-66310562D01*
X221357853Y-66320506D01*
X221294297Y-66291481D01*
X221280431Y-66276373D01*
X221279269Y-66276282D01*
X220646962Y-66908590D01*
X220629925Y-66845007D01*
X220564099Y-66730993D01*
X220471007Y-66637901D01*
X220356993Y-66572075D01*
X220293408Y-66555037D01*
X220925716Y-65922728D01*
X220871547Y-65883373D01*
X220871547Y-65883372D01*
X220862500Y-65878763D01*
X220811706Y-65830788D01*
X220794912Y-65762966D01*
X220817451Y-65696832D01*
X220862508Y-65657793D01*
X220871816Y-65653051D01*
X220951007Y-65595515D01*
X221043786Y-65528109D01*
X221043788Y-65528106D01*
X221043792Y-65528104D01*
X221194104Y-65377792D01*
X221194106Y-65377788D01*
X221194109Y-65377786D01*
X221275182Y-65266198D01*
X221330511Y-65223532D01*
X221400125Y-65217553D01*
X221461920Y-65250158D01*
G37*
%TD.AperFunction*%
%TA.AperFunction,Conductor*%
G36*
X219009836Y-63226738D02*
G01*
X219031925Y-63228318D01*
X219051362Y-63238931D01*
X219055630Y-63240185D01*
X219062902Y-63245233D01*
X219071668Y-63251795D01*
X219071671Y-63251797D01*
X219203082Y-63300810D01*
X219259016Y-63342681D01*
X219283433Y-63408145D01*
X219268582Y-63476418D01*
X219247431Y-63504673D01*
X219133889Y-63618215D01*
X219008951Y-63790179D01*
X218912444Y-63979585D01*
X218846753Y-64181760D01*
X218813500Y-64391713D01*
X218813500Y-64604286D01*
X218846753Y-64814240D01*
X218846754Y-64814244D01*
X218885313Y-64932918D01*
X218887308Y-65002759D01*
X218887157Y-65003328D01*
X218853499Y-65128943D01*
X218853499Y-65266903D01*
X218833814Y-65333942D01*
X218817180Y-65354584D01*
X217712584Y-66459181D01*
X217651261Y-66492666D01*
X217624903Y-66495500D01*
X217055727Y-66495500D01*
X217055711Y-66495499D01*
X217048115Y-66495499D01*
X216890000Y-66495499D01*
X216813636Y-66515961D01*
X216737271Y-66536423D01*
X216737266Y-66536426D01*
X216600347Y-66615475D01*
X216600339Y-66615481D01*
X216380922Y-66834898D01*
X216319599Y-66868383D01*
X216249907Y-66863399D01*
X216193974Y-66821527D01*
X216169557Y-66756063D01*
X216178680Y-66699764D01*
X216244570Y-66540689D01*
X216244572Y-66540681D01*
X216282999Y-66347495D01*
X216283000Y-66347492D01*
X216283000Y-65949000D01*
X215583000Y-65949000D01*
X215583000Y-65449000D01*
X216283000Y-65449000D01*
X216283000Y-65050508D01*
X216282999Y-65050504D01*
X216244572Y-64857318D01*
X216244569Y-64857306D01*
X216169192Y-64675328D01*
X216169185Y-64675315D01*
X216059751Y-64511537D01*
X216059748Y-64511533D01*
X215920466Y-64372251D01*
X215920462Y-64372248D01*
X215756684Y-64262814D01*
X215756671Y-64262807D01*
X215574691Y-64187429D01*
X215574683Y-64187427D01*
X215533000Y-64179135D01*
X215533000Y-64982011D01*
X215523060Y-64964795D01*
X215467205Y-64908940D01*
X215398796Y-64869444D01*
X215322496Y-64849000D01*
X215243504Y-64849000D01*
X215167204Y-64869444D01*
X215098795Y-64908940D01*
X215042940Y-64964795D01*
X215033000Y-64982011D01*
X215033000Y-64179136D01*
X215032999Y-64179135D01*
X214991316Y-64187427D01*
X214991308Y-64187429D01*
X214809328Y-64262807D01*
X214809315Y-64262814D01*
X214645537Y-64372248D01*
X214645533Y-64372251D01*
X214506251Y-64511533D01*
X214506248Y-64511537D01*
X214396814Y-64675315D01*
X214396808Y-64675327D01*
X214381623Y-64711986D01*
X214364945Y-64732680D01*
X214351322Y-64755506D01*
X214343359Y-64759465D01*
X214337781Y-64766388D01*
X214312565Y-64774780D01*
X214288762Y-64786618D01*
X214279922Y-64785644D01*
X214271487Y-64788452D01*
X214245732Y-64781878D01*
X214219312Y-64778968D01*
X214210070Y-64772775D01*
X214203788Y-64771172D01*
X214189006Y-64760880D01*
X214183970Y-64756800D01*
X214175665Y-64748495D01*
X214168892Y-64744584D01*
X214161299Y-64738433D01*
X214146778Y-64717403D01*
X214129141Y-64698906D01*
X214127256Y-64689129D01*
X214121600Y-64680937D01*
X214120754Y-64655395D01*
X214115917Y-64630299D01*
X214119617Y-64621055D01*
X214119288Y-64611105D01*
X214132385Y-64589160D01*
X214141884Y-64565434D01*
X214151676Y-64554402D01*
X214197786Y-64508292D01*
X214197789Y-64508289D01*
X214285394Y-64377179D01*
X214287437Y-64372248D01*
X214327365Y-64275851D01*
X214345737Y-64231497D01*
X214376500Y-64076842D01*
X214376500Y-63919158D01*
X214376500Y-63919155D01*
X214376499Y-63919153D01*
X214371868Y-63895873D01*
X214345737Y-63764503D01*
X214307096Y-63671215D01*
X214285397Y-63618827D01*
X214285390Y-63618814D01*
X214197789Y-63487711D01*
X214197786Y-63487707D01*
X214142260Y-63432181D01*
X214108775Y-63370858D01*
X214113759Y-63301166D01*
X214155631Y-63245233D01*
X214221095Y-63220816D01*
X214229941Y-63220500D01*
X218988591Y-63220500D01*
X219009836Y-63226738D01*
G37*
%TD.AperFunction*%
%TA.AperFunction,Conductor*%
G36*
X218984832Y-60520185D02*
G01*
X219030587Y-60572989D01*
X219040531Y-60642147D01*
X219011506Y-60705703D01*
X218992107Y-60723763D01*
X218956454Y-60750454D01*
X218956453Y-60750455D01*
X218956452Y-60750456D01*
X218870206Y-60865664D01*
X218870202Y-60865671D01*
X218819908Y-61000517D01*
X218813501Y-61060116D01*
X218813500Y-61060127D01*
X218813500Y-61480711D01*
X218813501Y-61895500D01*
X218793817Y-61962539D01*
X218741013Y-62008294D01*
X218689501Y-62019500D01*
X216407000Y-62019500D01*
X216339961Y-61999815D01*
X216294206Y-61947011D01*
X216283000Y-61895500D01*
X216283000Y-61769000D01*
X215583000Y-61769000D01*
X215583000Y-61269000D01*
X216283000Y-61269000D01*
X216283000Y-61120508D01*
X216282999Y-61120504D01*
X216244572Y-60927318D01*
X216244569Y-60927306D01*
X216169192Y-60745328D01*
X216169185Y-60745316D01*
X216134490Y-60693391D01*
X216113612Y-60626714D01*
X216132096Y-60559334D01*
X216184075Y-60512643D01*
X216237592Y-60500500D01*
X218917793Y-60500500D01*
X218984832Y-60520185D01*
G37*
%TD.AperFunction*%
%TD*%
M02*
